<svg width="80" height="80" viewBox="0 0 80 80" fill="none" xmlns="http://www.w3.org/2000/svg">
<circle cx="40.0001" cy="40.0003" r="33.3333" fill="#1070FC"/>
<path d="M31.6667 55.0003L55.0001 40.0003L31.6667 25.0003V55.0003ZM40.0001 73.3337C35.389 73.3337 31.0556 72.4581 27.0001 70.707C22.9445 68.9581 19.4167 66.5837 16.4167 63.5837C13.4167 60.5837 11.0423 57.0559 9.29342 53.0003C7.5423 48.9448 6.66675 44.6114 6.66675 40.0003C6.66675 35.3892 7.5423 31.0559 9.29342 27.0003C11.0423 22.9448 13.4167 19.417 16.4167 16.417C19.4167 13.417 22.9445 11.0414 27.0001 9.29033C31.0556 7.54144 35.389 6.66699 40.0001 6.66699C44.6112 6.66699 48.9445 7.54144 53.0001 9.29033C57.0556 11.0414 60.5834 13.417 63.5834 16.417C66.5834 19.417 68.9579 22.9448 70.7067 27.0003C72.4579 31.0559 73.3334 35.3892 73.3334 40.0003C73.3334 44.6114 72.4579 48.9448 70.7067 53.0003C68.9579 57.0559 66.5834 60.5837 63.5834 63.5837C60.5834 66.5837 57.0556 68.9581 53.0001 70.707C48.9445 72.4581 44.6112 73.3337 40.0001 73.3337Z" fill="white"/>
</svg>
