<svg width="30" height="30" viewBox="0 0 30 30" fill="none" xmlns="http://www.w3.org/2000/svg">
<path d="M21.5925 13.1438C21.8869 11.1788 20.3897 10.1222 18.3441 9.41719L19.0078 6.75469L17.3878 6.35156L16.7409 8.94375C16.3153 8.83687 15.8784 8.7375 15.4425 8.63812L16.0941 6.02906L14.4741 5.625L13.8103 8.28656C13.4578 8.20594 13.1109 8.12719 12.7753 8.04281L12.7772 8.03437L10.5422 7.47656L10.1109 9.20719C10.1109 9.20719 11.3138 9.48281 11.2884 9.49969C11.9447 9.66375 12.0628 10.0978 12.0431 10.4428L11.2875 13.4756C11.3325 13.4869 11.3906 13.5037 11.4563 13.5291L11.2847 13.4869L10.2253 17.7356C10.1447 17.9344 9.94125 18.2334 9.48188 18.12C9.49875 18.1434 8.30438 17.8266 8.30438 17.8266L7.5 19.6809L9.60938 20.2069C10.0013 20.3053 10.3856 20.4084 10.7634 20.505L10.0931 23.1975L11.7122 23.6006L12.3759 20.9381C12.8184 21.0572 13.2478 21.1678 13.6678 21.2728L13.0059 23.9241L14.6259 24.3272L15.2962 21.6403C18.06 22.1634 20.1375 21.9525 21.0122 19.4531C21.7172 17.4412 20.9775 16.2797 19.5234 15.5231C20.5828 15.2794 21.3797 14.5828 21.5925 13.1438ZM17.8894 18.3356C17.3897 20.3484 14.0006 19.26 12.9019 18.9872L13.7925 15.42C14.8913 15.6947 18.4134 16.2375 17.8894 18.3356ZM18.3909 13.1147C17.9344 14.9456 15.1144 14.0147 14.2003 13.7869L15.0066 10.5525C15.9206 10.7803 18.8672 11.205 18.3909 13.1147Z" fill="#F2C94C"/>
</svg>
