<svg width="60" height="60" viewBox="0 0 60 60" fill="none" xmlns="http://www.w3.org/2000/svg">
<path d="M46.9624 39.7986C48.5957 36.9441 49.5408 33.6415 49.5408 30.1232C49.5408 26.6049 48.6786 23.601 47.178 20.8378L46.8215 21.0203L43.2317 22.8791L42.5436 23.2359L37.7682 25.7917C36.2593 23.1114 33.3825 21.2942 30.0912 21.2942C25.2246 21.2942 21.2783 25.244 21.2783 30.1149C21.2783 34.9858 25.2246 38.9356 30.0912 38.9356C33.3659 38.9356 36.2179 37.1433 37.7434 34.4879L43.1737 37.5748L46.9624 39.7986Z" fill="#1BEEF4"/>
<path d="M40.8443 20.7799L45.2134 17.9005C42.8506 14.9879 39.6753 12.7723 36.0192 11.6023C35.8866 11.5608 35.7622 11.511 35.6296 11.4696V7.85994L31.8076 7.01355V15.9836H31.8739C35.4389 16.44 38.5893 18.2075 40.836 20.7882L40.8443 20.7799Z" fill="#1BEEF4"/>
<path d="M28.4 49.4991L28.4331 44.2631C21.353 43.4333 15.8647 37.4256 15.8647 30.1151C15.8647 22.8046 21.1292 17.0624 27.9855 16.0417V6.98035L24.1718 7.83504V11.594H24.1552C16.3289 14.1166 10.6582 21.452 10.6582 30.1234C10.6582 38.7947 16.5362 46.404 24.578 48.7855V52.1794L28.3917 53.0257V49.5074L28.4 49.4991Z" fill="#1BEEF4"/>
<path d="M32.0395 44.2215V53.0173L35.8532 52.1709V48.7024C39.3435 47.6237 42.411 45.5907 44.749 42.9021L40.413 39.9149C38.2409 42.2051 35.3143 43.7651 32.0312 44.2215H32.0395Z" fill="#1BEEF4"/>
</svg>
