<svg width="30" height="30" viewBox="0 0 30 30" fill="none" xmlns="http://www.w3.org/2000/svg">
<path fill-rule="evenodd" clip-rule="evenodd" d="M16.5206 16.4662V16.4644C16.4175 16.4719 15.8859 16.5037 14.7 16.5037C13.7531 16.5037 13.0866 16.4756 12.8522 16.4644V16.4672C9.20719 16.3069 6.48656 15.6722 6.48656 14.9128C6.48656 14.1544 9.20719 13.5197 12.8522 13.3566V15.8353C13.0903 15.8522 13.7728 15.8925 14.7159 15.8925C15.8475 15.8925 16.4147 15.8456 16.5206 15.8362V13.3584C20.1581 13.5206 22.8722 14.1553 22.8722 14.9128C22.8722 15.6722 20.1581 16.305 16.5206 16.4662ZM16.5206 13.1006V10.8825H21.5962V7.5H7.77656V10.8825H12.8522V13.0997C8.72719 13.2891 5.625 14.1066 5.625 15.0853C5.625 16.0641 8.72719 16.8806 12.8522 17.0709V24.1791H16.5206V17.0691C20.6391 16.8797 23.7337 16.0631 23.7337 15.0853C23.7337 14.1075 20.6391 13.2909 16.5206 13.1006Z" fill="#44FFC5"/>
</svg>
