<svg width="60" height="60" viewBox="0 0 60 60" fill="none" xmlns="http://www.w3.org/2000/svg">
<path d="M43.2562 15H48.675L37.3969 26.1694C35.4251 28.1121 32.7681 29.2011 30 29.2011C27.2319 29.2011 24.5749 28.1121 22.6031 26.1694L11.3156 15H16.7438L25.3125 23.4806C26.5603 24.7122 28.243 25.4028 29.9963 25.4028C31.7495 25.4028 33.4322 24.7122 34.68 23.4806L43.2562 15ZM16.6781 46.0556H11.25L22.6031 34.8188C24.5749 32.876 27.2319 31.787 30 31.787C32.7681 31.787 35.4251 32.876 37.3969 34.8188L48.75 46.0538H43.3219L34.6875 37.5C33.4397 36.2684 31.757 35.5778 30.0038 35.5778C28.2505 35.5778 26.5678 36.2684 25.32 37.5L16.6762 46.0556H16.6781Z" fill="white"/>
</svg>
