<svg width="30" height="30" viewBox="0 0 30 30" fill="none" xmlns="http://www.w3.org/2000/svg">
<g clip-path="url(#clip0_738_1421)">
<path d="M4.07139 4.28564C3.00666 4.28564 2.14282 5.14948 2.14282 6.21422V22.9285C2.14282 23.9932 3.00666 24.8571 4.07139 24.8571H7.92854V21.6428C7.92854 20.5781 8.79238 19.7142 9.85711 19.7142C10.9218 19.7142 11.7857 20.5781 11.7857 21.6428V24.8571H15.3977C15.1446 24.4473 15 23.9651 15 23.4468C15 21.5624 16.0366 19.9191 17.5714 19.0593V6.21422C17.5714 5.14948 16.7076 4.28564 15.6428 4.28564H4.07139ZM4.71425 13.9285C4.71425 13.5749 5.00354 13.2856 5.35711 13.2856H6.64282C6.99639 13.2856 7.28568 13.5749 7.28568 13.9285V15.2142C7.28568 15.5678 6.99639 15.8571 6.64282 15.8571H5.35711C5.00354 15.8571 4.71425 15.5678 4.71425 15.2142V13.9285ZM9.21425 13.2856H10.5C10.8535 13.2856 11.1428 13.5749 11.1428 13.9285V15.2142C11.1428 15.5678 10.8535 15.8571 10.5 15.8571H9.21425C8.86068 15.8571 8.57139 15.5678 8.57139 15.2142V13.9285C8.57139 13.5749 8.86068 13.2856 9.21425 13.2856ZM12.4285 13.9285C12.4285 13.5749 12.7178 13.2856 13.0714 13.2856H14.3571C14.7107 13.2856 15 13.5749 15 13.9285V15.2142C15 15.5678 14.7107 15.8571 14.3571 15.8571H13.0714C12.7178 15.8571 12.4285 15.5678 12.4285 15.2142V13.9285ZM5.35711 8.14279H6.64282C6.99639 8.14279 7.28568 8.43207 7.28568 8.78564V10.0714C7.28568 10.4249 6.99639 10.7142 6.64282 10.7142H5.35711C5.00354 10.7142 4.71425 10.4249 4.71425 10.0714V8.78564C4.71425 8.43207 5.00354 8.14279 5.35711 8.14279ZM8.57139 8.78564C8.57139 8.43207 8.86068 8.14279 9.21425 8.14279H10.5C10.8535 8.14279 11.1428 8.43207 11.1428 8.78564V10.0714C11.1428 10.4249 10.8535 10.7142 10.5 10.7142H9.21425C8.86068 10.7142 8.57139 10.4249 8.57139 10.0714V8.78564ZM13.0714 8.14279H14.3571C14.7107 8.14279 15 8.43207 15 8.78564V10.0714C15 10.4249 14.7107 10.7142 14.3571 10.7142H13.0714C12.7178 10.7142 12.4285 10.4249 12.4285 10.0714V8.78564C12.4285 8.43207 12.7178 8.14279 13.0714 8.14279ZM25.2857 15.2142C25.2857 13.4383 23.8473 11.9999 22.0714 11.9999C20.2955 11.9999 18.8571 13.4383 18.8571 15.2142C18.8571 16.9901 20.2955 18.4285 22.0714 18.4285C23.8473 18.4285 25.2857 16.9901 25.2857 15.2142ZM16.2857 23.4548C16.2857 24.2303 16.9125 24.8571 17.6879 24.8571H26.4549C27.2303 24.8571 27.8571 24.2303 27.8571 23.4548C27.8571 21.3897 26.1817 19.7142 24.1165 19.7142H20.0263C17.9611 19.7142 16.2857 21.3897 16.2857 23.4548Z" fill="url(#paint0_linear_738_1421)"/>
</g>
<defs>
<linearGradient id="paint0_linear_738_1421" x1="14.9556" y1="-2.09549" x2="14.9556" y2="33.1426" gradientUnits="userSpaceOnUse">
<stop stop-color="#1070FC"/>
<stop offset="1" stop-color="#05CEC2"/>
</linearGradient>
<clipPath id="clip0_738_1421">
<rect width="25.7143" height="20.5714" fill="white" transform="translate(2.14282 4.28564)"/>
</clipPath>
</defs>
</svg>
