<svg width="24" height="24" viewBox="0 0 24 24" fill="none" xmlns="http://www.w3.org/2000/svg">
<path opacity="0.8" d="M23 12C23 18.08 18.08 23 12 23C5.92 23 1 18.08 1 12C1 5.92 5.92 1 12 1C18.08 1 23 5.92 23 12ZM13 4.06C15.13 4.33 17.07 5.45 18.37 7.16L20.11 6.16C19.2883 5.00142 18.2292 4.03118 17.0032 3.31388C15.7773 2.59659 14.4126 2.14868 13 2V4.06ZM3.89 6.16L5.63 7.16C6.27463 6.31282 7.08143 5.60242 8.00338 5.07019C8.92533 4.53796 9.94399 4.19456 11 4.06V2C9.58742 2.14868 8.22271 2.59659 6.99675 3.31388C5.77079 4.03118 4.7117 5.00142 3.89 6.16ZM2.89 16.1L4.62 15.1C4.20909 14.1181 3.99749 13.0644 3.99749 12C3.99749 10.9356 4.20909 9.88186 4.62 8.9L2.89 7.9C2.30191 9.18684 1.99754 10.5851 1.99754 12C1.99754 13.4149 2.30191 14.8132 2.89 16.1ZM11 19.94C9.94399 19.8054 8.92533 19.462 8.00338 18.9298C7.08143 18.3976 6.27463 17.6872 5.63 16.84L3.89 17.84C4.7117 18.9986 5.77079 19.9688 6.99675 20.6861C8.22271 21.4034 9.58742 21.8513 11 22V19.94ZM20.11 17.84L18.37 16.84C17.7254 17.6872 16.9186 18.3976 15.9966 18.9298C15.0747 19.462 14.056 19.8054 13 19.94V21.94C15.85 21.65 18.44 20.16 20.11 17.84ZM21.11 16.1C22.3 13.5 22.3 10.5 21.11 7.9L19.38 8.9C19.7909 9.88186 20.0025 10.9356 20.0025 12C20.0025 13.0644 19.7909 14.1181 19.38 15.1L21.11 16.1ZM15 12L12 7L9 12L12 17L15 12Z" fill="url(#paint0_linear_169_3918)"/>
<defs>
<linearGradient id="paint0_linear_169_3918" x1="11.9621" y1="-5.82427" x2="11.9621" y2="31.8609" gradientUnits="userSpaceOnUse">
<stop stop-color="#1070FC"/>
<stop offset="1" stop-color="#05CEC2"/>
</linearGradient>
</defs>
</svg>
