<svg width="26" height="29" viewBox="0 0 26 29" fill="none" xmlns="http://www.w3.org/2000/svg">
<g clip-path="url(#clip0_807_2615)">
<path d="M17.0974 0H8.90275C7.10538 0 5.64966 1.47203 5.64966 3.28954V8.13622C5.64966 9.95373 7.10538 11.4258 8.90275 11.4258H10.9328L12.5817 13.8942C12.75 14.1445 13.0867 14.2096 13.3343 14.0344C13.3888 13.9943 13.4383 13.9492 13.4729 13.8942L15.1218 11.4258H17.0974C18.8948 11.4258 20.3505 9.95373 20.3505 8.13622V3.28954C20.3505 1.47203 18.8948 0 17.0974 0ZM13.4086 9.25276C13.3838 9.2778 13.359 9.30283 13.3293 9.32286C13.2996 9.34289 13.2699 9.36292 13.2353 9.37293C13.2056 9.38795 13.1709 9.39796 13.1362 9.40297C13.1016 9.40297 13.0669 9.40297 13.0323 9.40297C12.9629 9.40297 12.8887 9.38795 12.8243 9.36292C12.7896 9.34789 12.7599 9.33287 12.7302 9.31285C12.7005 9.29282 12.6708 9.27279 12.651 9.24275C12.547 9.14261 12.4925 9.00242 12.4925 8.85722C12.4925 8.82217 12.4925 8.78712 12.4925 8.75207C12.4975 8.71702 12.5074 8.68198 12.5223 8.65193C12.5371 8.61689 12.552 8.58684 12.5718 8.5568C12.6163 8.50673 12.6757 8.46668 12.7352 8.43664C12.7649 8.41661 12.7946 8.40159 12.8292 8.38657C12.8639 8.37155 12.8986 8.36153 12.9332 8.35653C13.1115 8.32148 13.2947 8.37655 13.4234 8.50673C13.4482 8.53177 13.4729 8.5568 13.4927 8.58684C13.5125 8.61689 13.5274 8.64693 13.5423 8.68198C13.5571 8.71702 13.567 8.74707 13.5769 8.78211C13.5769 8.81716 13.5769 8.85221 13.5769 8.88726C13.5769 9.02245 13.5175 9.15763 13.4234 9.25276H13.4086ZM13.8146 6.67421L13.6858 6.79437C13.6116 6.92956 13.572 7.07977 13.5769 7.23498C13.5769 7.53539 13.3343 7.78574 13.0323 7.78574C12.7302 7.78574 12.4876 7.5404 12.4876 7.23498C12.4826 6.79437 12.6312 6.36378 12.9184 6.02832C12.9629 5.98325 13.0174 5.93318 13.0867 5.86809C13.4234 5.56267 14.1166 4.9268 14.1166 4.22082C14.1562 3.65504 13.7304 3.15936 13.1659 3.12431C13.1214 3.12431 13.0768 3.12431 13.0323 3.12431C12.4727 3.08425 11.9825 3.51485 11.9479 4.08564C11.9479 4.1307 11.9479 4.17576 11.9479 4.22082C11.9479 4.52124 11.7053 4.77158 11.4032 4.77158C11.1012 4.77158 10.8586 4.52624 10.8586 4.22082C10.819 3.04921 11.73 2.06785 12.8887 2.0278C12.9332 2.0278 12.9827 2.0278 13.0273 2.0278C14.1859 1.98774 15.1564 2.90901 15.196 4.08063C15.196 4.12569 15.196 4.17576 15.196 4.22082C15.196 5.41747 14.2602 6.26364 13.8096 6.67921L13.8146 6.67421Z" fill="url(#paint0_linear_807_2615)"/>
<path d="M11.2645 22.8615V21.109C11.2645 20.9789 11.2249 20.8787 11.1407 20.7936C11.0566 20.7085 10.9575 20.6684 10.8288 20.6684H8.22929V18.0398C8.22929 17.9096 8.18968 17.8095 8.1055 17.7244C8.02133 17.6393 7.9223 17.5992 7.79356 17.5992H6.06056C5.93182 17.5992 5.83279 17.6393 5.74862 17.7244C5.6694 17.8045 5.62483 17.9096 5.62483 18.0398V20.6684H3.03523C2.90649 20.6684 2.80747 20.7085 2.72329 20.7936C2.64407 20.8737 2.59951 20.9789 2.59951 21.109V22.8615C2.59951 22.9916 2.63912 23.0918 2.72329 23.1769C2.80251 23.257 2.90649 23.3021 3.03523 23.3021H5.63474V25.9307C5.63474 26.0609 5.67435 26.161 5.75852 26.2461C5.83775 26.3262 5.94173 26.3713 6.07046 26.3713H7.80347C7.9322 26.3713 8.03123 26.3312 8.11541 26.2461C8.19463 26.166 8.23919 26.0609 8.23919 25.9307V23.3021H10.8387C10.9674 23.3021 11.0665 23.262 11.1506 23.1769C11.2299 23.0968 11.2744 22.9916 11.2744 22.8615H11.2645ZM19.063 23.7377C19.063 23.252 18.8947 22.8414 18.553 22.496C18.2163 22.1555 17.8054 21.9802 17.3251 21.9802C16.8448 21.9802 16.4388 22.1505 16.0971 22.496C15.7604 22.8364 15.5871 23.252 15.5871 23.7377C15.5871 24.2233 15.7555 24.6339 16.0971 24.9794C16.4338 25.3199 16.8448 25.4951 17.3251 25.4951C17.8054 25.4951 18.2114 25.3249 18.553 24.9794C18.8897 24.6389 19.063 24.2233 19.063 23.7377ZM22.529 20.2328C22.529 19.7472 22.3607 19.3366 22.019 18.9911C21.6823 18.6507 21.2714 18.4754 20.7911 18.4754C20.3108 18.4754 19.9048 18.6456 19.5631 18.9911C19.2264 19.3316 19.0531 19.7472 19.0531 20.2328C19.0531 20.7185 19.2215 21.1291 19.5631 21.4746C19.8998 21.815 20.3108 21.9903 20.7911 21.9903C21.2714 21.9903 21.6774 21.82 22.019 21.4746C22.3557 21.1341 22.529 20.7185 22.529 20.2328ZM25.9951 21.9853C25.9951 23.9229 25.3167 25.5752 23.965 26.9421C22.6132 28.309 20.9743 28.9949 19.063 28.9949C17.33 28.9949 15.805 28.4091 14.4879 27.2425H11.5071C10.1901 28.4091 8.66502 28.9949 6.93201 28.9949C5.01581 28.9949 3.38183 28.309 2.03009 26.9421C0.678347 25.5752 0 23.9179 0 21.9853C0 20.0526 0.678347 18.3953 2.03009 17.0284C3.38183 15.6615 5.02076 14.9756 6.93201 14.9756H19.063C20.9792 14.9756 22.6132 15.6615 23.965 17.0284C25.3167 18.3953 25.9951 20.0526 25.9951 21.9853Z" fill="url(#paint1_linear_807_2615)"/>
</g>
<defs>
<linearGradient id="paint0_linear_807_2615" x1="12.9747" y1="-4.38399" x2="12.9747" y2="19.8254" gradientUnits="userSpaceOnUse">
<stop stop-color="#1070FC"/>
<stop offset="1" stop-color="#05CEC2"/>
</linearGradient>
<linearGradient id="paint1_linear_807_2615" x1="12.9527" y1="10.6269" x2="12.9527" y2="34.6415" gradientUnits="userSpaceOnUse">
<stop stop-color="#1070FC"/>
<stop offset="1" stop-color="#05CEC2"/>
</linearGradient>
<clipPath id="clip0_807_2615">
<rect width="26" height="29" fill="white"/>
</clipPath>
</defs>
</svg>
