<svg width="24" height="24" viewBox="0 0 24 24" fill="none" xmlns="http://www.w3.org/2000/svg">
  <defs>
    <linearGradient id="paint0_linear_169_3914" x1="11.9703" y1="-3.27784" x2="11.9703" y2="29.0237" gradientUnits="userSpaceOnUse">
      <stop stop-color="#1070FC"/>
      <stop offset="1" stop-color="#05CEC2"/>
    </linearGradient>
    </defs>
  <path d="M5.57132 21.4287C4.98204 21.4287 4.47775 21.2178 4.05847 20.7962C3.63847 20.3738 3.42847 19.8662 3.42847 19.2736V9.57561C3.42847 9.23439 3.50454 8.91113 3.65668 8.60582C3.80811 8.30051 4.01775 8.04908 4.28561 7.85153L10.7142 3.00255C10.9106 2.85888 11.116 2.75112 11.3303 2.67929C11.5445 2.60745 11.7678 2.57153 11.9999 2.57153C12.232 2.57153 12.4553 2.60745 12.6695 2.67929C12.8838 2.75112 13.0892 2.85888 13.2856 3.00255L19.7142 7.85153C19.982 8.04908 20.192 8.30051 20.3442 8.60582C20.4956 8.91113 20.5713 9.23439 20.5713 9.57561V19.2736C20.5713 19.8662 20.3617 20.3738 19.9424 20.7962C19.5224 21.2178 19.0178 21.4287 18.4285 21.4287H14.1428V13.8858H9.85704V21.4287H5.57132Z" fill="url(#paint0_linear_169_3914)"/>
</svg>
