<svg width="20" height="20" viewBox="0 0 20 20" fill="none" xmlns="http://www.w3.org/2000/svg">
<g clip-path="url(#clip0_807_2582)">
<path d="M7.5084 16.1333C7.47507 16.1333 7.45006 16.1083 7.45006 16.0749V13.5291C7.3084 13.4958 7.19173 13.4708 7.12507 13.4583H6.20006V16.0791C6.20006 16.7999 6.78757 17.3874 7.5084 17.3874C7.54173 17.3874 7.56673 17.4124 7.56673 17.4458V18.4874C7.56673 18.5208 7.54173 18.5458 7.5084 18.5458H4.25006C3.92923 18.5458 3.6709 18.2874 3.6709 17.9666V13.4541H3.0459C2.8334 13.4541 2.62507 13.4333 2.4209 13.3916V17.9624C2.4209 18.9708 3.24173 19.7916 4.25006 19.7916H7.50423C8.22507 19.7916 8.81256 19.2041 8.81256 18.4833V17.4416C8.81311 17.27 8.77979 17.0999 8.71449 16.9412C8.64919 16.7825 8.55322 16.6383 8.43206 16.5167C8.3109 16.3952 8.16695 16.2987 8.00845 16.2329C7.84994 16.1671 7.68002 16.1333 7.5084 16.1333Z" fill="url(#paint0_linear_807_2582)"/>
<path d="M18.6501 0.208496H15.9293C15.9168 0.208496 15.9043 0.212663 15.8876 0.212663C15.8376 0.216829 15.7876 0.229329 15.7418 0.241829C15.7334 0.245996 15.7209 0.245996 15.7126 0.250163C15.6584 0.270996 15.6126 0.300163 15.5668 0.337663C15.5584 0.345996 15.5459 0.354329 15.5376 0.362663C15.4918 0.400163 15.4543 0.445996 15.4209 0.495996L15.4168 0.500163C13.6043 3.4085 7.7376 4.42933 7.20843 4.52933H3.04593C1.76676 4.52933 0.725098 5.571 0.725098 6.85016V10.296C0.725098 11.5752 1.76676 12.6168 3.04593 12.6168H7.20427C7.73343 12.7168 13.6001 13.7377 15.4126 16.646C15.4126 16.6502 15.4168 16.6502 15.4168 16.6543C15.4418 16.696 15.4751 16.7335 15.5084 16.7668C15.5168 16.7752 15.5251 16.7793 15.5334 16.7877C15.5626 16.8127 15.5918 16.8335 15.6209 16.8543C15.6334 16.8627 15.6459 16.871 15.6584 16.8752C15.6876 16.8918 15.7209 16.9043 15.7543 16.9127L15.7918 16.9252C15.8376 16.9377 15.8876 16.9418 15.9334 16.9418H18.6376C18.9834 16.9418 19.2626 16.6627 19.2626 16.3168V0.833496C19.2751 0.487663 18.9959 0.208496 18.6501 0.208496Z" fill="url(#paint1_linear_807_2582)"/>
</g>
<defs>
<linearGradient id="paint0_linear_807_2582" x1="5.60571" y1="11.4064" x2="5.60571" y2="22.3693" gradientUnits="userSpaceOnUse">
<stop stop-color="#1070FC"/>
<stop offset="1" stop-color="#05CEC2"/>
</linearGradient>
<linearGradient id="paint1_linear_807_2582" x1="9.96207" y1="-4.98209" x2="9.96207" y2="23.6815" gradientUnits="userSpaceOnUse">
<stop stop-color="#1070FC"/>
<stop offset="1" stop-color="#05CEC2"/>
</linearGradient>
<clipPath id="clip0_807_2582">
<rect width="20" height="20" fill="white"/>
</clipPath>
</defs>
</svg>
