<svg width="24" height="24" viewBox="0 0 24 24" fill="none" xmlns="http://www.w3.org/2000/svg">
<g opacity="0.8">
<path d="M20.0001 12.9998V19.9998C20.0001 20.265 19.8948 20.5193 19.7072 20.7069C19.5197 20.8944 19.2653 20.9998 19.0001 20.9998H5.00012C4.73491 20.9998 4.48055 20.8944 4.29302 20.7069C4.10548 20.5193 4.00012 20.265 4.00012 19.9998V12.9998H20.0001ZM14.5001 1.99976C15.0908 1.99956 15.6719 2.14883 16.1893 2.43369C16.7067 2.71854 17.1436 3.12971 17.4593 3.62889C17.7751 4.12808 17.9593 4.69904 17.9949 5.28861C18.0306 5.87818 17.9164 6.46719 17.6631 7.00076L21.0001 6.99976C21.2653 6.99976 21.5197 7.10512 21.7072 7.29265C21.8948 7.48019 22.0001 7.73454 22.0001 7.99976V10.9998C22.0001 11.265 21.8948 11.5193 21.7072 11.7069C21.5197 11.8944 21.2653 11.9998 21.0001 11.9998H3.00012C2.73491 11.9998 2.48055 11.8944 2.29302 11.7069C2.10548 11.5193 2.00012 11.265 2.00012 10.9998V7.99976C2.00012 7.73454 2.10548 7.48019 2.29302 7.29265C2.48055 7.10512 2.73491 6.99976 3.00012 6.99976L6.33712 7.00076C5.98088 6.25243 5.90175 5.40196 6.11382 4.60076C6.3259 3.79955 6.81541 3.0996 7.49522 2.62551C8.17503 2.15142 9.00102 1.93396 9.82615 2.01183C10.6513 2.0897 11.422 2.45786 12.0011 3.05076C12.3262 2.71729 12.7148 2.45244 13.1441 2.27191C13.5733 2.09137 14.0344 1.99883 14.5001 1.99976ZM9.50012 3.99976C9.11491 3.99995 8.74453 4.14834 8.46574 4.41417C8.18694 4.68 8.02111 5.0429 8.0026 5.42767C7.98409 5.81245 8.11431 6.18959 8.3663 6.48096C8.61828 6.77233 8.9727 6.95559 9.35612 6.99276L9.50012 6.99976H11.0001V5.49976C11.0001 5.12688 10.8612 4.76737 10.6105 4.49134C10.3598 4.21531 10.0153 4.04256 9.64412 4.00676L9.50012 3.99976ZM14.5001 3.99976L14.3561 4.00676C14.0095 4.03997 13.6852 4.19274 13.4389 4.43887C13.1926 4.685 13.0396 5.00916 13.0061 5.35576L13.0001 5.49976V6.99976H14.5001L14.6441 6.99276C15.0151 6.95679 15.3595 6.78396 15.61 6.50795C15.8606 6.23194 15.9994 5.87253 15.9994 5.49976C15.9994 5.12699 15.8606 4.76758 15.61 4.49157C15.3595 4.21556 15.0151 4.04273 14.6441 4.00676L14.5001 3.99976Z" fill="url(#paint0_linear_169_3933)"/>
</g>
<defs>
<linearGradient id="paint0_linear_169_3933" x1="11.9656" y1="-3.89841" x2="11.9656" y2="28.6537" gradientUnits="userSpaceOnUse">
<stop stop-color="#1070FC"/>
<stop offset="1" stop-color="#05CEC2"/>
</linearGradient>
</defs>
</svg>
