<svg width="24" height="24" viewBox="0 0 24 24" fill="none" xmlns="http://www.w3.org/2000/svg">
<path d="M20.59 2.066L11.993 0L3.41003 2.066V8.678H7.96703C7.927 8.99474 7.927 9.31526 7.96703 9.632H3.41003V12.738C3.41003 19.867 11.994 24 11.994 24C11.994 24 20.576 19.867 20.576 12.742V9.635H16.031C16.0732 9.3184 16.0732 8.9976 16.031 8.681H20.589L20.59 2.066ZM12 12.262H11.994C11.1697 12.2612 10.3795 11.9331 9.79705 11.3498C9.2146 10.7665 8.88764 9.9758 8.88803 9.1515C8.88843 8.3272 9.21616 7.5368 9.79917 6.95408C10.3822 6.37135 11.1727 6.044 11.997 6.044C12.8213 6.044 13.6119 6.37135 14.1949 6.95408C14.7779 7.5368 15.1056 8.3272 15.106 9.1515C15.1064 9.9758 14.7795 10.7665 14.197 11.3498C13.6146 11.9331 12.8243 12.2612 12 12.262ZM11.994 7.683C11.8131 7.68203 11.6372 7.7421 11.4947 7.85349C11.3521 7.96487 11.2513 8.12107 11.2086 8.29683C11.1658 8.47259 11.1835 8.65765 11.2589 8.82208C11.3343 8.98651 11.4629 9.12072 11.624 9.203V9.411L11.862 9.648V9.807L12.021 9.966V10.125L11.881 10.265L12.031 10.511V10.67L11.871 10.859L12.094 11.081L12.34 10.835V9.218C12.5078 9.14124 12.644 9.00912 12.7259 8.84382C12.8078 8.67852 12.8304 8.49009 12.7898 8.31013C12.7492 8.13017 12.648 7.96963 12.5031 7.85545C12.3582 7.74126 12.1785 7.68038 11.994 7.683ZM11.994 8.519C11.9349 8.5192 11.8769 8.50183 11.8276 8.4691C11.7783 8.43636 11.7399 8.38973 11.7171 8.33512C11.6943 8.2805 11.6882 8.22035 11.6997 8.16228C11.7111 8.10422 11.7395 8.05085 11.7813 8.00893C11.823 7.96702 11.8763 7.93844 11.9343 7.92682C11.9924 7.9152 12.0525 7.92106 12.1072 7.94367C12.1619 7.96627 12.2087 8.00459 12.2416 8.05378C12.2745 8.10297 12.292 8.16082 12.292 8.22C12.2922 8.25927 12.2846 8.29817 12.2697 8.3345C12.2548 8.37082 12.2328 8.40386 12.2052 8.43172C12.1775 8.45958 12.1446 8.48171 12.1084 8.49686C12.0722 8.512 12.0333 8.51987 11.994 8.52V8.519Z" fill="url(#paint0_linear_169_3942)"/>
<defs>
<linearGradient id="paint0_linear_169_3942" x1="11.9704" y1="-7.44466" x2="11.9704" y2="33.6664" gradientUnits="userSpaceOnUse">
<stop stop-color="#1070FC"/>
<stop offset="1" stop-color="#05CEC2"/>
</linearGradient>
</defs>
</svg>
