<svg width="124" height="61" viewBox="0 0 124 61" fill="none" xmlns="http://www.w3.org/2000/svg">
<g opacity="0.3">
<rect x="0.727051" y="0.714844" width="123.263" height="59.4517" fill="#C4C4C4"/>
<rect x="3.89771" y="3.88562" width="36.86" height="53.1102" fill="white" fill-opacity="0.4"/>
<rect x="43.929" y="3.88562" width="36.86" height="53.1102" fill="white" fill-opacity="0.4"/>
<rect x="83.9595" y="3.88562" width="36.86" height="53.1102" fill="white" fill-opacity="0.4"/>
<rect x="6.27612" y="7.849" width="19.8172" height="2.37807" fill="white" fill-opacity="0.4"/>
<rect x="46.3066" y="7.849" width="19.8172" height="2.37807" fill="white" fill-opacity="0.4"/>
<rect x="92.2827" y="7.849" width="19.8172" height="2.37807" fill="white" fill-opacity="0.4"/>
<rect x="6.27612" y="14.1904" width="32.1039" height="2.37807" fill="white" fill-opacity="0.4"/>
<rect x="46.3066" y="14.1904" width="32.1039" height="2.37807" fill="white" fill-opacity="0.4"/>
<rect x="106.948" y="14.1904" width="11.494" height="2.37807" fill="white" fill-opacity="0.4"/>
<rect x="6.27612" y="21.3247" width="32.1039" height="2.37807" fill="white" fill-opacity="0.4"/>
<rect x="46.3066" y="21.3247" width="32.1039" height="2.37807" fill="white" fill-opacity="0.4"/>
<rect x="6.27612" y="35.5933" width="32.1039" height="2.37807" fill="white" fill-opacity="0.4"/>
<rect x="46.3066" y="35.5933" width="32.1039" height="2.37807" fill="white" fill-opacity="0.4"/>
<rect x="86.3374" y="35.5933" width="32.1039" height="2.37807" fill="white" fill-opacity="0.4"/>
<rect x="99.4172" y="40.3492" width="5.94517" height="2.37807" fill="white" fill-opacity="0.4"/>
<rect x="6.27612" y="28.459" width="32.1039" height="2.37807" fill="white" fill-opacity="0.4"/>
<rect x="46.3066" y="28.459" width="32.1039" height="2.37807" fill="white" fill-opacity="0.4"/>
<rect x="86.3374" y="28.459" width="32.1039" height="2.37807" fill="white" fill-opacity="0.4"/>
<rect x="6.27612" y="42.7273" width="32.1039" height="2.37807" fill="white" fill-opacity="0.4"/>
<rect x="46.3066" y="42.7273" width="32.1039" height="2.37807" fill="white" fill-opacity="0.4"/>
<rect x="106.948" y="49.8616" width="11.494" height="2.37807" fill="white" fill-opacity="0.4"/>
<rect x="6.27612" y="17.7576" width="32.1039" height="2.37807" fill="white" fill-opacity="0.4"/>
<rect x="46.3066" y="17.7576" width="32.1039" height="2.37807" fill="white" fill-opacity="0.4"/>
<rect x="106.948" y="17.7576" width="11.494" height="2.37807" fill="white" fill-opacity="0.4"/>
<rect x="6.27612" y="24.8918" width="32.1039" height="2.37807" fill="white" fill-opacity="0.4"/>
<rect x="46.3066" y="24.8918" width="32.1039" height="2.37807" fill="white" fill-opacity="0.4"/>
<rect x="86.3374" y="24.8918" width="32.1039" height="2.37807" fill="white" fill-opacity="0.4"/>
<rect x="6.27612" y="39.1603" width="32.1039" height="2.37807" fill="white" fill-opacity="0.4"/>
<rect x="46.3066" y="39.1603" width="32.1039" height="2.37807" fill="white" fill-opacity="0.4"/>
<rect x="106.948" y="46.2944" width="11.494" height="2.37807" fill="white" fill-opacity="0.4"/>
<rect x="6.27612" y="32.0261" width="32.1039" height="2.37807" fill="white" fill-opacity="0.4"/>
<rect x="46.3066" y="32.0261" width="32.1039" height="2.37807" fill="white" fill-opacity="0.4"/>
<rect x="86.3374" y="32.0261" width="32.1039" height="2.37807" fill="white" fill-opacity="0.4"/>
<rect x="6.27612" y="46.2944" width="32.1039" height="2.37807" fill="white" fill-opacity="0.4"/>
<rect x="46.3066" y="46.2944" width="32.1039" height="2.37807" fill="white" fill-opacity="0.4"/>
</g>
</svg>
