<svg width="571" height="159" viewBox="0 0 571 159" fill="none" xmlns="http://www.w3.org/2000/svg">
<path d="M26.62 131V129.2H31.66C34.42 129.2 36.88 128.9 39.04 128.3C41.32 127.7 43.12 126.5 44.44 124.7C45.76 122.78 46.42 119.96 46.42 116.24V98.78H0.7V87.08L48.58 2.47999H79.36V85.64H96.46V98.78H79.36V116.24C79.36 119.96 80.02 122.78 81.34 124.7C82.66 126.5 84.46 127.7 86.74 128.3C89.02 128.9 91.48 129.2 94.12 129.2H96.46V131H26.62ZM3.58 85.64H46.6V40.64C46.6 38 46.6 35.42 46.6 32.9C46.6 30.26 46.6 27.62 46.6 24.98C46.6 22.22 46.6 19.52 46.6 16.88C46.72 14.12 46.84 11.36 46.96 8.6C46.24 10.04 45.46 11.42 44.62 12.74C43.9 14.06 43.18 15.44 42.46 16.88C41.74 18.2 41.02 19.52 40.3 20.84C39.58 22.16 38.8 23.54 37.96 24.98L3.58 85.64ZM130.9 131V129.2H135.94C138.7 129.2 141.16 128.9 143.32 128.3C145.6 127.7 147.4 126.5 148.72 124.7C150.04 122.78 150.7 119.96 150.7 116.24V98.78H104.98V87.08L152.86 2.47999H183.64V85.64H200.74V98.78H183.64V116.24C183.64 119.96 184.3 122.78 185.62 124.7C186.94 126.5 188.74 127.7 191.02 128.3C193.3 128.9 195.76 129.2 198.4 129.2H200.74V131H130.9ZM107.86 85.64H150.88V40.64C150.88 38 150.88 35.42 150.88 32.9C150.88 30.26 150.88 27.62 150.88 24.98C150.88 22.22 150.88 19.52 150.88 16.88C151 14.12 151.12 11.36 151.24 8.6C150.52 10.04 149.74 11.42 148.9 12.74C148.18 14.06 147.46 15.44 146.74 16.88C146.02 18.2 145.3 19.52 144.58 20.84C143.86 22.16 143.08 23.54 142.24 24.98L107.86 85.64ZM216.641 156.92C219.881 155.84 222.941 154.64 225.821 153.32C228.821 152.12 231.281 150.44 233.201 148.28C235.121 146.24 236.081 143.48 236.081 140C236.081 137.24 235.481 135.14 234.281 133.7C233.081 132.26 231.581 131.12 229.781 130.28C228.101 129.32 226.361 128.36 224.561 127.4C222.881 126.44 221.441 125.06 220.241 123.26C219.041 121.46 218.441 118.94 218.441 115.7C218.441 110.9 219.821 107.18 222.581 104.54C225.341 101.9 228.941 100.58 233.381 100.58C238.901 100.58 243.161 102.62 246.161 106.7C249.281 110.78 250.841 116.18 250.841 122.9C250.841 130.82 248.261 137.96 243.101 144.32C237.941 150.8 229.121 155.6 216.641 158.72V156.92ZM272.832 131V110.3L298.212 89.6C303.972 84.92 308.712 80.66 312.432 76.82C316.272 72.86 319.272 68.84 321.432 64.76C323.592 60.68 325.092 56.06 325.932 50.9C326.892 45.62 327.372 39.32 327.372 32C327.372 25.04 326.892 19.4 325.932 15.08C325.092 10.76 323.652 7.58 321.612 5.54C319.692 3.49999 317.112 2.47999 313.872 2.47999C310.392 2.47999 307.632 3.79999 305.592 6.43999C303.552 9.08 302.112 13.58 301.272 19.94C300.432 26.18 300.012 34.82 300.012 45.86C295.332 45.86 290.892 45.38 286.692 44.42C282.612 43.34 279.252 41.48 276.612 38.84C274.092 36.2 272.832 32.54 272.832 27.86C272.832 23.42 274.212 19.16 276.972 15.08C279.732 10.88 284.232 7.46 290.472 4.81999C296.712 2.05999 304.932 0.679993 315.132 0.679993C324.252 0.679993 332.112 1.87999 338.712 4.27999C345.312 6.67999 350.412 10.34 354.012 15.26C357.612 20.18 359.412 26.42 359.412 33.98C359.412 37.34 358.932 40.52 357.972 43.52C357.132 46.4 355.632 49.34 353.472 52.34C351.312 55.34 348.252 58.64 344.292 62.24C340.332 65.72 335.292 69.68 329.172 74.12C323.052 78.44 315.612 83.48 306.852 89.24L279.312 107.24H344.832C350.712 107.24 354.852 106.16 357.252 104C359.652 101.84 361.152 97.82 361.752 91.94L362.112 88.34H363.912L362.472 131H272.832ZM424.992 132.8C415.512 132.8 407.232 130.64 400.152 126.32C393.192 121.88 387.792 115.16 383.952 106.16C380.112 97.16 378.192 85.7 378.192 71.78C378.192 60.86 379.272 51.02 381.432 42.26C383.592 33.5 386.772 26.06 390.972 19.94C395.292 13.7 400.632 8.95999 406.992 5.71999C413.472 2.35999 420.972 0.679993 429.492 0.679993C438.012 0.679993 444.852 1.64 450.012 3.56C455.292 5.48 459.132 8 461.532 11.12C463.932 14.24 465.132 17.6 465.132 21.2C465.132 25.64 463.332 29.48 459.732 32.72C456.132 35.96 449.772 37.58 440.652 37.58C440.652 28.7 440.232 21.74 439.392 16.7C438.552 11.54 437.172 7.87999 435.252 5.71999C433.452 3.55999 430.872 2.47999 427.512 2.47999C423.552 2.47999 420.312 4.27999 417.792 7.88C415.392 11.48 413.592 17.36 412.392 25.52C411.192 33.68 410.472 44.66 410.232 58.46C412.512 56.66 414.732 55.28 416.892 54.32C419.172 53.36 421.572 52.7 424.092 52.34C426.732 51.86 429.612 51.62 432.732 51.62C443.652 51.62 452.352 54.92 458.832 61.52C465.432 68.12 468.732 77.36 468.732 89.24C468.732 97.88 467.112 105.5 463.872 112.1C460.752 118.58 455.952 123.68 449.472 127.4C442.992 131 434.832 132.8 424.992 132.8ZM424.812 131C427.932 131 430.332 129.8 432.012 127.4C433.812 124.88 435.072 120.74 435.792 114.98C436.512 109.1 436.872 101.12 436.872 91.04C436.872 81.8 436.452 74.54 435.612 69.26C434.892 63.86 433.572 60.08 431.652 57.92C429.852 55.64 427.272 54.5 423.912 54.5C422.592 54.5 421.092 54.8 419.412 55.4C417.852 55.88 416.292 56.6 414.732 57.56C413.172 58.52 411.672 59.6 410.232 60.8C410.232 74.84 410.412 86.42 410.772 95.54C411.252 104.54 412.032 111.68 413.112 116.96C414.192 122.12 415.632 125.78 417.432 127.94C419.352 129.98 421.812 131 424.812 131ZM501.913 131L563.473 25.88H500.653C495.613 25.88 492.073 26.78 490.033 28.58C487.993 30.38 486.733 33.68 486.253 38.48L485.713 44.06H483.913L485.353 2.29999H570.313V13.82L522.073 131H501.913Z" fill="white"/>
</svg>
