<svg width="135" height="59" viewBox="0 0 135 59" fill="none" xmlns="http://www.w3.org/2000/svg">
<path d="M18.24 58.8C14.7733 58.8 11.7067 58.3733 9.04 57.52C6.42667 56.6133 4.37333 55.36 2.88 53.76C1.44 52.1067 0.72 50.16 0.72 47.92C0.72 45.84 1.44 44.32 2.88 43.36C4.32 42.3467 6.08 41.84 8.16 41.84C8.16 45.1467 8.37333 48 8.8 50.4C9.22667 52.8 10.0267 54.6667 11.2 56C12.3733 57.28 14.0533 57.92 16.24 57.92C17.7333 57.92 19.12 57.52 20.4 56.72C21.7333 55.8667 22.8267 54.2667 23.68 51.92C24.5333 49.52 24.96 45.9733 24.96 41.28C24.96 37.4933 24.5867 34.3733 23.84 31.92C23.1467 29.4133 22.0267 27.5467 20.48 26.32C18.9867 25.0933 17.0133 24.48 14.56 24.48C13.4933 24.48 12.3733 24.6933 11.2 25.12C10.08 25.5467 9.01333 26.16 8 26.96C6.98667 27.76 6.10667 28.72 5.36 29.84L4.56 29.52L7.28 0.799997H36.32L36.88 17.2H36.08L35.92 15.36C35.8667 14.3467 35.68 13.5467 35.36 12.96C35.0933 12.3733 34.6133 11.9733 33.92 11.76C33.28 11.4933 32.3467 11.36 31.12 11.36H7.04L5.52 28.4C6.42667 27.1733 7.54667 26.16 8.88 25.36C10.2133 24.56 11.76 23.9733 13.52 23.6C15.28 23.1733 17.2533 22.96 19.44 22.96C23.7067 22.96 27.3867 23.6533 30.48 25.04C33.5733 26.4267 35.9467 28.4267 37.6 31.04C39.2533 33.6 40.08 36.6933 40.08 40.32C40.08 42.6133 39.76 44.72 39.12 46.64C38.5333 48.56 37.6267 50.2667 36.4 51.76C35.2267 53.2533 33.76 54.5333 32 55.6C30.24 56.6667 28.2133 57.4667 25.92 58C23.6267 58.5333 21.0667 58.8 18.24 58.8ZM57.0669 58V57.2H59.3069C60.5335 57.2 61.6269 57.0667 62.5869 56.8C63.6002 56.5333 64.4002 56 64.9869 55.2C65.5735 54.3467 65.8669 53.0933 65.8669 51.44V43.68H45.5469V38.48L66.8269 0.879996H80.5069V37.84H88.1069V43.68H80.5069V51.44C80.5069 53.0933 80.8002 54.3467 81.3869 55.2C81.9735 56 82.7735 56.5333 83.7869 56.8C84.8002 57.0667 85.8935 57.2 87.0669 57.2H88.1069V58H57.0669ZM46.8269 37.84H65.9469V17.84C65.9469 16.6667 65.9469 15.52 65.9469 14.4C65.9469 13.2267 65.9469 12.0533 65.9469 10.88C65.9469 9.65333 65.9469 8.45333 65.9469 7.28C66.0002 6.05333 66.0535 4.82667 66.1069 3.6C65.7869 4.24 65.4402 4.85333 65.0669 5.44C64.7469 6.02667 64.4269 6.64 64.1069 7.28C63.7869 7.86667 63.4669 8.45333 63.1469 9.04C62.8269 9.62666 62.4802 10.24 62.1069 10.88L46.8269 37.84ZM103.414 58V57.2H105.654C106.88 57.2 107.974 57.0667 108.934 56.8C109.947 56.5333 110.747 56 111.334 55.2C111.92 54.3467 112.214 53.0933 112.214 51.44V43.68H91.8937V38.48L113.174 0.879996H126.854V37.84H134.454V43.68H126.854V51.44C126.854 53.0933 127.147 54.3467 127.734 55.2C128.32 56 129.12 56.5333 130.134 56.8C131.147 57.0667 132.24 57.2 133.414 57.2H134.454V58H103.414ZM93.1737 37.84H112.294V17.84C112.294 16.6667 112.294 15.52 112.294 14.4C112.294 13.2267 112.294 12.0533 112.294 10.88C112.294 9.65333 112.294 8.45333 112.294 7.28C112.347 6.05333 112.4 4.82667 112.454 3.6C112.134 4.24 111.787 4.85333 111.414 5.44C111.094 6.02667 110.774 6.64 110.454 7.28C110.134 7.86667 109.814 8.45333 109.494 9.04C109.174 9.62666 108.827 10.24 108.454 10.88L93.1737 37.84Z" fill="#828282"/>
</svg>
