<svg width="255" height="71" viewBox="0 0 255 71" fill="none" xmlns="http://www.w3.org/2000/svg">
<path d="M11.72 58V57.2H13.96C15.1867 57.2 16.28 57.0667 17.24 56.8C18.2533 56.5333 19.0533 56 19.64 55.2C20.2267 54.3467 20.52 53.0933 20.52 51.44V43.68H0.2V38.48L21.48 0.879996H35.16V37.84H42.76V43.68H35.16V51.44C35.16 53.0933 35.4533 54.3467 36.04 55.2C36.6267 56 37.4267 56.5333 38.44 56.8C39.4533 57.0667 40.5467 57.2 41.72 57.2H42.76V58H11.72ZM1.48 37.84H20.6V17.84C20.6 16.6667 20.6 15.52 20.6 14.4C20.6 13.2267 20.6 12.0533 20.6 10.88C20.6 9.65333 20.6 8.45333 20.6 7.28C20.6533 6.05333 20.7067 4.82667 20.76 3.6C20.44 4.24 20.0933 4.85333 19.72 5.44C19.4 6.02667 19.08 6.64 18.76 7.28C18.44 7.86667 18.12 8.45333 17.8 9.04C17.48 9.62666 17.1333 10.24 16.76 10.88L1.48 37.84ZM64.9469 58.8C60.5735 58.8 57.0535 58.32 54.3869 57.36C51.7735 56.4 49.8802 55.0933 48.7069 53.44C47.5869 51.7867 47.0269 49.92 47.0269 47.84C47.0269 45.4933 47.8535 43.7333 49.5069 42.56C51.1602 41.3867 53.0269 40.8 55.1069 40.8C55.1069 44.9067 55.4002 48.24 55.9869 50.8C56.5735 53.3067 57.5335 55.1467 58.8669 56.32C60.2535 57.44 62.0935 58 64.3869 58C66.4135 58 68.0402 57.4667 69.2669 56.4C70.5469 55.3333 71.4802 53.7067 72.0669 51.52C72.7069 49.3333 73.0269 46.5333 73.0269 43.12C73.0269 39.5467 72.6535 36.72 71.9069 34.64C71.2135 32.56 70.0669 31.0933 68.4669 30.24C66.8669 29.3333 64.7602 28.88 62.1469 28.88H56.2269V28.08H62.7069C64.7335 28.08 66.3602 27.6267 67.5869 26.72C68.8135 25.8133 69.6935 24.3467 70.2269 22.32C70.8135 20.2933 71.1069 17.6533 71.1069 14.4C71.1069 9.49333 70.6535 6.02667 69.7469 4C68.8935 1.92 67.4535 0.879996 65.4269 0.879996C63.9335 0.879996 62.7602 1.41333 61.9069 2.48C61.0535 3.54667 60.4402 5.36 60.0669 7.92C59.6935 10.48 59.5069 13.9733 59.5069 18.4C56.0935 18.4 53.3202 17.84 51.1869 16.72C49.1069 15.6 48.0669 13.68 48.0669 10.96C48.0669 9.14666 48.7335 7.41333 50.0669 5.76C51.4002 4.10666 53.4269 2.74666 56.1469 1.68C58.8669 0.61333 62.3335 0.0799971 66.5469 0.0799971C72.6802 0.0799971 77.5069 1.30666 81.0269 3.76C84.5469 6.16 86.3069 9.46667 86.3069 13.68C86.3069 16.5067 85.6402 18.9333 84.3069 20.96C83.0269 22.9867 81.0269 24.6133 78.3069 25.84C75.6402 27.0667 72.2269 27.92 68.0669 28.4C71.4269 28.5067 74.3602 28.9067 76.8669 29.6C79.3735 30.2933 81.4802 31.2533 83.1869 32.48C84.8935 33.7067 86.1735 35.2 87.0269 36.96C87.8802 38.72 88.3069 40.7467 88.3069 43.04C88.3069 45.5467 87.7735 47.7867 86.7069 49.76C85.6935 51.7333 84.1735 53.3867 82.1469 54.72C80.1735 56.0533 77.7202 57.0667 74.7869 57.76C71.9069 58.4533 68.6269 58.8 64.9469 58.8ZM96.1737 69.52C97.6137 69.04 98.9737 68.5067 100.254 67.92C101.587 67.3867 102.68 66.64 103.534 65.68C104.387 64.7733 104.814 63.5467 104.814 62C104.814 60.7733 104.547 59.84 104.014 59.2C103.48 58.56 102.814 58.0533 102.014 57.68C101.267 57.2533 100.494 56.8267 99.6937 56.4C98.9471 55.9733 98.3071 55.36 97.7737 54.56C97.2404 53.76 96.9737 52.64 96.9737 51.2C96.9737 49.0667 97.5871 47.4133 98.8137 46.24C100.04 45.0667 101.64 44.48 103.614 44.48C106.067 44.48 107.96 45.3867 109.294 47.2C110.68 49.0133 111.374 51.4133 111.374 54.4C111.374 57.92 110.227 61.0933 107.934 63.92C105.64 66.8 101.72 68.9333 96.1737 70.32V69.52ZM130.268 58L157.628 11.28H129.708C127.468 11.28 125.894 11.68 124.988 12.48C124.081 13.28 123.521 14.7467 123.308 16.88L123.068 19.36H122.268L122.908 0.799997H160.668V5.92L139.228 58H130.268ZM167.494 58V48.8L178.774 39.6C181.334 37.52 183.441 35.6267 185.094 33.92C186.801 32.16 188.134 30.3733 189.094 28.56C190.054 26.7467 190.721 24.6933 191.094 22.4C191.521 20.0533 191.734 17.2533 191.734 14C191.734 10.9067 191.521 8.4 191.094 6.48C190.721 4.56 190.081 3.14667 189.174 2.24C188.321 1.33333 187.174 0.879996 185.734 0.879996C184.188 0.879996 182.961 1.46666 182.054 2.64C181.148 3.81333 180.508 5.81333 180.134 8.64C179.761 11.4133 179.574 15.2533 179.574 20.16C177.494 20.16 175.521 19.9467 173.654 19.52C171.841 19.04 170.348 18.2133 169.174 17.04C168.054 15.8667 167.494 14.24 167.494 12.16C167.494 10.1867 168.108 8.29333 169.334 6.48C170.561 4.61333 172.561 3.09333 175.334 1.92C178.108 0.69333 181.761 0.0799971 186.294 0.0799971C190.348 0.0799971 193.841 0.61333 196.774 1.68C199.708 2.74666 201.974 4.37333 203.574 6.56C205.174 8.74666 205.974 11.52 205.974 14.88C205.974 16.3733 205.761 17.7867 205.334 19.12C204.961 20.4 204.294 21.7067 203.334 23.04C202.374 24.3733 201.014 25.84 199.254 27.44C197.494 28.9867 195.254 30.7467 192.534 32.72C189.814 34.64 186.508 36.88 182.614 39.44L170.374 47.44H199.494C202.108 47.44 203.948 46.96 205.014 46C206.081 45.04 206.748 43.2533 207.014 40.64L207.174 39.04H207.974L207.334 58H167.494ZM230.881 58.8C226.508 58.8 222.988 58.32 220.321 57.36C217.708 56.4 215.815 55.0933 214.641 53.44C213.521 51.7867 212.961 49.92 212.961 47.84C212.961 45.4933 213.788 43.7333 215.441 42.56C217.095 41.3867 218.961 40.8 221.041 40.8C221.041 44.9067 221.335 48.24 221.921 50.8C222.508 53.3067 223.468 55.1467 224.801 56.32C226.188 57.44 228.028 58 230.321 58C232.348 58 233.975 57.4667 235.201 56.4C236.481 55.3333 237.415 53.7067 238.001 51.52C238.641 49.3333 238.961 46.5333 238.961 43.12C238.961 39.5467 238.588 36.72 237.841 34.64C237.148 32.56 236.001 31.0933 234.401 30.24C232.801 29.3333 230.695 28.88 228.081 28.88H222.161V28.08H228.641C230.668 28.08 232.295 27.6267 233.521 26.72C234.748 25.8133 235.628 24.3467 236.161 22.32C236.748 20.2933 237.041 17.6533 237.041 14.4C237.041 9.49333 236.588 6.02667 235.681 4C234.828 1.92 233.388 0.879996 231.361 0.879996C229.868 0.879996 228.695 1.41333 227.841 2.48C226.988 3.54667 226.375 5.36 226.001 7.92C225.628 10.48 225.441 13.9733 225.441 18.4C222.028 18.4 219.255 17.84 217.121 16.72C215.041 15.6 214.001 13.68 214.001 10.96C214.001 9.14666 214.668 7.41333 216.001 5.76C217.335 4.10666 219.361 2.74666 222.081 1.68C224.801 0.61333 228.268 0.0799971 232.481 0.0799971C238.615 0.0799971 243.441 1.30666 246.961 3.76C250.481 6.16 252.241 9.46667 252.241 13.68C252.241 16.5067 251.575 18.9333 250.241 20.96C248.961 22.9867 246.961 24.6133 244.241 25.84C241.575 27.0667 238.161 27.92 234.001 28.4C237.361 28.5067 240.295 28.9067 242.801 29.6C245.308 30.2933 247.415 31.2533 249.121 32.48C250.828 33.7067 252.108 35.2 252.961 36.96C253.815 38.72 254.241 40.7467 254.241 43.04C254.241 45.5467 253.708 47.7867 252.641 49.76C251.628 51.7333 250.108 53.3867 248.081 54.72C246.108 56.0533 243.655 57.0667 240.721 57.76C237.841 58.4533 234.561 58.8 230.881 58.8Z" fill="#828282"/>
</svg>
