<svg width="140" height="609" viewBox="0 0 140 609" fill="none" xmlns="http://www.w3.org/2000/svg">
<path d="M31 0.0571812L32.4 0.0571812L32.4 6.07718C32.4 7.85051 32.5867 9.20385 32.96 10.1372C33.4267 11.1638 34.1267 11.8638 35.06 12.2372C35.9933 12.7038 37.3 12.9372 38.98 12.9372L122.14 12.9372C124.007 12.9372 125.453 12.7039 126.48 12.2372C127.6 11.8639 128.393 11.1639 128.86 10.1372C129.327 9.20385 129.56 7.85052 129.56 6.07719L129.56 0.0571855L130.96 0.0571855L130.96 53.9572L129.56 53.9572L129.56 47.6572C129.56 45.9772 129.327 44.6239 128.86 43.5972C128.393 42.6639 127.6 41.9639 126.48 41.4972C125.453 41.1239 123.96 40.9372 122 40.9372L39.26 40.9372C37.58 40.9372 36.2267 41.1239 35.2 41.4972C34.1733 41.9639 33.4267 42.6639 32.96 43.5972C32.5867 44.6239 32.4 45.9772 32.4 47.6572L32.4 53.9572L31 53.9572L31 0.0571812ZM31 59.6666L32.4 59.6666L32.4 67.0866C32.4 68.2066 32.7267 69.1399 33.38 69.8866C34.1267 70.7266 35.06 71.3799 36.18 71.8466C37.3 72.3132 38.56 72.5466 39.96 72.5466L122 72.5466C123.773 72.5466 125.173 72.2666 126.2 71.7066C127.32 71.1466 128.16 70.3532 128.72 69.3266C129.28 68.3932 129.56 67.2732 129.56 65.9666L129.56 59.6666L130.96 59.6666L130.96 108.387C130.96 119.213 129.233 128.547 125.78 136.387C122.42 144.227 117.287 150.247 110.38 154.447C103.473 158.647 94.7 160.747 84.06 160.747C73.8867 160.747 64.7867 158.74 56.76 154.727C48.7333 150.807 42.4333 144.927 37.86 137.087C33.2867 129.34 31 119.773 31 108.387L31 59.6666ZM32.4 105.027C32.4 111.28 34.1267 116.32 37.58 120.147C41.0333 123.973 46.54 126.727 54.1 128.407C61.66 130.18 71.6467 131.067 84.06 131.067C94.98 131.067 103.753 130.18 110.38 128.407C117.1 126.727 121.953 123.973 124.94 120.147C128.02 116.413 129.56 111.42 129.56 105.167L129.56 100.407L32.4 100.407L32.4 105.027ZM29.6 213.512C29.6 200.259 32.96 190.319 39.68 183.692C46.4933 177.159 56.0133 173.892 68.24 173.892C81.4 173.892 91.34 177.159 98.06 183.692C104.78 190.226 108.14 199.419 108.14 211.272C108.14 222.286 105.247 230.919 99.46 237.172C93.7667 243.519 85.3667 246.692 74.26 246.692L70.9 246.692L70.9 201.192C61.4733 201.286 53.8667 201.986 48.08 203.292C42.2933 204.599 38.0933 206.652 35.48 209.452C32.8667 212.346 31.56 216.079 31.56 220.652C31.56 224.199 32.3533 227.092 33.94 229.332C35.62 231.666 38.1867 233.392 41.64 234.512C45.0933 235.726 49.5267 236.379 54.94 236.472C54.4733 238.806 53.5867 240.626 52.28 241.932C51.0667 243.332 49.2467 244.032 46.82 244.032C43.46 244.032 40.4733 242.772 37.86 240.252C35.2467 237.826 33.1933 234.326 31.7 229.752C30.3 225.272 29.6 219.859 29.6 213.512ZM72.3 219.952C81.0733 219.952 87.9333 219.672 92.88 219.112C97.92 218.646 101.467 217.759 103.52 216.452C105.667 215.239 106.74 213.466 106.74 211.132C106.74 208.892 105.667 207.026 103.52 205.532C101.467 204.132 97.92 203.059 92.88 202.312C87.9333 201.566 81.0733 201.192 72.3 201.192L72.3 219.952ZM31 253.784L32.4 253.784L32.4 254.344C32.4 256.491 32.5867 258.264 32.96 259.664C33.4267 261.064 34.3133 262.138 35.62 262.884C37.02 263.631 39.0733 264.004 41.78 264.004L95.82 264.004C98.34 264.004 100.207 263.678 101.42 263.024C102.727 262.371 103.567 261.391 103.94 260.084C104.407 258.778 104.64 257.098 104.64 255.044L104.64 254.484L106.04 254.484L106.04 291.024L92.46 291.024L92.46 291.304C95.9133 292.144 98.8067 293.404 101.14 295.084C103.473 296.858 105.2 299.191 106.32 302.084C107.533 304.978 108.14 308.478 108.14 312.584C108.14 320.051 106.04 325.698 101.84 329.524C97.64 333.351 90.8267 335.264 81.4 335.264L42.2 335.264C39.4 335.264 37.3 335.498 35.9 335.964C34.5 336.524 33.5667 337.411 33.1 338.624C32.6333 339.838 32.4 341.471 32.4 343.524L32.4 344.084L31 344.084L31 308.104L83.92 308.104C89.8933 308.104 94.28 307.591 97.08 306.564C99.88 305.538 101.28 303.531 101.28 300.544C101.28 298.211 100.16 296.344 97.92 294.944C95.7733 293.638 92.9733 292.704 89.52 292.144C86.16 291.584 82.6133 291.304 78.88 291.304L41.36 291.304C38.84 291.304 36.9267 291.584 35.62 292.144C34.4067 292.798 33.5667 293.778 33.1 295.084C32.6333 296.391 32.4 298.071 32.4 300.124L32.4 300.684L31 300.684L31 253.784ZM29.6 384.351C29.6 377.164 31.28 371.424 34.64 367.131C38 362.931 43.7867 360.831 52 360.831L104.64 360.831L104.64 350.471L106.04 350.471C106.04 354.857 106.367 358.824 107.02 362.371C107.673 366.011 108.653 369.277 109.96 372.171C111.453 375.437 113.32 378.237 115.56 380.571C117.8 382.997 120.46 385.051 123.54 386.731L123.54 388.131L106.04 388.131L106.04 405.771L104.64 405.771L104.64 388.131L45 388.131C40.9866 388.131 38 388.971 36.04 390.651C34.08 392.331 33.1 394.617 33.1 397.511C33.1 398.911 33.2866 400.404 33.66 401.991C34.1266 403.577 34.7333 405.257 35.48 407.031L34.08 407.031C33.24 405.351 32.26 402.597 31.14 398.771C30.1133 394.944 29.6 390.137 29.6 384.351ZM31 411.278L32.4 411.278L32.4 412.958C32.4 414.731 32.7266 416.271 33.38 417.578C34.0333 418.884 35.1066 419.911 36.6 420.658C38.0933 421.404 40.1466 421.778 42.76 421.778L95.4 421.778C97.7333 421.778 99.5533 421.358 100.86 420.518C102.167 419.771 103.1 418.744 103.66 417.438C104.313 416.131 104.64 414.638 104.64 412.958L104.64 410.298L106.04 410.298L106.04 448.938L42.2 448.938C39.7733 448.938 37.8133 449.311 36.32 450.058C34.92 450.804 33.8933 451.831 33.24 453.138C32.68 454.538 32.4 456.078 32.4 457.758L32.4 459.298L31 459.298L31 411.278ZM117.66 434.658C117.66 431.018 118.593 427.984 120.46 425.558C122.42 423.131 125.173 421.918 128.72 421.918C132.547 421.918 135.347 423.131 137.12 425.558C138.893 427.984 139.78 431.018 139.78 434.658C139.78 438.111 138.893 441.098 137.12 443.618C135.347 446.231 132.547 447.538 128.72 447.538C125.173 447.538 122.42 446.231 120.46 443.618C118.593 441.098 117.66 438.111 117.66 434.658ZM29.6 499.194C29.6 492.008 31.28 486.268 34.64 481.974C38 477.774 43.7866 475.674 52 475.674L104.64 475.674L104.64 465.314L106.04 465.314C106.04 469.701 106.367 473.668 107.02 477.214C107.673 480.854 108.653 484.121 109.96 487.014C111.453 490.281 113.32 493.081 115.56 495.414C117.8 497.841 120.46 499.894 123.54 501.574L123.54 502.974L106.04 502.974L106.04 520.614L104.64 520.614L104.64 502.974L45 502.974C40.9866 502.974 38 503.814 36.04 505.494C34.08 507.174 33.1 509.461 33.1 512.354C33.1 513.754 33.2866 515.248 33.66 516.834C34.1266 518.421 34.7333 520.101 35.48 521.874L34.08 521.874C33.24 520.194 32.26 517.441 31.14 513.614C30.1133 509.788 29.6 504.981 29.6 499.194ZM1.45998 527.101C1.45998 533.168 1.83331 538.208 2.57997 542.221C3.23331 546.235 4.39997 549.595 6.07998 552.301C7.66664 555.008 9.95331 557.388 12.94 559.441C15.8333 561.588 19.52 563.781 24 566.021L98.48 531.581C100.067 530.928 101.28 530.228 102.12 529.481C103.053 528.828 103.707 528.081 104.08 527.241C104.453 526.401 104.64 525.421 104.64 524.301L104.64 524.021L106.04 524.021L106.04 569.241L104.64 569.241L104.64 567.701C104.64 564.808 104.313 562.661 103.66 561.261C103.007 559.955 101.887 559.301 100.3 559.301C99.46 559.301 98.5266 559.441 97.5 559.721C96.4733 560.001 95.3066 560.421 94 560.981L67.4 572.881C66.3733 573.348 65.3 573.815 64.18 574.281C63.1533 574.748 62.1266 575.215 61.1 575.681C60.0733 576.148 59 576.615 57.88 577.081C56.76 577.548 55.5933 578.015 54.38 578.481C56.5266 579.228 58.5333 579.975 60.4 580.721C62.36 581.468 64.2733 582.215 66.14 582.961L91.9 593.321C93.4866 593.975 94.8866 594.441 96.1 594.721C97.4066 595.095 98.5266 595.281 99.46 595.281C101.327 595.281 102.633 594.535 103.38 593.041C104.22 591.641 104.64 589.401 104.64 586.321L104.64 580.581L106.04 580.581L106.04 608.861L104.64 608.861L104.64 608.441C104.64 606.388 104.313 604.615 103.66 603.121C103.007 601.628 101.887 600.275 100.3 599.061C98.7133 597.941 96.52 596.821 93.72 595.701L30.44 570.221C24.1866 567.701 19.1 565.228 15.18 562.801C11.1666 560.468 8.08664 557.855 5.93997 554.961C3.69997 552.068 2.15997 548.615 1.31997 544.601C0.479974 540.588 0.0599742 535.735 0.0599745 530.041L0.0599746 527.101L1.45998 527.101Z" fill="#333333"/>
</svg>
