<svg width="111" height="1033" viewBox="0 0 111 1033" fill="none" xmlns="http://www.w3.org/2000/svg">
<path d="M2 0.160697L3.4 0.160697L3.4 7.5807C3.4 8.7007 3.72667 9.63403 4.38 10.3807C5.12667 11.2207 6.06 11.874 7.18 12.3407C8.3 12.8074 9.56 13.0407 10.96 13.0407L93 13.0407C94.7733 13.0407 96.1733 12.7607 97.2 12.2007C98.32 11.6407 99.16 10.8474 99.72 9.8207C100.28 8.88737 100.56 7.76737 100.56 6.4607L100.56 0.160701L101.96 0.160701L101.96 48.8807C101.96 59.7074 100.233 69.0407 96.78 76.8807C93.42 84.7207 88.2867 90.7407 81.38 94.9407C74.4733 99.1407 65.7 101.241 55.06 101.241C44.8867 101.241 35.7867 99.234 27.76 95.2207C19.7333 91.3007 13.4333 85.4207 8.86 77.5807C4.28666 69.834 2 60.2674 2 48.8807L2 0.160697ZM3.4 45.5207C3.4 51.774 5.12666 56.814 8.58 60.6407C12.0333 64.4674 17.54 67.2207 25.1 68.9007C32.66 70.674 42.6467 71.5607 55.06 71.5607C65.98 71.5607 74.7533 70.674 81.38 68.9007C88.1 67.2207 92.9533 64.4674 95.94 60.6407C99.02 56.9074 100.56 51.914 100.56 45.6607L100.56 40.9007L3.4 40.9007L3.4 45.5207ZM0.599993 154.006C0.599994 140.753 3.95999 130.813 10.68 124.186C17.4933 117.653 27.0133 114.386 39.24 114.386C52.4 114.386 62.34 117.653 69.06 124.186C75.78 130.72 79.14 139.913 79.14 151.766C79.14 162.78 76.2467 171.413 70.46 177.666C64.7667 184.013 56.3667 187.186 45.26 187.186L41.9 187.186L41.9 141.686C32.4733 141.78 24.8667 142.48 19.08 143.786C13.2933 145.093 9.09333 147.146 6.47999 149.946C3.86666 152.84 2.55999 156.573 2.55999 161.146C2.55999 164.693 3.35333 167.586 4.93999 169.826C6.61999 172.16 9.18666 173.886 12.64 175.006C16.0933 176.22 20.5267 176.873 25.94 176.966C25.4733 179.3 24.5867 181.12 23.28 182.426C22.0667 183.826 20.2467 184.526 17.82 184.526C14.46 184.526 11.4733 183.266 8.85999 180.746C6.24666 178.32 4.19333 174.82 2.69999 170.246C1.29999 165.766 0.599993 160.353 0.599993 154.006ZM43.3 160.446C52.0733 160.446 58.9333 160.166 63.88 159.606C68.92 159.14 72.4667 158.253 74.52 156.946C76.6667 155.733 77.74 153.96 77.74 151.626C77.74 149.386 76.6667 147.52 74.52 146.026C72.4667 144.626 68.92 143.553 63.88 142.806C58.9333 142.06 52.0733 141.686 43.3 141.686L43.3 160.446ZM0.59999 234.878C0.59999 227.505 1.76666 221.065 4.09999 215.558C6.43332 210.052 10.4 205.758 16 202.678C21.6933 199.598 29.4867 198.058 39.38 198.058C49.5533 198.058 57.4867 199.692 63.18 202.958C68.9667 206.225 73.0733 210.612 75.5 216.118C77.9267 221.625 79.14 227.785 79.14 234.598C79.14 242.252 78.3933 248.272 76.9 252.658C75.4067 257.045 73.4467 260.172 71.02 262.038C68.6867 263.905 66.1667 264.838 63.46 264.838C61.78 264.838 59.8667 264.325 57.72 263.298C55.6667 262.272 53.8467 260.172 52.26 256.998C50.7667 253.825 50.02 249.018 50.02 242.578C57.02 242.578 62.5267 242.298 66.54 241.738C70.6467 241.272 73.54 240.478 75.22 239.358C76.9 238.238 77.74 236.652 77.74 234.598C77.74 232.265 76.5733 230.445 74.24 229.138C71.9067 227.832 67.94 226.898 62.34 226.338C56.8333 225.778 49.2267 225.498 39.52 225.498C30.0933 225.498 22.6733 225.918 17.26 226.758C11.8467 227.692 7.97332 229.232 5.63999 231.378C3.39999 233.525 2.27999 236.465 2.27999 240.198C2.27999 243.185 3.02666 245.985 4.51999 248.598C6.01332 251.212 8.43999 253.405 11.8 255.178C15.2533 257.045 19.7333 258.305 25.24 258.958C24.68 260.638 23.7 261.945 22.3 262.878C20.9 263.905 19.2667 264.418 17.4 264.418C14.9733 264.418 12.4533 263.392 9.83999 261.338C7.22666 259.378 5.03332 256.252 3.25999 251.958C1.48666 247.665 0.599989 241.972 0.59999 234.878ZM0.599986 315.061C0.599987 301.808 3.95999 291.868 10.68 285.241C17.4933 278.708 27.0133 275.441 39.24 275.441C52.4 275.441 62.34 278.708 69.06 285.241C75.78 291.775 79.14 300.968 79.14 312.821C79.14 323.835 76.2467 332.468 70.46 338.721C64.7667 345.068 56.3667 348.241 45.26 348.241L41.9 348.241L41.9 302.741C32.4733 302.835 24.8667 303.535 19.08 304.841C13.2933 306.148 9.09332 308.201 6.47999 311.001C3.86665 313.894 2.55999 317.628 2.55999 322.201C2.55999 325.748 3.35332 328.641 4.93999 330.881C6.61999 333.215 9.18665 334.941 12.64 336.061C16.0933 337.275 20.5267 337.928 25.94 338.021C25.4733 340.355 24.5867 342.175 23.28 343.481C22.0667 344.881 20.2467 345.581 17.82 345.581C14.46 345.581 11.4733 344.321 8.85999 341.801C6.24665 339.375 4.19332 335.875 2.69999 331.301C1.29999 326.821 0.599986 321.408 0.599986 315.061ZM43.3 321.501C52.0733 321.501 58.9333 321.221 63.88 320.661C68.92 320.195 72.4667 319.308 74.52 318.001C76.6667 316.788 77.74 315.015 77.74 312.681C77.74 310.441 76.6667 308.575 74.52 307.081C72.4667 305.681 68.92 304.608 63.88 303.861C58.9333 303.115 52.0733 302.741 43.3 302.741L43.3 321.501ZM1.99998 355.333L3.39998 355.333L3.39998 355.893C3.39998 358.04 3.58665 359.813 3.95998 361.213C4.42665 362.613 5.31332 363.686 6.61998 364.433C8.01998 365.18 10.0733 365.553 12.78 365.553L66.82 365.553C69.34 365.553 71.2067 365.226 72.42 364.573C73.7267 363.92 74.5667 362.94 74.94 361.633C75.4067 360.326 75.64 358.646 75.64 356.593L75.64 356.033L77.04 356.033L77.04 392.573L63.46 392.573L63.46 392.853C66.9133 393.693 69.8067 394.953 72.14 396.633C74.4733 398.406 76.2 400.74 77.32 403.633C78.5333 406.526 79.14 410.026 79.14 414.133C79.14 421.6 77.04 427.246 72.84 431.073C68.64 434.9 61.8267 436.813 52.4 436.813L13.2 436.813C10.4 436.813 8.29998 437.046 6.89998 437.513C5.49998 438.073 4.56665 438.96 4.09998 440.173C3.63331 441.386 3.39998 443.02 3.39998 445.073L3.39998 445.633L1.99998 445.633L1.99998 409.653L54.92 409.653C60.8933 409.653 65.28 409.14 68.08 408.113C70.88 407.086 72.28 405.08 72.28 402.093C72.28 399.76 71.16 397.893 68.92 396.493C66.7733 395.186 63.9733 394.253 60.52 393.693C57.16 393.133 53.6133 392.853 49.88 392.853L12.36 392.853C9.83998 392.853 7.92665 393.133 6.61998 393.693C5.40665 394.346 4.56665 395.326 4.09998 396.633C3.63332 397.94 3.39998 399.62 3.39998 401.673L3.39998 402.233L1.99998 402.233L1.99998 355.333ZM0.599979 485.899C0.599979 478.713 2.27998 472.973 5.63998 468.679C8.99998 464.479 14.7866 462.379 23 462.379L75.64 462.379L75.64 452.019L77.04 452.019C77.04 456.406 77.3666 460.373 78.02 463.919C78.6733 467.559 79.6533 470.826 80.96 473.719C82.4533 476.986 84.32 479.786 86.56 482.119C88.8 484.546 91.46 486.599 94.54 488.279L94.54 489.679L77.04 489.679L77.04 507.319L75.64 507.319L75.64 489.679L16 489.679C11.9866 489.679 8.99998 490.519 7.03998 492.199C5.07998 493.879 4.09998 496.166 4.09998 499.059C4.09998 500.459 4.28664 501.953 4.65998 503.539C5.12664 505.126 5.73331 506.806 6.47998 508.579L5.07998 508.579C4.23998 506.899 3.25998 504.146 2.13998 500.319C1.11331 496.493 0.599978 491.686 0.599979 485.899ZM1.99998 512.546L3.39998 512.546L3.39998 513.246C3.39998 515.393 3.63331 517.166 4.09998 518.566C4.56664 520.06 5.49998 521.18 6.89998 521.926C8.39331 522.766 10.5866 523.186 13.48 523.186L66.12 523.186C68.92 523.186 70.9733 522.86 72.28 522.206C73.68 521.646 74.5666 520.713 74.94 519.406C75.4066 518.1 75.64 516.42 75.64 514.366L75.64 513.806L77.04 513.806L77.04 550.346L62.9 550.346L62.9 550.626C66.4466 551.56 69.3866 553.006 71.72 554.966C74.0533 556.926 75.8266 559.26 77.04 561.966C78.2533 564.766 78.86 567.893 78.86 571.346C78.86 576.666 77.5533 580.68 74.94 583.386C72.42 586.186 69.1533 587.586 65.14 587.586C60.38 587.586 56.74 585.72 54.22 581.986C51.7 578.253 50.44 573.166 50.44 566.726C55.5733 566.726 59.6333 566.493 62.62 566.026C65.6066 565.653 67.7533 564.953 69.06 563.926C70.3666 562.993 71.02 561.64 71.02 559.866C71.02 558.186 70.5066 556.74 69.48 555.526C68.4533 554.406 66.9133 553.473 64.86 552.726C62.8066 551.98 60.24 551.42 57.16 551.046C54.08 550.673 50.5333 550.486 46.52 550.486L12.78 550.486C10.0733 550.486 8.01998 550.813 6.61998 551.466C5.31331 552.213 4.42664 553.24 3.95998 554.546C3.58664 555.853 3.39998 557.346 3.39998 559.026L3.39998 563.926L1.99998 563.926L1.99998 512.546ZM0.599973 616.289C0.599973 611.622 1.39331 607.515 2.97997 603.969C4.65997 600.422 7.03997 597.622 10.12 595.569C13.2933 593.609 17.1666 592.629 21.74 592.629C28.6466 592.629 33.8733 595.195 37.42 600.329C40.9666 605.462 42.9266 613.209 43.3 623.569L43.72 634.909L62.76 634.909C66.5866 634.909 69.5733 634.675 71.72 634.209C73.8666 633.835 75.4066 633.135 76.34 632.109C77.2733 631.082 77.74 629.682 77.74 627.909C77.74 625.949 77.04 624.409 75.64 623.289C74.24 622.262 71.8133 621.515 68.36 621.049C65 620.582 60.38 620.349 54.5 620.349C54.5 612.975 55.2466 607.469 56.74 603.829C58.2333 600.282 60.7533 598.509 64.3 598.509C67.8466 598.509 70.6933 599.909 72.84 602.709C75.08 605.602 76.6666 609.429 77.6 614.189C78.6266 619.042 79.14 624.315 79.14 630.009C79.14 640.742 77.3666 648.769 73.82 654.089C70.3666 659.502 64.3 662.209 55.62 662.209L13.2 662.209C10.68 662.209 8.6733 662.442 7.17997 662.909C5.77997 663.469 4.79997 664.355 4.23997 665.569C3.67997 666.782 3.39997 668.415 3.39997 670.469L3.39997 671.029L1.99997 671.029L1.99997 635.049L13.2 635.049L13.2 634.769C9.74664 633.649 7.08664 632.155 5.21997 630.289C3.44664 628.422 2.23331 626.275 1.57997 623.849C0.926639 621.515 0.599973 618.995 0.599973 616.289ZM6.33997 626.509C6.33997 628.282 7.13331 629.775 8.71997 630.989C10.4 632.295 12.5933 633.275 15.3 633.929C18.0066 634.675 21.0866 635.049 24.54 635.049L42.32 635.049L42.04 630.569C41.8533 627.955 41.1066 625.902 39.8 624.409C38.5866 622.915 36.6266 621.842 33.92 621.189C31.2133 620.629 27.6666 620.349 23.28 620.349C19.4533 620.349 16.28 620.582 13.76 621.049C11.24 621.515 9.37331 622.169 8.15997 623.009C6.94664 623.942 6.33997 625.109 6.33997 626.509ZM1.99997 677.325L3.39997 677.325L3.39997 678.865C3.39997 680.639 3.67997 682.179 4.23997 683.485C4.8933 684.792 5.91997 685.819 7.31997 686.565C8.8133 687.312 10.7733 687.685 13.2 687.685L99.16 687.685C101.493 687.685 103.173 687.079 104.2 685.865C105.32 684.745 106.067 683.485 106.44 682.085C106.813 680.685 107 679.612 107 678.865L107 677.325L108.4 677.325L108.4 714.985L13.2 714.985C10.7733 714.985 8.8133 715.359 7.31997 716.105C5.91997 716.852 4.8933 717.879 4.23997 719.185C3.67997 720.585 3.39997 722.125 3.39997 723.805L3.39997 725.345L1.99997 725.345L1.99997 677.325ZM1.99997 729.799L3.39997 729.799L3.39997 731.479C3.39997 733.252 3.72663 734.792 4.37997 736.099C5.0333 737.406 6.10663 738.432 7.59997 739.179C9.0933 739.926 11.1466 740.299 13.76 740.299L66.4 740.299C68.7333 740.299 70.5533 739.879 71.86 739.039C73.1666 738.292 74.1 737.266 74.66 735.959C75.3133 734.652 75.64 733.159 75.64 731.479L75.64 728.819L77.04 728.819L77.04 767.459L13.2 767.459C10.7733 767.459 8.8133 767.832 7.31997 768.579C5.91997 769.326 4.8933 770.352 4.23997 771.659C3.67997 773.059 3.39997 774.599 3.39997 776.279L3.39997 777.819L1.99997 777.819L1.99997 729.799ZM88.66 753.179C88.66 749.539 89.5933 746.506 91.46 744.079C93.42 741.652 96.1733 740.439 99.72 740.439C103.547 740.439 106.347 741.652 108.12 744.079C109.893 746.506 110.78 749.539 110.78 753.179C110.78 756.632 109.893 759.619 108.12 762.139C106.347 764.752 103.547 766.059 99.72 766.059C96.1733 766.059 93.42 764.752 91.46 762.139C89.5933 759.619 88.66 756.632 88.66 753.179ZM1.99997 780.756L3.39997 780.756L75.64 826.956L75.64 808.476C75.64 803.716 75.0333 799.889 73.82 796.996C72.6066 794.103 70.5533 791.909 67.66 790.416C64.86 789.016 60.9866 788.036 56.04 787.476L52.26 787.056L52.26 785.656L77.04 787.476L77.04 852.996L75.64 852.996L3.39996 806.796L3.39996 830.876C3.39996 836.103 4.00663 840.256 5.21996 843.336C6.52663 846.509 8.6733 848.843 11.66 850.336C14.74 851.829 18.9866 852.809 24.4 853.276L29.3 853.696L29.3 855.096L1.99996 854.116L1.99997 780.756ZM0.59996 901.995C0.599961 888.741 3.95996 878.801 10.68 872.175C17.4933 865.641 27.0133 862.375 39.24 862.375C52.4 862.375 62.34 865.641 69.06 872.175C75.78 878.708 79.14 887.901 79.14 899.755C79.14 910.768 76.2466 919.401 70.46 925.655C64.7666 932.001 56.3666 935.175 45.26 935.175L41.9 935.175L41.9 889.675C32.4733 889.768 24.8666 890.468 19.08 891.775C13.2933 893.081 9.09329 895.135 6.47996 897.935C3.86663 900.828 2.55996 904.561 2.55996 909.135C2.55996 912.681 3.35329 915.575 4.93996 917.815C6.61996 920.148 9.18663 921.875 12.64 922.995C16.0933 924.208 20.5266 924.861 25.94 924.955C25.4733 927.288 24.5866 929.108 23.28 930.415C22.0666 931.815 20.2466 932.515 17.82 932.515C14.46 932.515 11.4733 931.255 8.85996 928.735C6.24663 926.308 4.19329 922.808 2.69996 918.235C1.29996 913.755 0.59996 908.341 0.59996 901.995ZM43.3 908.435C52.0733 908.435 58.9333 908.155 63.88 907.595C68.92 907.128 72.4666 906.241 74.52 904.935C76.6666 903.721 77.74 901.948 77.74 899.615C77.74 897.375 76.6666 895.508 74.52 894.015C72.4666 892.615 68.92 891.541 63.88 890.795C58.9333 890.048 52.0733 889.675 43.3 889.675L43.3 908.435ZM0.599957 973.207C0.599957 967.233 2.04662 962.193 4.93996 958.087C7.92663 953.98 12.36 950.9 18.24 948.847C24.12 946.793 31.3533 945.767 39.94 945.767C48.5266 945.767 55.6666 946.793 61.36 948.847C67.1466 950.9 71.4866 953.887 74.38 957.807C77.3666 961.727 78.86 966.487 78.86 972.087C78.86 977.967 77.18 982.773 73.82 986.507C70.5533 990.24 65.28 992.713 58 993.927L58 994.207C61.64 994.207 65.1866 994.16 68.64 994.067C72.1866 994.067 75.4533 994.067 78.44 994.067C81.4266 994.067 83.9 994.067 85.86 994.067L97.76 994.067C100.373 994.067 102.333 993.6 103.64 992.667C104.947 991.827 105.833 990.613 106.3 989.027C106.767 987.44 107 985.667 107 983.707L107 981.747L108.4 981.747L108.4 1021.37L13.06 1021.37C10.26 1021.37 8.15996 1021.88 6.75996 1022.91C5.45329 1023.93 4.56662 1025.24 4.09996 1026.83C3.63329 1028.41 3.39995 1029.95 3.39995 1031.45L3.39995 1032.29L1.99995 1032.29L1.99996 994.207L20.48 994.207L20.48 993.927C13.5733 992.62 8.53329 990.427 5.35996 987.347C2.18662 984.267 0.599957 979.553 0.599957 973.207ZM5.07996 982.727C5.07996 985.993 8.11329 988.7 14.18 990.847C20.34 992.993 28.9266 994.067 39.94 994.067C46.66 994.067 52.4466 993.6 57.3 992.667C62.2466 991.733 66.0266 990.427 68.64 988.747C71.3466 987.067 72.7 985.107 72.7 982.867C72.7 980.72 71.3933 978.9 68.78 977.407C66.26 976.007 62.5733 974.933 57.72 974.187C52.96 973.533 47.1266 973.207 40.22 973.207C32.7533 973.207 26.4066 973.533 21.18 974.187C15.9533 974.84 11.94 975.867 9.13996 977.267C6.43329 978.76 5.07996 980.58 5.07996 982.727Z" fill="#333333"/>
</svg>
