<svg width="109" height="254" viewBox="0 0 109 254" fill="none" xmlns="http://www.w3.org/2000/svg">
<path d="M0.599997 50.5849C0.599998 39.3849 2.74667 30.0983 7.04 22.7249C11.3333 15.3516 17.3533 9.79825 25.1 6.06492C32.8467 2.42492 41.9 0.604917 52.26 0.604918C62.62 0.604918 71.6267 2.42492 79.28 6.06492C86.9333 9.79825 92.86 15.3516 97.06 22.7249C101.353 30.1916 103.5 39.5249 103.5 50.7249C103.5 61.3649 101.353 70.3716 97.06 77.7449C92.86 85.1183 86.8867 90.7183 79.14 94.5449C71.4867 98.3716 62.48 100.285 52.12 100.285C41.76 100.285 32.7067 98.3716 24.96 94.5449C17.3067 90.7183 11.3333 85.0716 7.04 77.6049C2.74666 70.2316 0.599997 61.2249 0.599997 50.5849ZM2 50.5849C2 54.3183 2.88666 57.4916 4.66 60.1049C6.43333 62.7183 9.23333 64.8183 13.06 66.4049C16.98 67.9916 22.16 69.1116 28.6 69.7649C35.04 70.5116 42.88 70.8849 52.12 70.8849C61.36 70.8849 69.1533 70.5116 75.5 69.7649C81.94 69.1116 87.0733 67.9916 90.9 66.4049C94.82 64.8183 97.6667 62.7183 99.44 60.1049C101.213 57.5849 102.1 54.4583 102.1 50.7249C102.1 46.8983 101.213 43.6316 99.44 40.9249C97.6667 38.3116 94.82 36.1649 90.9 34.4849C87.0733 32.8983 81.94 31.7316 75.5 30.9849C69.1533 30.3316 61.36 30.0049 52.12 30.0049C42.88 30.0049 35.04 30.3316 28.6 30.9849C22.16 31.7316 16.98 32.8983 13.06 34.4849C9.23333 36.1649 6.43333 38.3116 4.66 40.9249C2.88666 43.5382 2 46.7582 2 50.5849ZM1.99999 110.689L3.39999 110.689L3.39999 112.229C3.39999 114.002 3.67999 115.542 4.23999 116.849C4.89333 118.155 5.91999 119.182 7.31999 119.929C8.81333 120.675 10.7733 121.049 13.2 121.049L99.16 121.049C101.493 121.049 103.173 120.442 104.2 119.229C105.32 118.109 106.067 116.849 106.44 115.449C106.813 114.049 107 112.975 107 112.229L107 110.689L108.4 110.689L108.4 148.349L13.2 148.349C10.7733 148.349 8.81333 148.722 7.31999 149.469C5.91999 150.215 4.89333 151.242 4.23999 152.549C3.67999 153.949 3.39999 155.489 3.39999 157.169L3.39999 158.709L1.99999 158.709L1.99999 110.689ZM0.599991 194.382C0.599991 188.409 2.04666 183.369 4.93999 179.262C7.92666 175.156 12.36 172.076 18.24 170.022C24.12 167.969 31.3533 166.942 39.94 166.942C48.5267 166.942 55.6667 167.969 61.36 170.022C67.1467 172.076 71.4867 175.062 74.38 178.982C77.3667 182.902 78.86 187.662 78.86 193.262C78.86 199.142 77.18 203.949 73.82 207.682C70.5533 211.416 65.28 213.889 58 215.102L58 215.382C61.64 215.382 65.1867 215.336 68.64 215.242C72.1867 215.242 75.4533 215.242 78.44 215.242C81.4267 215.242 83.9 215.242 85.86 215.242L97.76 215.242C100.373 215.242 102.333 214.776 103.64 213.842C104.947 213.002 105.833 211.789 106.3 210.202C106.767 208.616 107 206.842 107 204.882L107 202.922L108.4 202.922L108.4 242.542L13.06 242.542C10.26 242.542 8.15999 243.056 6.75999 244.082C5.45332 245.109 4.56666 246.416 4.09999 248.002C3.63332 249.589 3.39999 251.129 3.39999 252.622L3.39999 253.462L1.99999 253.462L1.99999 215.382L20.48 215.382L20.48 215.102C13.5733 213.796 8.53332 211.602 5.35999 208.522C2.18666 205.442 0.599991 200.729 0.599991 194.382ZM5.07999 203.902C5.07999 207.169 8.11332 209.876 14.18 212.022C20.34 214.169 28.9267 215.242 39.94 215.242C46.66 215.242 52.4467 214.776 57.3 213.842C62.2467 212.909 66.0267 211.602 68.64 209.922C71.3467 208.242 72.7 206.282 72.7 204.042C72.7 201.896 71.3933 200.076 68.78 198.582C66.26 197.182 62.5733 196.109 57.72 195.362C52.96 194.709 47.1267 194.382 40.22 194.382C32.7533 194.382 26.4067 194.709 21.18 195.362C15.9533 196.016 11.94 197.042 9.13999 198.442C6.43332 199.936 5.07999 201.756 5.07999 203.902Z" fill="#333333"/>
</svg>
