<svg xmlns="http://www.w3.org/2000/svg" xmlns:xlink="http://www.w3.org/1999/xlink">
  <symbol id="coin-btc" viewBox="0 0 30 30" >
    <path fill-rule="evenodd" clip-rule="evenodd" d="M16.5206 16.4662V16.4644C16.4175 16.4719 15.8859 16.5037 14.7 16.5037C13.7531 16.5037 13.0866 16.4756 12.8522 16.4644V16.4672C9.20719 16.3069 6.48656 15.6722 6.48656 14.9128C6.48656 14.1544 9.20719 13.5197 12.8522 13.3566V15.8353C13.0903 15.8522 13.7728 15.8925 14.7159 15.8925C15.8475 15.8925 16.4147 15.8456 16.5206 15.8362V13.3584C20.1581 13.5206 22.8722 14.1553 22.8722 14.9128C22.8722 15.6722 20.1581 16.305 16.5206 16.4662ZM16.5206 13.1006V10.8825H21.5962V7.5H7.77656V10.8825H12.8522V13.0997C8.72719 13.2891 5.625 14.1066 5.625 15.0853C5.625 16.0641 8.72719 16.8806 12.8522 17.0709V24.1791H16.5206V17.0691C20.6391 16.8797 23.7337 16.0631 23.7337 15.0853C23.7337 14.1075 20.6391 13.2909 16.5206 13.1006Z" fill="#44FFC5"/>
  </symbol>
  <symbol id="coin-usdt" viewBox="0 0 38 38" >
    <path d="M18.75 37.5c10.355 0 18.75-8.395 18.75-18.75S29.105 0 18.75 0 0 8.395 0 18.75 8.395 37.5 18.75 37.5z" fill="%23191919"/><path fill-rule="evenodd" clip-rule="evenodd" d="M20.65 20.583v-.002c-.128.009-.793.049-2.275.049-1.184 0-2.017-.035-2.31-.05v.004c-4.556-.2-7.957-.994-7.957-1.943 0-.948 3.401-1.741 7.957-1.945v3.098c.298.021 1.151.072 2.33.072 1.414 0 2.123-.059 2.256-.07v-3.098c4.547.203 7.94.996 7.94 1.943 0 .95-3.393 1.74-7.94 1.942zm0-4.207v-2.773h6.345V9.375H9.721v4.228h6.344v2.772c-5.156.236-9.034 1.258-9.034 2.482 0 1.223 3.878 2.244 9.034 2.482v8.885h4.586v-8.888c5.148-.236 9.016-1.257 9.016-2.48 0-1.222-3.868-2.242-9.016-2.48z" fill="%2344FFC5"/>
  </symbol>
  <symbol id="coin-eth" viewBox="0 0 30 30" >
    <path d="M15 3.75V12.0656L22.0284 15.2062L15 3.75Z" fill="white" fill-opacity="0.2"/>
    <path d="M14.9981 3.75L7.96875 15.2062L14.9981 12.0656V3.75Z" fill="#1EC7FB"/>
    <path d="M15 20.955V26.6053L22.0331 16.875L15 20.955Z" fill="white" fill-opacity="0.2"/>
    <path d="M14.9981 26.6053V20.9541L7.96875 16.875L14.9981 26.6053Z" fill="#1EC7FB"/>
    <path d="M15 19.4072L22.0284 15.3263L15 12.1875V19.4072Z" fill="white" fill-opacity="0.6"/>
    <path d="M7.96875 15.3263L14.9981 19.4072V12.1875L7.96875 15.3263Z" fill="white" fill-opacity="0.2"/>
  </symbol>
  <symbol id="coin-cpeso" viewBox="0 0 60 60" >
    <path d="M46.9624 39.7986C48.5957 36.9441 49.5408 33.6415 49.5408 30.1232C49.5408 26.6049 48.6786 23.601 47.178 20.8378L46.8215 21.0203L43.2317 22.8791L42.5436 23.2359L37.7682 25.7917C36.2593 23.1114 33.3825 21.2942 30.0912 21.2942C25.2246 21.2942 21.2783 25.244 21.2783 30.1149C21.2783 34.9858 25.2246 38.9356 30.0912 38.9356C33.3659 38.9356 36.2179 37.1433 37.7434 34.4879L43.1737 37.5748L46.9624 39.7986Z" fill="#1BEEF4"/>
    <path d="M40.8443 20.7799L45.2134 17.9005C42.8506 14.9879 39.6753 12.7723 36.0192 11.6023C35.8866 11.5608 35.7622 11.511 35.6296 11.4696V7.85994L31.8076 7.01355V15.9836H31.8739C35.4389 16.44 38.5893 18.2075 40.836 20.7882L40.8443 20.7799Z" fill="#1BEEF4"/>
    <path d="M28.4 49.4991L28.4331 44.2631C21.353 43.4333 15.8647 37.4256 15.8647 30.1151C15.8647 22.8046 21.1292 17.0624 27.9855 16.0417V6.98035L24.1718 7.83504V11.594H24.1552C16.3289 14.1166 10.6582 21.452 10.6582 30.1234C10.6582 38.7947 16.5362 46.404 24.578 48.7855V52.1794L28.3917 53.0257V49.5074L28.4 49.4991Z" fill="#1BEEF4"/>
    <path d="M32.0395 44.2215V53.0173L35.8532 52.1709V48.7024C39.3435 47.6237 42.411 45.5907 44.749 42.9021L40.413 39.9149C38.2409 42.2051 35.3143 43.7651 32.0312 44.2215H32.0395Z" fill="#1BEEF4"/>
  </symbol>
  <symbol id="coin-trx" viewBox="0 0 60 60" >
    <path d="M43.2562 15H48.675L37.3969 26.1694C35.4251 28.1121 32.7681 29.2011 30 29.2011C27.2319 29.2011 24.5749 28.1121 22.6031 26.1694L11.3156 15H16.7438L25.3125 23.4806C26.5603 24.7122 28.243 25.4028 29.9963 25.4028C31.7495 25.4028 33.4322 24.7122 34.68 23.4806L43.2562 15ZM16.6781 46.0556H11.25L22.6031 34.8188C24.5749 32.876 27.2319 31.787 30 31.787C32.7681 31.787 35.4251 32.876 37.3969 34.8188L48.75 46.0538H43.3219L34.6875 37.5C33.4397 36.2684 31.757 35.5778 30.0038 35.5778C28.2505 35.5778 26.5678 36.2684 25.32 37.5L16.6762 46.0556H16.6781Z" fill="white"/>
  </symbol>

  <symbol id="custom-logo" viewBox="0 0 71 65">
    <path d="M70.706 27.009C71.2975 25.9668 70.5403 24.6758 69.3455 24.6758L55.0187 24.6521C54.4509 24.6521 53.9303 24.9482 53.6582 25.4456L37.3203 54.2142C36.7288 55.2565 37.4859 56.5593 38.6808 56.5593H52.0493C53.256 56.5593 54.3799 55.9079 54.9714 54.8538L70.706 27.009Z" fill="url(#paint0_linear_960_4914)"/>
    <path d="M64.5198 9.46829L50.5717 9.37354C50.0157 9.37354 49.4951 9.66963 49.223 10.1671L37.1441 32.2202L30.5545 44.0759C29.3123 46.0538 27.2301 47.4395 24.8167 47.7475C20.0254 48.3515 15.8729 44.3838 15.8729 39.5516V35.7852C15.8729 35.7852 15.8374 35.7497 15.8255 35.7734L13.0454 40.7478C13.0454 40.7478 13.0454 40.7478 13.0454 40.7596L13.1518 41.6834V41.6953L9.50806 48.162V48.1857L14.607 56.7725V56.7132C17.2807 61.3797 22.2968 64.5301 28.0583 64.5301C33.8197 64.5301 38.7885 61.4152 41.4622 56.7725L47.0935 47.2856L55.0436 32.2202L65.8685 11.7068C66.4009 10.7 65.6792 9.48013 64.5317 9.46829H64.5198Z" fill="url(#paint1_linear_960_4914)"/>
    <path d="M23.8104 47.8065C19.4212 47.8065 15.8603 44.2415 15.8603 39.8475V35.6785L13.021 40.7476L13.1274 41.6833L9.4718 48.1737L14.5826 56.7723V56.7131" fill="url(#paint2_linear_960_4914)"/>
    <path d="M9.48364 48.1858L1.21413 33.6179C0.729079 32.7533 0.729079 31.6992 1.21413 30.8346L17.7295 1.74621C18.2264 0.869767 19.161 0.324951 20.1784 0.324951L34.1502 0.348638C35.1795 0.348638 35.8301 1.46196 35.3214 2.36209L9.48364 48.1858Z" fill="url(#paint3_linear_960_4914)"/>
    <defs>
      <linearGradient id="paint0_linear_960_4914" x1="37.1192" y1="40.6057" x2="70.9071" y2="40.6057" gradientUnits="userSpaceOnUse">
       <stop stop-color="#1859A8"/>
       <stop offset="1" stop-color="#0094D6"/>
      </linearGradient>
      <linearGradient id="paint1_linear_960_4914" x1="53.0798" y1="12.2397" x2="19.5497" y2="58.8923" gradientUnits="userSpaceOnUse">
       <stop stop-color="#1859A8"/>
       <stop offset="1" stop-color="#0094D6"/>
      </linearGradient>
      <linearGradient id="paint2_linear_960_4914" x1="28.8856" y1="58.2646" x2="10.5541" y2="42.1538" gradientUnits="userSpaceOnUse">
        <stop offset="0.46" stop-color="#187FC4" stop-opacity="0"/>
        <stop offset="1" stop-color="#004654"/>
      </linearGradient>
      <linearGradient id="paint3_linear_960_4914" x1="28.4124" y1="2.07783" x2="4.91538" y2="38.2839" gradientUnits="userSpaceOnUse">
        <stop stop-color="#1859A8"/>
        <stop offset="1" stop-color="#0094D6"/>
      </linearGradient>
    </defs>
  </symbol>
</svg>
