<svg width="238" height="238" viewBox="0 0 238 238" fill="none" xmlns="http://www.w3.org/2000/svg">
<path d="M126.085 158.711C126.085 158.711 101.197 145.645 102.678 116.461C102.678 116.461 103.301 89.1142 130.381 77.2925C130.381 77.2925 153.906 67.0707 174.112 82.3293C174.112 82.3293 185.934 91.5141 199.178 82.5071L228.925 61.0265C228.925 61.0265 195.03 10.0658 131.596 20.7616C136.692 22.2431 141.58 24.643 144.988 28.8205C149.906 34.8647 149.284 43.3384 145.995 50.0048C144.306 53.4417 142.143 56.3749 138.677 58.123C135.033 59.9599 130.825 60.4043 126.766 60.4043C126.263 60.4043 125.789 60.4043 125.285 60.3747C118.737 60.1673 112.426 59.7229 105.849 60.3747C93.3752 61.6487 79.6277 65.5597 77.9685 80.0183C77.5833 83.4255 78.561 87.0106 80.9017 89.5586C83.1238 91.9881 86.3533 92.7881 89.405 93.7362C91.9827 94.5362 94.9751 95.6028 96.6047 97.9138C100.071 102.921 93.4641 108.017 89.405 109.558C82.5016 112.195 74.739 111.661 67.5393 110.832C61.7322 110.15 55.8065 109.054 50.1771 107.454C49.7327 107.336 49.2586 107.217 48.7846 107.069C37.9703 104.225 23.6894 103.128 15.1861 111.543C7.00866 119.631 6.53461 134.357 15.4824 141.882C25.8819 150.593 39.985 150.178 52.9029 148.43C55.0658 148.134 57.1694 147.808 59.2434 147.482C65.3764 146.504 71.5984 146.089 77.7907 145.941C84.1904 145.793 90.8272 145.941 97.0491 147.541C102.856 149.052 108.634 154.593 109.849 160.548C110.678 164.696 108.575 168.192 105.019 170.237C101.167 172.488 97.0491 172.548 92.7826 173.259C91.953 173.407 91.1235 173.585 90.3235 173.822C86.7681 174.918 84.2201 178.088 83.6571 181.732C82.7386 187.48 86.4422 192.754 89.9679 196.902C93.3456 200.872 97.3454 204.279 101.671 207.124C117.315 215.301 138.144 220.901 164.572 217.494C164.572 217.494 203.859 212.931 228.984 176.844L184.571 145.171C184.571 145.171 164.631 176.31 126.085 158.711Z" fill="url(#paint0_linear_19534_4341)"/>
<path opacity="0.8" d="M48.725 107.098C37.9107 104.254 23.6298 103.158 15.1265 111.572C6.94909 119.661 6.47504 134.386 15.4228 141.912C25.8223 150.622 39.9254 150.208 52.8434 148.459C47.451 131.245 47.5695 116.579 48.725 107.098Z" fill="url(#paint1_linear_19534_4341)"/>
<path d="M67.4797 110.832C74.6793 111.691 82.4123 112.195 89.3454 109.558C93.4044 108.017 100.012 102.921 96.545 97.9139C94.9451 95.6029 91.9527 94.5362 89.3454 93.7363C86.3233 92.8178 83.0642 91.9882 80.842 89.5587C78.5014 87.0106 77.5237 83.4256 77.9088 80.0184C79.568 65.5597 93.3452 61.6192 105.789 60.3748C112.337 59.723 118.677 60.1674 125.225 60.3748C125.729 60.4044 126.203 60.4044 126.707 60.4044C130.736 60.434 134.943 59.96 138.617 58.123C142.084 56.375 144.247 53.4121 145.935 50.0049C149.224 43.3385 149.817 34.8944 144.928 28.8206C141.55 24.643 136.662 22.2431 131.536 20.7617C125.196 21.8283 118.559 23.5172 111.626 25.917C111.626 25.917 63.4798 42.42 51.036 95.514C51.036 95.514 49.5545 99.7804 48.6953 107.069C49.1694 107.188 49.6434 107.306 50.0878 107.454C55.7469 109.054 61.6725 110.15 67.4797 110.832Z" fill="url(#paint2_linear_19534_4341)"/>
<path d="M89.8785 196.991C86.3527 192.843 82.6492 187.569 83.5677 181.821C84.1306 178.177 86.6786 175.036 90.234 173.91C91.034 173.644 91.8636 173.466 92.6932 173.347C96.9597 172.636 101.078 172.577 104.93 170.325C108.455 168.251 110.589 164.785 109.759 160.637C108.574 154.681 102.796 149.141 96.9597 147.63C90.7081 146 84.101 145.852 77.7013 146.03C71.4793 146.178 65.287 146.593 59.1539 147.571C57.08 147.897 54.9763 148.222 52.8135 148.519C55.3911 156.755 59.2132 165.555 64.8129 174.651C64.8129 174.651 76.5754 194.235 101.552 207.272C97.256 204.339 93.2858 200.961 89.8785 196.991Z" fill="url(#paint3_linear_19534_4341)"/>
<path d="M40.6064 86.0918C45.09 86.0918 48.7246 82.4572 48.7246 77.9736C48.7246 73.4901 45.09 69.8555 40.6064 69.8555C36.1229 69.8555 32.4883 73.4901 32.4883 77.9736C32.4883 82.4572 36.1229 86.0918 40.6064 86.0918Z" fill="#0EB6FA"/>
<path d="M136.218 207.213C132.929 200.931 132.484 192.843 137.788 187.451C140.721 184.458 144.869 183.036 148.898 182.295C154.587 181.229 160.661 183.569 166.113 180.932C168.572 179.747 170.468 177.703 171.535 175.184C173.401 170.799 171.297 165.852 166.675 164.4C162.32 163.037 157.728 164.34 153.283 164.311C152.365 164.311 151.032 164.252 149.639 164.074C142.765 164.192 134.914 162.741 126.055 158.711C126.055 158.711 101.167 145.645 102.649 116.461C102.649 116.461 103.271 89.1142 130.351 77.2925C130.351 77.2925 153.876 67.0707 174.083 82.3293C174.083 82.3293 185.904 91.5141 199.148 82.5071L228.895 61.0265C228.895 61.0265 195 10.0658 131.566 20.7616C136.662 22.2431 141.551 24.643 144.958 28.8205C149.876 34.8647 149.254 43.3384 145.965 50.0048C144.276 53.4417 142.114 56.3749 138.647 58.123C135.003 59.9599 130.796 60.4043 126.736 60.4043C126.233 60.4043 125.759 60.4043 125.255 60.3747C118.707 60.1673 112.396 59.7229 105.819 60.3747C93.3454 61.6487 79.5978 65.5597 77.9387 80.0183C77.5535 83.4255 78.5312 87.0106 80.8719 89.5586C83.094 91.9881 86.3235 92.7881 89.3752 93.7362C91.9529 94.5362 94.9453 95.6028 96.5749 97.9138C100.041 102.921 93.4343 108.017 89.3752 109.558C82.4718 112.195 74.7092 111.661 67.5095 110.832C61.7023 110.15 55.7767 109.054 50.1473 107.454C49.7029 107.336 49.2288 107.217 48.7548 107.069C47.5993 116.55 47.4807 131.216 52.9027 148.43C55.0656 148.134 57.1692 147.808 59.2432 147.482C65.3763 146.504 71.5982 146.089 77.7905 145.941C84.1902 145.793 90.827 145.941 97.0489 147.541C102.856 149.052 108.634 154.593 109.848 160.548C110.678 164.696 108.574 168.192 105.019 170.237C101.167 172.488 97.0489 172.548 92.7824 173.259C91.9529 173.407 91.1233 173.585 90.3233 173.822C86.7679 174.918 84.2199 178.088 83.6569 181.732C82.7384 187.48 86.442 192.754 89.9678 196.902C93.3454 200.872 97.3452 204.279 101.671 207.124C115.27 214.235 132.781 219.39 154.469 218.353C153.432 218.264 152.395 218.146 151.358 217.938C144.839 216.842 139.299 213.079 136.218 207.213Z" fill="url(#paint4_linear_19534_4341)"/>
<path d="M149.669 164.074C151.061 164.252 152.365 164.281 153.313 164.311C157.757 164.34 162.35 163.037 166.705 164.4C171.327 165.851 173.431 170.799 171.564 175.184C170.498 177.703 168.631 179.747 166.142 180.932C160.691 183.54 154.617 181.229 148.928 182.295C144.899 183.036 140.78 184.458 137.818 187.451C132.485 192.843 132.959 200.931 136.247 207.213C139.299 213.079 144.869 216.842 151.328 218.057C152.365 218.234 153.373 218.382 154.439 218.471C157.698 218.323 161.076 218.027 164.542 217.583C164.542 217.583 203.83 213.02 228.954 176.932L184.571 145.171C184.571 145.171 172.72 163.629 149.669 164.074Z" fill="url(#paint5_linear_19534_4341)"/>
<path d="M164.335 41.383C167.787 41.383 170.586 38.5841 170.586 35.1315C170.586 31.6788 167.787 28.8799 164.335 28.8799C160.882 28.8799 158.083 31.6788 158.083 35.1315C158.083 38.5841 160.882 41.383 164.335 41.383Z" fill="#0EB6FA"/>
<defs>
<linearGradient id="paint0_linear_19534_4341" x1="8.8548" y1="118.95" x2="228.916" y2="118.95" gradientUnits="userSpaceOnUse">
<stop stop-color="#02BDFD"/>
<stop offset="1" stop-color="#661AFD"/>
</linearGradient>
<linearGradient id="paint1_linear_19534_4341" x1="8.85449" y1="127.241" x2="52.8564" y2="127.241" gradientUnits="userSpaceOnUse">
<stop stop-color="#02BDFD"/>
<stop offset="1" stop-color="#661AFD"/>
</linearGradient>
<linearGradient id="paint2_linear_19534_4341" x1="126.319" y1="84.2117" x2="71.1278" y2="52.3473" gradientUnits="userSpaceOnUse">
<stop stop-color="#02BDFD"/>
<stop offset="1" stop-color="#661AFD"/>
</linearGradient>
<linearGradient id="paint3_linear_19534_4341" x1="81.4143" y1="207.22" x2="81.4143" y2="145.938" gradientUnits="userSpaceOnUse">
<stop stop-color="#02BDFD"/>
<stop offset="1" stop-color="#661AFD"/>
</linearGradient>
<linearGradient id="paint4_linear_19534_4341" x1="48.0869" y1="118.946" x2="228.915" y2="118.946" gradientUnits="userSpaceOnUse">
<stop stop-color="#02BDFD"/>
<stop offset="1" stop-color="#661AFD"/>
</linearGradient>
<linearGradient id="paint5_linear_19534_4341" x1="219.164" y1="255.468" x2="162.216" y2="156.83" gradientUnits="userSpaceOnUse">
<stop stop-color="#02BDFD"/>
<stop offset="1" stop-color="#661AFD"/>
</linearGradient>
</defs>
</svg>
