<svg width="116" height="24" viewBox="0 0 116 24" fill="none" xmlns="http://www.w3.org/2000/svg">
<path d="M48.9425 7.28076C49.7586 7.32633 50.4289 7.63395 50.9535 8.20361C51.4781 8.76188 51.857 9.3999 52.0902 10.1177C52.3234 10.8354 52.4399 11.5703 52.4399 12.3223C52.4399 13.0742 52.3234 13.8091 52.0902 14.5269C51.8687 15.2446 51.4898 15.8883 50.9535 16.458C50.4289 17.0163 49.7586 17.3182 48.9425 17.3638H42.5072C42.1924 17.3524 41.9242 17.2441 41.7027 17.0391C41.4929 16.8226 41.3821 16.5605 41.3705 16.2529V12.0146C41.3821 11.6956 41.5046 11.4336 41.7377 11.2285C41.9709 11.012 42.2507 10.9038 42.5771 10.9038C42.8919 10.9152 43.16 11.0291 43.3815 11.2456C43.603 11.4507 43.7196 11.707 43.7313 12.0146V14.6123C43.7313 14.9199 43.8945 15.0737 44.2209 15.0737H48.3479C48.7909 15.0509 49.1582 14.8857 49.4496 14.5781C49.7411 14.2705 49.9509 13.923 50.0792 13.5356C50.219 13.1369 50.289 12.7324 50.289 12.3223C50.289 11.9121 50.219 11.5133 50.0792 11.126C49.9509 10.7272 49.7411 10.374 49.4496 10.0664C49.1582 9.75879 48.7909 9.59359 48.3479 9.5708H42.5072C41.8077 9.51383 41.4288 9.14356 41.3705 8.45996C41.3705 8.14095 41.4754 7.86751 41.6853 7.63965C41.9068 7.41178 42.1807 7.29216 42.5072 7.28076H48.9425Z" fill="black"/>
<path d="M55.5527 9.43408C55.8674 9.44548 56.1356 9.55941 56.3571 9.77588C56.5786 9.98096 56.6952 10.2373 56.7068 10.5449V16.458C56.6369 17.1416 56.2522 17.5119 55.5527 17.5688C55.2262 17.5688 54.9406 17.4663 54.6958 17.2612C54.4626 17.0448 54.346 16.777 54.346 16.458V10.5449C54.3577 10.2259 54.4801 9.96387 54.7133 9.75879C54.9464 9.54232 55.2262 9.43408 55.5527 9.43408ZM54.0837 7.2124C54.0837 6.89339 54.2236 6.61995 54.5034 6.39209C54.7832 6.16423 55.1213 6.05029 55.5177 6.05029C55.9141 6.05029 56.2522 6.16423 56.532 6.39209C56.8118 6.61995 56.9517 6.89339 56.9517 7.2124C56.9517 7.54281 56.8118 7.82194 56.532 8.0498C56.2522 8.27767 55.9141 8.3916 55.5177 8.3916C55.1213 8.3916 54.7832 8.27767 54.5034 8.0498C54.2236 7.82194 54.0837 7.54281 54.0837 7.2124Z" fill="black"/>
<path d="M62.1629 7.28076H69.5425C69.8689 7.29216 70.1371 7.41178 70.3469 7.63965C70.5684 7.86751 70.6792 8.14095 70.6792 8.45996C70.6209 9.14356 70.242 9.51383 69.5425 9.5708H62.7574C62.3144 9.59359 61.9472 9.75879 61.6557 10.0664C61.3643 10.374 61.1486 10.7272 61.0087 11.126C60.8805 11.5133 60.8163 11.9121 60.8163 12.3223C60.8163 12.7324 60.8805 13.1369 61.0087 13.5356C61.1486 13.923 61.3643 14.2705 61.6557 14.5781C61.9472 14.8857 62.3144 15.0509 62.7574 15.0737H68.0736C68.2834 15.0623 68.3942 14.9484 68.4058 14.7319V13.7407C68.3942 13.5129 68.2834 13.3989 68.0736 13.3989H63.5968C63.2704 13.3989 62.9906 13.2907 62.7574 13.0742C62.5359 12.8464 62.4252 12.5729 62.4252 12.2539C62.4252 11.9349 62.5359 11.6615 62.7574 11.4336C62.9906 11.2171 63.2704 11.1089 63.5968 11.1089H69.5775C69.9039 11.1089 70.1837 11.2171 70.4169 11.4336C70.6267 11.6501 70.7375 11.9121 70.7491 12.2197V12.2539V16.2529C70.7375 16.5605 70.6267 16.8169 70.4169 17.022C70.1954 17.2384 69.9272 17.3524 69.6124 17.3638H62.1629C61.3468 17.3182 60.6706 17.0163 60.1343 16.458C59.6097 15.8883 59.2308 15.2446 58.9977 14.5269C58.7762 13.8091 58.6654 13.0742 58.6654 12.3223C58.6654 11.5703 58.782 10.8354 59.0152 10.1177C59.2483 9.3999 59.6272 8.76188 60.1518 8.20361C60.6764 7.63395 61.3468 7.32633 62.1629 7.28076Z" fill="black"/>
<path d="M74.1242 9.43408C74.4389 9.44548 74.7071 9.55941 74.9286 9.77588C75.1501 9.98096 75.2667 10.2373 75.2783 10.5449V16.458C75.2084 17.1416 74.8237 17.5119 74.1242 17.5688C73.7977 17.5688 73.5121 17.4663 73.2673 17.2612C73.0341 17.0448 72.9175 16.777 72.9175 16.458V10.5449C72.9292 10.2259 73.0516 9.96387 73.2848 9.75879C73.5179 9.54232 73.7977 9.43408 74.1242 9.43408ZM72.6552 7.2124C72.6552 6.89339 72.7951 6.61995 73.0749 6.39209C73.3547 6.16423 73.6928 6.05029 74.0892 6.05029C74.4856 6.05029 74.8237 6.16423 75.1035 6.39209C75.3833 6.61995 75.5231 6.89339 75.5231 7.2124C75.5231 7.54281 75.3833 7.82194 75.1035 8.0498C74.8237 8.27767 74.4856 8.3916 74.0892 8.3916C73.6928 8.3916 73.3547 8.27767 73.0749 8.0498C72.7951 7.82194 72.6552 7.54281 72.6552 7.2124Z" fill="black"/>
<path d="M78.5834 7.00732C78.9099 7.00732 79.1897 7.11556 79.4228 7.33203C79.656 7.53711 79.7784 7.79915 79.79 8.11816V12.2368C79.7784 12.7039 79.8075 13.1369 79.8775 13.5356C79.9591 13.923 80.1456 14.2705 80.4371 14.5781C80.7285 14.8857 81.0958 15.0509 81.5388 15.0737H87.1347C87.4611 15.0851 87.7293 15.2048 87.9391 15.4326C88.1606 15.6605 88.2714 15.9339 88.2714 16.2529C88.2597 16.5605 88.1431 16.8226 87.9216 17.0391C87.7118 17.2441 87.4495 17.3524 87.1347 17.3638H80.9442C80.1281 17.3182 79.452 17.0505 78.9157 16.5605C78.3911 16.0592 78.0122 15.4497 77.779 14.7319C77.5575 14.0142 77.4409 13.2508 77.4293 12.4419V8.11816C77.4409 7.81055 77.5575 7.5542 77.779 7.34912C78.0005 7.13265 78.2687 7.01872 78.5834 7.00732Z" fill="black"/>
<path d="M93.8673 14.7148C93.8673 14.3958 93.9781 14.1281 94.1996 13.9116C94.4327 13.6838 94.7125 13.5698 95.039 13.5698H97.7145L97.2598 12.3052C97.0733 11.8381 96.8868 11.3994 96.7002 10.9893C96.5254 10.5677 96.3214 10.186 96.0882 9.84424C95.8783 9.50244 95.6394 9.32015 95.3712 9.29736C95.0914 9.32015 94.8408 9.50244 94.6193 9.84424C94.3978 10.186 94.1937 10.5677 94.0072 10.9893C93.8323 11.3994 93.6516 11.8381 93.4651 12.3052L91.8038 16.7485C91.6872 16.9878 91.5357 17.1872 91.3491 17.3467C91.1743 17.4948 90.9061 17.5688 90.5447 17.5688C90.2066 17.5688 89.9268 17.4549 89.7053 17.2271C89.4955 16.9992 89.4022 16.7257 89.4255 16.4067C89.4372 16.2586 89.4722 16.1219 89.5305 15.9966L91.4541 11.1431C91.9903 9.86703 92.5266 8.83594 93.0629 8.0498C93.5875 7.27507 94.357 6.882 95.3712 6.87061C96.3738 6.882 97.1374 7.27507 97.6621 8.0498C98.1983 8.81315 98.7346 9.84424 99.2709 11.1431L101.194 15.9966C101.253 16.1219 101.288 16.2586 101.299 16.4067C101.323 16.7257 101.224 16.9992 101.002 17.2271C100.792 17.4549 100.518 17.5688 100.18 17.5688C99.7955 17.5688 99.5099 17.4948 99.3233 17.3467C99.1485 17.1872 99.0027 16.9878 98.8862 16.7485L98.5539 15.8599H95.039C94.7125 15.8599 94.4386 15.7459 94.2171 15.5181C93.9839 15.3016 93.8673 15.0339 93.8673 14.7148Z" fill="black"/>
<path d="M114.712 12.8521C114.934 13.3078 115.044 13.7692 115.044 14.2363C115.044 14.6921 114.928 15.1478 114.695 15.6035C114.462 16.0479 114.083 16.4466 113.558 16.7998C113.033 17.1416 112.363 17.3125 111.547 17.3125H111.442C111.372 17.3239 111.302 17.3296 111.232 17.3296H104.202C103.888 17.3182 103.619 17.21 103.398 17.0049C103.188 16.7884 103.077 16.5264 103.066 16.2188V8.3916C103.077 8.08398 103.188 7.82764 103.398 7.62256C103.619 7.40609 103.888 7.29216 104.202 7.28076H110.218C110.288 7.28076 110.358 7.28646 110.428 7.29785H110.533C111.349 7.32064 112.019 7.50293 112.544 7.84473C113.068 8.18652 113.447 8.57959 113.68 9.02393C113.914 9.45687 114.03 9.89551 114.03 10.3398C114.03 10.7956 113.919 11.2399 113.698 11.6729C113.686 11.6956 113.675 11.7127 113.663 11.7241C114.141 12.0545 114.491 12.4305 114.712 12.8521ZM111.652 15.0396C111.873 15.0509 112.054 15.0111 112.194 14.9199C112.346 14.8288 112.456 14.7262 112.526 14.6123C112.596 14.487 112.631 14.3617 112.631 14.2363C112.631 14.1566 112.596 14.0483 112.526 13.9116C112.456 13.7635 112.346 13.6439 112.194 13.5527C112.054 13.4616 111.873 13.4103 111.652 13.3989H110.533H105.426V14.5781C105.426 14.8857 105.59 15.0396 105.916 15.0396H106.056H111.652ZM111.197 10.9551C111.337 10.8753 111.442 10.7842 111.512 10.6816C111.582 10.5677 111.617 10.4538 111.617 10.3398C111.617 10.2259 111.582 10.1177 111.512 10.0151C111.442 9.9012 111.331 9.80436 111.18 9.72461C111.04 9.63346 110.859 9.58219 110.638 9.5708H105.916C105.59 9.5708 105.426 9.72461 105.426 10.0322V11.1089H110.638C110.859 11.0975 111.046 11.0462 111.197 10.9551Z" fill="black"/>
<path d="M13.6897 2.79799C15.3979 0.0673356 19.439 0.0673392 21.1472 2.79799L33.8834 23.1579H0.953491L13.6897 2.79799Z" fill="#003625"/>
<path d="M16.4868 9.36253C16.9137 8.6858 17.9243 8.6858 18.3512 9.36253L27.0541 23.1579H7.78394L16.4868 9.36253Z" fill="#00FBC6"/>
</svg>
