<svg width="80" height="47" viewBox="0 0 80 47" fill="none" xmlns="http://www.w3.org/2000/svg">
<g clip-path="url(#clip0_960_4919)">
<path d="M14.9189 1.81894C17.2561 1.81894 20.242 1.65653 21.5084 0L26.7387 2.66344C24.8649 5.96568 22.4762 7.62221 16.0309 7.62221V34.2458H9.287V7.5789H0V1.81894H14.9189Z" fill="#038ED1"/>
<path d="M46.7233 1.38574H53.6731L44.9524 31.2033C44.2935 33.3903 42.5225 34.7221 40.4839 34.7221C38.4453 34.7221 36.7774 33.3362 36.1699 31.2033L27.3977 1.38574H34.6049L40.5869 24.5339L46.7233 1.38574Z" fill="#038ED1"/>
<path d="M69.3539 22.3469H63.1145V34.2457H56.4221V1.43994H69.3539C75.2432 1.43994 80.0103 5.75991 80.0103 11.8988C80.0103 18.0377 75.2432 22.3577 69.3539 22.3577V22.3469ZM73.3076 11.888C73.3076 9.33282 71.3307 7.40562 68.8391 7.40562H63.1042V15.9373H68.8391C71.3204 15.9373 73.3076 14.4973 73.3076 11.8772V11.888Z" fill="#038ED1"/>
<path d="M0.28833 41.6406H4.05667V42.2253H2.48138V46.9242H1.85332V42.2253H0.28833V41.6406Z" fill="#038ED1"/>
<path d="M4.901 41.6406H6.61014C7.79418 41.6406 8.31928 42.3336 8.32957 43.2647C8.32957 43.9684 8.02069 44.5206 7.38234 44.748L8.5252 46.9242H7.78388L6.74399 44.8779H5.52906V46.9242H4.901V41.6406ZM6.58955 44.2824C7.38234 44.2824 7.70152 43.9035 7.70152 43.2647C7.70152 42.6259 7.39264 42.2253 6.57925 42.2253H5.52906V44.2824H6.58955Z" fill="#038ED1"/>
<path d="M8.79285 46.9242L10.6255 41.6406H11.2742L13.1172 46.9242H12.4685L11.9743 45.4409H9.946L9.45179 46.9242H8.80314H8.79285ZM11.7787 44.8671L10.9859 42.496H10.9447L10.1519 44.8671H11.789H11.7787Z" fill="#038ED1"/>
<path d="M13.807 46.9242V41.6406H15.4235C16.8958 41.6406 17.7607 42.6367 17.7504 44.2824C17.7504 45.9281 16.8958 46.9242 15.3617 46.9242H13.7967H13.807ZM15.3308 46.3395C16.556 46.3395 17.1532 45.56 17.1635 44.2824C17.1635 42.994 16.556 42.2253 15.4029 42.2253H14.435V46.3504H15.3308V46.3395Z" fill="#038ED1"/>
<path d="M19.3051 46.9242H18.677V41.6406H19.3051V46.9242Z" fill="#038ED1"/>
<path d="M24.4016 46.9242H23.8044L21.076 42.8208H21.0348V46.9242H20.4067V41.6406H21.0039L23.7323 45.7657H23.7941V41.6406H24.4016V46.9242Z" fill="#038ED1"/>
<path d="M27.511 42.1929C26.6255 42.1929 25.9254 42.9291 25.9254 44.2825C25.9254 45.6359 26.6255 46.383 27.5625 46.383C28.4068 46.383 28.9936 45.7983 29.0142 44.8564H27.6963V44.2717H29.632V44.8347C29.632 46.1448 28.7774 46.9893 27.5728 46.9893C26.2343 46.9893 25.3282 45.939 25.3282 44.2717C25.3282 42.6043 26.2446 41.5649 27.5316 41.5649C28.5921 41.5649 29.4158 42.2579 29.6011 43.2864H28.9524C28.7362 42.6043 28.2523 42.1713 27.5316 42.1821L27.511 42.1929Z" fill="#038ED1"/>
<path d="M34.0181 46.0797H34.0798L35.5728 41.6406H36.2214L34.3784 46.9242H33.7298L31.8971 41.6406H32.5457L34.0181 46.0797Z" fill="#038ED1"/>
<path d="M37.529 46.9242H36.9009V41.6406H37.529V46.9242Z" fill="#038ED1"/>
<path d="M38.641 41.6406H41.6783V42.2253H39.269V44.0009H41.5239V44.5639H39.269V46.3395H41.7298V46.9242H38.6513V41.6406H38.641Z" fill="#038ED1"/>
<path d="M42.2343 41.6406H42.8624L43.9125 45.9281H43.9537L45.0142 41.6406H45.7143L46.7748 45.9281H46.816L47.8662 41.6406H48.5046L47.1249 46.9242H46.4866L45.3746 42.745H45.3437L44.2317 46.9242H43.5831L42.224 41.6406H42.2343Z" fill="#038ED1"/>
<path d="M50.955 41.6406H52.6642C53.8379 41.6406 54.3733 42.3877 54.3836 43.3296C54.3836 44.2608 53.8482 45.0078 52.6744 45.0187H51.5831V46.935H50.955V41.6515V41.6406ZM52.6436 44.434C53.4364 44.434 53.7555 43.9576 53.7555 43.3296C53.7555 42.7017 53.4466 42.2361 52.6333 42.2253H51.5831V44.434H52.6436Z" fill="#038ED1"/>
<path d="M55.2382 41.6406H56.9473C58.1313 41.6406 58.6564 42.3336 58.6667 43.2647C58.6667 43.9684 58.3579 44.5206 57.7195 44.748L58.8624 46.9242H58.121L57.0811 44.8779H55.8662V46.9242H55.2382V41.6406ZM56.9267 44.2824C57.7195 44.2824 58.0387 43.9035 58.0387 43.2647C58.0387 42.6259 57.7298 42.2253 56.9164 42.2253H55.8662V44.2824H56.9267Z" fill="#038ED1"/>
<path d="M59.5624 41.6406H62.5998V42.2253H60.1905V44.0009H62.4453V44.5639H60.1905V46.3395H62.6512V46.9242H59.5727V41.6406H59.5624Z" fill="#038ED1"/>
<path d="M63.5985 46.9242V41.6406H65.215C66.6873 41.6406 67.5522 42.6367 67.5419 44.2824C67.5419 45.9281 66.6873 46.9242 65.1532 46.9242H63.5882H63.5985ZM65.1223 46.3395C66.3475 46.3395 66.9447 45.56 66.955 44.2824C66.955 42.994 66.3475 42.2253 65.1944 42.2253H64.2266V46.3504H65.1223V46.3395Z" fill="#038ED1"/>
<path d="M69.0966 46.9242H68.4685V41.6406H69.0966V46.9242Z" fill="#038ED1"/>
<path d="M72.2265 42.1928C71.3102 42.1928 70.6101 42.9291 70.6101 44.2824C70.6101 45.6358 71.3102 46.3829 72.2265 46.3829C72.8752 46.3829 73.4724 45.9823 73.6165 45.2677H74.2446C74.0695 46.3504 73.2458 47 72.2265 47C70.9292 47 69.9923 45.9498 69.9923 44.2824C69.9923 42.6151 70.9292 41.5757 72.2265 41.5757C73.2356 41.5757 74.0592 42.2145 74.2446 43.308H73.6165C73.4724 42.5718 72.8752 42.182 72.2265 42.182V42.1928Z" fill="#038ED1"/>
<path d="M74.8623 41.6406H78.6409V42.2253H77.0657V46.9242H76.4376V42.2253H74.8623V41.6406Z" fill="#038ED1"/>
</g>
<defs>
<clipPath id="clip0_960_4919">
<rect width="80" height="47" fill="white"/>
</clipPath>
</defs>
</svg>
