<svg width="71" height="65" viewBox="0 0 71 65" fill="none" xmlns="http://www.w3.org/2000/svg">
<path d="M70.706 27.009C71.2975 25.9668 70.5403 24.6758 69.3455 24.6758L55.0187 24.6521C54.4509 24.6521 53.9303 24.9482 53.6582 25.4456L37.3203 54.2142C36.7288 55.2565 37.4859 56.5593 38.6808 56.5593H52.0493C53.256 56.5593 54.3799 55.9079 54.9714 54.8538L70.706 27.009Z" fill="url(#paint0_linear_960_4914)"/>
<path d="M64.5198 9.46829L50.5717 9.37354C50.0157 9.37354 49.4951 9.66963 49.223 10.1671L37.1441 32.2202L30.5545 44.0759C29.3123 46.0538 27.2301 47.4395 24.8167 47.7475C20.0254 48.3515 15.8729 44.3838 15.8729 39.5516V35.7852C15.8729 35.7852 15.8374 35.7497 15.8255 35.7734L13.0454 40.7478C13.0454 40.7478 13.0454 40.7478 13.0454 40.7596L13.1518 41.6834V41.6953L9.50806 48.162V48.1857L14.607 56.7725V56.7132C17.2807 61.3797 22.2968 64.5301 28.0583 64.5301C33.8197 64.5301 38.7885 61.4152 41.4622 56.7725L47.0935 47.2856L55.0436 32.2202L65.8685 11.7068C66.4009 10.7 65.6792 9.48013 64.5317 9.46829H64.5198Z" fill="url(#paint1_linear_960_4914)"/>
<path d="M23.8104 47.8065C19.4212 47.8065 15.8603 44.2415 15.8603 39.8475V35.6785L13.021 40.7476L13.1274 41.6833L9.4718 48.1737L14.5826 56.7723V56.7131" fill="url(#paint2_linear_960_4914)"/>
<path d="M9.48364 48.1858L1.21413 33.6179C0.729079 32.7533 0.729079 31.6992 1.21413 30.8346L17.7295 1.74621C18.2264 0.869767 19.161 0.324951 20.1784 0.324951L34.1502 0.348638C35.1795 0.348638 35.8301 1.46196 35.3214 2.36209L9.48364 48.1858Z" fill="url(#paint3_linear_960_4914)"/>
<defs>
<linearGradient id="paint0_linear_960_4914" x1="37.1192" y1="40.6057" x2="70.9071" y2="40.6057" gradientUnits="userSpaceOnUse">
<stop stop-color="#1859A8"/>
<stop offset="1" stop-color="#0094D6"/>
</linearGradient>
<linearGradient id="paint1_linear_960_4914" x1="53.0798" y1="12.2397" x2="19.5497" y2="58.8923" gradientUnits="userSpaceOnUse">
<stop stop-color="#1859A8"/>
<stop offset="1" stop-color="#0094D6"/>
</linearGradient>
<linearGradient id="paint2_linear_960_4914" x1="28.8856" y1="58.2646" x2="10.5541" y2="42.1538" gradientUnits="userSpaceOnUse">
<stop offset="0.46" stop-color="#187FC4" stop-opacity="0"/>
<stop offset="1" stop-color="#004654"/>
</linearGradient>
<linearGradient id="paint3_linear_960_4914" x1="28.4124" y1="2.07783" x2="4.91538" y2="38.2839" gradientUnits="userSpaceOnUse">
<stop stop-color="#1859A8"/>
<stop offset="1" stop-color="#0094D6"/>
</linearGradient>
</defs>
</svg>
