<svg width="85" height="85" viewBox="0 0 85 85" fill="none" xmlns="http://www.w3.org/2000/svg">
<path d="M83.3946 36.1029C84.0893 34.881 83.2001 33.3676 81.7967 33.3676L64.9706 33.3398C64.3037 33.3398 63.6924 33.687 63.3728 34.2701L44.1846 67.9958C43.4899 69.2177 44.3792 70.745 45.7825 70.745H61.4832C62.9004 70.745 64.2204 69.9813 64.9151 68.7456L83.3946 36.1029Z" fill="url(#paint0_linear_1592_5695)"/>
<path d="M76.1292 15.5395L59.7477 15.4285C59.0947 15.4285 58.4833 15.7756 58.1637 16.3587L43.9776 42.2119L36.2384 56.1104C34.7795 58.4291 32.3341 60.0536 29.4996 60.4146C23.8724 61.1227 18.9954 56.4714 18.9954 50.8064V46.3911C18.9954 46.3911 18.9538 46.3495 18.9399 46.3773L15.6747 52.2088C15.6747 52.2088 15.6747 52.2088 15.6747 52.2227L15.7997 53.3057V53.3196L11.5203 60.9006V60.9283L17.5087 70.9947V70.9252C20.6489 76.3958 26.5401 80.0891 33.3067 80.0891C40.0732 80.0891 45.9089 76.4374 49.049 70.9947L55.6627 59.8731L64.9998 42.2119L77.7131 18.1637C78.3384 16.9835 77.4908 15.5534 76.1431 15.5395H76.1292Z" fill="url(#paint1_linear_1592_5695)"/>
<path d="M28.3178 60.4839C23.163 60.4839 18.9808 56.3047 18.9808 51.1535V46.2661L15.6461 52.2087L15.7711 53.3056L11.4778 60.9144L17.4802 70.9946V70.9252" fill="url(#paint2_linear_1592_5695)"/>
<path d="M11.4917 60.9285L1.77955 43.8504C1.20988 42.8369 1.20988 41.6011 1.77955 40.5875L21.1761 6.48695C21.7597 5.45949 22.8573 4.8208 24.0523 4.8208L40.4615 4.84857C41.6703 4.84857 42.4345 6.15372 41.8371 7.20895L11.4917 60.9285Z" fill="url(#paint3_linear_1592_5695)"/>
<defs>
<linearGradient id="paint0_linear_1592_5695" x1="43.9484" y1="52.0424" x2="83.6308" y2="52.0424" gradientUnits="userSpaceOnUse">
<stop stop-color="#1859A8"/>
<stop offset="1" stop-color="#0094D6"/>
</linearGradient>
<linearGradient id="paint1_linear_1592_5695" x1="62.6933" y1="18.7885" x2="23.4087" y2="73.5479" gradientUnits="userSpaceOnUse">
<stop stop-color="#1859A8"/>
<stop offset="1" stop-color="#0094D6"/>
</linearGradient>
<linearGradient id="paint2_linear_1592_5695" x1="34.2785" y1="72.7441" x2="12.7832" y2="53.8182" gradientUnits="userSpaceOnUse">
<stop offset="0.46" stop-color="#187FC4" stop-opacity="0"/>
<stop offset="1" stop-color="#004654"/>
</linearGradient>
<linearGradient id="paint3_linear_1592_5695" x1="33.7227" y1="6.87572" x2="6.19749" y2="49.3664" gradientUnits="userSpaceOnUse">
<stop stop-color="#1859A8"/>
<stop offset="1" stop-color="#0094D6"/>
</linearGradient>
</defs>
</svg>
