<svg width="526" height="950" viewBox="0 0 526 950" fill="none" xmlns="http://www.w3.org/2000/svg">
<rect width="526" height="950" fill="white"/>
<path d="M109.577 660.969L112.021 662.36C118.685 666.151 121.377 670.667 120.097 675.907C119.686 677.639 118.935 679.465 117.843 681.384L103.562 706.481L88.5425 697.934L109.577 660.969ZM82.7785 661.432C85.0556 657.43 87.6392 655.017 90.5292 654.193C93.7034 653.29 97.5629 654.132 102.108 656.718L104.552 658.109L83.5177 695.075L68.4979 686.528L82.7785 661.432Z" fill="#191919"/>
<path d="M147.621 682.581L162.722 691.174L141.672 728.166L126.571 719.573L147.621 682.581ZM128.119 671.484L143.139 680.03L122.089 717.023L119.645 715.632C112.981 711.841 110.295 707.316 111.585 702.057C111.985 700.343 112.731 698.527 113.823 696.607L128.119 671.484Z" fill="#191919"/>
<path d="M194.197 724.329C191.085 729.797 186.65 732.031 180.891 731.031C183.004 733.552 184.101 736.322 184.181 739.34C184.225 742.001 183.494 744.654 181.99 747.297L180.352 750.176L164.164 740.965L185.23 703.945L186.642 704.749C191.422 707.469 194.429 710.378 195.662 713.477C196.952 716.728 196.464 720.345 194.197 724.329ZM166.078 693.119L180.69 701.434L159.655 738.4L145.043 730.085L166.078 693.119Z" fill="#191919"/>
<path d="M224.259 726.226L226.377 727.431C233.095 731.254 235.826 736.775 234.57 743.995C234.038 746.952 232.86 750.033 231.037 753.238C227.966 758.634 224.396 762.487 220.325 764.796C215.534 767.487 210.54 767.354 205.343 764.397L203.224 763.192L224.259 726.226ZM196.679 759.467C189.997 755.665 187.497 749.76 189.177 741.751C189.856 738.494 191.18 735.136 193.148 731.678C197.156 724.634 201.94 720.777 207.499 720.105C210.778 719.693 214.182 720.492 217.713 722.501L219.832 723.707L198.797 760.672L196.679 759.467Z" fill="#191919"/>
<path d="M262.667 748.081L277.66 756.613L266.841 775.625L264.913 774.528C260.241 771.87 257.35 769.158 256.239 766.392C255.146 763.637 255.702 760.322 257.907 756.447L262.667 748.081ZM236.201 781.956C233.267 780.287 231.278 777.717 230.233 774.246C229.315 771.183 229.193 767.733 229.865 763.897C230.484 760.366 231.613 757.161 233.251 754.282C235.714 749.955 238.972 746.715 243.025 744.563C245.906 743.038 248.865 742.493 251.902 742.926C253.447 743.159 254.999 743.718 256.556 744.604L258.648 745.794L237.613 782.76L236.201 781.956ZM245.667 777.958L259.247 785.686L258.814 786.446C257.856 788.13 256.44 789.206 254.568 789.675C252.3 790.206 249.799 789.694 247.065 788.138L241.633 785.047L245.667 777.958Z" fill="#191919"/>
<path d="M281.439 758.763L296.051 767.078L285.526 785.574L290.822 788.588L301.347 770.092L315.96 778.406L294.956 815.318L280.344 807.003L288.489 792.689L283.192 789.675L275.047 803.989L260.435 795.674L281.439 758.763Z" fill="#191919"/>
<path d="M337.61 790.726L354.368 800.262L343.781 818.867L337.61 790.726ZM313.661 791.552L313.498 791.46C315.621 787.73 318.201 785.554 321.238 784.934C324.276 784.313 327.905 785.203 332.123 787.604L339.006 827.26C336.965 830.845 334.539 832.856 331.726 833.292C328.987 833.724 325.481 832.724 321.208 830.292L313.661 791.552ZM309.407 798.839L314.891 826.733L298.758 817.553L309.407 798.839Z" fill="#191919"/>
<path d="M377.485 813.416L392.559 821.994L386.717 832.261L383.892 830.653C378.985 827.861 376.073 825.185 375.157 822.626C374.411 820.524 374.842 818.061 376.449 815.236L377.485 813.416ZM358.174 802.428L372.786 810.742L364.317 825.626L375.208 831.824L371.174 838.913L360.283 832.715L351.783 847.654L337.17 839.339L358.174 802.428ZM357.922 847.732C360.055 843.984 363.676 842.676 368.784 843.809C370.738 844.25 373.028 845.217 375.654 846.711L377.799 847.932L371.525 858.959L356.423 850.366L357.922 847.732Z" fill="#191919"/>
<path d="M416.029 835.349L418.474 836.74C425.137 840.532 427.829 845.048 426.549 850.288C426.138 852.02 425.387 853.846 424.295 855.765L410.014 880.861L394.995 872.315L416.029 835.349ZM396.311 824.128L410.923 832.443L389.888 869.409L375.276 861.094L396.311 824.128Z" fill="#191919"/>
<path fill-rule="evenodd" clip-rule="evenodd" d="M343.339 522.972L299.554 529.557C250.341 536.957 204.146 557.863 166.105 589.949L105.545 641.029L135.791 659.103L378.423 796.723L326.103 755.635C319.87 750.48 314.985 743.886 311.867 736.423C307.128 725.078 306.745 712.383 310.792 700.773L316.614 684.074L379.813 714.436C385.231 717.039 391.546 717.007 396.938 714.348L406.835 709.469C416.122 704.89 420.234 693.869 416.216 684.326L373.387 582.619C370.455 575.657 362.717 572.058 355.504 574.302L341.405 578.687C338.732 579.519 336.985 575.934 339.287 574.341L369.246 553.606C373.505 550.657 376.719 546.433 378.423 541.54L406.128 462L357.811 515.225C354.023 519.398 348.911 522.134 343.339 522.972ZM363.572 637.238L349.998 607.767L347.995 612.417C345.19 618.93 347.443 626.518 353.349 630.443L363.572 637.238ZM383.872 577.562L396.468 608.867L414.784 597.119C422.497 592.171 427.162 583.637 427.162 574.474V515.195L406.746 559.886C404.06 565.766 399.347 570.482 393.468 573.171L383.872 577.562Z" fill="#191919"/>
<path fill-rule="evenodd" clip-rule="evenodd" d="M62.1929 703.968L381.793 885.444H62.1929V703.968ZM90.6561 782.224C91.2961 782 91.9041 781.904 92.5761 781.904C93.7281 781.904 94.6241 782.288 95.1681 782.864C97.2481 783.792 98.0801 785.744 98.0801 788.016C98.0801 790.384 97.2481 793.136 96.0321 795.376C93.8561 799.344 90.6241 802.64 86.9441 802.64C86.1761 802.64 85.5041 802.512 84.8001 802.256C82.0481 801.232 80.9921 798.832 80.9921 796.176C80.9921 789.424 87.0081 783.504 90.6561 782.224ZM83.8721 797.392C83.8721 799.632 84.6721 800.88 85.8881 800.88C87.8721 800.88 90.8481 798.448 93.1201 794.288C94.6561 791.44 95.2961 788.752 95.2961 786.8C95.2961 785.264 94.9761 784.24 94.3041 783.984C92.8961 783.472 89.1201 785.584 86.2081 790.032C84.5761 792.56 83.8721 795.312 83.8721 797.392ZM119.975 797.04C120.263 796.4 120.775 796.368 121.095 797.04C121.255 797.392 121.319 798.192 120.935 799.184C120.103 801.136 117.703 802.48 115.911 802.48C113.831 802.48 112.711 801.04 112.711 799.216C112.711 796.688 114.471 794.416 116.167 792.432C115.303 792.784 114.439 792.976 113.735 793.008C112.103 797.072 109.287 802.416 105.863 802.416C104.135 802.416 102.983 801.744 102.855 800.24C101.799 801.424 100.327 802.384 98.7913 802.384C97.4793 802.384 96.4873 801.168 96.4873 799.824C96.4873 799.152 96.6473 798.416 96.9033 797.616C97.6393 795.536 99.2393 792.336 101.255 789.648C101.671 789.104 102.151 789.104 102.535 789.648C102.887 790.192 103.079 790.608 103.079 791.152C103.079 791.92 102.727 792.848 102.023 794.032C101.831 794.363 101.65 794.672 101.479 794.964C100.622 796.425 100.018 797.456 99.5913 798.576C99.3353 799.184 99.2073 799.76 99.2073 800.24C99.2073 800.688 99.3033 801.008 99.4633 801.008C100.455 801.008 102.215 798.832 103.751 796.336C104.647 794.864 105.415 793.456 105.959 792.432C106.535 791.344 107.079 790.384 107.591 789.648C108.007 789.136 108.455 789.04 108.903 789.456C109.191 789.808 109.415 790.352 109.415 791.056C109.415 791.664 109.287 792.368 108.903 793.136C108.723 793.516 108.443 793.996 108.141 794.514C107.96 794.824 107.771 795.148 107.591 795.472C106.983 796.432 106.375 797.488 105.991 798.448C105.671 799.152 105.511 799.824 105.511 800.304C105.511 800.848 105.671 801.104 105.991 801.104C107.751 801.104 110.247 797.04 111.879 792.752C111.175 792.4 110.951 791.888 110.951 791.248C110.951 789.584 112.935 787.216 113.959 787.216C114.695 787.216 114.983 787.696 114.983 788.464C114.983 789.104 114.791 790.064 114.471 791.056C115.399 790.832 116.295 790.416 117.287 789.712C117.703 789.424 118.279 789.136 118.695 789.648C119.111 790.16 119.591 790.96 119.591 791.824C119.591 792.208 119.431 792.656 119.079 793.104C117.703 794.672 116.167 796.88 115.591 798.448C115.463 798.928 115.367 799.408 115.367 799.888C115.367 800.688 115.591 801.232 116.071 801.232C117.159 801.232 119.015 799.312 119.975 797.04ZM128.441 794.416C127.289 796.016 126.713 797.808 126.713 799.184C126.713 801.072 127.737 802.448 129.625 802.448C130.905 802.448 132.345 801.456 133.273 800.56C133.529 801.744 134.457 802.576 136.057 802.576C137.306 802.576 138.595 801.881 139.579 800.92C139.927 801.875 140.774 802.48 142.208 802.48C143.268 802.48 144.429 802.056 145.414 801.328C145.547 801.706 145.776 802.018 146.054 802.256C146.598 802.736 146.95 802.544 147.174 802.032C148.422 799.088 149.894 796.176 151.686 794.256C153.606 792.144 154.854 791.44 155.11 791.44C155.312 791.44 154.931 792.039 154.387 792.893L154.386 792.894C154.155 793.258 153.895 793.667 153.638 794.096C152.774 795.44 151.718 797.168 151.27 798.32C150.95 799.12 150.694 800.144 150.694 800.688C150.694 801.52 150.918 801.968 151.398 802.448C151.91 802.96 152.358 802.864 152.678 802.256C154.022 799.28 155.558 796.24 158.054 793.744C159.942 791.856 160.614 791.536 160.87 791.536C161.056 791.536 160.7 792.045 160.22 792.729C160.041 792.985 159.845 793.265 159.654 793.552C158.918 794.704 157.862 796.432 157.35 797.52C156.998 798.32 156.87 799.024 156.87 799.6C156.87 801.328 158.054 802.512 160.23 802.512C162.214 802.512 164.486 800.912 165.382 799.056C165.766 798.32 165.734 797.104 165.382 796.752C165.094 796.464 164.774 796.496 164.486 796.976C163.302 798.928 161.734 801.168 160.742 801.168C160.23 801.168 159.91 800.656 159.91 799.92C159.91 798.8 160.742 797.392 161.638 796.016C162.95 794 163.622 792.528 163.622 791.44C163.622 790.384 163.11 789.52 162.182 789.488C161.158 789.456 159.462 790.544 158.022 791.824C158.022 790.48 157.35 789.328 156.326 789.328C155.302 789.328 153.51 790.544 152.134 791.888C152.198 791.568 152.23 791.28 152.23 791.024C152.23 790.512 152.07 789.968 151.782 789.488C151.462 788.912 150.982 788.88 150.566 789.488C149.072 791.764 147.373 794.902 146.356 797.111C145.355 799.205 143.763 801.2 142.528 801.2C142.176 801.2 142.048 800.912 142.048 800.4C142.048 799.888 142.208 799.216 142.496 798.48C142.773 797.828 143.291 796.886 143.812 795.937C144.315 795.022 144.822 794.099 145.12 793.424C145.952 791.824 145.696 790.448 145.088 789.808C144.672 789.328 144.288 789.392 143.808 790.032C142.665 791.639 140.717 795.154 139.863 797.411C138.813 799.37 137.333 801.296 136.249 801.296C135.929 801.296 135.801 801.008 135.801 800.528C135.801 799.028 137.116 796.871 138.192 795.107C138.653 794.35 139.071 793.665 139.321 793.136C140.153 791.472 139.865 790.064 139.321 789.424C138.937 788.976 138.393 789.008 138.009 789.648L137.401 790.64C137.113 789.808 136.409 789.232 135.257 789.232C133.625 789.232 131.001 790.736 128.441 794.416ZM130.041 801.04C129.721 801.04 129.593 800.656 129.593 800.08C129.593 799.056 130.137 797.36 131.097 795.856C132.729 793.232 134.937 791.216 135.577 791.216C135.897 791.216 135.961 791.44 135.961 791.824C135.961 792.656 135.385 794.224 134.137 796.4C132.569 799.088 131.097 801.04 130.041 801.04ZM146.784 789.84C145.76 789.84 144.896 788.88 144.896 787.888C144.896 786.992 145.568 786.16 146.304 786.16C147.2 786.16 148.064 787.312 148.064 788.24C148.064 789.104 147.584 789.84 146.784 789.84ZM86.7841 819.84C85.7601 819.84 84.8961 818.88 84.8961 817.888C84.8961 816.992 85.5681 816.16 86.3041 816.16C87.2001 816.16 88.0641 817.312 88.0641 818.24C88.0641 819.104 87.5841 819.84 86.7841 819.84ZM85.4211 827.936C85.4211 828.181 85.4423 828.429 85.4835 828.673C84.5603 830.099 83.4456 831.2 82.5281 831.2C82.1761 831.2 82.0481 830.912 82.0481 830.4C82.0481 829.888 82.2081 829.216 82.4961 828.48C82.7731 827.828 83.2907 826.886 83.8123 825.937C84.3151 825.022 84.8217 824.099 85.1201 823.424C85.9521 821.824 85.6961 820.448 85.0881 819.808C84.6721 819.328 84.2881 819.392 83.8081 820.032C82.6241 821.696 80.5761 825.408 79.7761 827.648C79.5201 828.48 79.3921 829.152 79.3921 829.76C79.3921 831.36 80.2561 832.48 82.2081 832.48C83.6005 832.48 85.167 831.749 86.2785 830.557C87.3987 832.152 89.1459 832.57 90.8931 832.512C93.2931 832.416 95.5331 831.2 96.7491 828.96C97.3251 827.968 97.2291 827.072 97.0691 826.752C96.8451 826.24 96.3651 826.016 96.0771 826.752C95.5011 828.32 94.6051 829.376 93.2931 830.272C93.6451 829.568 93.8051 828.672 93.8371 827.872C93.8696 826.996 93.7785 826.028 93.6809 824.992C93.5861 823.984 93.4851 822.912 93.4851 821.792C93.4851 821.376 93.5171 820.832 93.5491 820.448C94.5411 818.816 94.3491 818.112 93.4851 818.112C93.0051 818.112 92.4291 818.336 91.9171 818.784C91.1811 819.392 90.7971 820.128 90.6691 821.28C89.8371 822.656 88.7171 824.32 87.6611 825.824C87.5651 825.056 87.0851 824.896 86.4451 825.44C85.7411 826.048 85.4211 826.976 85.4211 827.936ZM89.8051 831.008C89.1011 831.008 88.4291 829.888 88.0451 828.384C89.0051 827.008 89.9011 825.632 90.6691 824.416C90.7331 825.28 90.7651 826.304 90.7651 827.328C90.7651 829.408 90.4771 831.008 89.8051 831.008ZM105.693 832.48C103.997 832.48 102.525 831.104 102.525 828.896C102.525 828.192 102.717 827.296 103.165 826.24C103.805 824.672 105.021 822.144 106.301 819.84C105.309 819.712 104.733 819.36 104.477 818.976C104.029 818.304 104.349 817.984 105.085 818.016C105.821 818.048 106.685 818.016 107.389 817.952C108.381 816.224 109.053 815.168 109.789 814.112C110.269 813.408 110.653 813.44 111.005 814.048C111.229 814.432 111.357 814.976 111.357 815.36C111.357 815.936 111.229 816.672 110.845 817.568C111.837 817.696 112.381 818.208 112.605 818.592C112.925 819.168 112.701 819.552 111.933 819.456C111.357 819.392 110.525 819.456 109.821 819.552C108.605 821.632 106.781 824.8 105.661 827.232C105.277 828.096 105.085 828.928 105.085 829.632C105.085 830.592 105.405 831.264 105.949 831.264C107.041 831.264 108.452 829.72 109.538 827.725C109.612 826.407 110.107 824.968 110.872 823.584C112.312 821.024 114.328 819.424 116.44 819.424C117.368 819.424 117.944 819.776 118.552 820.608C118.717 820.802 118.882 820.968 119.039 821.126L119.04 821.127C119.738 821.831 120.291 822.389 120.056 824.608C120.888 824.608 120.952 824.896 120.696 825.216C120.472 825.472 120.216 825.6 119.864 825.664C119.192 828.32 117.144 831.456 114.712 832.288C114.424 832.384 114.04 832.48 113.56 832.48C112.504 832.48 111.32 832.032 110.424 830.848C110.259 830.63 110.117 830.401 109.998 830.161C109.031 831.26 107.482 832.48 105.693 832.48ZM117.656 823.968C117.304 823.552 117.144 822.72 117.144 822.144C117.144 821.632 117.432 821.376 117.624 821.376C117.848 821.376 118.104 821.568 118.104 822.048C118.104 822.464 117.976 823.232 117.656 823.968ZM112.024 829.504C112.024 828.32 112.536 826.528 113.368 824.992C113.912 824.032 114.52 823.232 115.192 822.592C115.448 823.712 116.12 824.544 117.144 825.184C116.952 825.856 116.568 826.656 116.088 827.488C114.904 829.664 113.624 830.848 112.792 830.848C112.312 830.848 112.024 830.464 112.024 829.504ZM136.324 820.928C135.748 820.672 133.988 822.144 132.612 824.48L131.588 826.208C130.596 828.256 130.82 830.56 131.652 830.56C132.644 830.56 134.084 828.8 135.396 826.144C136.164 824.64 136.548 823.008 136.548 821.952C136.548 821.376 136.484 820.992 136.324 820.928ZM136.42 819.552C138.34 819.552 139.268 821.28 139.268 822.912C139.268 824.288 138.756 825.92 138.02 827.456C137.252 829.216 136.196 830.656 135.172 831.488C137.331 831.05 139.038 829.256 140.026 827.535C140.774 825.454 142.359 822.302 144.349 819.648C144.765 819.104 145.245 819.104 145.629 819.648C145.981 820.192 146.173 820.608 146.173 821.152C146.173 821.92 145.821 822.848 145.117 824.032C144.925 824.363 144.744 824.672 144.573 824.964C143.716 826.425 143.112 827.456 142.685 828.576C142.429 829.184 142.301 829.76 142.301 830.24C142.301 830.688 142.397 831.008 142.557 831.008C143.549 831.008 145.309 828.832 146.845 826.336C147.741 824.864 148.509 823.456 149.053 822.432C149.629 821.344 150.173 820.384 150.685 819.648C151.101 819.136 151.549 819.04 151.997 819.456C152.285 819.808 152.509 820.352 152.509 821.056C152.509 821.664 152.381 822.368 151.997 823.136C151.817 823.516 151.537 823.996 151.235 824.514C151.054 824.824 150.865 825.148 150.685 825.472C150.077 826.432 149.469 827.488 149.085 828.448C148.765 829.152 148.605 829.824 148.605 830.304C148.605 830.848 148.765 831.104 149.085 831.104C150.845 831.104 153.341 827.04 154.973 822.752C154.269 822.4 154.045 821.888 154.045 821.248C154.045 819.584 156.029 817.216 157.053 817.216C157.789 817.216 158.077 817.696 158.077 818.464C158.077 819.104 157.885 820.064 157.565 821.056C158.493 820.832 159.389 820.416 160.381 819.712C160.797 819.424 161.373 819.136 161.789 819.648C162.205 820.16 162.685 820.96 162.685 821.824C162.685 822.208 162.525 822.656 162.173 823.104C160.797 824.672 159.261 826.88 158.685 828.448C158.557 828.928 158.461 829.408 158.461 829.888C158.461 830.688 158.685 831.232 159.165 831.232C160.063 831.232 161.483 829.926 162.491 828.193C162.486 828.107 162.484 828.021 162.484 827.936C162.484 826.976 162.804 826.048 163.508 825.44C164.148 824.896 164.628 825.056 164.724 825.824C165.78 824.32 166.9 822.656 167.732 821.28C167.86 820.128 168.244 819.392 168.98 818.784C169.492 818.336 170.068 818.112 170.548 818.112C171.412 818.112 171.604 818.816 170.612 820.448C170.58 820.832 170.548 821.376 170.548 821.792C170.548 822.912 170.649 823.984 170.743 824.992C170.841 826.028 170.932 826.996 170.9 827.872C170.868 828.672 170.708 829.568 170.356 830.272C171.249 829.662 171.95 828.977 172.488 828.107C172.535 827.945 172.59 827.781 172.652 827.616C173.356 825.6 174.988 822.4 176.972 819.616C177.388 819.072 177.964 819.136 178.348 819.616C178.7 820.064 178.828 820.608 178.828 821.088C178.828 821.951 177.818 823.85 176.808 825.751C176.282 826.741 175.756 827.732 175.372 828.576C174.796 829.856 174.7 831.04 175.404 831.04C176.236 831.04 177.932 828.864 179.564 826.304C180.427 824.899 181.07 823.681 181.624 822.633C182.28 821.389 182.811 820.383 183.436 819.584C183.884 818.976 184.396 818.848 184.78 819.392C185.1 819.84 185.26 820.352 185.26 821.056C185.26 822.144 184.588 823.552 183.468 825.408C182.54 826.912 181.292 829.088 181.292 830.336C181.292 830.912 181.484 831.232 181.9 831.232C182.941 831.232 184.541 829.087 185.69 827.096C185.816 826.215 186.12 825.292 186.613 824.352C188.277 820.96 190.869 819.264 192.725 819.264C193.173 819.264 193.525 819.328 193.845 819.52C194.741 820.032 195.381 820.544 195.829 821.184C196.021 821.472 196.149 821.952 196.149 822.368C196.149 824.288 194.005 827.648 191.189 827.648C190.421 827.648 189.653 827.424 188.917 826.944C188.725 827.584 188.629 828.256 188.629 828.832C188.629 830.24 189.205 831.232 190.165 831.232C192.597 831.232 194.741 828.864 196.053 826.88C196.405 826.368 196.821 826.304 197.077 826.944C197.173 827.232 197.205 828.16 196.629 829.024C195.285 830.976 192.725 832.48 190.229 832.512C188.12 832.535 186.685 831.56 186.029 830.079C184.961 831.479 183.27 832.576 181.644 832.576C179.756 832.576 178.796 831.648 178.668 830.208C177.58 831.424 176.14 832.416 174.508 832.416C173.277 832.416 172.61 831.724 172.357 830.794C171.145 831.864 169.587 832.447 167.956 832.512C166.157 832.572 164.358 832.127 163.244 830.413C162.137 831.678 160.39 832.48 159.005 832.48C156.925 832.48 155.805 831.04 155.805 829.216C155.805 826.688 157.565 824.416 159.261 822.432C158.397 822.784 157.533 822.976 156.829 823.008C155.197 827.072 152.381 832.416 148.957 832.416C147.229 832.416 146.077 831.744 145.949 830.24C144.893 831.424 143.421 832.384 141.885 832.384C140.93 832.384 140.144 831.739 139.787 830.87C138.294 832.252 136.26 832.768 134.244 832.768C131.716 832.768 130.148 831.904 129.412 830.176C128.004 832.8 126.628 835.552 125.284 838.688C125.028 839.264 124.644 839.392 124.324 839.008C123.844 838.4 123.684 837.952 123.684 837.28C123.684 836.768 123.78 836.096 124.068 835.2C124.996 832.16 130.276 822.208 132.26 819.552C132.836 818.848 133.252 818.976 133.508 819.328C133.764 819.68 133.828 820.096 133.828 820.512C134.628 819.968 135.556 819.552 136.42 819.552ZM165.108 828.384C165.492 829.888 166.164 831.008 166.868 831.008C167.54 831.008 167.828 829.408 167.828 827.328C167.828 826.304 167.796 825.28 167.732 824.416C166.964 825.632 166.068 827.008 165.108 828.384ZM192.501 824.128C193.429 822.88 194.101 821.376 193.749 821.088C193.269 820.704 190.901 822.656 189.365 825.728C189.621 825.888 189.845 825.952 190.069 825.952C190.837 825.952 191.861 824.992 192.501 824.128ZM81.4721 855.416C80.3201 857.016 79.7441 858.808 79.7441 860.184C79.7441 862.072 80.7681 863.448 82.6561 863.448C83.9361 863.448 85.3761 862.456 86.3041 861.56C86.5601 862.744 87.4881 863.576 89.0881 863.576C90.1636 863.576 91.2683 863.061 92.1827 862.304C92.2839 862.67 92.4543 862.959 92.6473 863.224C93.0633 863.768 93.4473 863.672 93.7353 863.064L94.3753 861.656C95.0153 862.712 96.1033 863.352 97.6393 863.352C99.6233 863.352 101.639 861.496 103.143 858.168C103.943 856.44 104.295 854.776 104.295 853.496C104.295 851.672 103.527 850.392 101.767 850.392C101.255 850.392 100.551 850.648 99.9753 850.968C100.482 850.078 100.95 849.311 101.349 848.658C101.681 848.114 101.965 847.649 102.183 847.256C102.951 845.88 103.303 844.632 103.303 843.768C103.303 843.256 103.207 842.808 102.983 842.424C102.567 841.688 102.119 841.688 101.639 842.392C99.3188 845.818 94.8519 854.061 93.0769 858.062C92.0208 860.135 90.428 862.296 89.2801 862.296C88.9601 862.296 88.8321 862.008 88.8321 861.528C88.8321 860.028 90.1476 857.871 91.2229 856.107C91.6847 855.35 92.1021 854.665 92.3521 854.136C93.1841 852.472 92.8961 851.064 92.3521 850.424C91.9681 849.976 91.4241 850.008 91.0401 850.648L90.4321 851.64C90.1441 850.808 89.4401 850.232 88.2881 850.232C86.6561 850.232 84.0321 851.736 81.4721 855.416ZM83.0721 862.04C82.7521 862.04 82.6241 861.656 82.6241 861.08C82.6241 860.056 83.1681 858.36 84.1281 856.856C85.7601 854.232 87.9681 852.216 88.6081 852.216C88.9281 852.216 88.9921 852.44 88.9921 852.824C88.9921 853.656 88.4161 855.224 87.1681 857.4C85.6001 860.088 84.1281 862.04 83.0721 862.04ZM100.295 857.272C101.223 855.448 101.575 854.072 101.575 853.144C101.575 852.44 101.479 852.056 101.127 852.056C100.743 852.056 100.135 852.408 99.2713 853.24C97.9273 854.648 96.4873 857.208 95.3033 859.64C95.3673 860.568 95.9113 861.528 96.5513 861.528C97.4473 861.528 98.6953 860.536 100.295 857.272ZM108.305 862.008C107.601 862.008 106.929 860.888 106.545 859.384C107.505 858.008 108.401 856.632 109.169 855.416C109.233 856.28 109.265 857.304 109.265 858.328C109.265 860.408 108.977 862.008 108.305 862.008ZM103.921 858.936C103.921 859.672 104.113 860.44 104.465 861.048C105.553 863.064 107.473 863.576 109.393 863.512C111.406 863.432 113.306 862.563 114.584 860.964C114.719 861.277 114.885 861.575 115.081 861.848C115.913 862.968 117.065 863.416 118.121 863.416C118.633 863.416 119.049 863.352 119.401 863.224C121.609 862.424 123.561 859.736 124.361 857.272C124.617 857.304 125.001 857.336 125.449 857.304C125.353 857.592 125.289 857.944 125.225 858.296C125.065 858.936 125.001 859.544 125.001 860.088C125.001 862.296 126.217 863.384 128.137 863.384C129.398 863.384 130.644 862.817 131.644 862.093C131.952 862.869 132.601 863.416 133.695 863.416C135.327 863.416 136.767 862.424 137.855 861.208C137.983 862.648 138.943 863.576 140.831 863.576C142.327 863.576 143.876 862.649 144.946 861.412C145.445 862.715 146.585 863.48 147.849 863.48C149.392 863.48 150.756 862.573 151.723 861.618C152.467 862.792 153.794 863.532 155.636 863.512C158.132 863.48 160.692 861.976 162.036 860.024C162.612 859.16 162.58 858.232 162.484 857.944C162.228 857.304 161.812 857.368 161.46 857.88C160.148 859.864 158.004 862.232 155.572 862.232C154.612 862.232 154.036 861.24 154.036 859.832C154.036 859.256 154.132 858.584 154.324 857.944C155.06 858.424 155.828 858.648 156.596 858.648C159.412 858.648 161.556 855.288 161.556 853.368C161.556 852.952 161.428 852.472 161.236 852.184C160.788 851.544 160.148 851.032 159.252 850.52C158.932 850.328 158.58 850.264 158.132 850.264C156.276 850.264 153.684 851.96 152.02 855.352C151.348 856.632 151.028 857.88 151.028 859.032C151.028 859.281 151.043 859.525 151.074 859.761C150.106 861.23 148.999 862.264 148.105 862.264C147.561 862.264 147.241 861.592 147.241 860.632C147.241 859.928 147.433 859.096 147.817 858.232C148.937 855.8 150.761 852.632 151.977 850.552C152.681 850.456 153.513 850.392 154.089 850.456C154.857 850.552 155.081 850.168 154.761 849.592C154.537 849.208 153.993 848.696 153.001 848.568C153.385 847.672 153.513 846.936 153.513 846.36C153.513 845.976 153.385 845.432 153.161 845.048C152.809 844.44 152.425 844.408 151.945 845.112C151.209 846.168 150.537 847.224 149.545 848.952C148.841 849.016 147.977 849.048 147.241 849.016C146.505 848.984 146.185 849.304 146.633 849.976C146.889 850.36 147.465 850.712 148.457 850.84C147.177 853.144 145.961 855.672 145.321 857.24C145.245 857.419 145.176 857.594 145.115 857.764C145.047 857.83 144.984 857.912 144.927 858.008C143.775 860.024 142.143 862.232 141.087 862.232C140.671 862.232 140.479 861.912 140.479 861.336C140.479 860.088 141.727 857.912 142.655 856.408C143.775 854.552 144.447 853.144 144.447 852.056C144.447 851.352 144.287 850.84 143.967 850.392C143.583 849.848 143.071 849.976 142.623 850.584C141.999 851.382 141.468 852.387 140.812 853.63L140.812 853.631C140.258 854.68 139.615 855.899 138.751 857.304C137.119 859.864 135.423 862.04 134.591 862.04C133.887 862.04 133.983 860.856 134.559 859.576C134.943 858.732 135.47 857.741 135.996 856.751C137.006 854.85 138.015 852.951 138.015 852.088C138.015 851.608 137.887 851.064 137.535 850.616C137.151 850.136 136.575 850.072 136.159 850.616C134.175 853.4 132.543 856.6 131.839 858.616C131.712 858.954 131.617 859.287 131.549 859.612C130.434 861.079 129.079 862.168 128.137 862.168C127.721 862.168 127.529 861.624 127.529 860.856C127.529 859.704 127.913 858.2 128.585 856.504C130.249 855.672 131.593 854.328 132.809 852.856C133.993 851.352 135.337 848.984 135.817 847.32C135.945 846.872 136.009 846.392 136.009 846.008C136.009 845.112 135.689 844.376 135.049 843.704C134.473 843.16 133.769 843.256 133.193 843.864C130.377 846.808 127.305 851.448 125.801 856.152C125.353 856.216 125.129 856.248 124.617 856.152C124.681 855.768 124.713 855.48 124.745 855.096C124.868 853.441 124.345 852.843 123.345 851.699L123.209 851.544C122.633 850.744 121.961 850.392 121.129 850.392C119.113 850.392 117.033 852.088 115.561 854.584C114.815 855.904 114.301 857.301 114.202 858.614C113.635 859.726 112.849 860.551 111.793 861.272C112.145 860.568 112.305 859.672 112.337 858.872C112.37 857.996 112.279 857.028 112.181 855.992C112.086 854.985 111.985 853.911 111.985 852.792C111.985 852.376 112.017 851.832 112.049 851.448C113.041 849.816 112.849 849.112 111.985 849.112C111.505 849.112 110.929 849.336 110.417 849.784C109.681 850.392 109.297 851.128 109.169 852.28C108.337 853.656 107.217 855.32 106.161 856.824C106.065 856.056 105.585 855.896 104.945 856.44C104.241 857.048 103.921 857.976 103.921 858.936ZM131.881 851.544C133.161 849.656 134.537 846.744 134.185 846.744C133.961 846.744 133.033 848.056 131.945 849.944C131.772 850.242 131.581 850.543 131.385 850.854L131.384 850.855C130.821 851.746 130.213 852.709 129.833 853.848C129.769 854.04 129.769 854.104 129.801 854.104C129.981 854.104 130.879 852.893 131.492 852.065L131.493 852.064C131.645 851.859 131.78 851.677 131.881 851.544ZM121.833 853.144C121.833 853.72 121.993 854.552 122.345 854.968C122.665 854.232 122.793 853.464 122.793 853.048C122.793 852.568 122.537 852.376 122.313 852.376C122.121 852.376 121.833 852.632 121.833 853.144ZM117.993 855.96C117.161 857.464 116.681 859.224 116.681 860.44C116.681 861.592 117.065 861.848 117.481 861.848C118.345 861.816 119.593 860.568 120.745 858.488C121.193 857.656 121.513 856.888 121.737 856.248C120.713 855.512 120.041 854.552 119.849 853.56C119.177 854.168 118.537 854.968 117.993 855.96ZM159.156 852.088C159.508 852.376 158.836 853.88 157.908 855.128C157.268 855.992 156.244 856.952 155.476 856.952C155.252 856.952 155.028 856.888 154.772 856.728C156.308 853.656 158.676 851.704 159.156 852.088ZM175.253 850.84C174.229 850.84 173.365 849.88 173.365 848.888C173.365 847.992 174.037 847.16 174.773 847.16C175.669 847.16 176.533 848.312 176.533 849.24C176.533 850.104 176.053 850.84 175.253 850.84ZM178.938 850.552C176.97 853.505 174.528 857.939 173.897 859.758C172.985 861.142 171.896 862.2 170.997 862.2C170.645 862.2 170.517 861.912 170.517 861.4C170.517 860.888 170.677 860.216 170.965 859.48C171.242 858.828 171.759 857.886 172.281 856.937C172.784 856.022 173.29 855.099 173.589 854.424C174.421 852.824 174.165 851.448 173.557 850.808C173.141 850.328 172.757 850.392 172.277 851.032C171.093 852.696 169.045 856.408 168.245 858.648C167.989 859.48 167.861 860.152 167.861 860.76C167.861 862.36 168.725 863.48 170.677 863.48C171.693 863.48 172.802 863.091 173.759 862.417C173.879 862.725 174.062 862.988 174.298 863.224C174.81 863.736 175.226 863.544 175.45 863.032C176.762 860.152 178.202 857.016 179.962 855.16C181.722 853.176 183.29 852.28 183.578 852.28C183.802 852.28 183.29 853.112 182.618 854.168C181.37 856.152 179.898 859.096 179.898 860.824C179.898 862.488 180.826 863.576 182.97 863.576C184.351 863.576 185.946 862.7 187.066 861.553C187.591 862.771 188.694 863.48 189.911 863.48C191.5 863.48 192.898 862.519 193.869 861.535C194.608 862.701 195.931 863.436 197.762 863.416C201.666 863.352 205.09 859.448 207.714 853.976C208.418 853.944 209.218 853.816 210.082 853.432C208.802 854.936 207.554 856.696 207.01 858.424C206.786 859.096 206.69 859.672 206.69 860.184C206.69 862.072 207.81 863.48 209.826 863.48C211.326 863.48 213.129 862.612 214.208 861.26C214.898 862.639 216.3 863.534 218.323 863.512C220.343 863.486 222.404 862.497 223.829 861.086C224.921 863.07 226.829 863.576 228.737 863.512C230.576 863.438 232.321 862.707 233.584 861.361C234.072 862.696 235.225 863.48 236.505 863.48C238.141 863.48 239.575 862.461 240.548 861.447C241.664 863.133 243.45 863.572 245.237 863.512C247.637 863.416 249.877 862.2 251.093 859.96C251.669 858.968 251.573 858.072 251.413 857.752C251.189 857.24 250.709 857.016 250.421 857.752C249.845 859.32 248.949 860.376 247.637 861.272C247.989 860.568 248.149 859.672 248.181 858.872C248.213 857.996 248.122 857.028 248.025 855.992C247.93 854.984 247.829 853.912 247.829 852.792C247.829 852.376 247.861 851.832 247.893 851.448C248.885 849.816 248.693 849.112 247.829 849.112C247.349 849.112 246.773 849.336 246.261 849.784C245.525 850.392 245.141 851.128 245.013 852.28C244.181 853.656 243.061 855.32 242.005 856.824C241.909 856.056 241.429 855.896 240.789 856.44C240.085 857.048 239.765 857.976 239.765 858.936C239.765 859.164 239.783 859.395 239.819 859.624C238.831 861.165 237.683 862.264 236.761 862.264C236.217 862.264 235.897 861.592 235.897 860.632C235.897 859.928 236.089 859.096 236.473 858.232C237.593 855.8 239.417 852.632 240.633 850.552C241.337 850.456 242.169 850.392 242.745 850.456C243.513 850.552 243.737 850.168 243.417 849.592C243.193 849.208 242.649 848.696 241.657 848.568C242.041 847.672 242.169 846.936 242.169 846.36C242.169 845.976 242.041 845.432 241.817 845.048C241.465 844.44 241.081 844.408 240.601 845.112C239.865 846.168 239.193 847.224 238.201 848.952C237.497 849.016 236.633 849.048 235.897 849.016C235.161 848.984 234.841 849.304 235.289 849.976C235.545 850.36 236.121 850.712 237.113 850.84C235.833 853.144 234.617 855.672 233.977 857.24C233.746 857.785 233.583 858.287 233.479 858.742C232.918 859.79 232.152 860.579 231.137 861.272C231.489 860.568 231.649 859.672 231.681 858.872C231.713 857.996 231.622 857.028 231.525 855.992C231.43 854.984 231.329 853.912 231.329 852.792C231.329 852.376 231.361 851.832 231.393 851.448C232.385 849.816 232.193 849.112 231.329 849.112C230.849 849.112 230.273 849.336 229.761 849.784C229.025 850.392 228.641 851.128 228.513 852.28C227.681 853.656 226.561 855.32 225.505 856.824C225.409 856.056 224.929 855.896 224.289 856.44C223.585 857.048 223.265 857.976 223.265 858.936C223.265 858.962 223.265 858.988 223.266 859.014C223.266 859.039 223.267 859.065 223.268 859.09C221.969 860.714 220.206 862.232 218.259 862.232C217.299 862.232 216.723 861.24 216.723 859.832C216.723 859.256 216.819 858.584 217.011 857.944C217.747 858.424 218.515 858.648 219.283 858.648C222.099 858.648 224.243 855.288 224.243 853.368C224.243 852.952 224.115 852.472 223.923 852.184C223.475 851.544 222.835 851.032 221.939 850.52C221.619 850.328 221.267 850.264 220.819 850.264C218.963 850.264 216.371 851.96 214.707 855.352C214.142 856.428 213.826 857.482 213.74 858.475C212.741 860.513 211.089 862.2 210.018 862.2C209.57 862.2 209.314 861.656 209.314 860.824C209.314 860.44 209.41 859.864 209.538 859.448C210.114 857.816 211.682 855.64 213.058 854.04C213.442 853.624 213.602 853.208 213.602 852.824C213.602 852.024 213.058 851.16 212.642 850.616C212.258 850.104 211.81 850.328 211.298 850.648C210.242 851.32 209.41 851.768 208.514 851.992C208.866 850.936 209.122 849.976 209.122 849.304C209.122 848.6 208.866 848.184 208.194 848.184C207.106 848.216 204.962 850.552 204.962 852.248C204.962 852.824 205.282 853.304 205.858 853.656C204.162 857.56 200.834 862.168 197.634 862.168C196.738 862.168 196.162 861.208 196.162 859.736C196.162 859.16 196.258 858.488 196.45 857.848C197.186 858.36 197.954 858.552 198.722 858.552C200.13 858.552 201.346 857.752 202.274 856.6C203.138 855.48 203.618 854.168 203.618 853.24C203.618 852.856 203.49 852.472 203.33 852.184C202.818 851.544 202.21 851.064 201.346 850.52C201.026 850.328 200.674 850.264 200.258 850.264C198.434 850.264 195.81 852.056 194.146 855.32C193.506 856.6 193.186 857.88 193.186 859C193.186 859.215 193.198 859.425 193.221 859.631C192.234 861.168 191.087 862.264 190.167 862.264C189.623 862.264 189.303 861.592 189.303 860.632C189.303 859.928 189.495 859.096 189.879 858.232C190.999 855.8 192.823 852.632 194.039 850.552C194.743 850.456 195.575 850.392 196.151 850.456C196.919 850.552 197.143 850.168 196.823 849.592C196.599 849.208 196.055 848.696 195.063 848.568C195.447 847.672 195.575 846.936 195.575 846.36C195.575 845.976 195.447 845.432 195.223 845.048C194.871 844.44 194.487 844.408 194.007 845.112C193.271 846.168 192.599 847.224 191.607 848.952C190.903 849.016 190.039 849.048 189.303 849.016C188.567 848.984 188.247 849.304 188.695 849.976C188.951 850.36 189.527 850.712 190.519 850.84C189.239 853.144 188.023 855.672 187.383 857.24C187.189 857.699 187.043 858.127 186.939 858.523C185.811 860.473 184.323 862.232 183.322 862.232C182.906 862.232 182.682 861.816 182.682 861.144C182.682 859.96 183.77 857.848 184.794 856.216C185.818 854.424 186.394 853.4 186.394 852.696C186.394 851.48 185.53 850.36 184.602 850.36C183.45 850.36 181.914 851.416 180.538 852.696C180.57 852.504 180.57 852.28 180.57 852.056C180.57 851.544 180.442 851.032 180.154 850.552C179.834 849.976 179.354 849.944 178.938 850.552ZM197.186 856.088C198.498 853.496 200.674 851.64 201.25 852.088C201.57 852.344 200.834 853.912 199.938 855.064C199.298 855.928 198.434 856.856 197.602 856.856C197.378 856.856 197.154 856.792 196.898 856.664C196.962 856.504 197.026 856.376 197.186 856.088ZM220.595 855.128C221.523 853.88 222.195 852.376 221.843 852.088C221.363 851.704 218.995 853.656 217.459 856.728C217.715 856.888 217.939 856.952 218.163 856.952C218.931 856.952 219.955 855.992 220.595 855.128ZM227.649 862.008C226.945 862.008 226.273 860.888 225.889 859.384C226.849 858.008 227.745 856.632 228.513 855.416C228.577 856.28 228.609 857.304 228.609 858.328C228.609 860.408 228.321 862.008 227.649 862.008ZM244.149 862.008C243.445 862.008 242.773 860.888 242.389 859.384C243.349 858.008 244.245 856.632 245.013 855.416C245.077 856.28 245.109 857.304 245.109 858.328C245.109 860.408 244.821 862.008 244.149 862.008ZM254.605 862.296C254.221 863.256 253.165 863.832 252.397 863.544C251.629 863.256 251.341 862.2 251.725 861.4C252.173 860.408 253.165 859.896 253.965 860.184C254.733 860.44 254.989 861.368 254.605 862.296Z" fill="#191919"/>
</svg>
