<svg viewBox="0 0 146 42" fill="rgba(255,255,255)" xmlns="http://www.w3.org/2000/svg">
<path d="M8.56914 26.393H9.61416C12.4628 26.393 14.1619 27.3448 14.7115 29.2484C14.8973 29.8752 14.9902 30.5939 14.9902 31.4042L14.9902 42H8.56914L8.56914 26.393ZM0 31.4042C0 29.7147 0.390914 28.4762 1.17274 27.6888C2.03198 26.8249 3.43307 26.393 5.37603 26.393H6.42105L6.42105 42H0L0 31.4042Z"/>
<path d="M24.8263 26.3815H31.2822V42H24.8263V26.3815ZM16.4894 26.3815H22.9105V42H21.8655C19.0168 42 17.3177 41.0444 16.7681 39.1332C16.5823 38.5139 16.4894 37.7992 16.4894 36.9888V26.3815Z"/>
<path d="M47.5394 31.2437C47.5394 33.5524 46.5177 35.0699 44.4741 35.7962C45.6197 36.2167 46.4828 36.9009 47.0634 37.8488C47.5665 38.6898 47.8181 39.6683 47.8181 40.7845V42H40.8978V26.3701H41.5016C43.5452 26.3701 45.0508 26.7523 46.0184 27.5168C47.0324 28.3195 47.5394 29.5618 47.5394 31.2437ZM32.7234 26.393H38.9703V42H32.7234V26.393Z"/>
<path d="M57.5962 26.393H58.5019C61.3738 26.393 63.2703 27.6582 64.1914 30.1887C64.563 31.2284 64.7488 32.4248 64.7488 33.7779C64.7488 36.0561 64.3037 37.9329 63.4135 39.4084C62.3607 41.1361 60.7235 42 58.5019 42H57.5962V26.393ZM54.7979 42C51.9415 42 50.0489 40.5704 49.12 37.7112C48.7407 36.5492 48.551 35.2381 48.551 33.7779C48.551 30.8041 49.387 28.7056 51.0591 27.4824C52.0422 26.7561 53.2884 26.393 54.7979 26.393H55.7036V42H54.7979Z"/>
<path d="M74.016 26.393H80.4254V34.4201H79.601C77.6039 34.4201 76.1718 34.0799 75.3048 33.3995C74.4456 32.7191 74.016 31.5609 74.016 29.9249V26.393ZM71.6937 42C70.4397 42 69.325 41.5413 68.3497 40.6239C67.4904 39.8136 66.817 38.7357 66.3293 37.3902C65.8803 36.1517 65.6559 34.9247 65.6559 33.7091C65.6559 31.882 66.1126 30.2575 67.026 28.8355C67.6762 27.8264 68.5316 27.1154 69.5921 26.7026C70.1339 26.4962 70.7377 26.393 71.4035 26.393H72.2975V42H71.6937ZM74.016 39.007H79.8216V39.3281C79.8216 40.0391 79.5623 40.6392 79.0437 41.1285C78.4089 41.7095 77.5071 42 76.3382 42H74.016V39.007Z"/>
<path d="M82.0408 26.393H88.2877V34.2022H90.5519V26.393H96.7988V41.9771H90.5519V35.9338L88.2877 35.9338V41.9771H82.0408V26.393Z"/>
<path d="M106.054 26.393H113.219V34.2481L106.054 26.393ZM98.4722 31.0029H98.4025C98.4025 29.428 98.836 28.266 99.703 27.5168C100.57 26.7676 101.905 26.393 103.709 26.393L113.219 37.7915C113.219 39.3052 112.804 40.3869 111.976 41.0368C111.171 41.6713 109.855 41.9885 108.028 41.9885L98.4722 31.0029ZM98.4373 34.099L105.334 42H98.4373V34.099Z"/>
<path d="M123.101 26.393H129.545V30.7276H128.338C126.24 30.7276 124.808 30.4027 124.042 29.7529C123.415 29.2178 123.101 28.3539 123.101 27.1613V26.393ZM114.845 26.393H121.092V32.6771H125.749V35.6701H121.092V41.9771H114.845V26.393ZM123.09 40.8877C123.09 39.3052 124.018 38.2311 125.876 37.6654C126.588 37.4513 127.506 37.3443 128.628 37.3443H129.545V42H123.09V40.8877Z"/>
<path d="M139.579 26.393H140.624C143.473 26.393 145.172 27.3448 145.721 29.2484C145.907 29.8752 146 30.5939 146 31.4042V42H139.579V26.393ZM131.149 26.393H137.396V42H131.149V26.393Z"/>
<path d="M5.00711 5.72449C4.50179 6.22354 3.91323 6.47307 3.24145 6.47307C2.8253 6.47307 2.43293 6.39088 2.06434 6.22648C1.7017 6.06209 1.38364 5.83604 1.11017 5.54835C0.842648 5.26066 0.628628 4.92306 0.468114 4.53556C0.313544 4.14218 0.236259 3.71945 0.236259 3.26736C0.236259 2.83876 0.313544 2.43658 0.468114 2.06082C0.628628 1.67918 0.845621 1.34746 1.11909 1.06564C1.3985 0.777943 1.72548 0.551899 2.10001 0.387503C2.47455 0.217237 2.88178 0.132103 3.32171 0.132103C3.91621 0.132103 4.4245 0.2554 4.8466 0.501993C5.27463 0.748586 5.59566 1.08031 5.80968 1.49717L4.89118 2.1665C4.73067 1.85532 4.50476 1.61753 4.21345 1.45314C3.9281 1.28874 3.61598 1.20655 3.27712 1.20655C3.0096 1.20655 2.76288 1.26232 2.53697 1.37388C2.317 1.48543 2.12676 1.63808 1.96625 1.83184C1.81168 2.02559 1.68981 2.2487 1.60063 2.50116C1.5174 2.75363 1.47579 3.02077 1.47579 3.30259C1.47579 3.59615 1.52335 3.8721 1.61847 4.13044C1.71359 4.3829 1.84438 4.60307 2.01084 4.79096C2.1773 4.97884 2.37348 5.12855 2.59939 5.24011C2.83125 5.34579 3.08094 5.39863 3.34846 5.39863C3.96079 5.39863 4.51368 5.11387 5.00711 4.54436V4.10402L3.73191 4.10402V3.21452H6.0237L6.0237 6.42904H5.00711V5.72449Z"/>
<path d="M6.94764 0L8.14258 0V4.94948C8.14258 5.11975 8.18419 5.25185 8.26742 5.34579C8.35065 5.43973 8.46955 5.4867 8.62412 5.4867C8.69546 5.4867 8.77275 5.47496 8.85598 5.45147C8.94515 5.42799 9.02838 5.39863 9.10567 5.3634L9.26618 6.26171C9.10567 6.33803 8.9184 6.39675 8.70438 6.43785C8.49036 6.47894 8.29715 6.49949 8.12474 6.49949C7.75021 6.49949 7.45891 6.40262 7.25083 6.20887C7.0487 6.00924 6.94764 5.72742 6.94764 5.3634L6.94764 0Z"/>
<path d="M11.9448 6.51711C11.5644 6.51711 11.2225 6.45252 10.9193 6.32336C10.6161 6.19419 10.3575 6.02099 10.1435 5.80375C9.93543 5.58064 9.77492 5.32524 9.66196 5.03755C9.54901 4.74986 9.49253 4.44749 9.49253 4.13044C9.49253 3.80752 9.54901 3.50221 9.66196 3.21452C9.77492 2.92683 9.93543 2.67436 10.1435 2.45713C10.3575 2.23402 10.6161 2.05788 10.9193 1.92871C11.2225 1.79954 11.5644 1.73496 11.9448 1.73496C12.3253 1.73496 12.6642 1.79954 12.9614 1.92871C13.2646 2.05788 13.5203 2.23402 13.7283 2.45713C13.9424 2.67436 14.1058 2.92683 14.2188 3.21452C14.3317 3.50221 14.3882 3.80752 14.3882 4.13044C14.3882 4.44749 14.3317 4.74986 14.2188 5.03755C14.1058 5.32524 13.9453 5.58064 13.7373 5.80375C13.5292 6.02099 13.2735 6.19419 12.9703 6.32336C12.6672 6.45252 12.3253 6.51711 11.9448 6.51711ZM10.7231 4.13044C10.7231 4.33593 10.7529 4.52381 10.8123 4.69408C10.8777 4.85847 10.9639 5.00232 11.0709 5.12562C11.1839 5.24891 11.3147 5.34579 11.4633 5.41625C11.6119 5.48083 11.7724 5.51312 11.9448 5.51312C12.1172 5.51312 12.2778 5.48083 12.4264 5.41625C12.575 5.34579 12.7028 5.24891 12.8098 5.12562C12.9228 5.00232 13.009 4.85554 13.0684 4.68527C13.1338 4.51501 13.1665 4.32713 13.1665 4.12163C13.1665 3.92201 13.1338 3.73706 13.0684 3.5668C13.009 3.39653 12.9228 3.24975 12.8098 3.12645C12.7028 3.00315 12.575 2.90921 12.4264 2.84463C12.2778 2.77417 12.1172 2.73895 11.9448 2.73895C11.7724 2.73895 11.6119 2.77417 11.4633 2.84463C11.3147 2.91508 11.1839 3.01196 11.0709 3.13526C10.9639 3.25855 10.8777 3.40534 10.8123 3.5756C10.7529 3.74587 10.7231 3.93081 10.7231 4.13044Z"/>
<path d="M17.8522 6.51711C17.4955 6.51711 17.1774 6.43785 16.898 6.27932C16.6186 6.1208 16.3986 5.90356 16.2381 5.62761V6.42904H15.1948V0L16.3897 0V2.62446C16.5562 2.34264 16.7732 2.1254 17.0407 1.97275C17.3142 1.81422 17.6322 1.73496 17.9949 1.73496C18.2981 1.73496 18.5745 1.79954 18.8242 1.92871C19.0739 2.05788 19.2879 2.23108 19.4662 2.44832C19.6505 2.66556 19.7902 2.92096 19.8854 3.21452C19.9864 3.50808 20.037 3.81632 20.037 4.13924C20.037 4.47391 19.9805 4.78508 19.8675 5.07278C19.7605 5.36047 19.6089 5.61293 19.4127 5.83017C19.2166 6.04154 18.9847 6.20887 18.7172 6.33216C18.4496 6.45546 18.1613 6.51711 17.8522 6.51711ZM17.5222 5.51312C17.7125 5.51312 17.8878 5.47789 18.0484 5.40744C18.2089 5.33111 18.3456 5.2313 18.4586 5.108C18.5715 4.98471 18.6577 4.84086 18.7172 4.67647C18.7826 4.51207 18.8153 4.33593 18.8153 4.14805C18.8153 3.96017 18.7855 3.7811 18.7261 3.61083C18.6666 3.44056 18.5804 3.29085 18.4675 3.16168C18.3605 3.03251 18.2327 2.92976 18.084 2.85344C17.9354 2.77711 17.7719 2.73895 17.5936 2.73895C17.326 2.73895 17.0853 2.82702 16.8713 3.00315C16.6632 3.17342 16.5027 3.38479 16.3897 3.63725V4.73811C16.4313 4.85554 16.4908 4.96122 16.5681 5.05516C16.6513 5.1491 16.7434 5.2313 16.8445 5.30176C16.9456 5.36634 17.0556 5.41918 17.1745 5.46028C17.2934 5.49551 17.4093 5.51312 17.5222 5.51312Z"/>
<path d="M22.1218 6.51711C21.8959 6.51711 21.6848 6.48188 21.4886 6.41143C21.2924 6.3351 21.123 6.23235 20.9803 6.10318C20.8377 5.96814 20.7247 5.81256 20.6415 5.63642C20.5642 5.46028 20.5255 5.26653 20.5255 5.05516C20.5255 4.83793 20.5731 4.6383 20.6682 4.45629C20.7693 4.26841 20.906 4.10989 21.0784 3.98072C21.2568 3.85155 21.4678 3.75174 21.7116 3.68129C21.9553 3.60496 22.2228 3.5668 22.5141 3.5668C22.7222 3.5668 22.9243 3.58441 23.1205 3.61964C23.3227 3.65486 23.501 3.70477 23.6556 3.76935V3.50515C23.6556 3.19984 23.5664 2.96499 23.3881 2.8006C23.2156 2.6362 22.957 2.554 22.6122 2.554C22.3625 2.554 22.1188 2.59804 21.881 2.68611C21.6432 2.77417 21.3995 2.90334 21.1498 3.07361L20.7841 2.32502C21.3846 1.93165 22.0326 1.73496 22.7282 1.73496C23.3999 1.73496 23.9201 1.89936 24.2887 2.22815C24.6633 2.55107 24.8505 3.02077 24.8505 3.63725V5.07278C24.8505 5.19607 24.8713 5.28414 24.9129 5.33698C24.9605 5.38982 25.0348 5.41918 25.1359 5.42505V6.42904C24.9337 6.47014 24.7584 6.49069 24.6097 6.49069C24.3838 6.49069 24.2085 6.44078 24.0836 6.34097C23.9647 6.24116 23.8904 6.10906 23.8607 5.94466L23.8339 5.68926C23.6259 5.95934 23.3732 6.16483 23.0759 6.30574C22.7787 6.44665 22.4606 6.51711 22.1218 6.51711ZM22.4606 5.65403C22.6628 5.65403 22.853 5.6188 23.0314 5.54835C23.2156 5.47789 23.3583 5.38395 23.4594 5.26653C23.5902 5.16672 23.6556 5.05516 23.6556 4.93187V4.40345C23.5129 4.35061 23.3583 4.30951 23.1919 4.28015C23.0254 4.24493 22.8649 4.22731 22.7103 4.22731C22.4012 4.22731 22.1485 4.29777 21.9523 4.43868C21.7562 4.57372 21.6581 4.74692 21.6581 4.95829C21.6581 5.15791 21.7353 5.32524 21.8899 5.46028C22.0445 5.58945 22.2347 5.65403 22.4606 5.65403Z"/>
<path d="M25.9582 0L27.1532 0V4.94948C27.1532 5.11975 27.1948 5.25185 27.278 5.34579C27.3613 5.43973 27.4802 5.4867 27.6347 5.4867C27.7061 5.4867 27.7833 5.47496 27.8666 5.45147C27.9557 5.42799 28.039 5.39863 28.1163 5.3634L28.2768 6.26171C28.1163 6.33803 27.929 6.39675 27.715 6.43785C27.501 6.47894 27.3077 6.49949 27.1353 6.49949C26.7608 6.49949 26.4695 6.40262 26.2614 6.20887C26.0593 6.00924 25.9582 5.72742 25.9582 5.3634V0Z"/>
<path d="M30.7769 6.42904V0.176138L32.0076 0.176138V5.3634H35.2357V6.42904H30.7769Z"/>
<path d="M37.8441 6.51711C37.4695 6.51711 37.1307 6.45546 36.8275 6.33216C36.5243 6.203 36.2657 6.02979 36.0516 5.81256C35.8376 5.59532 35.6712 5.34285 35.5523 5.05516C35.4393 4.76747 35.3828 4.4651 35.3828 4.14805C35.3828 3.81926 35.4393 3.51102 35.5523 3.22333C35.6652 2.92976 35.8287 2.67436 36.0427 2.45713C36.2567 2.23402 36.5153 2.05788 36.8185 1.92871C37.1277 1.79954 37.4725 1.73496 37.853 1.73496C38.2334 1.73496 38.5723 1.79954 38.8696 1.92871C39.1728 2.05788 39.4284 2.23108 39.6365 2.44832C39.8505 2.66556 40.011 2.91802 40.118 3.20571C40.231 3.49341 40.2874 3.79284 40.2874 4.10402C40.2874 4.18034 40.2845 4.25373 40.2785 4.32419C40.2785 4.39464 40.2726 4.45336 40.2607 4.50033H36.6491C36.6669 4.68234 36.7115 4.8438 36.7829 4.98471C36.8542 5.12562 36.9464 5.24598 37.0593 5.34579C37.1723 5.4456 37.3001 5.52193 37.4428 5.57477C37.5854 5.62761 37.7341 5.65403 37.8886 5.65403C38.1264 5.65403 38.3494 5.59825 38.5574 5.4867C38.7715 5.36928 38.9171 5.21662 38.9944 5.02874L40.0199 5.31056C39.8475 5.66284 39.5711 5.95347 39.1906 6.18245C38.8161 6.40555 38.3672 6.51711 37.8441 6.51711ZM39.0568 3.73413C39.0271 3.38772 38.8963 3.11177 38.6645 2.90628C38.4385 2.69491 38.1621 2.58923 37.8351 2.58923C37.6746 2.58923 37.523 2.61859 37.3803 2.6773C37.2436 2.73014 37.1217 2.80647 37.0147 2.90628C36.9077 3.00609 36.8185 3.12645 36.7472 3.26736C36.6818 3.40827 36.6432 3.56386 36.6313 3.73413L39.0568 3.73413Z"/>
<path d="M42.2906 6.51711C42.0647 6.51711 41.8536 6.48188 41.6575 6.41143C41.4613 6.3351 41.2918 6.23235 41.1492 6.10318C41.0065 5.96814 40.8935 5.81256 40.8103 5.63642C40.733 5.46028 40.6944 5.26653 40.6944 5.05516C40.6944 4.83793 40.7419 4.6383 40.837 4.45629C40.9381 4.26841 41.0748 4.10989 41.2473 3.98072C41.4256 3.85155 41.6367 3.75174 41.8804 3.68129C42.1241 3.60496 42.3917 3.5668 42.683 3.5668C42.891 3.5668 43.0932 3.58441 43.2894 3.61964C43.4915 3.65486 43.6698 3.70477 43.8244 3.76935V3.50515C43.8244 3.19984 43.7352 2.96499 43.5569 2.8006C43.3845 2.6362 43.1259 2.554 42.7811 2.554C42.5314 2.554 42.2876 2.59804 42.0498 2.68611C41.812 2.77417 41.5683 2.90334 41.3186 3.07361L40.953 2.32502C41.5534 1.93165 42.2014 1.73496 42.897 1.73496C43.5688 1.73496 44.089 1.89936 44.4575 2.22815C44.8321 2.55107 45.0193 3.02077 45.0193 3.63725V5.07278C45.0193 5.19607 45.0402 5.28414 45.0818 5.33698C45.1293 5.38982 45.2036 5.41918 45.3047 5.42505V6.42904C45.1026 6.47014 44.9272 6.49069 44.7786 6.49069C44.5527 6.49069 44.3773 6.44078 44.2524 6.34097C44.1335 6.24116 44.0592 6.10906 44.0295 5.94466L44.0028 5.68926C43.7947 5.95934 43.542 6.16483 43.2448 6.30574C42.9475 6.44665 42.6295 6.51711 42.2906 6.51711ZM42.6295 5.65403C42.8316 5.65403 43.0218 5.6188 43.2002 5.54835C43.3845 5.47789 43.5272 5.38395 43.6282 5.26653C43.759 5.16672 43.8244 5.05516 43.8244 4.93187V4.40345C43.6817 4.35061 43.5272 4.30951 43.3607 4.28015C43.1942 4.24493 43.0337 4.22731 42.8792 4.22731C42.57 4.22731 42.3174 4.29777 42.1212 4.43868C41.925 4.57372 41.8269 4.74692 41.8269 4.95829C41.8269 5.15791 41.9042 5.32524 42.0587 5.46028C42.2133 5.58945 42.4036 5.65403 42.6295 5.65403Z"/>
<path d="M48.0711 6.51711C47.75 6.51711 47.4528 6.45546 47.1793 6.33216C46.9059 6.20887 46.671 6.0386 46.4748 5.82136C46.2787 5.60413 46.1241 5.35166 46.0111 5.06397C45.9041 4.77041 45.8506 4.45629 45.8506 4.12163C45.8506 3.78697 45.9012 3.47579 46.0022 3.1881C46.1092 2.90041 46.2549 2.64794 46.4392 2.4307C46.6235 2.21347 46.8434 2.0432 47.0991 1.9199C47.3547 1.79661 47.6341 1.73496 47.9373 1.73496C48.2821 1.73496 48.5913 1.81716 48.8647 1.98155C49.1441 2.14595 49.3611 2.36025 49.5157 2.62446V0L50.7106 0V5.07278C50.7106 5.19607 50.7315 5.28414 50.7731 5.33698C50.8147 5.38982 50.886 5.41918 50.9871 5.42505V6.42904C50.779 6.47014 50.6096 6.49069 50.4788 6.49069C50.2648 6.49069 50.0894 6.43785 49.9527 6.33216C49.8159 6.22648 49.7386 6.08851 49.7208 5.91824L49.6941 5.62761C49.5216 5.92117 49.2868 6.14428 48.9896 6.29694C48.6983 6.44372 48.3921 6.51711 48.0711 6.51711ZM48.3832 5.51312C48.4961 5.51312 48.6121 5.49551 48.731 5.46028C48.8499 5.41918 48.9599 5.3634 49.0609 5.29295C49.162 5.22249 49.2512 5.1403 49.3284 5.04636C49.4117 4.95241 49.4741 4.84967 49.5157 4.73811V3.63725C49.4681 3.50808 49.3998 3.39066 49.3106 3.28497C49.2274 3.17342 49.1293 3.07948 49.0163 3.00315C48.9093 2.92096 48.7934 2.85637 48.6685 2.8094C48.5496 2.76243 48.4307 2.73895 48.3118 2.73895C48.1335 2.73895 47.967 2.77711 47.8125 2.85344C47.6638 2.92976 47.536 3.03545 47.429 3.17049C47.322 3.29965 47.2388 3.44937 47.1793 3.61964C47.1199 3.7899 47.0902 3.96604 47.0902 4.14805C47.0902 4.3418 47.1228 4.52088 47.1882 4.68527C47.2536 4.84967 47.3428 4.99351 47.4558 5.11681C47.5687 5.24011 47.7025 5.33698 47.8571 5.40744C48.0176 5.47789 48.1929 5.51312 48.3832 5.51312Z"/>
<path d="M51.8836 6.42904V1.81422H53.0785V6.42904L51.8836 6.42904ZM51.8836 1.17132V0L53.0785 0V1.17132H51.8836Z"/>
<path d="M58.4993 6.42904H57.3044V3.83981C57.3044 3.46992 57.239 3.19984 57.1082 3.02957C56.9774 2.85931 56.7961 2.77417 56.5642 2.77417C56.4453 2.77417 56.3234 2.79766 56.1986 2.84463C56.0737 2.8916 55.9548 2.95912 55.8419 3.04719C55.7349 3.12939 55.6368 3.2292 55.5476 3.34662C55.4584 3.46405 55.393 3.59322 55.3514 3.73413V6.42904H54.1565V1.81422H55.2355V2.66849C55.4079 2.37493 55.6576 2.14595 55.9846 1.98155C56.3115 1.81716 56.6801 1.73496 57.0903 1.73496C57.3816 1.73496 57.6194 1.7878 57.8037 1.89348C57.988 1.99917 58.1307 2.13714 58.2318 2.30741C58.3328 2.47768 58.4012 2.67143 58.4369 2.88866C58.4785 3.1059 58.4993 3.32607 58.4993 3.54918V6.42904Z"/>
<path d="M61.3664 6.45546C61.0513 6.45546 60.766 6.39381 60.5103 6.27052C60.2547 6.14722 60.0318 5.97989 59.8415 5.76852C59.6572 5.55128 59.5145 5.30176 59.4135 5.01993C59.3124 4.73811 59.2619 4.43868 59.2619 4.12163C59.2619 3.78697 59.3154 3.47579 59.4224 3.1881C59.5294 2.90041 59.678 2.64794 59.8683 2.4307C60.0585 2.21347 60.2874 2.0432 60.5549 1.9199C60.8224 1.79661 61.1167 1.73496 61.4377 1.73496C61.8004 1.73496 62.1184 1.81716 62.3919 1.98155C62.6654 2.14008 62.8913 2.35438 63.0696 2.62446V1.81422L64.113 1.81422V6.20887C64.113 6.5494 64.0476 6.85471 63.9168 7.12478C63.786 7.39486 63.6047 7.62384 63.3728 7.81172C63.1469 7.9996 62.8735 8.14345 62.5524 8.24326C62.2373 8.34307 61.8925 8.39298 61.518 8.39298C61.0067 8.39298 60.5757 8.30785 60.225 8.13758C59.8802 7.97318 59.5829 7.73833 59.3332 7.43303L59.9842 6.80774C60.1625 7.02497 60.3855 7.19524 60.653 7.31854C60.9265 7.44183 61.2148 7.50348 61.518 7.50348C61.7023 7.50348 61.8777 7.47706 62.0441 7.42422C62.2165 7.37725 62.3681 7.30092 62.4989 7.19524C62.6297 7.08956 62.7308 6.95452 62.8021 6.79012C62.8794 6.62573 62.918 6.43197 62.918 6.20887V5.62761C62.7635 5.89182 62.5465 6.09731 62.2671 6.24409C61.9877 6.385 61.6874 6.45546 61.3664 6.45546ZM61.7677 5.51312C61.8985 5.51312 62.0233 5.49257 62.1422 5.45147C62.2611 5.41037 62.3711 5.3546 62.4722 5.28414C62.5732 5.21369 62.6624 5.13149 62.7397 5.03755C62.817 4.94361 62.8764 4.8438 62.918 4.73811V3.63725C62.811 3.36717 62.6416 3.14994 62.4097 2.98554C62.1838 2.82114 61.946 2.73895 61.6964 2.73895C61.5121 2.73895 61.3456 2.78005 61.197 2.86224C61.0483 2.93857 60.9205 3.04425 60.8135 3.17929C60.7065 3.30846 60.6233 3.45818 60.5638 3.62844C60.5103 3.79871 60.4836 3.97485 60.4836 4.15686C60.4836 4.34474 60.5163 4.52088 60.5817 4.68527C60.6471 4.84967 60.7362 4.99351 60.8492 5.11681C60.9681 5.24011 61.1048 5.33698 61.2594 5.40744C61.414 5.47789 61.5834 5.51312 61.7677 5.51312Z"/>
<path d="M0.610794 17.193L0.610794 10.9401H2.9115C3.42872 10.9401 3.88054 11.0223 4.26696 11.1867C4.65933 11.3511 4.9863 11.5742 5.24788 11.856C5.50946 12.1379 5.70565 12.4696 5.83644 12.8512C5.96723 13.227 6.03262 13.6292 6.03262 14.0578C6.03262 14.5333 5.95831 14.9649 5.80968 15.3524C5.667 15.734 5.45893 16.0628 5.18546 16.3388C4.91199 16.6088 4.58204 16.8202 4.19562 16.9729C3.81514 17.1196 3.3871 17.193 2.9115 17.193H0.610794ZM4.79309 14.0578C4.79309 13.7583 4.75148 13.4824 4.66825 13.2299C4.58502 12.9775 4.46314 12.7602 4.30263 12.5782C4.14211 12.3962 3.94296 12.2553 3.70516 12.1555C3.4733 12.0557 3.20875 12.0058 2.9115 12.0058H1.84141L1.84141 16.1274H2.9115C3.2147 16.1274 3.48222 16.0746 3.71408 15.9689C3.95187 15.8632 4.14806 15.7193 4.30263 15.5373C4.46314 15.3495 4.58502 15.1293 4.66825 14.8768C4.75148 14.6244 4.79309 14.3513 4.79309 14.0578Z"/>
<path d="M6.87818 17.193V12.5782H8.07312V17.193H6.87818ZM6.87818 11.9353V10.764H8.07312V11.9353H6.87818Z"/>
<path d="M10.9792 17.2195C10.6641 17.2195 10.3787 17.1578 10.1231 17.0345C9.86746 16.9112 9.64452 16.7439 9.45428 16.5325C9.26999 16.3153 9.12731 16.0657 9.02625 15.7839C8.92518 15.5021 8.87465 15.2027 8.87465 14.8856C8.87465 14.551 8.92815 14.2398 9.03516 13.9521C9.14217 13.6644 9.2908 13.4119 9.48104 13.1947C9.67128 12.9775 9.90016 12.8072 10.1677 12.6839C10.4352 12.5606 10.7295 12.499 11.0505 12.499C11.4132 12.499 11.7312 12.5811 12.0047 12.7455C12.2782 12.9041 12.5041 13.1184 12.6824 13.3884V12.5782H13.7258V16.9729C13.7258 17.3134 13.6604 17.6187 13.5296 17.8888C13.3988 18.1589 13.2175 18.3878 12.9856 18.5757C12.7597 18.7636 12.4862 18.9074 12.1652 19.0073C11.8501 19.1071 11.5053 19.157 11.1308 19.157C10.6195 19.157 10.1885 19.0718 9.83774 18.9016C9.49293 18.7372 9.19568 18.5023 8.94599 18.197L9.59696 17.5717C9.77531 17.789 9.99825 17.9592 10.2658 18.0825C10.5392 18.2058 10.8276 18.2675 11.1308 18.2675C11.3151 18.2675 11.4904 18.2411 11.6569 18.1882C11.8293 18.1412 11.9809 18.0649 12.1117 17.9592C12.2425 17.8535 12.3435 17.7185 12.4149 17.5541C12.4922 17.3897 12.5308 17.196 12.5308 16.9729V16.3916C12.3762 16.6558 12.1593 16.8613 11.8798 17.0081C11.6004 17.149 11.3002 17.2195 10.9792 17.2195ZM11.3805 16.2771C11.5112 16.2771 11.6361 16.2566 11.755 16.2155C11.8739 16.1744 11.9839 16.1186 12.0849 16.0481C12.186 15.9777 12.2752 15.8955 12.3525 15.8015C12.4297 15.7076 12.4892 15.6078 12.5308 15.5021V14.4012C12.4238 14.1312 12.2544 13.9139 12.0225 13.7495C11.7966 13.5851 11.5588 13.5029 11.3091 13.5029C11.1248 13.5029 10.9584 13.544 10.8097 13.6262C10.6611 13.7026 10.5333 13.8082 10.4263 13.9433C10.3193 14.0725 10.236 14.2222 10.1766 14.3924C10.1231 14.5627 10.0963 14.7388 10.0963 14.9208C10.0963 15.1087 10.129 15.2849 10.1944 15.4493C10.2598 15.6137 10.349 15.7575 10.462 15.8808C10.5809 16.0041 10.7176 16.101 10.8722 16.1714C11.0267 16.2419 11.1962 16.2771 11.3805 16.2771Z"/>
<path d="M14.8029 17.193V12.5782H15.9978V17.193H14.8029ZM14.8029 11.9353V10.764H15.9978V11.9353H14.8029Z"/>
<path d="M19.8759 16.9552C19.7154 17.0257 19.5192 17.0962 19.2873 17.1666C19.0555 17.2371 18.8117 17.2723 18.5561 17.2723C18.3896 17.2723 18.2321 17.2517 18.0835 17.2106C17.9408 17.1695 17.813 17.105 17.7 17.0169C17.593 16.923 17.5068 16.8055 17.4414 16.6646C17.376 16.5178 17.3433 16.3417 17.3433 16.1362L17.3433 13.4853H16.728V12.5782H17.3433V11.081H18.5383V12.5782H19.5192V13.4853H18.5383V15.7399C18.5383 15.9043 18.5799 16.0217 18.6631 16.0922C18.7523 16.1568 18.8593 16.189 18.9841 16.189C19.109 16.189 19.2309 16.1685 19.3498 16.1274C19.4687 16.0863 19.5638 16.0511 19.6351 16.0217L19.8759 16.9552Z"/>
<path d="M21.7734 17.2811C21.5475 17.2811 21.3365 17.2459 21.1403 17.1754C20.9441 17.0991 20.7747 16.9963 20.632 16.8672C20.4893 16.7321 20.3764 16.5765 20.2931 16.4004C20.2158 16.2243 20.1772 16.0305 20.1772 15.8192C20.1772 15.6019 20.2248 15.4023 20.3199 15.2203C20.4209 15.0324 20.5577 14.8739 20.7301 14.7447C20.9084 14.6155 21.1195 14.5157 21.3632 14.4453C21.607 14.369 21.8745 14.3308 22.1658 14.3308C22.3739 14.3308 22.576 14.3484 22.7722 14.3836C22.9743 14.4189 23.1527 14.4688 23.3072 14.5333V14.2691C23.3072 13.9638 23.2181 13.729 23.0397 13.5646C22.8673 13.4002 22.6087 13.318 22.2639 13.318C22.0142 13.318 21.7705 13.362 21.5327 13.4501C21.2949 13.5382 21.0511 13.6673 20.8014 13.8376L20.4358 13.089C21.0363 12.6956 21.6843 12.499 22.3798 12.499C23.0516 12.499 23.5718 12.6633 23.9404 12.9921C24.3149 13.3151 24.5022 13.7848 24.5022 14.4012V15.8368C24.5022 15.9601 24.523 16.0481 24.5646 16.101C24.6122 16.1538 24.6865 16.1832 24.7875 16.189V17.193C24.5854 17.2341 24.41 17.2547 24.2614 17.2547C24.0355 17.2547 23.8601 17.2048 23.7353 17.105C23.6164 17.0051 23.5421 16.873 23.5123 16.7087L23.4856 16.4533C23.2775 16.7233 23.0248 16.9288 22.7276 17.0697C22.4304 17.2106 22.1123 17.2811 21.7734 17.2811ZM22.1123 16.418C22.3144 16.418 22.5047 16.3828 22.683 16.3123C22.8673 16.2419 23.01 16.1479 23.1111 16.0305C23.2418 15.9307 23.3072 15.8192 23.3072 15.6959V15.1674C23.1646 15.1146 23.01 15.0735 22.8435 15.0441C22.6771 15.0089 22.5166 14.9913 22.362 14.9913C22.0528 14.9913 21.8002 15.0618 21.604 15.2027C21.4078 15.3377 21.3097 15.5109 21.3097 15.7223C21.3097 15.9219 21.387 16.0892 21.5416 16.2243C21.6961 16.3534 21.8864 16.418 22.1123 16.418Z"/>
<path d="M25.6099 10.764H26.8048V15.7135C26.8048 15.8837 26.8465 16.0158 26.9297 16.1098C27.0129 16.2037 27.1318 16.2507 27.2864 16.2507C27.3577 16.2507 27.435 16.2389 27.5182 16.2155C27.6074 16.192 27.6906 16.1626 27.7679 16.1274L27.9284 17.0257C27.7679 17.102 27.5807 17.1607 27.3666 17.2018C27.1526 17.2429 26.9594 17.2635 26.787 17.2635C26.4125 17.2635 26.1212 17.1666 25.9131 16.9729C25.711 16.7732 25.6099 16.4914 25.6099 16.1274L25.6099 10.764Z"/>
<path d="M31.9513 10.9401H33.0392L35.4469 17.193H34.1806L33.5921 15.6342H31.3806L30.8009 17.193H29.5346L31.9513 10.9401ZM33.3691 14.7799L32.4952 12.3228L31.5857 14.7799H33.3691Z"/>
<path d="M37.7389 17.2811C37.3465 17.2811 36.963 17.2195 36.5885 17.0962C36.214 16.9729 35.8929 16.7967 35.6254 16.5677L36.0713 15.828C36.3566 16.0276 36.6331 16.1802 36.9006 16.2859C37.1741 16.3857 37.4446 16.4356 37.7121 16.4356C37.9499 16.4356 38.1372 16.3916 38.2739 16.3035C38.4106 16.2155 38.479 16.0892 38.479 15.9248C38.479 15.7604 38.3987 15.6401 38.2382 15.5638C38.0777 15.4874 37.8161 15.3994 37.4535 15.2995C37.1503 15.2174 36.8917 15.1381 36.6777 15.0618C36.4636 14.9854 36.2912 14.9003 36.1605 14.8064C36.0297 14.7065 35.9346 14.595 35.8751 14.4717C35.8157 14.3425 35.7859 14.1899 35.7859 14.0137C35.7859 13.7789 35.8305 13.5675 35.9197 13.3796C36.0148 13.1918 36.1456 13.0332 36.3121 12.9041C36.4785 12.769 36.6717 12.6663 36.8917 12.5958C37.1176 12.5254 37.3613 12.4901 37.6229 12.4901C37.9737 12.4901 38.3007 12.5401 38.6038 12.6399C38.913 12.7397 39.1954 12.9011 39.451 13.1242L38.9695 13.8376C38.7317 13.6615 38.4998 13.5323 38.2739 13.4501C38.0539 13.3679 37.834 13.3268 37.614 13.3268C37.4119 13.3268 37.2424 13.3679 37.1057 13.4501C36.969 13.5323 36.9006 13.6644 36.9006 13.8464C36.9006 13.9286 36.9155 13.9961 36.9452 14.049C36.9809 14.1018 37.0344 14.1488 37.1057 14.1899C37.1771 14.231 37.2692 14.2721 37.3822 14.3132C37.5011 14.3484 37.6467 14.3866 37.8191 14.4277C38.1401 14.5099 38.4136 14.5921 38.6395 14.6743C38.8714 14.7565 39.0586 14.8504 39.2013 14.9561C39.3499 15.0618 39.457 15.1851 39.5224 15.326C39.5937 15.461 39.6294 15.6254 39.6294 15.8192C39.6294 16.2712 39.4599 16.6294 39.1211 16.8936C38.7822 17.1519 38.3215 17.2811 37.7389 17.2811Z"/>
<path d="M42.1715 17.2811C41.7791 17.2811 41.3956 17.2195 41.0211 17.0962C40.6466 16.9729 40.3256 16.7967 40.058 16.5677L40.5039 15.828C40.7893 16.0276 41.0657 16.1802 41.3332 16.2859C41.6067 16.3857 41.8772 16.4356 42.1447 16.4356C42.3825 16.4356 42.5698 16.3916 42.7065 16.3035C42.8432 16.2155 42.9116 16.0892 42.9116 15.9248C42.9116 15.7604 42.8314 15.6401 42.6708 15.5638C42.5103 15.4874 42.2487 15.3994 41.8861 15.2995C41.5829 15.2174 41.3243 15.1381 41.1103 15.0618C40.8963 14.9854 40.7239 14.9003 40.5931 14.8064C40.4623 14.7065 40.3672 14.595 40.3077 14.4717C40.2483 14.3425 40.2185 14.1899 40.2185 14.0137C40.2185 13.7789 40.2631 13.5675 40.3523 13.3796C40.4474 13.1918 40.5782 13.0332 40.7447 12.9041C40.9111 12.769 41.1043 12.6663 41.3243 12.5958C41.5502 12.5254 41.794 12.4901 42.0555 12.4901C42.4063 12.4901 42.7333 12.5401 43.0365 12.6399C43.3456 12.7397 43.628 12.9011 43.8836 13.1242L43.4021 13.8376C43.1643 13.6615 42.9324 13.5323 42.7065 13.4501C42.4865 13.3679 42.2666 13.3268 42.0466 13.3268C41.8445 13.3268 41.6751 13.3679 41.5383 13.4501C41.4016 13.5323 41.3332 13.6644 41.3332 13.8464C41.3332 13.9286 41.3481 13.9961 41.3778 14.049C41.4135 14.1018 41.467 14.1488 41.5383 14.1899C41.6097 14.231 41.7018 14.2721 41.8148 14.3132C41.9337 14.3484 42.0793 14.3866 42.2517 14.4277C42.5728 14.5099 42.8462 14.5921 43.0721 14.6743C43.304 14.7565 43.4913 14.8504 43.6339 14.9561C43.7826 15.0618 43.8896 15.1851 43.955 15.326C44.0263 15.461 44.062 15.6254 44.062 15.8192C44.062 16.2712 43.8925 16.6294 43.5537 16.8936C43.2148 17.1519 42.7541 17.2811 42.1715 17.2811Z"/>
<path d="M47.0054 17.2811C46.6308 17.2811 46.292 17.2195 45.9888 17.0962C45.6856 16.967 45.427 16.7938 45.213 16.5765C44.9989 16.3593 44.8325 16.1068 44.7136 15.8192C44.6006 15.5315 44.5441 15.2291 44.5441 14.912C44.5441 14.5833 44.6006 14.275 44.7136 13.9873C44.8265 13.6938 44.99 13.4384 45.204 13.2211C45.4181 12.998 45.6767 12.8219 45.9799 12.6927C46.289 12.5635 46.6338 12.499 47.0143 12.499C47.3948 12.499 47.7336 12.5635 48.0309 12.6927C48.3341 12.8219 48.5897 12.9951 48.7978 13.2123C49.0118 13.4295 49.1723 13.682 49.2793 13.9697C49.3923 14.2574 49.4488 14.5568 49.4488 14.868C49.4488 14.9443 49.4458 15.0177 49.4398 15.0882C49.4398 15.1586 49.4339 15.2173 49.422 15.2643H45.8104C45.8283 15.4463 45.8728 15.6078 45.9442 15.7487C46.0155 15.8896 46.1077 16.01 46.2206 16.1098C46.3336 16.2096 46.4614 16.2859 46.6041 16.3388C46.7468 16.3916 46.8954 16.418 47.0499 16.418C47.2878 16.418 47.5107 16.3622 47.7188 16.2507C47.9328 16.1333 48.0784 15.9806 48.1557 15.7927L49.1812 16.0746C49.0088 16.4268 48.7324 16.7175 48.3519 16.9464C47.9774 17.1695 47.5285 17.2811 47.0054 17.2811ZM48.2181 14.4981C48.1884 14.1517 48.0576 13.8758 47.8258 13.6703C47.5999 13.4589 47.3234 13.3532 46.9964 13.3532C46.8359 13.3532 46.6843 13.3826 46.5417 13.4413C46.4049 13.4941 46.283 13.5705 46.176 13.6703C46.069 13.7701 45.9799 13.8904 45.9085 14.0314C45.8431 14.1723 45.8045 14.3279 45.7926 14.4981H48.2181Z"/>
<path d="M52.942 16.9552C52.7815 17.0257 52.5853 17.0962 52.3534 17.1666C52.1216 17.2371 51.8778 17.2723 51.6222 17.2723C51.4557 17.2723 51.2982 17.2517 51.1496 17.2106C51.0069 17.1695 50.8791 17.105 50.7661 17.0169C50.6591 16.923 50.5729 16.8055 50.5075 16.6646C50.4421 16.5178 50.4094 16.3417 50.4094 16.1362V13.4853H49.7941V12.5782H50.4094V11.081H51.6043V12.5782H52.5853V13.4853H51.6043V15.7399C51.6043 15.9043 51.646 16.0217 51.7292 16.0922C51.8184 16.1568 51.9254 16.189 52.0502 16.189C52.1751 16.189 52.2969 16.1685 52.4158 16.1274C52.5347 16.0863 52.6299 16.0511 52.7012 16.0217L52.942 16.9552Z"/>
<path d="M60.3052 12.0058H58.2809V17.193H57.0592V12.0058L55.0349 12.0058V10.9401L60.3052 10.9401V12.0058Z"/>
<path d="M62.7734 13.5998C62.4108 13.6057 62.0868 13.6761 61.8014 13.8112C61.5161 13.9403 61.311 14.137 61.1861 14.4012V17.193H59.9912V12.5782H61.088V13.5646C61.1712 13.4061 61.2693 13.2652 61.3823 13.1419C61.4952 13.0127 61.6171 12.9011 61.7479 12.8072C61.8787 12.7133 62.0095 12.6428 62.1403 12.5958C62.277 12.543 62.4078 12.5166 62.5326 12.5166C62.598 12.5166 62.6456 12.5166 62.6753 12.5166C62.711 12.5166 62.7437 12.5195 62.7734 12.5254V13.5998Z"/>
<path d="M64.654 17.2811C64.428 17.2811 64.217 17.2459 64.0208 17.1754C63.8246 17.0991 63.6552 16.9963 63.5125 16.8672C63.3698 16.7321 63.2569 16.5765 63.1737 16.4004C63.0964 16.2243 63.0577 16.0305 63.0577 15.8192C63.0577 15.6019 63.1053 15.4023 63.2004 15.2203C63.3015 15.0324 63.4382 14.8739 63.6106 14.7447C63.789 14.6155 64 14.5157 64.2438 14.4453C64.4875 14.369 64.755 14.3308 65.0463 14.3308C65.2544 14.3308 65.4565 14.3484 65.6527 14.3836C65.8548 14.4189 66.0332 14.4688 66.1878 14.5333V14.2691C66.1878 13.9638 66.0986 13.729 65.9202 13.5646C65.7478 13.4002 65.4892 13.318 65.1444 13.318C64.8947 13.318 64.651 13.362 64.4132 13.4501C64.1754 13.5382 63.9316 13.6673 63.682 13.8376L63.3163 13.089C63.9168 12.6956 64.5648 12.499 65.2603 12.499C65.9321 12.499 66.4523 12.6633 66.8209 12.9921C67.1954 13.3151 67.3827 13.7848 67.3827 14.4012V15.8368C67.3827 15.9601 67.4035 16.0481 67.4451 16.101C67.4927 16.1538 67.567 16.1832 67.6681 16.189V17.193C67.4659 17.2341 67.2906 17.2547 67.1419 17.2547C66.916 17.2547 66.7406 17.2048 66.6158 17.105C66.4969 17.0051 66.4226 16.873 66.3929 16.7087L66.3661 16.4533C66.158 16.7233 65.9054 16.9288 65.6081 17.0697C65.3109 17.2106 64.9928 17.2811 64.654 17.2811ZM64.9928 16.418C65.195 16.418 65.3852 16.3828 65.5635 16.3123C65.7478 16.2419 65.8905 16.1479 65.9916 16.0305C66.1224 15.9307 66.1878 15.8192 66.1878 15.6959V15.1674C66.0451 15.1146 65.8905 15.0735 65.7241 15.0441C65.5576 15.0089 65.3971 14.9913 65.2425 14.9913C64.9334 14.9913 64.6807 15.0618 64.4845 15.2027C64.2883 15.3377 64.1903 15.5109 64.1903 15.7223C64.1903 15.9219 64.2675 16.0892 64.4221 16.2243C64.5767 16.3534 64.7669 16.418 64.9928 16.418Z"/>
<path d="M70.4344 17.2811C70.1134 17.2811 69.8162 17.2195 69.5427 17.0962C69.2692 16.9729 69.0344 16.8026 68.8382 16.5854C68.642 16.3681 68.4874 16.1157 68.3745 15.828C68.2675 15.5344 68.214 15.2203 68.214 14.8856C68.214 14.551 68.2645 14.2398 68.3656 13.9521C68.4726 13.6644 68.6182 13.4119 68.8025 13.1947C68.9868 12.9775 69.2068 12.8072 69.4624 12.6839C69.7181 12.5606 69.9975 12.499 70.3007 12.499C70.6455 12.499 70.9546 12.5811 71.2281 12.7455C71.5075 12.9099 71.7245 13.1242 71.8791 13.3884V10.764L73.074 10.764V15.8368C73.074 15.9601 73.0948 16.0481 73.1364 16.101C73.178 16.1538 73.2494 16.1832 73.3504 16.189V17.193C73.1424 17.2341 72.9729 17.2547 72.8421 17.2547C72.6281 17.2547 72.4528 17.2018 72.316 17.0962C72.1793 16.9905 72.102 16.8525 72.0842 16.6822L72.0574 16.3916C71.885 16.6852 71.6502 16.9083 71.3529 17.0609C71.0616 17.2077 70.7555 17.2811 70.4344 17.2811ZM70.7465 16.2771C70.8595 16.2771 70.9754 16.2595 71.0943 16.2243C71.2132 16.1832 71.3232 16.1274 71.4243 16.0569C71.5253 15.9865 71.6145 15.9043 71.6918 15.8103C71.775 15.7164 71.8374 15.6137 71.8791 15.5021V14.4012C71.8315 14.2721 71.7631 14.1547 71.674 14.049C71.5907 13.9374 71.4926 13.8435 71.3797 13.7671C71.2727 13.6849 71.1568 13.6204 71.0319 13.5734C70.913 13.5264 70.7941 13.5029 70.6752 13.5029C70.4969 13.5029 70.3304 13.5411 70.1758 13.6174C70.0272 13.6938 69.8994 13.7994 69.7924 13.9345C69.6854 14.0636 69.6021 14.2134 69.5427 14.3836C69.4832 14.5539 69.4535 14.73 69.4535 14.912C69.4535 15.1058 69.4862 15.2849 69.5516 15.4493C69.617 15.6137 69.7062 15.7575 69.8191 15.8808C69.9321 16.0041 70.0658 16.101 70.2204 16.1714C70.3809 16.2419 70.5563 16.2771 70.7465 16.2771Z"/>
<path d="M76.4139 17.2811C76.0393 17.2811 75.7005 17.2195 75.3973 17.0962C75.0941 16.967 74.8355 16.7938 74.6215 16.5765C74.4074 16.3593 74.241 16.1068 74.1221 15.8192C74.0091 15.5315 73.9527 15.2291 73.9527 14.912C73.9527 14.5833 74.0091 14.275 74.1221 13.9873C74.235 13.6938 74.3985 13.4384 74.6125 13.2211C74.8266 12.998 75.0852 12.8219 75.3884 12.6927C75.6975 12.5635 76.0423 12.499 76.4228 12.499C76.8033 12.499 77.1421 12.5635 77.4394 12.6927C77.7426 12.8219 77.9982 12.9951 78.2063 13.2123C78.4203 13.4295 78.5808 13.682 78.6878 13.9697C78.8008 14.2574 78.8573 14.5568 78.8573 14.868C78.8573 14.9443 78.8543 15.0177 78.8484 15.0882C78.8484 15.1586 78.8424 15.2173 78.8305 15.2643H75.2189C75.2368 15.4463 75.2814 15.6078 75.3527 15.7487C75.424 15.8896 75.5162 16.01 75.6291 16.1098C75.7421 16.2096 75.8699 16.2859 76.0126 16.3388C76.1553 16.3916 76.3039 16.418 76.4585 16.418C76.6963 16.418 76.9192 16.3622 77.1273 16.2507C77.3413 16.1333 77.487 15.9806 77.5642 15.7927L78.5897 16.0746C78.4173 16.4268 78.1409 16.7175 77.7604 16.9464C77.3859 17.1695 76.937 17.2811 76.4139 17.2811ZM77.6267 14.4981C77.5969 14.1517 77.4661 13.8758 77.2343 13.6703C77.0084 13.4589 76.7319 13.3532 76.405 13.3532C76.2444 13.3532 76.0928 13.3826 75.9502 13.4413C75.8134 13.4941 75.6916 13.5705 75.5846 13.6703C75.4775 13.7701 75.3884 13.8904 75.317 14.0314C75.2516 14.1723 75.213 14.3279 75.2011 14.4981H77.6267Z"/>
<path d="M81.46 14.0225C81.46 13.6409 81.5284 13.2652 81.6651 12.8953C81.8078 12.5195 82.0129 12.1848 82.2804 11.8913C82.5479 11.5977 82.8749 11.3599 83.2613 11.1779C83.6477 10.9959 84.0877 10.9049 84.5811 10.9049C85.1637 10.9049 85.6661 11.0311 86.0882 11.2836C86.5162 11.5361 86.8343 11.8649 87.0423 12.27L86.0971 12.9129C86.0138 12.7367 85.9128 12.59 85.7939 12.4725C85.675 12.3492 85.5472 12.2524 85.4104 12.1819C85.2737 12.1114 85.131 12.0615 84.9824 12.0322C84.8338 11.997 84.6881 11.9793 84.5454 11.9793C84.2363 11.9793 83.9658 12.041 83.7339 12.1643C83.508 12.2876 83.3178 12.449 83.1632 12.6487C83.0146 12.8424 82.9016 13.0655 82.8244 13.318C82.7471 13.5646 82.7084 13.8112 82.7084 14.0578C82.7084 14.3337 82.753 14.6009 82.8422 14.8592C82.9314 15.1117 83.0562 15.3348 83.2167 15.5285C83.3832 15.7223 83.5794 15.8779 83.8053 15.9953C84.0371 16.1127 84.2898 16.1714 84.5633 16.1714C84.706 16.1714 84.8546 16.1538 85.0091 16.1186C85.1637 16.0834 85.3094 16.0276 85.4461 15.9513C85.5888 15.8749 85.7196 15.7781 85.8385 15.6606C85.9574 15.5373 86.0525 15.3906 86.1238 15.2203L87.1315 15.7927C87.0304 16.0276 86.8848 16.236 86.6945 16.418C86.5102 16.5942 86.2992 16.7439 86.0614 16.8672C85.8296 16.9905 85.5799 17.0844 85.3123 17.149C85.0448 17.2136 84.7832 17.2459 84.5276 17.2459C84.0758 17.2459 83.6626 17.1519 83.2881 16.9641C82.9135 16.7762 82.5895 16.5325 82.3161 16.2331C82.0485 15.9278 81.8375 15.5843 81.6829 15.2027C81.5343 14.8152 81.46 14.4218 81.46 14.0225Z"/>
<path d="M90.0078 17.2811C89.6333 17.2811 89.2944 17.2195 88.9912 17.0962C88.688 16.967 88.4294 16.7938 88.2154 16.5765C88.0014 16.3593 87.8349 16.1068 87.716 15.8192C87.6031 15.5315 87.5466 15.2291 87.5466 14.912C87.5466 14.5833 87.6031 14.275 87.716 13.9873C87.829 13.6938 87.9925 13.4384 88.2065 13.2211C88.4205 12.998 88.6791 12.8219 88.9823 12.6927C89.2914 12.5635 89.6362 12.499 90.0167 12.499C90.3972 12.499 90.7361 12.5635 91.0333 12.6927C91.3365 12.8219 91.5921 12.9951 91.8002 13.2123C92.0142 13.4295 92.1748 13.682 92.2818 13.9697C92.3947 14.2574 92.4512 14.5568 92.4512 14.868C92.4512 14.9443 92.4482 15.0177 92.4423 15.0882C92.4423 15.1586 92.4363 15.2173 92.4244 15.2643H88.8129C88.8307 15.4463 88.8753 15.6078 88.9466 15.7487C89.018 15.8896 89.1101 16.01 89.2231 16.1098C89.336 16.2096 89.4638 16.2859 89.6065 16.3388C89.7492 16.3916 89.8978 16.418 90.0524 16.418C90.2902 16.418 90.5131 16.3622 90.7212 16.2507C90.9352 16.1333 91.0809 15.9806 91.1582 15.7927L92.1837 16.0746C92.0113 16.4268 91.7348 16.7175 91.3543 16.9464C90.9798 17.1695 90.531 17.2811 90.0078 17.2811ZM91.2206 14.4981C91.1909 14.1517 91.0601 13.8758 90.8282 13.6703C90.6023 13.4589 90.3259 13.3532 89.9989 13.3532C89.8384 13.3532 89.6868 13.3826 89.5441 13.4413C89.4074 13.4941 89.2855 13.5705 89.1785 13.6703C89.0715 13.7701 88.9823 13.8904 88.911 14.0314C88.8456 14.1723 88.8069 14.3279 88.795 14.4981H91.2206Z"/>
<path d="M97.522 17.193H96.327V14.6038C96.327 14.2339 96.2616 13.9638 96.1308 13.7936C96.0001 13.6233 95.8187 13.5382 95.5869 13.5382C95.468 13.5382 95.3461 13.5617 95.2213 13.6086C95.0964 13.6556 94.9775 13.7231 94.8646 13.8112C94.7575 13.8934 94.6595 13.9932 94.5703 14.1106C94.4811 14.228 94.4157 14.3572 94.3741 14.4981V17.193H93.1792V12.5782H94.2582V13.4325C94.4306 13.1389 94.6803 12.9099 95.0072 12.7455C95.3342 12.5811 95.7028 12.499 96.113 12.499C96.4043 12.499 96.6421 12.5518 96.8264 12.6575C97.0107 12.7632 97.1534 12.9011 97.2544 13.0714C97.3555 13.2417 97.4239 13.4354 97.4595 13.6527C97.5012 13.8699 97.522 14.0901 97.522 14.3132V17.193Z"/>
<path d="M101.318 16.9552C101.157 17.0257 100.961 17.0962 100.729 17.1666C100.497 17.2371 100.253 17.2723 99.9977 17.2723C99.8313 17.2723 99.6738 17.2517 99.5251 17.2106C99.3824 17.1695 99.2546 17.105 99.1417 17.0169C99.0347 16.923 98.9485 16.8055 98.8831 16.6646C98.8177 16.5178 98.785 16.3417 98.785 16.1362V13.4853H98.1697V12.5782H98.785V11.081H99.9799V12.5782H100.961V13.4853H99.9799V15.7399C99.9799 15.9043 100.022 16.0217 100.105 16.0922C100.194 16.1568 100.301 16.189 100.426 16.189C100.551 16.189 100.673 16.1685 100.791 16.1274C100.91 16.0863 101.005 16.0511 101.077 16.0217L101.318 16.9552Z"/>
<path d="M103.994 17.2811C103.619 17.2811 103.28 17.2195 102.977 17.0962C102.674 16.967 102.415 16.7938 102.201 16.5765C101.987 16.3593 101.821 16.1068 101.702 15.8192C101.589 15.5315 101.532 15.2291 101.532 14.912C101.532 14.5833 101.589 14.275 101.702 13.9873C101.815 13.6938 101.978 13.4384 102.192 13.2211C102.406 12.998 102.665 12.8219 102.968 12.6927C103.277 12.5635 103.622 12.499 104.003 12.499C104.383 12.499 104.722 12.5635 105.019 12.6927C105.322 12.8219 105.578 12.9951 105.786 13.2123C106 13.4295 106.161 13.682 106.268 13.9697C106.381 14.2574 106.437 14.5568 106.437 14.868C106.437 14.9443 106.434 15.0177 106.428 15.0882C106.428 15.1586 106.422 15.2173 106.41 15.2643L102.799 15.2643C102.817 15.4463 102.861 15.6078 102.932 15.7487C103.004 15.8896 103.096 16.01 103.209 16.1098C103.322 16.2096 103.45 16.2859 103.592 16.3388C103.735 16.3916 103.884 16.418 104.038 16.418C104.276 16.418 104.499 16.3622 104.707 16.2507C104.921 16.1333 105.067 15.9806 105.144 15.7927L106.169 16.0746C105.997 16.4268 105.721 16.7175 105.34 16.9464C104.966 17.1695 104.517 17.2811 103.994 17.2811ZM105.206 14.4981C105.177 14.1517 105.046 13.8758 104.814 13.6703C104.588 13.4589 104.312 13.3532 103.985 13.3532C103.824 13.3532 103.673 13.3826 103.53 13.4413C103.393 13.4941 103.271 13.5705 103.164 13.6703C103.057 13.7701 102.968 13.8904 102.897 14.0314C102.831 14.1723 102.793 14.3279 102.781 14.4981L105.206 14.4981Z"/>
<path d="M109.947 13.5998C109.585 13.6057 109.261 13.6761 108.975 13.8112C108.69 13.9403 108.485 14.137 108.36 14.4012V17.193H107.165V12.5782H108.262V13.5646C108.345 13.4061 108.443 13.2652 108.556 13.1419C108.669 13.0127 108.791 12.9011 108.922 12.8072C109.052 12.7133 109.183 12.6428 109.314 12.5958C109.451 12.543 109.582 12.5166 109.706 12.5166C109.772 12.5166 109.819 12.5166 109.849 12.5166C109.885 12.5166 109.917 12.5195 109.947 12.5254V13.5998Z"/>
</svg>
