<svg viewBox="0 0 71 82" fill="none" xmlns="http://www.w3.org/2000/svg">
<path d="M9.83209 38.3819L10.2968 38.6463C11.5636 39.3672 12.0754 40.2257 11.832 41.222C11.754 41.5512 11.6112 41.8983 11.4036 42.2632L8.68861 47.0344L5.83313 45.4096L9.83209 38.3819ZM4.73733 38.47C5.17023 37.7092 5.6614 37.2504 6.21085 37.0937C6.8143 36.9221 7.54805 37.0822 8.4121 37.5739L8.87683 37.8383L4.87787 44.866L2.02239 43.2411L4.73733 38.47Z" fill="#191919"/>
<path d="M17.0647 42.4906L19.9357 44.1243L15.9338 51.1571L13.0628 49.5235L17.0647 42.4906ZM13.3572 40.381L16.2127 42.0058L12.2108 49.0387L11.7461 48.7742C10.4793 48.0534 9.96853 47.1931 10.2138 46.1934C10.2899 45.8676 10.4317 45.5222 10.6394 45.1573L13.3572 40.381Z" fill="#191919"/>
<path d="M25.9196 50.4276C25.328 51.4672 24.4848 51.8919 23.3899 51.7018C23.7916 52.1811 24.0001 52.7076 24.0154 53.2813C24.0237 53.7873 23.8848 54.2916 23.5989 54.7942L23.2874 55.3415L20.2099 53.5904L24.2147 46.5523L24.4832 46.7051C25.392 47.2223 25.9636 47.7754 26.198 48.3645C26.4433 48.9825 26.3505 49.6702 25.9196 50.4276ZM20.5737 44.4941L23.3517 46.0749L19.3527 53.1026L16.5747 51.5218L20.5737 44.4941Z" fill="#191919"/>
<path d="M31.6347 50.7882L32.0375 51.0174C33.3146 51.7441 33.8338 52.7938 33.5951 54.1663C33.4939 54.7285 33.27 55.3143 32.9233 55.9236C32.3396 56.9494 31.6607 57.6819 30.8868 58.121C29.9759 58.6326 29.0265 58.6073 28.0385 58.0451L27.6358 57.8159L31.6347 50.7882ZM26.3914 57.1078C25.1211 56.385 24.6457 55.2623 24.9652 53.7398C25.0943 53.1206 25.3459 52.4822 25.7201 51.8247C26.482 50.4856 27.3915 49.7522 28.4485 49.6245C29.0718 49.5463 29.719 49.6981 30.3903 50.0801L30.7931 50.3093L26.7941 57.337L26.3914 57.1078Z" fill="#191919"/>
<path d="M38.9367 54.9433L41.787 56.5652L39.7303 60.1797L39.3636 59.9711C38.4755 59.4657 37.9258 58.9501 37.7146 58.4244C37.5068 57.9006 37.6125 57.2703 38.0317 56.5337L38.9367 54.9433ZM33.905 61.3833C33.3474 61.066 32.9692 60.5773 32.7705 59.9174C32.596 59.3351 32.5727 58.6793 32.7006 57.9501C32.8183 57.2788 33.0329 56.6695 33.3443 56.1221C33.8125 55.2994 34.4318 54.6834 35.2024 54.2743C35.7501 53.9844 36.3127 53.8807 36.89 53.9632C37.1839 54.0074 37.4789 54.1137 37.7749 54.2822L38.1725 54.5084L34.1735 61.5361L33.905 61.3833ZM35.7046 60.6232L38.2864 62.0924L38.2042 62.2369C38.022 62.5571 37.7529 62.7617 37.3969 62.8508C36.9658 62.9518 36.4903 62.8544 35.9705 62.5586L34.9378 61.9709L35.7046 60.6232Z" fill="#191919"/>
<path d="M42.5054 56.9739L45.2834 58.5547L43.2825 62.0711L44.2894 62.6441L46.2903 59.1277L49.0683 60.7085L45.0753 67.7258L42.2972 66.145L43.8457 63.4238L42.8388 62.8509L41.2903 65.5721L38.5123 63.9913L42.5054 56.9739Z" fill="#191919"/>
<path d="M53.1844 63.0506L56.3703 64.8635L54.3576 68.4006L53.1844 63.0506ZM48.6314 63.2077L48.6004 63.1901C49.0039 62.4809 49.4944 62.0674 50.0719 61.9494C50.6494 61.8314 51.3392 62.0007 52.1413 62.4571L53.4497 69.9961C53.0619 70.6777 52.6005 71.06 52.0657 71.143C51.5451 71.225 50.8786 71.0349 50.0662 70.5726L48.6314 63.2077ZM47.8225 64.5931L48.8653 69.8961L45.7981 68.1508L47.8225 64.5931Z" fill="#191919"/>
<path d="M60.7652 67.3643L63.631 68.995L62.5203 70.9469L61.9833 70.6413C61.0504 70.1105 60.4968 69.6018 60.3225 69.1152C60.1808 68.7156 60.2627 68.2473 60.5683 67.7103L60.7652 67.3643ZM57.0939 65.2752L59.8719 66.856L58.2617 69.6856L60.3323 70.8639L59.5654 72.2116L57.4948 71.0334L55.8788 73.8733L53.1008 72.2926L57.0939 65.2752ZM57.0461 73.8882C57.4515 73.1756 58.1399 72.927 59.111 73.1424C59.4825 73.2262 59.9179 73.4101 60.417 73.6942L60.825 73.9263L59.632 76.0227L56.7611 74.389L57.0461 73.8882Z" fill="#191919"/>
<path d="M68.093 71.534L68.5577 71.7985C69.8245 72.5193 70.3362 73.3779 70.0929 74.3741C70.0149 74.7034 69.8721 75.0505 69.6644 75.4154L66.9495 80.1866L64.094 78.5617L68.093 71.534ZM64.3442 69.4009L67.1222 70.9816L63.1233 78.0093L60.3452 76.4285L64.3442 69.4009Z" fill="#191919"/>
<path fill-rule="evenodd" clip-rule="evenodd" d="M54.2736 12.1468L45.9494 13.3986C36.5934 14.8056 27.8111 18.7801 20.579 24.8801L9.06567 34.5911L14.8159 38.0273L60.9436 64.1907L50.9967 56.3793C49.8118 55.3992 48.883 54.1457 48.2903 52.7268C47.3894 50.57 47.3166 48.1565 48.086 45.9493L49.1927 42.7746L61.2078 48.5467C62.2379 49.0416 63.4384 49.0355 64.4634 48.5301L66.3451 47.6024C68.1107 46.732 68.8925 44.6367 68.1285 42.8225L59.9861 23.4865C59.4287 22.1629 57.9576 21.4787 56.5863 21.9053L53.906 22.739C53.3977 22.8971 53.0656 22.2156 53.5032 21.9127L59.1988 17.9707C60.0086 17.4102 60.6196 16.607 60.9436 15.6768L66.2107 0.555145L57.0249 10.674C56.3048 11.4672 55.333 11.9875 54.2736 12.1468ZM58.1202 33.8704L55.5396 28.2675L55.1588 29.1515C54.6254 30.3897 55.0539 31.8323 56.1767 32.5786L58.1202 33.8704ZM61.9795 22.5251L64.3741 28.4767L67.8562 26.2431C69.3227 25.3025 70.2095 23.6801 70.2095 21.938V10.6683L66.3282 19.1646C65.8175 20.2824 64.9214 21.1791 63.8039 21.6904L61.9795 22.5251Z" fill="#191919"/>
<path fill-rule="evenodd" clip-rule="evenodd" d="M0.82373 46.5567L61.5842 81.0579H0.82373V46.5567ZM6.23499 61.4342C6.35666 61.3916 6.47225 61.3734 6.60001 61.3734C6.81902 61.3734 6.98936 61.4464 7.09278 61.5559C7.48822 61.7323 7.6464 62.1034 7.6464 62.5354C7.6464 62.9856 7.48822 63.5088 7.25704 63.9346C6.84335 64.689 6.22891 65.3156 5.52929 65.3156C5.38328 65.3156 5.25552 65.2913 5.12168 65.2426C4.59849 65.0479 4.39773 64.5916 4.39773 64.0867C4.39773 62.803 5.54145 61.6776 6.23499 61.4342ZM4.94526 64.3179C4.94526 64.7437 5.09735 64.981 5.32853 64.981C5.70571 64.981 6.27149 64.5186 6.70343 63.7278C6.99545 63.1863 7.11712 62.6753 7.11712 62.3042C7.11712 62.0122 7.05628 61.8175 6.92853 61.7688C6.66084 61.6715 5.94297 62.073 5.38936 62.9186C5.0791 63.3992 4.94526 63.9224 4.94526 64.3179ZM11.809 64.251C11.8637 64.1293 11.9611 64.1232 12.0219 64.251C12.0523 64.3179 12.0645 64.47 11.9915 64.6586C11.8333 65.0297 11.3771 65.2852 11.0364 65.2852C10.6409 65.2852 10.428 65.0114 10.428 64.6646C10.428 64.184 10.7626 63.7521 11.085 63.3749C10.9208 63.4418 10.7565 63.4783 10.6227 63.4844C10.3124 64.257 9.77705 65.273 9.1261 65.273C8.79758 65.273 8.57857 65.1453 8.55424 64.8593C8.35348 65.0844 8.07363 65.2669 7.78161 65.2669C7.53218 65.2669 7.34359 65.0357 7.34359 64.7802C7.34359 64.6525 7.37401 64.5126 7.42268 64.3605C7.5626 63.965 7.86679 63.3567 8.25006 62.8456C8.32914 62.7422 8.4204 62.7422 8.4934 62.8456C8.56032 62.9491 8.59682 63.0281 8.59682 63.1316C8.59682 63.2776 8.5299 63.454 8.39606 63.6791C8.35956 63.742 8.32508 63.8008 8.29252 63.8563C8.12973 64.134 8.01482 64.33 7.93371 64.543C7.88504 64.6586 7.8607 64.7681 7.8607 64.8593C7.8607 64.9445 7.87895 65.0053 7.90937 65.0053C8.09796 65.0053 8.43257 64.5916 8.72458 64.1171C8.89492 63.8373 9.04093 63.5696 9.14435 63.3749C9.25386 63.1681 9.35728 62.9856 9.45462 62.8456C9.53371 62.7483 9.61888 62.73 9.70405 62.8091C9.7588 62.8761 9.80139 62.9795 9.80139 63.1133C9.80139 63.2289 9.77705 63.3627 9.70405 63.5088C9.66983 63.581 9.61659 63.6723 9.5592 63.7706C9.52477 63.8297 9.48884 63.8913 9.45462 63.9529C9.33903 64.1354 9.22344 64.3361 9.15044 64.5186C9.0896 64.6525 9.05918 64.7802 9.05918 64.8715C9.05918 64.9749 9.0896 65.0236 9.15044 65.0236C9.48504 65.0236 9.95956 64.251 10.2698 63.4357C10.136 63.3688 10.0934 63.2715 10.0934 63.1498C10.0934 62.8335 10.4706 62.3833 10.6653 62.3833C10.8052 62.3833 10.8599 62.4745 10.8599 62.6205C10.8599 62.7422 10.8234 62.9247 10.7626 63.1133C10.939 63.0707 11.1094 62.9916 11.298 62.8578C11.3771 62.8031 11.4866 62.7483 11.5656 62.8456C11.6447 62.943 11.736 63.0951 11.736 63.2593C11.736 63.3323 11.7056 63.4175 11.6386 63.5027C11.3771 63.8008 11.085 64.2205 10.9755 64.5186C10.9512 64.6099 10.9329 64.7011 10.9329 64.7924C10.9329 64.9445 10.9755 65.0479 11.0668 65.0479C11.2736 65.0479 11.6265 64.6829 11.809 64.251ZM13.4184 63.7521C13.1994 64.0563 13.0899 64.397 13.0899 64.6586C13.0899 65.0175 13.2846 65.2791 13.6435 65.2791C13.8868 65.2791 14.1606 65.0905 14.337 64.9202C14.3857 65.1453 14.5621 65.3034 14.8663 65.3034C15.1038 65.3034 15.3488 65.1714 15.5358 64.9886C15.6021 65.1702 15.7631 65.2852 16.0358 65.2852C16.2373 65.2852 16.458 65.2046 16.6452 65.0661C16.6706 65.138 16.714 65.1973 16.7668 65.2426C16.8703 65.3338 16.9372 65.2973 16.9798 65.2C17.217 64.6403 17.4969 64.0867 17.8376 63.7217C18.2026 63.3202 18.4398 63.1863 18.4885 63.1863C18.5269 63.1863 18.4545 63.3001 18.3512 63.4626L18.351 63.4628C18.3071 63.5319 18.2576 63.6097 18.2087 63.6913C18.0444 63.9468 17.8436 64.2753 17.7585 64.4943C17.6976 64.6464 17.649 64.8411 17.649 64.9445C17.649 65.1027 17.6915 65.1878 17.7828 65.2791C17.8801 65.3764 17.9653 65.3582 18.0261 65.2426C18.2817 64.6768 18.5737 64.0989 19.0482 63.6243C19.4071 63.2654 19.5349 63.2046 19.5836 63.2046C19.619 63.2046 19.5512 63.3013 19.4601 63.4314C19.4261 63.48 19.3888 63.5333 19.3524 63.5878C19.2125 63.8069 19.0117 64.1354 18.9144 64.3422C18.8474 64.4943 18.8231 64.6281 18.8231 64.7377C18.8231 65.0662 19.0482 65.2913 19.4619 65.2913C19.8391 65.2913 20.271 64.9871 20.4414 64.6342C20.5144 64.4943 20.5083 64.2631 20.4414 64.1962C20.3866 64.1415 20.3258 64.1475 20.271 64.2388C20.0459 64.6099 19.7478 65.0357 19.5592 65.0357C19.4619 65.0357 19.4011 64.9384 19.4011 64.7985C19.4011 64.5856 19.5592 64.3179 19.7296 64.0563C19.979 63.673 20.1068 63.3932 20.1068 63.1863C20.1068 62.9856 20.0094 62.8213 19.833 62.8152C19.6383 62.8091 19.3159 63.016 19.0421 63.2593C19.0421 63.0038 18.9144 62.7848 18.7197 62.7848C18.525 62.7848 18.1843 63.016 17.9227 63.2715C17.9349 63.2107 17.941 63.1559 17.941 63.1072C17.941 63.0099 17.9106 62.9065 17.8558 62.8152C17.795 62.7057 17.7037 62.6996 17.6246 62.8152C17.3408 63.248 17.0178 63.8445 16.8244 64.2644C16.634 64.6625 16.3313 65.0418 16.0966 65.0418C16.0297 65.0418 16.0053 64.9871 16.0053 64.8897C16.0053 64.7924 16.0358 64.6646 16.0905 64.5247C16.1432 64.4008 16.2416 64.2217 16.3407 64.0412C16.4363 63.8672 16.5326 63.6919 16.5894 63.5635C16.7475 63.2593 16.6989 62.9977 16.5833 62.8761C16.5042 62.7848 16.4312 62.797 16.3399 62.9186C16.1226 63.2241 15.7522 63.8924 15.59 64.3214C15.3902 64.694 15.1088 65.0601 14.9028 65.0601C14.842 65.0601 14.8176 65.0053 14.8176 64.9141C14.8176 64.6289 15.0677 64.2187 15.2722 63.8834C15.36 63.7394 15.4393 63.6093 15.4868 63.5088C15.645 63.1924 15.5903 62.9247 15.4868 62.8031C15.4138 62.7179 15.3104 62.724 15.2374 62.8456L15.1218 63.0342C15.0671 62.8761 14.9332 62.7665 14.7142 62.7665C14.404 62.7665 13.9051 63.0525 13.4184 63.7521ZM13.7226 65.0114C13.6617 65.0114 13.6374 64.9384 13.6374 64.8289C13.6374 64.6342 13.7408 64.3118 13.9233 64.0259C14.2336 63.527 14.6534 63.1437 14.7751 63.1437C14.8359 63.1437 14.8481 63.1863 14.8481 63.2593C14.8481 63.4175 14.7386 63.7156 14.5013 64.1293C14.2032 64.6403 13.9233 65.0114 13.7226 65.0114ZM16.9057 62.8821C16.711 62.8821 16.5468 62.6996 16.5468 62.511C16.5468 62.3407 16.6745 62.1825 16.8145 62.1825C16.9848 62.1825 17.1491 62.4015 17.1491 62.578C17.1491 62.7422 17.0578 62.8821 16.9057 62.8821ZM5.49887 68.5856C5.30419 68.5856 5.13993 68.403 5.13993 68.2145C5.13993 68.0441 5.26769 67.8859 5.40761 67.8859C5.57795 67.8859 5.74221 68.105 5.74221 68.2814C5.74221 68.4456 5.65096 68.5856 5.49887 68.5856ZM5.23974 70.1247C5.23974 70.1712 5.24377 70.2184 5.25161 70.2649C5.0761 70.5358 4.86417 70.7453 4.68974 70.7453C4.62282 70.7453 4.59849 70.6905 4.59849 70.5932C4.59849 70.4958 4.62891 70.3681 4.68366 70.2281C4.73632 70.1042 4.83472 69.9251 4.93388 69.7446C5.02948 69.5706 5.12578 69.3953 5.18252 69.2669C5.34069 68.9627 5.29202 68.7011 5.17643 68.5795C5.09735 68.4882 5.02434 68.5004 4.93309 68.6221C4.70799 68.9384 4.31864 69.6441 4.16655 70.07C4.11788 70.2281 4.09354 70.3559 4.09354 70.4715C4.09354 70.7757 4.2578 70.9886 4.62891 70.9886C4.89362 70.9886 5.19143 70.8496 5.40275 70.6229C5.61572 70.9261 5.94788 71.0058 6.28005 70.9947C6.73632 70.9764 7.16218 70.7453 7.39335 70.3194C7.50286 70.1308 7.48461 69.9605 7.45419 69.8996C7.41161 69.8023 7.32035 69.7597 7.2656 69.8996C7.15609 70.1977 6.98575 70.3985 6.73632 70.5688C6.80324 70.435 6.83366 70.2646 6.83974 70.1126C6.84591 69.9459 6.82861 69.7621 6.81005 69.5649C6.79202 69.3735 6.77282 69.1695 6.77282 68.9567C6.77282 68.8776 6.77891 68.7742 6.78499 68.7011C6.97358 68.3909 6.93708 68.257 6.77282 68.257C6.68157 68.257 6.57206 68.2996 6.47472 68.3848C6.3348 68.5004 6.2618 68.6403 6.23746 68.8593C6.07929 69.1209 5.86636 69.4373 5.6656 69.7232C5.64735 69.5772 5.55609 69.5468 5.43442 69.6502C5.30058 69.7658 5.23974 69.9422 5.23974 70.1247ZM6.0732 70.7088C5.93936 70.7088 5.81161 70.4958 5.7386 70.2099C5.92111 69.9483 6.09145 69.6867 6.23746 69.4555C6.24963 69.6198 6.25571 69.8145 6.25571 70.0091C6.25571 70.4046 6.20096 70.7088 6.0732 70.7088ZM9.09364 70.9886C8.77121 70.9886 8.49136 70.727 8.49136 70.3072C8.49136 70.1734 8.52786 70.003 8.61303 69.8023C8.7347 69.5042 8.96588 69.0236 9.20923 68.5856C9.02064 68.5612 8.91113 68.4943 8.86246 68.4213C8.77729 68.2935 8.83813 68.2327 8.97805 68.2388C9.11797 68.2449 9.28223 68.2388 9.41607 68.2266C9.60467 67.8981 9.73242 67.6973 9.87235 67.4966C9.9636 67.3627 10.0366 67.3688 10.1035 67.4844C10.1461 67.5574 10.1704 67.6608 10.1704 67.7338C10.1704 67.8434 10.1461 67.9833 10.0731 68.1536C10.2617 68.178 10.3651 68.2753 10.4077 68.3483C10.4685 68.4578 10.426 68.5308 10.28 68.5126C10.1704 68.5004 10.0123 68.5126 9.87843 68.5308C9.64725 68.9262 9.30048 69.5285 9.08756 69.9909C9.01455 70.1551 8.97805 70.3133 8.97805 70.4472C8.97805 70.6297 9.03889 70.7574 9.14231 70.7574C9.34998 70.7574 9.61823 70.4638 9.8247 70.0846C9.83875 69.834 9.93279 69.5605 10.0784 69.2973C10.3521 68.8107 10.7354 68.5065 11.1369 68.5065C11.3134 68.5065 11.4229 68.5734 11.5385 68.7316C11.5698 68.7684 11.601 68.8 11.6309 68.8301L11.6311 68.8303C11.7639 68.964 11.8691 69.0701 11.8244 69.492C11.9826 69.492 11.9947 69.5468 11.9461 69.6076C11.9035 69.6563 11.8548 69.6806 11.7879 69.6928C11.6601 70.1977 11.2708 70.7939 10.8084 70.9521C10.7537 70.9703 10.6807 70.9886 10.5894 70.9886C10.3886 70.9886 10.1636 70.9034 9.99321 70.6783C9.96175 70.6369 9.93479 70.5933 9.91222 70.5477C9.72832 70.7566 9.4339 70.9886 9.09364 70.9886ZM11.3681 69.3703C11.3012 69.2913 11.2708 69.1331 11.2708 69.0236C11.2708 68.9262 11.3255 68.8776 11.362 68.8776C11.4046 68.8776 11.4533 68.9141 11.4533 69.0053C11.4533 69.0844 11.429 69.2304 11.3681 69.3703ZM10.2974 70.4228C10.2974 70.1977 10.3947 69.857 10.5529 69.565C10.6563 69.3825 10.7719 69.2304 10.8997 69.1088C10.9483 69.3217 11.0761 69.4799 11.2708 69.6015C11.2343 69.7293 11.1613 69.8814 11.07 70.0396C10.8449 70.4532 10.6016 70.6783 10.4434 70.6783C10.3521 70.6783 10.2974 70.6053 10.2974 70.4228ZM14.9171 68.7924C14.8076 68.7437 14.473 69.0236 14.2114 69.4677L14.0167 69.7962C13.8281 70.1856 13.8707 70.6236 14.0289 70.6236C14.2175 70.6236 14.4912 70.289 14.7406 69.784C14.8867 69.4981 14.9597 69.1878 14.9597 68.9871C14.9597 68.8776 14.9475 68.8046 14.9171 68.7924ZM14.9353 68.5308C15.3003 68.5308 15.4768 68.8593 15.4768 69.1696C15.4768 69.4312 15.3794 69.7415 15.2395 70.0335C15.0935 70.3681 14.8927 70.6418 14.6981 70.8C15.1086 70.7168 15.4331 70.3756 15.6209 70.0486C15.7632 69.6528 16.0644 69.0535 16.4428 68.5491C16.5219 68.4456 16.6131 68.4456 16.6861 68.5491C16.7531 68.6525 16.7896 68.7316 16.7896 68.835C16.7896 68.981 16.7226 69.1574 16.5888 69.3825C16.5523 69.4454 16.5178 69.5042 16.4853 69.5597C16.3225 69.8374 16.2076 70.0335 16.1264 70.2464C16.0778 70.362 16.0534 70.4715 16.0534 70.5627C16.0534 70.6479 16.0717 70.7088 16.1021 70.7088C16.2907 70.7088 16.6253 70.2951 16.9173 69.8205C17.0877 69.5407 17.2337 69.273 17.3371 69.0783C17.4466 68.8715 17.55 68.689 17.6473 68.5491C17.7264 68.4517 17.8116 68.4335 17.8968 68.5126C17.9515 68.5795 17.9941 68.6829 17.9941 68.8167C17.9941 68.9323 17.9698 69.0662 17.8968 69.2122C17.8626 69.2844 17.8093 69.3757 17.7519 69.4741C17.7175 69.5331 17.6816 69.5947 17.6473 69.6563C17.5318 69.8388 17.4162 70.0396 17.3432 70.2221C17.2823 70.3559 17.2519 70.4837 17.2519 70.5749C17.2519 70.6783 17.2823 70.727 17.3432 70.727C17.6778 70.727 18.1523 69.9544 18.4626 69.1392C18.3287 69.0723 18.2861 68.9749 18.2861 68.8532C18.2861 68.5369 18.6633 68.0867 18.858 68.0867C18.9979 68.0867 19.0527 68.178 19.0527 68.324C19.0527 68.4456 19.0162 68.6281 18.9553 68.8167C19.1318 68.7742 19.3021 68.6951 19.4907 68.5612C19.5698 68.5065 19.6793 68.4517 19.7584 68.5491C19.8375 68.6464 19.9287 68.7985 19.9287 68.9627C19.9287 69.0357 19.8983 69.1209 19.8314 69.2061C19.5698 69.5042 19.2778 69.924 19.1683 70.2221C19.1439 70.3133 19.1257 70.4046 19.1257 70.4958C19.1257 70.6479 19.1683 70.7513 19.2595 70.7513C19.4301 70.7513 19.7001 70.503 19.8919 70.1735C19.8909 70.1572 19.8904 70.1409 19.8904 70.1247C19.8904 69.9422 19.9512 69.7658 20.0851 69.6502C20.2068 69.5468 20.298 69.5772 20.3163 69.7232C20.517 69.4373 20.73 69.1209 20.8881 68.8593C20.9125 68.6403 20.9855 68.5004 21.1254 68.3848C21.2227 68.2996 21.3322 68.257 21.4235 68.257C21.5877 68.257 21.6242 68.3909 21.4357 68.7011C21.4296 68.7742 21.4235 68.8776 21.4235 68.9567C21.4235 69.1695 21.4427 69.3735 21.4607 69.5649C21.4793 69.7621 21.4966 69.9459 21.4904 70.1126C21.4843 70.2646 21.4539 70.435 21.387 70.5688C21.5569 70.4528 21.6901 70.3227 21.7924 70.1573C21.8014 70.1264 21.8118 70.0953 21.8235 70.0639C21.9574 69.6806 22.2676 69.0722 22.6448 68.543C22.7239 68.4396 22.8334 68.4517 22.9064 68.543C22.9733 68.6281 22.9977 68.7316 22.9977 68.8228C22.9977 68.9868 22.8058 69.3479 22.6138 69.7092C22.5137 69.8975 22.4136 70.0859 22.3406 70.2464C22.2311 70.4897 22.2129 70.7148 22.3467 70.7148C22.5049 70.7148 22.8273 70.3011 23.1376 69.8145C23.3018 69.5473 23.424 69.3158 23.5292 69.1165C23.654 68.88 23.7549 68.6887 23.8737 68.5369C23.9589 68.4213 24.0562 68.397 24.1292 68.5004C24.1901 68.5856 24.2205 68.6829 24.2205 68.8167C24.2205 69.0236 24.0927 69.2913 23.8798 69.6441C23.7034 69.93 23.4661 70.3437 23.4661 70.581C23.4661 70.6905 23.5026 70.7513 23.5817 70.7513C23.7796 70.7513 24.0838 70.3436 24.3022 69.9649C24.3262 69.7976 24.384 69.6221 24.4778 69.4434C24.7942 68.7985 25.2869 68.4761 25.6398 68.4761C25.725 68.4761 25.7919 68.4882 25.8527 68.5247C26.0231 68.6221 26.1447 68.7194 26.2299 68.8411C26.2664 68.8958 26.2907 68.9871 26.2907 69.0662C26.2907 69.4312 25.8831 70.07 25.3478 70.07C25.2018 70.07 25.0558 70.0274 24.9158 69.9361C24.8793 70.0578 24.8611 70.1856 24.8611 70.2951C24.8611 70.5627 24.9706 70.7513 25.1531 70.7513C25.6155 70.7513 26.0231 70.3011 26.2725 69.924C26.3394 69.8266 26.4185 69.8145 26.4672 69.9361C26.4854 69.9909 26.4915 70.1673 26.382 70.3316C26.1265 70.7027 25.6398 70.9886 25.1653 70.9947C24.7642 70.999 24.4915 70.8138 24.3667 70.5322C24.1637 70.7983 23.8422 71.0069 23.533 71.0069C23.1741 71.0069 22.9916 70.8304 22.9673 70.5567C22.7604 70.7878 22.4867 70.9764 22.1764 70.9764C21.9424 70.9764 21.8156 70.8449 21.7675 70.668C21.537 70.8715 21.2409 70.9823 20.9307 70.9947C20.5888 71.0061 20.2468 70.9214 20.0349 70.5956C19.8245 70.8361 19.4923 70.9886 19.2291 70.9886C18.8337 70.9886 18.6207 70.7148 18.6207 70.3681C18.6207 69.8875 18.9553 69.4555 19.2778 69.0783C19.1135 69.1453 18.9492 69.1818 18.8154 69.1878C18.5051 69.9605 17.9698 70.9764 17.3188 70.9764C16.9903 70.9764 16.7713 70.8487 16.747 70.5627C16.5462 70.7878 16.2664 70.9703 15.9743 70.9703C15.7927 70.9703 15.6433 70.8477 15.5755 70.6824C15.2917 70.9452 14.9049 71.0434 14.5216 71.0434C14.041 71.0434 13.7429 70.8791 13.603 70.5506C13.3353 71.0494 13.0737 71.5726 12.8182 72.1688C12.7695 72.2783 12.6965 72.3027 12.6357 72.2297C12.5444 72.1141 12.514 72.0289 12.514 71.9011C12.514 71.8038 12.5323 71.6761 12.587 71.5057C12.7635 70.9278 13.7673 69.0357 14.1444 68.5308C14.254 68.397 14.333 68.4213 14.3817 68.4882C14.4304 68.5551 14.4425 68.6342 14.4425 68.7133C14.5946 68.6099 14.7711 68.5308 14.9353 68.5308ZM20.3893 70.2099C20.4623 70.4958 20.59 70.7088 20.7239 70.7088C20.8516 70.7088 20.9064 70.4046 20.9064 70.0091C20.9064 69.8145 20.9003 69.6198 20.8881 69.4555C20.7421 69.6867 20.5718 69.9483 20.3893 70.2099ZM25.5972 69.4008C25.7736 69.1635 25.9014 68.8776 25.8345 68.8228C25.7432 68.7498 25.293 69.1209 25.001 69.705C25.0497 69.7354 25.0923 69.7475 25.1348 69.7475C25.2809 69.7475 25.4755 69.565 25.5972 69.4008ZM4.48898 75.3491C4.26997 75.6532 4.16046 75.9939 4.16046 76.2555C4.16046 76.6145 4.35514 76.8761 4.71408 76.8761C4.95742 76.8761 5.23119 76.6875 5.40761 76.5171C5.45628 76.7422 5.63271 76.9004 5.93689 76.9004C6.14137 76.9004 6.35138 76.8025 6.52522 76.6586C6.54446 76.7282 6.57684 76.783 6.61355 76.8335C6.69264 76.9369 6.76565 76.9186 6.8204 76.8031L6.94207 76.5354C7.06374 76.7361 7.27059 76.8578 7.5626 76.8578C7.93979 76.8578 8.32306 76.5049 8.60899 75.8723C8.76108 75.5437 8.828 75.2274 8.828 74.984C8.828 74.6373 8.682 74.3939 8.34739 74.3939C8.25006 74.3939 8.11622 74.4426 8.00671 74.5034C8.10296 74.3342 8.19197 74.1884 8.26781 74.0643C8.33098 73.9608 8.38501 73.8724 8.42648 73.7977C8.57249 73.5361 8.63941 73.2989 8.63941 73.1346C8.63941 73.0373 8.62116 72.9521 8.57857 72.8791C8.49949 72.7392 8.41431 72.7392 8.32306 72.873C7.8819 73.5243 7.03267 75.0914 6.69522 75.8521C6.49444 76.2463 6.19163 76.657 5.97339 76.657C5.91256 76.657 5.88822 76.6023 5.88822 76.511C5.88822 76.2259 6.13832 75.8157 6.34274 75.4804C6.43054 75.3364 6.5099 75.2062 6.55742 75.1057C6.7156 74.7894 6.66084 74.5217 6.55742 74.4C6.48442 74.3148 6.381 74.3209 6.30799 74.4426L6.1924 74.6312C6.13765 74.473 6.00381 74.3635 5.7848 74.3635C5.47453 74.3635 4.97567 74.6494 4.48898 75.3491ZM4.79316 76.6084C4.73233 76.6084 4.70799 76.5354 4.70799 76.4259C4.70799 76.2312 4.81142 75.9088 4.99392 75.6228C5.30419 75.124 5.72396 74.7407 5.84564 74.7407C5.90647 74.7407 5.91864 74.7833 5.91864 74.8563C5.91864 75.0145 5.80913 75.3126 5.57187 75.7262C5.27377 76.2373 4.99392 76.6084 4.79316 76.6084ZM8.06755 75.7019C8.24397 75.3551 8.31089 75.0935 8.31089 74.9171C8.31089 74.7833 8.29264 74.7103 8.22572 74.7103C8.15272 74.7103 8.03713 74.7772 7.87287 74.9354C7.61736 75.2031 7.34359 75.6897 7.1185 76.1521C7.13066 76.3285 7.23409 76.511 7.35576 76.511C7.5261 76.511 7.76336 76.3224 8.06755 75.7019ZM9.59031 76.6023C9.45647 76.6023 9.32872 76.3894 9.25571 76.1034C9.43822 75.8418 9.60856 75.5802 9.75457 75.3491C9.76674 75.5133 9.77282 75.708 9.77282 75.9027C9.77282 76.2981 9.71807 76.6023 9.59031 76.6023ZM8.75685 76.0183C8.75685 76.1582 8.79335 76.3042 8.86027 76.4198C9.06712 76.8031 9.43214 76.9004 9.79716 76.8882C10.1798 76.8729 10.5411 76.7078 10.7841 76.4038C10.8096 76.4633 10.8413 76.5201 10.8786 76.5719C11.0367 76.7848 11.2558 76.87 11.4565 76.87C11.5539 76.87 11.6329 76.8578 11.6999 76.8335C12.1196 76.6814 12.4907 76.1703 12.6428 75.7019C12.6915 75.708 12.7645 75.7141 12.8497 75.708C12.8314 75.7627 12.8193 75.8297 12.8071 75.8966C12.7767 76.0183 12.7645 76.1338 12.7645 76.2373C12.7645 76.657 12.9957 76.8639 13.3607 76.8639C13.6004 76.8639 13.8372 76.7562 14.0274 76.6185C14.086 76.7659 14.2092 76.87 14.4174 76.87C14.7276 76.87 15.0014 76.6814 15.2082 76.4502C15.2326 76.724 15.4151 76.9004 15.774 76.9004C16.0583 76.9004 16.3529 76.7242 16.5563 76.4889C16.6511 76.7368 16.8678 76.8821 17.1081 76.8821C17.4016 76.8821 17.6609 76.7096 17.8447 76.5282C17.9861 76.7513 18.2384 76.892 18.5885 76.8882C19.063 76.8821 19.5497 76.5962 19.8052 76.2251C19.9147 76.0608 19.9087 75.8844 19.8904 75.8297C19.8417 75.708 19.7627 75.7202 19.6957 75.8175C19.4463 76.1947 19.0387 76.6449 18.5763 76.6449C18.3938 76.6449 18.2843 76.4563 18.2843 76.1886C18.2843 76.0791 18.3026 75.9513 18.3391 75.8297C18.479 75.9209 18.625 75.9635 18.771 75.9635C19.3064 75.9635 19.714 75.3247 19.714 74.9597C19.714 74.8806 19.6896 74.7894 19.6531 74.7346C19.568 74.6129 19.4463 74.5156 19.276 74.4183C19.2151 74.3818 19.1482 74.3696 19.063 74.3696C18.7102 74.3696 18.2174 74.692 17.9011 75.3369C17.7733 75.5802 17.7125 75.8175 17.7125 76.0365C17.7125 76.0839 17.7154 76.1302 17.7212 76.1752C17.5372 76.4544 17.3267 76.651 17.1568 76.651C17.0534 76.651 16.9925 76.5232 16.9925 76.3407C16.9925 76.2069 17.029 76.0487 17.1021 75.8844C17.315 75.4221 17.6617 74.8198 17.8929 74.4243C18.0268 74.4061 18.1849 74.3939 18.2944 74.4061C18.4405 74.4243 18.483 74.3513 18.4222 74.2418C18.3796 74.1688 18.2762 74.0715 18.0876 74.0472C18.1606 73.8768 18.1849 73.7369 18.1849 73.6274C18.1849 73.5544 18.1606 73.451 18.118 73.378C18.0511 73.2624 17.9781 73.2563 17.8868 73.3901C17.7469 73.5909 17.6192 73.7916 17.4306 74.1202C17.2967 74.1323 17.1325 74.1384 16.9925 74.1323C16.8526 74.1262 16.7918 74.1871 16.877 74.3148C16.9256 74.3878 17.0351 74.4548 17.2237 74.4791C16.9804 74.9171 16.7492 75.3977 16.6275 75.6958C16.6131 75.7299 16.6 75.7631 16.5883 75.7954C16.5755 75.808 16.5634 75.8236 16.5527 75.8418C16.3337 76.2251 16.0234 76.6449 15.8227 76.6449C15.7436 76.6449 15.7071 76.584 15.7071 76.4745C15.7071 76.2373 15.9444 75.8236 16.1208 75.5376C16.3337 75.1848 16.4615 74.9171 16.4615 74.7103C16.4615 74.5764 16.431 74.4791 16.3702 74.3939C16.2972 74.2905 16.1999 74.3148 16.1147 74.4304C15.9959 74.5822 15.8951 74.7733 15.7704 75.0095L15.7703 75.0097C15.6651 75.2091 15.5428 75.4408 15.3786 75.708C15.0683 76.1947 14.7459 76.6084 14.5877 76.6084C14.4539 76.6084 14.4721 76.3833 14.5816 76.1399C14.6546 75.9794 14.7547 75.7911 14.8547 75.6028C15.0467 75.2415 15.2386 74.8803 15.2386 74.7164C15.2386 74.6251 15.2143 74.5217 15.1474 74.4365C15.0744 74.3453 14.9649 74.3331 14.8858 74.4365C14.5086 74.9658 14.1983 75.5742 14.0645 75.9574C14.0404 76.0217 14.0222 76.0849 14.0093 76.1468C13.7973 76.4257 13.5398 76.6327 13.3607 76.6327C13.2816 76.6327 13.2451 76.5293 13.2451 76.3833C13.2451 76.1643 13.3181 75.8783 13.4459 75.5559C13.7622 75.3977 14.0177 75.1422 14.2489 74.8624C14.474 74.5764 14.7295 74.1262 14.8208 73.8099C14.8451 73.7247 14.8573 73.6335 14.8573 73.5605C14.8573 73.3901 14.7964 73.2502 14.6748 73.1224C14.5653 73.019 14.4314 73.0373 14.3219 73.1529C13.7866 73.7126 13.2025 74.5947 12.9166 75.489C12.8314 75.5011 12.7888 75.5072 12.6915 75.489C12.7037 75.416 12.7098 75.3612 12.7158 75.2882C12.7391 74.9736 12.6397 74.8598 12.4495 74.6424L12.4238 74.6129C12.3143 74.4608 12.1866 74.3939 12.0284 74.3939C11.6451 74.3939 11.2497 74.7164 10.9698 75.1909C10.828 75.4419 10.7302 75.7075 10.7115 75.9571C10.6037 76.1685 10.4542 76.3253 10.2534 76.4624C10.3204 76.3285 10.3508 76.1582 10.3569 76.0061C10.363 75.8394 10.3457 75.6556 10.3272 75.4585C10.3091 75.267 10.2899 75.063 10.2899 74.8502C10.2899 74.7711 10.296 74.6677 10.3021 74.5947C10.4907 74.2844 10.4542 74.1506 10.2899 74.1506C10.1987 74.1506 10.0892 74.1932 9.99183 74.2783C9.85191 74.3939 9.77891 74.5338 9.75457 74.7529C9.5964 75.0145 9.38347 75.3308 9.18271 75.6167C9.16446 75.4707 9.0732 75.4403 8.95153 75.5437C8.81769 75.6593 8.75685 75.8357 8.75685 76.0183ZM14.0725 74.6129C14.3158 74.254 14.5774 73.7004 14.5105 73.7004C14.4679 73.7004 14.2915 73.9498 14.0847 74.3088C14.0517 74.3653 14.0154 74.4227 13.9781 74.4817L13.978 74.4819C13.871 74.6514 13.7553 74.8344 13.6831 75.051C13.671 75.0875 13.671 75.0996 13.6771 75.0996C13.7112 75.0996 13.8819 74.8693 13.9985 74.712L13.9987 74.7117C14.0276 74.6728 14.0532 74.6383 14.0725 74.6129ZM12.1622 74.9171C12.1622 75.0266 12.1926 75.1848 12.2596 75.2639C12.3204 75.124 12.3447 74.978 12.3447 74.8989C12.3447 74.8076 12.2961 74.7711 12.2535 74.7711C12.217 74.7711 12.1622 74.8198 12.1622 74.9171ZM11.4322 75.4525C11.274 75.7384 11.1828 76.073 11.1828 76.3042C11.1828 76.5232 11.2558 76.5719 11.3348 76.5719C11.4991 76.5658 11.7364 76.3285 11.9554 75.9331C12.0406 75.7749 12.1014 75.6289 12.144 75.5072C11.9493 75.3673 11.8215 75.1848 11.785 74.9962C11.6573 75.1118 11.5356 75.2639 11.4322 75.4525ZM19.2577 74.7164C19.3246 74.7711 19.1969 75.057 19.0204 75.2943C18.8988 75.4586 18.7041 75.6411 18.5581 75.6411C18.5155 75.6411 18.4729 75.6289 18.4242 75.5985C18.7163 75.0145 19.1665 74.6434 19.2577 74.7164ZM22.318 74.4791C22.1233 74.4791 21.9591 74.2966 21.9591 74.108C21.9591 73.9376 22.0868 73.7795 22.2268 73.7795C22.3971 73.7795 22.5614 73.9985 22.5614 74.1749C22.5614 74.3392 22.4701 74.4791 22.318 74.4791ZM23.0187 74.4243C22.6444 74.9858 22.1802 75.8288 22.0602 76.1746C21.8868 76.4377 21.6798 76.6388 21.5089 76.6388C21.442 76.6388 21.4176 76.584 21.4176 76.4867C21.4176 76.3894 21.4481 76.2616 21.5028 76.1217C21.5555 75.9978 21.6539 75.8187 21.753 75.6382C21.8486 75.4642 21.9449 75.2889 22.0017 75.1605C22.1598 74.8563 22.1112 74.5947 21.9956 74.473C21.9165 74.3818 21.8435 74.3939 21.7522 74.5156C21.5271 74.8319 21.1378 75.5376 20.9857 75.9635C20.937 76.1217 20.9127 76.2494 20.9127 76.365C20.9127 76.6692 21.077 76.8821 21.4481 76.8821C21.6413 76.8821 21.8521 76.8081 22.0341 76.68C22.0569 76.7386 22.0917 76.7886 22.1366 76.8335C22.2339 76.9308 22.313 76.8943 22.3556 76.797C22.605 76.2494 22.8788 75.6532 23.2134 75.3004C23.548 74.9232 23.8461 74.7529 23.9008 74.7529C23.9434 74.7529 23.8461 74.911 23.7183 75.1118C23.481 75.489 23.2012 76.0487 23.2012 76.3772C23.2012 76.6935 23.3776 76.9004 23.7852 76.9004C24.0476 76.9004 24.3509 76.7338 24.5639 76.5158C24.6637 76.7473 24.8733 76.8821 25.1048 76.8821C25.4068 76.8821 25.6727 76.6994 25.8572 76.5123C25.9977 76.734 26.2493 76.8738 26.5973 76.87C27.3396 76.8578 27.9905 76.1156 28.4894 75.0753C28.6232 75.0692 28.7753 75.0449 28.9396 74.9719C28.6962 75.2578 28.4589 75.5924 28.3555 75.9209C28.3129 76.0487 28.2947 76.1582 28.2947 76.2555C28.2947 76.6145 28.5076 76.8821 28.8909 76.8821C29.1761 76.8821 29.5188 76.717 29.7239 76.46C29.8552 76.7222 30.1217 76.8924 30.5063 76.8882C30.8902 76.8833 31.2821 76.6952 31.5531 76.427C31.7606 76.8043 32.1234 76.9003 32.4861 76.8882C32.8358 76.8742 33.1676 76.7352 33.4076 76.4793C33.5003 76.733 33.7195 76.8821 33.9629 76.8821C34.2739 76.8821 34.5465 76.6885 34.7315 76.4957C34.9437 76.8161 35.2833 76.8995 35.623 76.8882C36.0792 76.87 36.5051 76.6388 36.7363 76.2129C36.8458 76.0243 36.8275 75.854 36.7971 75.7932C36.7545 75.6958 36.6633 75.6532 36.6085 75.7932C36.499 76.0913 36.3287 76.292 36.0792 76.4624C36.1462 76.3285 36.1766 76.1582 36.1827 76.0061C36.1888 75.8394 36.1715 75.6556 36.153 75.4585C36.1349 75.267 36.1157 75.063 36.1157 74.8502C36.1157 74.7711 36.1218 74.6677 36.1279 74.5947C36.3165 74.2844 36.28 74.1506 36.1157 74.1506C36.0245 74.1506 35.915 74.1932 35.8176 74.2783C35.6777 74.3939 35.6047 74.5338 35.5804 74.7529C35.4222 75.0145 35.2093 75.3308 35.0085 75.6167C34.9903 75.4707 34.899 75.4403 34.7773 75.5437C34.6435 75.6593 34.5827 75.8357 34.5827 76.0183C34.5827 76.0616 34.5862 76.1056 34.593 76.1491C34.4051 76.442 34.1868 76.651 34.0116 76.651C33.9082 76.651 33.8473 76.5232 33.8473 76.3407C33.8473 76.2069 33.8839 76.0487 33.9569 75.8844C34.1698 75.4221 34.5165 74.8198 34.7477 74.4243C34.8816 74.4061 35.0397 74.3939 35.1492 74.4061C35.2953 74.4243 35.3378 74.3513 35.277 74.2418C35.2344 74.1688 35.131 74.0715 34.9424 74.0472C35.0154 73.8768 35.0397 73.7369 35.0397 73.6274C35.0397 73.5544 35.0154 73.451 34.9728 73.378C34.9059 73.2624 34.8329 73.2563 34.7416 73.3901C34.6017 73.5909 34.474 73.7916 34.2854 74.1202C34.1515 74.1323 33.9873 74.1384 33.8473 74.1323C33.7074 74.1262 33.6466 74.1871 33.7318 74.3148C33.7804 74.3878 33.8899 74.4548 34.0785 74.4791C33.8352 74.9171 33.604 75.3977 33.4823 75.6958C33.4384 75.7994 33.4074 75.8949 33.3877 75.9814C33.281 76.1806 33.1353 76.3306 32.9424 76.4624C33.0093 76.3285 33.0397 76.1582 33.0458 76.0061C33.052 75.8394 33.0346 75.6556 33.0161 75.4585C32.9981 75.267 32.9789 75.063 32.9789 74.8502C32.9789 74.7711 32.9849 74.6677 32.991 74.5947C33.1796 74.2844 33.1431 74.1506 32.9789 74.1506C32.8876 74.1506 32.7781 74.1932 32.6808 74.2783C32.5408 74.3939 32.4678 74.5338 32.4435 74.7529C32.2853 75.0145 32.0724 75.3308 31.8716 75.6167C31.8534 75.4707 31.7621 75.4403 31.6405 75.5437C31.5066 75.6593 31.4458 75.8357 31.4458 76.0183C31.4458 76.0232 31.4458 76.0281 31.4459 76.0331C31.446 76.0379 31.4461 76.0428 31.4463 76.0476C31.1994 76.3563 30.8643 76.6449 30.4941 76.6449C30.3116 76.6449 30.2021 76.4563 30.2021 76.1886C30.2021 76.0791 30.2204 75.9513 30.2569 75.8297C30.3968 75.9209 30.5428 75.9635 30.6888 75.9635C31.2242 75.9635 31.6318 75.3247 31.6318 74.9597C31.6318 74.8806 31.6074 74.7894 31.5709 74.7346C31.4858 74.6129 31.3641 74.5156 31.1937 74.4183C31.1329 74.3818 31.066 74.3696 30.9808 74.3696C30.628 74.3696 30.1352 74.692 29.8188 75.3369C29.7114 75.5415 29.6513 75.7419 29.6349 75.9307C29.4451 76.318 29.131 76.6388 28.9274 76.6388C28.8422 76.6388 28.7935 76.5354 28.7935 76.3772C28.7935 76.3042 28.8118 76.1947 28.8361 76.1156C28.9456 75.8053 29.2437 75.3916 29.5053 75.0875C29.5783 75.0084 29.6088 74.9293 29.6088 74.8563C29.6088 74.7042 29.5053 74.5399 29.4262 74.4365C29.3532 74.3392 29.2681 74.3818 29.1707 74.4426C28.97 74.5703 28.8118 74.6555 28.6415 74.6981C28.7084 74.4973 28.757 74.3148 28.757 74.1871C28.757 74.0532 28.7084 73.9742 28.5806 73.9742C28.3738 73.9802 27.9662 74.4243 27.9662 74.7468C27.9662 74.8563 28.027 74.9475 28.1365 75.0145C27.8141 75.7567 27.1814 76.6327 26.573 76.6327C26.4027 76.6327 26.2932 76.4502 26.2932 76.1703C26.2932 76.0608 26.3114 75.9331 26.3479 75.8114C26.4878 75.9088 26.6338 75.9453 26.7799 75.9453C27.0475 75.9453 27.2787 75.7932 27.4551 75.5742C27.6194 75.3612 27.7107 75.1118 27.7107 74.9354C27.7107 74.8624 27.6863 74.7894 27.6559 74.7346C27.5586 74.6129 27.443 74.5217 27.2787 74.4183C27.2179 74.3818 27.151 74.3696 27.0719 74.3696C26.7251 74.3696 26.2262 74.7103 25.9099 75.3308C25.7882 75.5742 25.7274 75.8175 25.7274 76.0304C25.7274 76.0713 25.7296 76.1113 25.7341 76.1503C25.5463 76.4426 25.3284 76.651 25.1535 76.651C25.0501 76.651 24.9892 76.5232 24.9892 76.3407C24.9892 76.2069 25.0257 76.0487 25.0987 75.8844C25.3117 75.4221 25.6584 74.8198 25.8896 74.4243C26.0234 74.4061 26.1816 74.3939 26.2911 74.4061C26.4371 74.4243 26.4797 74.3513 26.4189 74.2418C26.3763 74.1688 26.2729 74.0715 26.0843 74.0472C26.1573 73.8768 26.1816 73.7369 26.1816 73.6274C26.1816 73.5544 26.1573 73.451 26.1147 73.378C26.0478 73.2624 25.9748 73.2563 25.8835 73.3901C25.7436 73.5909 25.6158 73.7916 25.4272 74.1202C25.2934 74.1323 25.1291 74.1384 24.9892 74.1323C24.8493 74.1262 24.7885 74.1871 24.8736 74.3148C24.9223 74.3878 25.0318 74.4548 25.2204 74.4791C24.9771 74.9171 24.7459 75.3977 24.6242 75.6958C24.5872 75.783 24.5594 75.8644 24.5398 75.9396C24.3252 76.3104 24.0424 76.6449 23.8521 76.6449C23.7731 76.6449 23.7305 76.5658 23.7305 76.438C23.7305 76.2129 23.9373 75.8114 24.132 75.5012C24.3267 75.1605 24.4362 74.9658 24.4362 74.8319C24.4362 74.6008 24.2719 74.3878 24.0955 74.3878C23.8765 74.3878 23.5845 74.5886 23.3229 74.8319C23.329 74.7954 23.329 74.7529 23.329 74.7103C23.329 74.6129 23.3046 74.5156 23.2499 74.4243C23.189 74.3148 23.0978 74.3088 23.0187 74.4243ZM26.4878 75.4768C26.7373 74.984 27.151 74.6312 27.2605 74.7164C27.3213 74.765 27.1814 75.0631 27.011 75.2821C26.8894 75.4464 26.7251 75.6228 26.5669 75.6228C26.5243 75.6228 26.4818 75.6107 26.4331 75.5863C26.4453 75.5559 26.4574 75.5316 26.4878 75.4768ZM30.9382 75.2943C31.1146 75.057 31.2424 74.7711 31.1755 74.7164C31.0842 74.6434 30.634 75.0145 30.342 75.5985C30.3907 75.6289 30.4333 75.6411 30.4759 75.6411C30.6219 75.6411 30.8166 75.4586 30.9382 75.2943ZM32.2792 76.6023C32.1454 76.6023 32.0176 76.3894 31.9446 76.1034C32.1271 75.8418 32.2975 75.5802 32.4435 75.3491C32.4557 75.5133 32.4617 75.708 32.4617 75.9027C32.4617 76.2981 32.407 76.6023 32.2792 76.6023ZM35.4161 76.6023C35.2823 76.6023 35.1545 76.3894 35.0815 76.1034C35.264 75.8418 35.4344 75.5802 35.5804 75.3491C35.5925 75.5133 35.5986 75.708 35.5986 75.9027C35.5986 76.2981 35.5439 76.6023 35.4161 76.6023ZM37.404 76.657C37.331 76.8396 37.1302 76.9491 36.9842 76.8943C36.8382 76.8396 36.7835 76.6388 36.8565 76.4867C36.9416 76.2981 37.1302 76.2008 37.2823 76.2555C37.4283 76.3042 37.477 76.4806 37.404 76.657Z" fill="#191919"/>
</svg>
