<svg width="512" height="512" viewBox="0 0 512 512" fill="none" xmlns="http://www.w3.org/2000/svg">
<path d="M401.787 186.223H461.418C464.186 186.223 466.576 187.23 468.589 189.245C470.602 191.26 471.608 193.653 471.608 196.423V440.477C471.608 443.247 470.602 445.64 468.589 447.655C466.576 449.67 464.186 450.677 461.418 450.677H393.106C390.339 450.677 387.949 449.67 385.936 447.655C383.923 445.64 382.916 443.247 382.916 440.477V336.962L358.007 377.763C353.981 384.06 349.327 387.208 344.043 387.208H317.624C312.34 387.208 307.685 384.06 303.66 377.763L278.751 336.962V440.477C278.751 443.247 277.744 445.64 275.731 447.655C273.718 449.67 271.328 450.677 268.56 450.677H200.249C197.481 450.677 195.091 449.67 193.078 447.655C191.065 445.64 190.059 443.247 190.059 440.477V196.423C190.059 193.653 191.065 191.26 193.078 189.245C195.091 187.23 197.481 186.223 200.249 186.223H259.88C266.925 186.223 272.334 189.623 276.109 196.423L330.833 287.093L385.558 196.423C389.332 189.623 394.742 186.223 401.787 186.223Z" fill="url(#paint0_linear_169_4097)"/>
<g clip-path="url(#clip0_169_4097)">
<path d="M174.329 228.452L138.013 155.076L219.891 157.693L220.464 158.084C220.692 155.46 220.823 152.797 220.823 150.115C220.816 100.347 180.469 60 130.701 60C80.9332 60 40.5928 100.347 40.5928 150.108C40.5928 199.87 80.9397 240.217 130.701 240.217C146.6 240.217 161.536 236.095 174.499 228.869L174.323 228.452H174.329Z" fill="url(#paint1_linear_169_4097)"/>
<path d="M148.599 127.197C156.129 127.197 162.233 121.093 162.233 113.564C162.233 106.034 156.129 99.9302 148.599 99.9302C141.07 99.9302 134.966 106.034 134.966 113.564C134.966 121.093 141.07 127.197 148.599 127.197Z" fill="white"/>
</g>
<defs>
<linearGradient id="paint0_linear_169_4097" x1="330.348" y1="104.19" x2="330.348" y2="557.191" gradientUnits="userSpaceOnUse">
<stop stop-color="#1070FC"/>
<stop offset="1" stop-color="#05CEC2"/>
</linearGradient>
<linearGradient id="paint1_linear_169_4097" x1="130.397" y1="4.09782" x2="130.397" y2="312.802" gradientUnits="userSpaceOnUse">
<stop stop-color="#1070FC"/>
<stop offset="1" stop-color="#05CEC2"/>
</linearGradient>
<clipPath id="clip0_169_4097">
<rect width="180.223" height="180.223" fill="white" transform="translate(40.5928 60)"/>
</clipPath>
</defs>
</svg>
