<svg id="Layer_1" data-name="Layer 1" xmlns="http://www.w3.org/2000/svg" viewBox="0 0 93.52 33.25"><defs><style>.cls-1{fill:#7b7b80;}</style></defs><path class="cls-1" d="M9.28,7.45,3.57,24.2H6.92l1.62-4.88h4.63l1.66,4.88h3.43L12.55,7.45Zm3.09,9.08h-3l1.25-3.69c.09-.25.17-.5.24-.74.07.25.15.51.25.77Z"/><path class="cls-1" d="M23.92,16.57c-1.54-.61-1.72-.9-1.72-1.34s.48-.92,1.24-.92a3.82,3.82,0,0,1,2,.58l.66.41.86-2.65-.39-.25a5.78,5.78,0,0,0-3.05-.8C20.9,11.6,19,13.23,19,15.48c0,2.07,1.83,3.17,3.36,3.73s1.66,1,1.66,1.46c0,.91-1,1-1.53,1a5.1,5.1,0,0,1-2.38-.7l-.66-.38-.87,2.71.42.24a7,7,0,0,0,3.44.87c2.85,0,4.76-1.6,4.76-4S25.33,17.1,23.92,16.57Z"/><path class="cls-1" d="M32.27,8.94l-3.2,1v1.92H27.34v2.76h1.73v5.47A4.92,4.92,0,0,0,30,23.4a3.54,3.54,0,0,0,2.64,1.05,6.3,6.3,0,0,0,2-.31l.43-.15-.17-2.77-.74.22a3.41,3.41,0,0,1-1,.11c-.39,0-.92,0-.92-1.56V14.58h2.9V11.83H32.27Z"/><path class="cls-1" d="M43,11.72l-.59-.08a4.65,4.65,0,0,0-.58-.05,3.72,3.72,0,0,0-2.65,1.14l0-.9h-3l0,.64c.06,1,.09,2,.09,3.44v8.28h3.24V17.64a6.31,6.31,0,0,1,.06-.83,2.25,2.25,0,0,1,2.12-2.09,2.87,2.87,0,0,1,.56,0l.74.16V11.72Z"/><path class="cls-1" d="M48.88,11.6c-3.62,0-6.13,2.67-6.13,6.5s2.44,6.35,6,6.35c3,0,6.16-2,6.16-6.53C54.86,14.2,52.4,11.6,48.88,11.6ZM51.57,18c0,2.15-1.17,3.72-2.78,3.72S46,20.17,46,18c0-1.37.59-3.7,2.81-3.7S51.57,16.73,51.57,18Z"/><path class="cls-1" d="M65.49,8.79a7,7,0,0,0-4.77-1.45,24.35,24.35,0,0,0-3.94.3l-.51.09V24.2h3.22V18.08c.33,0,.68,0,1,0a7.05,7.05,0,0,0,5.18-1.89,5.14,5.14,0,0,0,1.37-3.74A4.85,4.85,0,0,0,65.49,8.79ZM63.83,12.6c0,2.34-2.06,2.69-3.29,2.69a7.94,7.94,0,0,1-1-.06v-5a10.61,10.61,0,0,1,1.28-.06C62.16,10.14,63.83,10.56,63.83,12.6Z"/><path class="cls-1" d="M76.91,20.91V16.74c0-3.31-1.72-5.15-4.85-5.15a8,8,0,0,0-4,1.06l-.41.26.88,2.57.66-.45a4.71,4.71,0,0,1,2.59-.72,1.93,1.93,0,0,1,1.44.44,1.82,1.82,0,0,1,.47,1.14q-3.81.11-5.51,1.8A4,4,0,0,0,67,20.64a3.79,3.79,0,0,0,4,3.8,4.94,4.94,0,0,0,3-1l.09.74h3.07l-.11-.7A16.54,16.54,0,0,1,76.91,20.91Zm-5.4.83a1.19,1.19,0,0,1-1.29-1.33,1.41,1.41,0,0,1,.42-1.07c.38-.37,1.22-.8,3.1-.84v1.33a1.69,1.69,0,0,1-.06.45A2.23,2.23,0,0,1,71.51,21.74Z"/><path class="cls-1" d="M85.82,11.83l-2.35,7c-.07.17-.12.35-.18.54-.06-.18-.11-.34-.18-.5l-2.56-7H77l4.43,11.11,0,0a1.75,1.75,0,0,1,.1.26,2.6,2.6,0,0,1-.1.25,5.9,5.9,0,0,1-1.53,2l0,0a4.87,4.87,0,0,1-1.56.88l-.57.18.83,2.77.54-.1a6.16,6.16,0,0,0,2.78-1.43c1.58-1.39,2.62-3.61,4-7.22l3.36-8.78Z"/><path class="cls-1" d="M15.39,12.06c2.1-2.13,5.63-3.41,9.47-3.41a16,16,0,0,1,4.34.58l.11,0,2.46-.75-1.11-.42a19.57,19.57,0,0,0-7-1.23,18,18,0,0,0-9.49,2.45l-.27.18,1,3Z"/></svg>