<svg viewBox="0 0 288 68" fill="#7b7b80" xmlns="http://www.w3.org/2000/svg">
<path d="M79.2339 0C64.0648 0 51.7646 12.3001 51.7646 27.4693V67.2997H63.9732V50.3145C68.3378 53.2446 73.5875 54.9538 79.2339 54.9538C94.4031 54.9538 106.703 42.6537 106.703 27.4845C106.703 12.3154 94.4031 0 79.2339 0ZM79.2339 42.73C70.81 42.73 63.9732 35.8932 63.9732 27.4693C63.9732 19.0454 70.81 12.2086 79.2339 12.2086C87.6578 12.2086 94.4946 19.0454 94.4946 27.4693C94.4946 35.8932 87.6578 42.73 79.2339 42.73Z"/>
<path d="M167.212 27.4693C167.212 12.3001 154.927 0 139.743 0C124.558 0 112.273 12.3001 112.273 27.4693C112.273 42.6384 124.574 54.9385 139.743 54.9385C145.389 54.9385 150.639 53.2293 155.003 50.2993V54.9385H167.197V27.6371C167.197 27.6371 167.197 27.5303 167.197 27.4693H167.212ZM139.743 42.73C131.319 42.73 124.482 35.8932 124.482 27.4693C124.482 19.0454 131.319 12.2086 139.743 12.2086C148.167 12.2086 155.003 19.0454 155.003 27.4693C155.003 35.8932 148.167 42.73 139.743 42.73Z"/>
<path d="M45.0954 46.1331L37.7245 38.7622C35.0081 41.2192 31.437 42.73 27.4845 42.73C19.0606 42.73 12.2238 35.8932 12.2238 27.4693C12.2238 19.0454 19.0606 12.2086 27.4845 12.2086C31.2997 12.2086 34.7639 13.6125 37.4498 15.9169L46.0873 7.27936C41.1734 2.77745 34.6571 0 27.4693 0C12.3001 0 0 12.3001 0 27.4693C0 42.6384 12.3001 54.9385 27.4693 54.9385C34.7486 54.9385 41.3412 52.0848 46.2552 47.4608L45.0954 46.1331Z"/>
<path d="M260.531 0C252.718 0 245.682 3.28105 240.692 8.51547L248.597 16.4205L249.284 17.1836C252.077 14.1467 256.075 12.2238 260.531 12.2238C268.955 12.2238 275.792 19.0606 275.792 27.4845C275.792 35.9084 268.955 42.7452 260.531 42.7452C255.953 42.7452 251.863 40.7156 249.07 37.5261C248.933 37.3735 248.796 37.2209 248.673 37.0683L239.044 27.4387L233.626 22.0212L230.376 18.7707L220.06 8.45443L219.297 7.6914L218.885 7.27936H218.869C213.971 2.79271 207.454 0.0152607 200.282 0.0152607C185.113 0.0152607 172.812 12.3154 172.812 27.4845C172.812 42.6537 185.113 54.9538 200.282 54.9538C207.561 54.9538 214.154 52.1 219.068 47.4761L217.908 46.1484L210.537 38.7775C207.821 41.2344 204.25 42.7452 200.297 42.7452C191.873 42.7452 185.036 35.9084 185.036 27.4845C185.036 19.0606 191.873 12.2238 200.297 12.2238C204.112 12.2238 207.576 13.6278 210.262 15.9322L211.88 17.5498L221.754 27.4235L227.232 32.9021L230.422 36.0916L240.28 45.95L240.494 46.1636C245.514 51.5659 252.641 54.9691 260.577 54.9691C275.746 54.9691 288.046 42.6689 288.046 27.4998C288.046 12.3307 275.7 0 260.531 0Z"/>
</svg>
