<svg id="Слой_1" data-name="Слой 1" xmlns="http://www.w3.org/2000/svg" viewBox="0 0 98 30"><defs><style>.cls-1{fill:#9698a1;}</style></defs><title>ecoPayz logo</title><path id="_Compound_Path_" data-name="&lt;Compound Path&gt;" class="cls-1" d="M18.53,4.91C9.61,4.91,2.4,9.13,2.4,14.38c0,2.22,1.3,4.26,3.52,5.9a7,7,0,0,1-1.71-4.45C4.21,10.41,11.28,6,20,6c5.62,0,10.55,1.82,13.34,4.59C30.82,7.24,25.13,4.91,18.53,4.91Z"/><path id="_Compound_Path_2" data-name="&lt;Compound Path&gt;" class="cls-1" d="M17.11,17.05a2.72,2.72,0,0,0,1.59-.41,1.5,1.5,0,0,0,.69-1.33,4.82,4.82,0,0,0-1.05-3,6.54,6.54,0,0,0-5.28-2.55,6.36,6.36,0,0,0-4.7,1.85,6.15,6.15,0,0,0-1.83,4.47,5.84,5.84,0,0,0,1.92,4.44,6.75,6.75,0,0,0,4.8,1.8,10,10,0,0,0,2.95-.43,4.82,4.82,0,0,0,2.45-1.46,1.64,1.64,0,0,0,.43-1.05c0-.92-.51-1.38-1.54-1.38a7.24,7.24,0,0,0-1.72.58,6.34,6.34,0,0,1-2.38.58,3.45,3.45,0,0,1-2-.55,2.06,2.06,0,0,1-.94-1.57Zm-5.76-3.82a2.6,2.6,0,0,1,1.73-.58,2.59,2.59,0,0,1,1.72.59,2.1,2.1,0,0,1,.78,1.5H10.46A2.6,2.6,0,0,1,11.35,13.23Z"/><path id="_Compound_Path_3" data-name="&lt;Compound Path&gt;" class="cls-1" d="M21.55,20.5a6.27,6.27,0,0,0,4.7,1.81,7.18,7.18,0,0,0,2.93-.52c1.09-.5,1.63-1.1,1.63-1.81a1.53,1.53,0,0,0-.42-1.08,1.42,1.42,0,0,0-1.09-.45,3.52,3.52,0,0,0-1.15.26,4.13,4.13,0,0,1-1.51.26,2.72,2.72,0,0,1-2.16-.87A3.09,3.09,0,0,1,23.81,16a3.3,3.3,0,0,1,.64-2.08,2.44,2.44,0,0,1,2-.91,4.43,4.43,0,0,1,1.55.27,3.67,3.67,0,0,0,1.19.27,1.59,1.59,0,0,0,1.15-.43,1.41,1.41,0,0,0,.46-1.07q0-1.23-1.59-1.83a7.69,7.69,0,0,0-2.76-.44,6.64,6.64,0,0,0-4.84,1.76,6,6,0,0,0-1.83,4.52,6,6,0,0,0,1.73,4.43Z"/><path id="_Compound_Path_4" data-name="&lt;Compound Path&gt;" class="cls-1" d="M32.73,20.52a6.5,6.5,0,0,0,4.78,1.86,6.49,6.49,0,0,0,4.78-1.84,6.09,6.09,0,0,0,1.77-4.47,6.13,6.13,0,0,0-1.8-4.51,6.38,6.38,0,0,0-4.75-1.81,6.41,6.41,0,0,0-4.74,1.82,6.09,6.09,0,0,0-1.84,4.5,6,6,0,0,0,1.8,4.45ZM35.54,14a2.33,2.33,0,0,1,2-.94,2.25,2.25,0,0,1,1.94,1,3.25,3.25,0,0,1,.63,2,3.3,3.3,0,0,1-.6,2,2.3,2.3,0,0,1-2,1,2.25,2.25,0,0,1-1.94-1,3.25,3.25,0,0,1-.63-2,3.37,3.37,0,0,1,.6-2Z"/><path id="_Compound_Path_5" data-name="&lt;Compound Path&gt;" class="cls-1" d="M49.51,9.44h1.73Q54,9.44,54,11.51c0,1.41-.91,2.12-2.73,2.12H49.51Zm0,10.2V16.92H52.2a6.61,6.61,0,0,0,4.46-1.41,5,5,0,0,0,1.63-4,4.87,4.87,0,0,0-1.8-4A7.1,7.1,0,0,0,51.88,6.1h-3.6a3.14,3.14,0,0,0-2.16.57,2.66,2.66,0,0,0-.59,2v11c0,1.72.66,2.57,2,2.57s2-.85,2-2.56Z"/><path id="_Compound_Path_6" data-name="&lt;Compound Path&gt;" class="cls-1" d="M63.14,14.09a2.25,2.25,0,0,1,1.89-.9,2.2,2.2,0,0,1,1.88.9A3.15,3.15,0,0,1,67.49,16a3.25,3.25,0,0,1-.58,2,2.19,2.19,0,0,1-1.88.92A2.27,2.27,0,0,1,63.12,18a3.19,3.19,0,0,1-.6-2,3.11,3.11,0,0,1,.62-1.94ZM69.5,22.2q1.92,0,1.92-2.58v-7.1c0-1.7-.64-2.56-1.92-2.56a2,2,0,0,0-1.84,1.12,4.06,4.06,0,0,0-3.12-1.27,5.64,5.64,0,0,0-4.4,2,6.32,6.32,0,0,0-1.63,4.3,6.33,6.33,0,0,0,1.56,4.26,5.48,5.48,0,0,0,4.32,2A4.17,4.17,0,0,0,67.66,21,1.91,1.91,0,0,0,69.5,22.2Z"/><path id="_Compound_Path_7" data-name="&lt;Compound Path&gt;" class="cls-1" d="M80.42,11.36,78.05,17l-2.21-5.32a4.09,4.09,0,0,0-.65-1.2A1.73,1.73,0,0,0,73.87,10a1.89,1.89,0,0,0-1.35.51A1.61,1.61,0,0,0,72,11.71a2.33,2.33,0,0,0,.21,1L76.1,21l-1.6,3.16a2.91,2.91,0,0,0-.32,1.19,1.56,1.56,0,0,0,.53,1.24,2.08,2.08,0,0,0,1.39.46c.69,0,1.26-.48,1.71-1.42l5.92-12.76a3,3,0,0,0,.32-1.23q0-1.68-1.92-1.68c-.74,0-1.31.47-1.71,1.4Z"/><path id="_Compound_Path_8" data-name="&lt;Compound Path&gt;" class="cls-1" d="M93.58,18.76H89.75l5.15-6a2.61,2.61,0,0,0,.79-1.55.83.83,0,0,0-.6-.89,7,7,0,0,0-1.85-.18H87c-1.64,0-2.47.53-2.47,1.59s.82,1.61,2.45,1.61h3.34L85,19.58a2.11,2.11,0,0,0-.58,1.36c0,.72.68,1.09,2,1.09h7.08c1.63,0,2.45-.54,2.45-1.62s-.81-1.65-2.42-1.65Z"/></svg>