<svg id="Layer_1" data-name="Layer 1" xmlns="http://www.w3.org/2000/svg" viewBox="0 0 1926.87 475.34"><defs><style>.cls-1{fill:#9698a1;}</style></defs><g id="euteller"><path class="cls-1" d="M251.85,1c98.6-9.83,195.09,50.84,234,141,24.54,55.54,26.42,120.33,5.48,177.27A237.14,237.14,0,0,1,250.22,474.6c17.34-3.65,34.16-5.88,51.28-11.2,50.79-16.11,95.22-50.09,124.63-94.43,32.18-48,45.92-107.64,37.54-164.8-7.38-52.81-33.46-102.42-72.31-138.86-37.18-35.56-85-56.89-135.87-63.52l-1-.18Z" transform="translate(0 0)"/><path class="cls-1" d="M204.21,17.2C242.71,14,279,23.26,314.27,37.74A780.09,780.09,0,0,1,157.77,219c-43.2,36.43-90.66,68.22-142.55,90.87-7.5-28-17.51-59-14.75-88.11C6.05,187,13,154.08,31.51,123.61,67,62.24,133.58,21.72,204.21,17.2Z" transform="translate(0 0)"/><path class="cls-1" d="M319,40.86c41.75,19.76,75.73,57,96.1,98-9,11-21.21,20-32.27,28.93C284,245.35,171,302.68,46.52,324.06A760.36,760.36,0,0,0,293,82.21C302.07,68.69,309.49,54.08,319,40.86Z" transform="translate(0 0)"/><path class="cls-1" d="M416.43,141.7a226.26,226.26,0,0,1,18.22,123.4c-.13,7.25-9,8.52-14.1,11.81-78.09,35.12-161.86,59-247,68.4-41.88,4.08-82.89,6.85-124.86,1.89,87.23-19.8,170.73-56.72,245.28-106C337.41,212,380.3,179.63,416.43,141.7Z" transform="translate(0 0)"/><path class="cls-1" d="M1448.44,79.54c2.59,17.82,1.19,295.62.09,302.12-10.14,1.27-24.63,3.65-33.8-1.54-1.67-13.08-1.76-284.65,0-299.22C1424.56,76.29,1438,78.09,1448.44,79.54ZM678.38,79.1c27.44.22,55.27-.09,82.54,3.33.22,10.06.17,20.11,0,30.16-29,.53-58-.13-87.05.27-11.2.39-25.07,1-34.38,8.07-9.22,7.2-9.66,19.8-10.23,30.52-.31,19.75.13,39.51-.09,59.26,43.55.4,87.15-.44,130.7.49.79,9.74,2.67,20.8-.57,30.11-42.94,3.43-86.93.48-130.08,1.45.17,23.75-.26,47.5,0,71.21.53,10.53,1.06,23.09,10.14,30.16,9.35,7,23.14,7.81,34.42,8.08,29,.26,58.13-.44,87.14.39.14,10.23.14,20.41-.17,30.64-27.26,3.25-55.05,2.59-82.49,2.9-22.43-.18-48.91-3.25-66.11-19.18-16.38-14.8-19.94-36.22-20.24-57.29q-.07-76.92,0-153.92c.26-21.25,3.73-42.36,20.06-57.47C629.48,82.26,655.69,79.19,678.38,79.1ZM1514,78.48c10.8.09,23.36-1.58,33.63,2.11,1.71,14.71.57,292.2-.4,301.86-11.24.44-22.39.48-33.58,0C1509.29,310.06,1510.56,107.11,1514,78.48ZM1100.4,109.26c.48,16.81.35,33.63.31,50.44,16.28.53,34.46-2.15,50.17,2.59,1.28,7.77,3.08,19.1-1,26.12-15.06,4.17-33.37,1.23-49.08,1.93-.18,47.06,0,94.17-.13,141.28.57,8.34-.58,17.42,7.15,22.82,13.26,4.88,30.91-.79,43.51,4.39,3.11,6.54,1.71,15.9,2.59,23.14-21.34,4.57-47.59,7.2-68.18-1.36-19.27-9.05-20.59-30.38-21.38-49-.26-47.06,0-94.17-.05-141.18-15.4-1.58-30.77-3.16-46-5.89-.13-7.68-.13-15.4,0-23.09,15.54-1.8,31.08-1.89,46.71-2-.79-15.19-1.1-30.33.88-45.43A172.86,172.86,0,0,1,1100.4,109.26Zm-254.18,52.9c.35,47.72-.09,95.44.17,143.11.44,16.51,3,37,19.76,45.05,26,11.23,54.26-.09,78.36-10.8.66-58.35-1-117.09.79-175.3,8.25-7.37,24.45-5.31,34.11-1.84,1.1,6.45,1.1,13.25,1.14,19.8q-.33,90,0,180.08c-.13,6.67-.18,13.08-1.49,19.66-10.89,1.76-22.74.79-33.72,0-.31-4.65-.57-9.3-.88-14-20.15,10.8-40.87,18.75-64.14,18.22-22.91,0-45.08-7.77-57.29-28.23-16.68-27.65-11.63-61.5-12.42-92.32.83-34.29-1.62-69.19,1.19-103.3C823.61,157.33,834.14,160.49,846.22,162.16Zm1014.54-.35c.08,4.61.13,9.22.22,13.83,20.54-12.6,41.13-20.46,65.76-17.74.13,9.39.44,19.27-.75,28.58-23,3-43.19,6.14-63.52,18.17-.18,54,0,108.13,0,162.13-.58,5.22.87,12.25-4.39,15.41-9.36.92-22.44,2.76-30.82-2.07-1.19-10.22-1.23-155.62-.44-217.83C1838.28,158.82,1849.12,159.66,1860.76,161.81ZM1360.77,281c3.91-31.43,1.8-72.65-20.76-97.41-22.44-25.68-59.44-29.9-91.23-23.93a77.31,77.31,0,0,0-56.54,44.91c-12,25.64-7.73,55.32-8.56,83.06-.4,24.76,3.16,48.47,18.79,68.49,15.67,19.8,39.55,28.31,64.14,29.76a315.43,315.43,0,0,0,88.85-9c0-8.87,0-17.73-.09-26.56-29.28.88-59.75,5.89-88.94,3.78-14-1.19-27-6-35.65-17.65-11.45-15.76-11-35.08-11.89-53.69,40.78,0,81.61-.09,122.39.13C1348,282.71,1354.28,282.93,1360.77,281Zm-142.28-25.37c1.58-19,2-38.06,16.07-52.77,16.42-16.73,47.46-17.69,67.52-7.64,22.26,12.51,22.74,38.06,24.1,60.63C1290.27,255.75,1254.4,256.06,1218.49,255.58Zm558.77,26.78c2.76-32.4,2.85-69.23-18.44-96s-56.24-32.18-88.42-27.7c-25.59,3.64-48.55,18.57-59.92,42-13.3,26.21-10.89,54.09-11.11,82.49,0,25.77,3.16,52.46,19.76,73.27,15.93,19.8,39.77,28.06,64.53,29.42,29.06,1.14,58.61-2.11,87-8.39q1-13.5,1.71-27c-29.15.39-59.79,5.7-88.81,3.64-14.09-1.14-27.3-5.53-36.08-17.21-11.77-16-11.46-35.29-11.77-54.17C1682.92,282.53,1730.11,283.15,1777.26,282.36Zm-142.15-26.78c1.53-20.81,1.75-40.21,18.35-55.32,17.16-14,45.65-14.79,65-5.18,22.26,12.78,22.48,38,24.24,60.63C1706.84,255.8,1671,256,1635.11,255.58Z" transform="translate(0 0)"/><path class="cls-1" d="M434,273.14c-11.81,59.48-47.37,113-98.87,145.27-46.27,29.45-103.43,40.56-157.3,30-51.18-9.74-95.87-38.72-129.5-78C175,372.53,302.37,341.1,414.8,283,421.17,279.68,427.54,276.43,434,273.14Z" transform="translate(0 0)"/></g></svg>