<svg id="a0abacb3-22f9-4c3c-ae91-b17b65332987" data-name="Layer 1" xmlns="http://www.w3.org/2000/svg" viewBox="0 0 249.41582 45"><defs><style>.be7db137-e387-4a74-98cf-7bed0e63aac2{fill:#7b7b7b;isolation:isolate;}</style></defs><path class="be7db137-e387-4a74-98cf-7bed0e63aac2" d="M81.21653,3.68576l-12.73046,40.142H60.85066L48.12018,3.68576h7.4411l8.12476,28.918,1.07946,4.11653h.144l1.07946-4.11653,8.22549-28.918Z"/><path class="be7db137-e387-4a74-98cf-7bed0e63aac2" d="M94.9689,44.59917c-9.10347,0-13.21983-4.8249-13.21983-16.76521S85.86543,11.02152,94.9689,11.02152s13.06871,4.92724,13.06871,16.81244S104.12275,44.59917,94.9689,44.59917Zm0-5.73008c4.85038,0,6.65669-2.57381,6.65669-11.01938S99.81928,16.83032,94.9689,16.83032s-6.75744,2.56594-6.75744,11.01939S90.1257,38.86909,94.9689,38.86909Z"/><path class="be7db137-e387-4a74-98cf-7bed0e63aac2" d="M137.16872,32.81629c0,7.54827-3.92206,11.61757-11.99645,11.61757S113.2262,40.20715,113.2262,32.81629V11.6512h6.21772v21.047c0,3.6915,1.86388,5.61989,5.75714,5.61989s5.75714-1.87328,5.75714-5.61989V11.6512h6.21773Z"/><path class="be7db137-e387-4a74-98cf-7bed0e63aac2" d="M162.17628,18.56979a13.46657,13.46657,0,0,0-5.43328-1.22787c-5.92267,0-7.9808,2.88864-7.9808,10.33461,0,7.871,2.79221,10.86984,7.83692,10.86984a11.39218,11.39218,0,0,0,5.75714-1.50336l.439,5.46247a13.16867,13.16867,0,0,1-7.54186,2.03858c-8.51336,0-12.95356-5.36014-12.95356-16.86754,0-10.75962,3.97242-16.52908,13.12626-16.52908a18.54442,18.54442,0,0,1,7.146,1.44825Z"/><path class="be7db137-e387-4a74-98cf-7bed0e63aac2" d="M186.018,43.84355V22.9618c0-3.74656-1.76313-5.73008-5.58443-5.73008a6.88539,6.88539,0,0,0-5.87229,2.99884v23.613h-6.21771V1.92262l6.21773-.37781V9.79364l-.09356,4.28182.14395.11019a10.62753,10.62753,0,0,1,7.78653-3.14839c6.26089,0,9.88787,4.33691,9.88787,11.94029v20.866Z"/><path class="be7db137-e387-4a74-98cf-7bed0e63aac2" d="M197.42437,27.1413c0-10.23229,4.10915-16.06469,12.6297-16.06469,7.2396,0,11.89569,4.65962,11.89569,14.95488q.0002,1.63638-.15112,3.26646H203.88676c.28785,6.74544,2.87857,9.09886,8.51336,9.09886a18.00847,18.00847,0,0,0,7.91607-1.7631l.71964,5.61989a19.96371,19.96371,0,0,1-9.39852,2.196C201.72782,44.43387,197.42437,38.70379,197.42437,27.1413Zm18.797-2.46362c-.10076-5.675-2.44679-7.81589-6.117-7.81589-4.26029,0-6.07378,2.3613-6.36883,7.81589Z"/><path class="be7db137-e387-4a74-98cf-7bed0e63aac2" d="M227.42625,43.84355V11.82436l4.99431-.32272.53973,6.05279h.144c1.8135-4.17162,4.85039-6.42272,8.47018-6.42272a9.79912,9.79912,0,0,1,3.08727.425l-.39578,6.91073a9.58713,9.58713,0,0,0-3.08006-.53523c-4.26031,0-7.54186,3.6364-7.54186,9.68919V43.84355Z"/><path class="be7db137-e387-4a74-98cf-7bed0e63aac2" d="M29.67576,15.44505c-3.24559,0-4.62012,1.79459-4.84317,5.95042h9.49924C34.25266,17.0743,32.468,15.44505,29.67576,15.44505Z"/><path class="be7db137-e387-4a74-98cf-7bed0e63aac2" d="M52.1502,41.7027,40.48477,4.709a1.50511,1.50511,0,0,0-1.39608-1.08618H7.86337a1.41967,1.41967,0,0,0-.4821.08658l-.00333.00122a1.655,1.655,0,0,0-.91065,2.053L18.13272,42.75736a1.50529,1.50529,0,0,0,1.39608,1.08618H50.77566a1.329,1.329,0,0,0,.54694-.10227l.00516-.00218A1.624,1.624,0,0,0,52.1502,41.7027ZM38.57771,24.89808H24.90456c.223,5.13973,2.15892,6.92644,6.47677,6.92644a13.767,13.767,0,0,0,6.03061-1.34592l.56134,4.28182A15.28112,15.28112,0,0,1,30.82,36.42908c-7.52028,0-10.79461-4.36052-10.79461-13.16032,0-7.77648,3.13039-12.22365,9.60723-12.22365,5.51242,0,9.05308,3.54984,9.05308,11.37362A18.64423,18.64423,0,0,1,38.57771,24.89808Z"/></svg>