<?xml version="1.0" encoding="UTF-8"?>
<svg enable-background="new 0 0 347.2 153.5" version="1.1" viewBox="0 0 347.2 153.5" xml:space="preserve" xmlns="http://www.w3.org/2000/svg">
<style type="text/css">
	.st0{fill:none;}
	.st1{fill:#FFFFFF;}
	.st2{fill:#BBBBBE;}
</style>

	<path class="st0" d="m158.3 70.7c-1.4-2.9-3.9-4.3-7-4.3s-5.5 1.4-6.8 4.3c-1.8 3.9-1.8 7.9-0.1 11.8 1.3 3 3.8 4.4 7 4.4s5.6-1.4 7-4.4c0.9-1.9 1.2-3.9 1.1-5.9 0.1-2.1-0.3-4.1-1.2-5.9z"/>
	<path class="st0" d="m52.3 67.2c-2.7 0.2-5 2.1-5.9 5.1-0.4 1.2-0.7 2.5-0.6 3.8-0.1 1.5 0.2 2.9 0.7 4.2 1 2.7 2.8 4.5 5.7 4.8 2.8 0.4 5.2-0.7 6.9-3 2.4-3.4 2.7-7.2 0.8-10.9-1.7-3.1-4.4-4.1-7.6-4z"/>
	<path class="st0" d="m178.3 14.9h-145.6c-1 0-2 0.1-3.1 0.1-7.8 0.5-14.6 7.6-14.6 15.7v91.8c0 3.6 1.2 6.9 3.4 9.7 3.5 4.4 8.2 6.3 13.8 6.3h72.9 73.1c3.1 0 2.7 0.4 2.7-2.6v-118.6c0-2.7 0.4-2.4-2.6-2.4zm-105.1 74.7c0 2.8-0.1 5.7-0.8 8.5-1.6 6.6-6.1 10.3-12.6 11.5-7 1.3-14.1 1.1-21-1-1.1-0.3-1.5-0.7-1.5-1.9 0.1-2.8 0.3-5.5 0.6-8.2 0.6-0.2 0.9 0.2 1.3 0.3 4.2 2.1 8.6 2.6 13.2 2.2 5.1-0.4 8.2-3.4 8.8-8.1 0.1-1.3 0.3-2.5 0.2-3.8-0.7 0.1-1 0.7-1.4 1.1-6 7.1-19.7 6.4-24.8-3.2-1.9-3.6-2.6-7.4-2.5-11.4s0.8-7.8 3-11.3c2.8-4.4 7-6.4 12.1-6.7 5.5-0.4 9.8 1.8 13 6.2 0.2 0.2 0.2 0.6 0.9 0.6v-4.7c0-0.9 0.2-1.3 1.2-1.3h9.2c0.7 0 1.1 0.2 1.1 1v1.1 29.1zm8.6-45.4c0-0.8 0.3-1 1.1-1h10.7c0.7 0 0.9 0.3 0.9 0.9v7.4c0 0.9-0.5 0.9-1.1 0.9h-5.3-5.3c-0.7 0-1.1-0.3-1.1-1 0.1-2.4 0.1-4.8 0.1-7.2zm11.7 50.7h-10.5c-0.8 0-1.2-0.2-1.2-1.1 0.1-1.7 0-3.4 0-5v-12-16.6c0-1.5 0-1.6 1.6-1.6h9.4c1.7 0 1.7-0.1 1.7 1.7v30.2 3.5c0 0.6-0.2 0.9-1 0.9zm35.6-26.5c-1.7-0.4-3.3-0.4-4.8-0.3-3.7 0.1-6.2 1.8-7.7 5.1-0.8 1.9-1.2 3.9-1.1 6v14c0 1.8 0.1 1.6-1.7 1.6h-9.6c-1 0-1.4-0.2-1.4-1.3v-33.7c0-1 0.2-1.5 1.3-1.4 3 0.1 6 0.1 9 0 0.9 0 1.3 0.3 1.3 1.2-0.1 1.7 0 3.3 0 5.5 0.9-1.3 1.4-2.2 2-3 3-4.4 7.8-5.2 12.4-4.2 0.6 0.1 0.9 0.4 0.8 1-0.1 3.1-0.6 6.2-0.5 9.5zm43.3 11.1c-1.3 9.8-9 14.7-16.8 15.8-5.5 0.8-10.8 0.2-15.8-2.2-7.7-3.8-10.5-11.7-9.6-18.9 1.2-10.3 9.1-15.2 16.6-16.2 1.5-0.2 3-0.4 4.6-0.4 4 0 7.8 0.8 11.4 2.6 7.7 3.8 10.7 11.8 9.6 19.3z"/>
	<path class="st1" d="m261.2 72c-3.1-0.4-6.1-0.4-9.2 0-3.5 0.4-6.9 1.2-9.8 3.4-5 3.7-5.7 11.8-1.4 16.3 2.2 2.3 5.1 3.4 8.2 3.8 5.3 0.8 9.8-0.5 13.2-4.9 0.3-0.4 0.4-1.1 1.4-1.2v4.4c0 0.7 0.2 1.1 1 1.1h10.7c-0.9-4.5-0.7-8.8-0.7-13.2v-9.9c-0.1-6.6-3.9-11.5-10.2-13.3-3.8-1.1-7.7-1.1-11.5-0.7-3 0.3-6 0.9-8.9 1.9-0.9 0.3-1.4 0.7-1.3 1.7 0.2 2.3 0.2 4.7 0.4 7.3 2.9-1.7 5.9-2.2 8.8-2.6 2.3-0.3 4.5-0.2 6.7 0.4 2 0.5 3.5 1.8 4.1 3.9 0.3 1.4 0 1.8-1.5 1.6zm-4.9 15.2c-1.4 0.3-2.6 0.1-3.9-0.3-1.4-0.5-2.4-1.4-2.5-3-0.2-1.8 0.3-3.2 1.9-4.1 1.1-0.6 2.2-1.1 3.5-1.1h7.4c0 4.4-2.5 7.5-6.4 8.5z"/>
	<path class="st1" d="m309.1 58.4c-1.2 0-1.7 0.4-2.1 1.6-2.1 6.9-4.3 13.7-6.5 20.5-0.2 0.5-0.3 1-0.8 1.4-0.8-2.4-1.6-4.8-2.4-7.1-1.6-5-3.3-9.9-4.9-14.9-0.4-1.2-0.9-1.6-2.2-1.5-1.7 0.1-3.5 0-5.3 0h-6.7c1.2 3 2.2 5.8 3.3 8.5 3.6 9 7.2 18.1 10.8 27.1 0.3 0.8 0.8 1.6 0.4 2.5-1 2.3-2.6 3.9-5.2 4-1.6 0.1-3.2 0.1-4.8-0.4-0.7-0.2-1.2-0.1-1.2 0.7-0.2 2.5-0.3 5.1-0.6 7.6-0.1 0.9 0.3 1.1 1.1 1.2 2.2 0.5 4.5 0.5 6.8 0.6 6.3 0.1 10.7-3 13.6-8.3 0.7-1.3 1.4-2.7 1.9-4.1 4.7-11.8 9.4-23.6 14-35.4 0.5-1.3 1.2-2.5 1.4-4-3.5 0-7.1 0.1-10.6 0z"/>
	<path class="st1" d="m203.3 60.2c0-1.7 0-1.7-1.6-1.7h-8.3c-1.9 0-1.7-0.1-1.7 1.8v24.1 23.7c0 1.6 0 1.6 1.5 1.6h9.7c1.1 0 1.7-0.2 1.5-1.5-0.1-0.5 0-1 0-1.5v-16.4c1.9 2.4 4.1 3.9 6.9 4.8 7 2.1 15.2-0.3 19-8 2.3-4.6 2.9-9.5 2.1-14.5-0.7-4.6-2.6-8.6-6.2-11.7-6.8-5.8-18.4-3.3-22.1 3-0.1 0.2-0.2 0.6-0.7 0.4-0.1-1.4-0.1-2.8-0.1-4.1zm2 11.4c1.4-3 4-4.6 7.2-4.3 3.2 0.2 5.2 2 6.3 4.9 1.2 3.3 1.1 6.6-0.4 9.7-2.3 4.8-8 5.6-11.6 1.8-1.9-2-2.6-4.5-2.5-7.3-0.2-1.7 0.3-3.3 1-4.8z"/>
	<path class="st2" d="m341.7 26.5c-0.4-2.4-0.9-4.8-1.9-7-1.7-6.8-9-11.1-14.8-13.6-6.2-2.7-13.1-1.7-19.8-1.7h-24.2-48.4-96.8s-64.5 0-96.8 0c-9.4 0-19.8 0.3-26.7 6.7-8 7.2-8.5 19.3-8.4 30l0.3 74.1c0 10.6 0.8 22.6 9.1 29.2 6.2 4.9 14.7 5.1 22.6 5.1 90.4 0 180.8 0 271.2 0.1 10.6 0 22.8-0.7 29.5-8.9 5.1-6.3 5.4-15.1 5.4-23.2 0.1-26.3 0.1-52.7 0.2-79 0.1-4.1 0.1-8-0.5-11.8zm-137.7 37.3c3.6-6.3 15.3-8.8 22.1-3 3.6 3.1 5.6 7.1 6.2 11.7 0.7 5 0.2 9.9-2.1 14.5-3.8 7.7-12 10.1-19 8-2.7-0.8-5-2.4-6.9-4.8v16.4c0 0.5-0.1 1 0 1.5 0.2 1.2-0.5 1.5-1.5 1.5h-9.7c-1.5 0-1.5 0-1.5-1.6v-23.7-24.1c0-1.9-0.2-1.8 1.7-1.8h8.3c1.6 0 1.6 0 1.6 1.7v4.1c0.6 0.2 0.7-0.1 0.8-0.4zm58.6 6.5c-0.6-2-2.1-3.3-4.1-3.9-2.2-0.6-4.5-0.7-6.7-0.4-3 0.4-5.9 0.9-8.8 2.6-0.1-2.7-0.2-5-0.4-7.3-0.1-1 0.4-1.4 1.3-1.7 2.9-1.1 5.9-1.7 8.9-1.9 3.9-0.4 7.7-0.3 11.5 0.7 6.4 1.8 10.2 6.7 10.2 13.3v9.9c0 4.4-0.2 8.7 0.7 13.2h-10.7c-0.8 0-1-0.4-1-1.1v-4.4c-0.9 0.1-1 0.8-1.4 1.2-3.4 4.4-8 5.7-13.2 4.9-3.1-0.4-5.9-1.5-8.2-3.8-4.3-4.5-3.6-12.6 1.4-16.3 2.9-2.1 6.3-3 9.8-3.4 3.1-0.4 6.1-0.4 9.2 0 1.6 0.3 1.9-0.1 1.5-1.6zm55.9-7.8c-4.7 11.8-9.3 23.6-14 35.4-0.6 1.4-1.2 2.8-1.9 4.1-2.9 5.4-7.3 8.4-13.6 8.3-2.3 0-4.5-0.1-6.8-0.6-0.8-0.2-1.2-0.3-1.1-1.2 0.2-2.5 0.4-5.1 0.6-7.6 0.1-0.8 0.6-0.9 1.2-0.7 1.6 0.5 3.2 0.5 4.8 0.4 2.6-0.2 4.2-1.8 5.2-4 0.4-0.9 0-1.7-0.4-2.5-3.6-9-7.2-18.1-10.8-27.1-1.1-2.8-2.2-5.5-3.3-8.5h6.7c1.8 0 3.5 0.1 5.3 0 1.2-0.1 1.8 0.3 2.2 1.5 1.6 5 3.2 9.9 4.9 14.9 0.8 2.3 1.6 4.7 2.4 7.1 0.5-0.4 0.6-0.9 0.8-1.4 2.2-6.8 4.4-13.7 6.5-20.5 0.4-1.2 0.9-1.6 2.1-1.6 3.6 0.1 7.1 0 10.8 0-0.4 1.5-1.1 2.7-1.6 4zm-140.3 76.1h-73.1-72.9c-5.6 0-10.3-1.9-13.8-6.3-2.2-2.8-3.4-6.1-3.4-9.7v-91.8c0-8.1 6.8-15.2 14.7-15.7 1-0.1 2-0.1 3.1-0.1h145.6c3 0 2.6-0.2 2.6 2.5v118.6c-0.1 2.9 0.3 2.5-2.8 2.5z"/>
	<path class="st2" d="m73.2 59.4c0.1-0.8-0.3-1-1.1-1h-9.2c-1 0-1.2 0.4-1.2 1.3 0.1 1.6 0 3.1 0 4.7-0.6 0-0.7-0.4-0.9-0.6-3.2-4.4-7.5-6.6-13-6.2-5.1 0.3-9.3 2.3-12.1 6.7-2.2 3.4-2.9 7.3-3 11.3s0.5 7.8 2.5 11.4c5.1 9.5 18.8 10.2 24.8 3.1 0.4-0.4 0.6-1 1.4-1.1 0.2 1.3 0 2.6-0.2 3.8-0.5 4.7-3.7 7.7-8.8 8.1-4.6 0.4-9-0.1-13.2-2.2-0.4-0.2-0.7-0.5-1.3-0.3-0.3 2.7-0.5 5.5-0.6 8.2 0 1.2 0.4 1.6 1.5 1.9 6.9 2.1 14 2.3 21 1 6.5-1.2 11-4.9 12.6-11.5 0.7-2.8 0.8-5.6 0.8-8.5v-29.1-1zm-14.2 22.7c-1.6 2.3-4 3.4-6.9 3s-4.7-2.2-5.7-4.8c-0.5-1.3-0.8-2.7-0.7-4.2-0.1-1.2 0.2-2.5 0.6-3.8 0.9-3 3.2-4.9 5.9-5.1 3.2-0.2 6 0.9 7.5 3.9 2 3.8 1.7 7.5-0.7 11z"/>
	<path class="st2" d="m162.8 60.1c-3.6-1.8-7.4-2.6-11.4-2.6-1.5 0-3.1 0.1-4.6 0.4-7.5 1.1-15.4 5.9-16.6 16.2-0.9 7.3 2 15.2 9.6 18.9 5 2.5 10.3 3 15.8 2.2 7.8-1.1 15.4-6.1 16.8-15.8 1.1-7.4-1.9-15.4-9.6-19.3zm-4.4 22.4c-1.4 2.9-3.8 4.4-7 4.4s-5.7-1.4-7-4.4c-1.7-3.9-1.7-7.9 0.1-11.8 1.3-2.9 3.7-4.2 6.8-4.3 3.2 0 5.6 1.3 7 4.3 0.9 1.9 1.3 3.9 1.2 5.9 0.1 2.1-0.2 4-1.1 5.9z"/>
	<path class="st2" d="m128.8 57.9c-4.6-0.9-9.5-0.1-12.4 4.2-0.6 0.8-1.1 1.7-2 3v-5.5c0-1-0.3-1.2-1.3-1.2-3 0-6 0.1-9 0-1.1 0-1.3 0.4-1.3 1.4v33.7c0 1.1 0.4 1.3 1.4 1.3 3.2-0.1 6.4 0 9.6 0 1.8 0 1.7 0.1 1.7-1.6v-14c0-2.1 0.3-4.1 1.1-6 1.5-3.3 4-5.1 7.7-5.1 1.5 0 3-0.1 4.8 0.3-0.1-3.3 0.4-6.4 0.5-9.5 0-0.6-0.2-0.9-0.8-1z"/>
	<path class="st2" d="m94.5 90.3v-30.2c0-1.8 0.1-1.7-1.7-1.7h-9.4c-1.5 0-1.6 0-1.6 1.6v16.6 12 5c0 0.9 0.3 1.1 1.2 1.1h10.5c0.8 0 1-0.3 1-1v-3.4z"/>
	<path class="st2" d="m82.8 52.4h5.3 5.3c0.6 0 1.1 0 1.1-0.9v-7.4c0-0.6-0.2-0.9-0.9-0.9h-10.7c-0.7 0-1.1 0.3-1.1 1v7.2c0 0.8 0.3 1 1 1z"/>
	<path class="st2" d="m206.8 83.7c3.6 3.9 9.3 3 11.6-1.8 1.5-3.2 1.7-6.4 0.4-9.7-1.1-2.9-3.2-4.7-6.3-4.9-3.2-0.2-5.8 1.4-7.2 4.3-0.7 1.5-1.1 3.1-1 4.7-0.2 2.9 0.6 5.3 2.5 7.4z"/>
	<path class="st2" d="m255.3 78.6c-1.3 0-2.4 0.5-3.5 1.1-1.6 0.9-2.1 2.4-1.9 4.1 0.2 1.6 1.2 2.5 2.5 3 1.2 0.4 2.5 0.7 3.9 0.3 3.9-0.9 6.3-4 6.3-8.6-2.5 0.1-4.9 0.1-7.3 0.1z"/>

</svg>
