<svg id="Layer_1" data-name="Layer 1" xmlns="http://www.w3.org/2000/svg" viewBox="0 0 103.56 101.94"><defs><style>.cls-1{fill:#bbbbbe;}.cls-1,.cls-2{fill-rule:evenodd;}.cls-2{fill:#2d2926;}</style></defs><path class="cls-1" d="M92.37,79.11A12.44,12.44,0,0,1,79.92,91.56H24.73A12.36,12.36,0,0,1,12.37,79.21V23.47A11.92,11.92,0,0,1,24.29,11.56H80.46A11.91,11.91,0,0,1,92.37,23.47Z"/><path class="cls-2" d="M16.21,76.25a1.63,1.63,0,0,0,2,1.21l2.47-.6V73.5l-3.23.78A1.63,1.63,0,0,0,16.21,76.25ZM17.42,70a1.63,1.63,0,0,0,.76,3.18l2.47-.6V69.17Zm0-4.33a1.63,1.63,0,0,0,.76,3.18l2.47-.59V64.85Zm14.37,2.64-4.95-3.38v8.28a.46.46,0,1,1-.92,0c0-.09,0-9,0-10.14a2.13,2.13,0,1,0-4.25,0V80.69a5.76,5.76,0,0,0,5.76,5.75h.37a5.65,5.65,0,0,0,5.65-5.66V71.46A4.18,4.18,0,0,0,31.79,68.26Zm57.48-26c-.2,2.94-1.57,5.63-5.5,6.52-3.37.75-5.56-1-6.23-4.53-.8-4.24.41-10,5.36-11.14,4.32-1,6,2.15,6.21,4.06l-3.4.76c-.24-1.12-.79-2.21-2.36-1.86-2.47.56-2.68,4.85-2.23,7.2.38,2,1.3,2.77,2.56,2.49s1.82-1.15,2.09-2.71Zm-16.75,2a18.27,18.27,0,0,0-2.29.66c-1.9.78-2.53,1.66-2.3,2.9a1.41,1.41,0,0,0,1.91,1.14c2.42-.55,2.63-2.83,2.67-4.46Zm4.12,6h0L73.11,51a7,7,0,0,1-.59-1.62,4.57,4.57,0,0,1-3.65,2.82,3.53,3.53,0,0,1-4.44-2.92c-.77-4.07,2.15-6.05,5.14-6.81,1.07-.28,2-.44,3-.7l0-.91c0-1.12-.28-2.48-2.16-2.05A2.22,2.22,0,0,0,68.45,41l-3.58.81c0-2.46,1.12-4.83,5.26-5.76,3.25-.73,5.94.23,5.92,4.22v7.24a15.36,15.36,0,0,0,.22,1.81A2.3,2.3,0,0,0,76.64,50.2ZM64.21,42c-2.44.58-3.62,2.28-3.63,5.61l0,6.34-3.5.79V39.43l3.38-.75c0,.37.12,1.5.11,2.74a4.22,4.22,0,0,1,3.67-3.48ZM52.06,46.44a3,3,0,0,0-.06-.66c-.21-1.28-.92-2.27-2.47-1.92S47.14,45.57,47,47.58ZM47,50.26a5.33,5.33,0,0,0,0,.9c.27,1.56,1,2.78,2.61,2.42a2.79,2.79,0,0,0,2.21-2.35l3.67-.82a7,7,0,0,1-5.66,6.21c-3.6.81-5.77-1.26-6.37-4.81-.65-3.89.36-9.68,5.69-10.87,3.93-.88,5.77,1.44,6.27,4.45a11.29,11.29,0,0,1,.12,3Zm-12.2-5.82,2-.44V41.15l3.5-.78v2.84l2.5-.56,0,3.07-2.49.56,0,7.7c0,.94.18,1.52,1.23,1.29a8.08,8.08,0,0,0,1.12-.34v2.89a9.15,9.15,0,0,1-2.12.74c-2,.46-3.74-.84-3.74-3.5l0-8-2,.44Zm-5.23.88c-2.24.5-3.62,3-3.62,3V46.45l-3.52.77V59.34a4,4,0,0,1,1.39-.25,3.86,3.86,0,0,1,2.12.63V53.8c0-2.84.84-4.49,2.54-4.87,1.49-.34,2,.77,2,2.49v9.26l3.45-.78,0-9.23C34,46.15,32.15,44.73,29.53,45.32ZM19.92,42.7V63l-3.63.81V43.51Z"/></svg>