<?xml version="1.0" encoding="utf-8"?>
<!-- Generator: Adobe Illustrator 24.2.0, SVG Export Plug-In . SVG Version: 6.00 Build 0)  -->
<svg version="1.1" id="Layer_1" xmlns="http://www.w3.org/2000/svg" xmlns:xlink="http://www.w3.org/1999/xlink" x="0px" y="0px"
	 viewBox="0 0 210 50" style="enable-background:new 0 0 210 50;" xml:space="preserve">
<style type="text/css">
	.st0{fill:#BABBBE;}
</style>
<path class="st0" d="M29.6,3.3c2,0.9,3.7,2.4,4.8,4.2c1.7,2.9,1.8,6.7,0.3,9.8c3.6-0.1,7.1,1.6,9.2,4.5s2.6,6.9,1.2,10.1
	c-1.7,3.7-5.5,5.9-9.1,7.9c-3.6,1.9-7.1,3.9-10.7,5.8c-1.1,0.6-2.3,1.2-3.6,1c-1-0.1-1.9-0.8-2.3-1.7c-0.4-0.9-0.3-2,0.3-2.9
	c0.5-0.7,1.3-1.2,2.1-1.6c4.2-2.4,8.4-4.8,12.6-7.1c1.5-0.8,3.1-1.7,3.8-3.3c0.5-1.1,0.4-2.5,0-3.6c-0.7-1.9-2.6-3.5-4.6-3.6
	c-1.5,0-2.9,0.8-4.2,1.5c-1.3,0.8-2.7,1.6-4,2.3c-1.2,0.7-2.6,1.5-4,1.1c-1.6-0.4-2.6-2.3-2-3.8c0.4-1,1.2-1.7,2.1-2.2
	c1.4-0.9,2.9-1.5,4.3-2.3c1.4-0.8,2.7-2,3.3-3.5c0.5-1.4,0.4-3-0.3-4.2s-2.1-2.2-3.5-2.4c-1.6-0.2-3.2,0.3-4.7,1.1s-2.7,1.8-4.1,2.6
	c-1.2,0.7-2.5,1.2-3.8,0.8c-1.8-0.6-2.7-3.3-1.4-4.7c0.9-1,2.4-1.9,3.5-2.6c1.2-0.8,2.5-1.5,3.9-2.2c2.4-1.1,4.9-2,7.5-1.8
	C27.3,2.5,28.5,2.8,29.6,3.3z"/>
<path class="st0" d="M2.3,14.7c0.5-1.6,2.9-2.5,4.3-1.6c0.5,0.3,0.8,0.8,1.1,1.3c3.7,6.2,7.3,12.4,11,18.6c0.4,0.6,0.8,1.3,0.9,2.1
	c0.1,1-0.4,2.1-1.3,2.7c-0.9,0.6-2.1,0.5-3-0.1c-0.7-0.5-1.1-1.2-1.5-1.9c-3.5-6-7-12-10.6-17.9c-0.5-0.9-1.1-1.9-0.9-2.9
	C2.2,14.9,2.3,14.8,2.3,14.7z"/>
<path class="st0" d="M69.6,23c0.5-0.9,1-1.7,1.4-2.5c1.2-2.2,2.3-4.5,3.5-6.7c0.3-0.6,0.8-1.2,1.5-1.5c1.2-0.5,2.5,0.2,2.8,1.4
	c0.1,0.4,0.2,0.9,0.2,1.3c0,5,0,10.1,0,15.1c0,0.4-0.1,0.7-0.1,1.1c-0.2,1.2-1,1.7-2.2,1.7c-1.1,0-1.9-0.7-2-1.8
	c-0.1-0.4-0.1-0.7-0.1-1.1c0-2.3,0-4.6,0-6.9c0-0.3,0-0.6,0-0.9c-0.1,0-0.1,0-0.2,0c-0.8,1.6-1.7,3.3-2.5,4.9
	c-0.2,0.3-0.3,0.6-0.5,0.9c-0.9,1.3-2.7,1.3-3.5,0c-0.9-1.6-1.7-3.2-2.5-4.9c-0.2-0.3-0.4-0.7-0.7-1c0,0.2-0.1,0.5-0.1,0.7
	c0,2.6,0,5.2,0,7.8c0,1.5-1,2.3-2.5,2.2c-1.1-0.1-1.9-1-1.9-2.4c0-1.9,0-3.8,0-5.8c0-3.3,0-6.5,0-9.8c0-0.4,0-0.8,0.1-1.2
	c0.2-0.8,0.7-1.4,1.5-1.6c0.8-0.2,1.6-0.1,2.1,0.6c0.5,0.7,1,1.5,1.4,2.3C66.8,17.7,68.2,20.3,69.6,23z"/>
<path class="st0" d="M140.1,22.4c1.1,0.7,2,1.5,2.3,2.7c0.9,3.4-0.5,6.6-4,7.4c-0.7,0.2-1.4,0.3-2.1,0.3c-2,0-4,0-6.1,0
	c-1.8,0-2.5-0.7-2.5-2.5c0-5.2,0-10.4,0-15.6c0-1.6,0.7-2.4,2.4-2.4c2.1,0,4.3-0.1,6.4,0c2.8,0.1,5,1.4,5.7,4
	c0.5,2.1,0.3,4.3-1.9,5.7C140.3,22.2,140.2,22.2,140.1,22.4z M131.9,29.2c1.5,0,3,0,4.5,0c1.2,0,2.1-0.9,2.2-2.1
	c0.1-1.4-0.5-2.5-1.8-2.6c-1.6-0.2-3.2,0-4.9,0C131.9,25.9,131.9,27.5,131.9,29.2z M131.9,20.6c1.5,0,2.9,0,4.2,0
	c0.3,0,0.5-0.1,0.8-0.2c1-0.4,1.6-1.3,1.5-2.4c-0.1-1-0.9-1.8-2-1.9c-1.3-0.1-2.6-0.1-3.9-0.1c-0.3,0-0.6,0-0.6,0.4
	C131.9,17.8,131.9,19.2,131.9,20.6z"/>
<path class="st0" d="M115.7,18.7c1.1-0.8,2.2-1.2,3.5-1.2c3,0.1,5,2,5.1,5.1c0.1,2.8,0,5.5,0,8.3c0,1.4-0.8,2.1-2.1,2
	c-1.2,0-1.9-0.8-1.9-2.1c0-2.3,0-4.7,0-7c0-1.1-0.3-1.9-1.4-2.4c-1-0.4-2.8,0-3,1.6c-0.1,0.6-0.2,1.3-0.2,2c0,2,0,3.9,0,5.9
	c0,1.3-0.6,2-1.7,2.1c-1.3,0.1-2.1-0.6-2.3-1.8c0-0.1,0-0.2,0-0.4c0-5.4,0-10.9,0-16.3c0-1.8,1.3-2.7,2.9-2.1
	c0.7,0.3,1.1,0.8,1.1,1.7c0,1.2,0,2.5,0,3.7C115.7,18,115.7,18.2,115.7,18.7z"/>
<path class="st0" d="M184.2,26.5c-0.3,1.7,1.1,3.4,3.3,3.2c0.9-0.1,1.7-0.3,2.4-0.9c0.6-0.5,1.4-0.7,2.1-0.3c1,0.6,1.1,1.7,0.3,2.5
	c-1.1,1.1-2.4,1.6-3.9,1.8c-1.4,0.1-2.9,0.1-4.3-0.5c-2.1-0.8-3.2-2.5-3.6-4.6c-0.4-2-0.4-4.1,0.3-6c1-2.9,3.4-4.3,6.4-4.1
	c4.3,0.2,6.1,3.4,6.1,7c0,1.2-0.7,1.8-1.9,1.8c-2.1,0-4.2,0-6.3,0C184.8,26.5,184.5,26.5,184.2,26.5z M189.5,23.9
	c0.2-1.8-1.2-3-2.7-3c-1.5,0-2.8,1.1-2.7,3C185.9,23.9,187.7,23.9,189.5,23.9z"/>
<path class="st0" d="M153.1,26.5c-1.1,0-2.2,0-3.3,0c-0.7,0-0.8,0.2-0.7,0.8c0.4,1.8,1.7,2.6,3.6,2.3c0.8-0.1,1.6-0.5,2.3-0.9
	c0.8-0.4,1.5-0.5,2-0.1c0.9,0.7,1,1.7,0.1,2.5c-0.9,0.9-2,1.4-3.3,1.6c-1.5,0.2-2.9,0.2-4.4-0.3c-1.9-0.6-3.1-1.8-3.7-3.6
	c-0.8-2.5-0.8-4.9,0.1-7.4c1-2.6,3.3-4,6.1-3.9c4.4,0.1,6.5,3.5,6.3,7.1c0,1.1-0.7,1.8-1.8,1.8C155.3,26.6,154.2,26.5,153.1,26.5z
	 M154.5,23.9c-0.1-1.1-0.3-2.1-1.3-2.6c-1.1-0.6-2.1-0.6-3.1,0.2c-0.8,0.6-1.1,1.4-1,2.5C150.9,23.9,152.6,23.9,154.5,23.9z"/>
<path class="st0" d="M91.2,31.7c-1.5,1.2-3.1,1.4-4.9,1.1c-2.2-0.4-3.8-2.3-3.8-4.7c-0.1-2.9,0-5.7,0-8.6c0-1,0.7-1.8,1.6-2
	c0.8-0.2,1.9,0.2,2.2,1c0.2,0.4,0.2,0.9,0.2,1.4c0,2.1,0,4.3,0,6.4c0,0.4,0.1,0.8,0.2,1.2c0.2,1.1,1.3,1.8,2.3,1.6
	c1.1-0.1,2-1,2-2.2c0-2.3,0-4.5,0-6.8c0-0.4,0-0.8,0.1-1.2c0.2-1.1,1-1.7,2.1-1.6c1,0.1,1.8,0.8,1.9,1.8c0,0.1,0,0.2,0,0.4
	c0,3.7,0,7.4,0,11.1c0,1.2-0.5,1.7-1.3,2C92.7,33.1,92,32.8,91.2,31.7z"/>
<path class="st0" d="M101.8,25.2c0,1,0,1.9,0.5,2.8c0.7,1.2,2.1,1.6,3.3,1c0.3-0.2,0.7-0.4,1-0.6c0.7-0.4,1.7-0.2,2.2,0.3
	c0.6,0.7,0.7,1.6,0.2,2.3c-0.7,0.9-1.6,1.5-2.7,1.7c-2.1,0.5-4.2,0.4-6.1-1c-1.4-1-2.1-2.5-2.4-4.1c-0.4-2.2-0.4-4.4,0.6-6.6
	c1-2.1,2.6-3.1,4.8-3.4c1.6-0.3,3.2,0,4.7,0.9c0.4,0.3,0.8,0.6,1,1c0.6,0.7,0.5,1.6-0.1,2.3c-0.5,0.6-1.5,0.8-2.2,0.4
	c-0.5-0.2-0.9-0.5-1.3-0.7c-0.8-0.5-2.2-0.1-2.8,0.7C101.9,23.1,101.8,24.1,101.8,25.2z"/>
<path class="st0" d="M171.8,21.3c-1-0.1-2.2-0.1-2.2-1.5c0-0.6,0.2-1.1,0.7-1.3c0.5-0.2,1-0.2,1.4-0.3c0.1-1.1,0.1-2.1,0.3-3.1
	c0.1-0.8,0.8-1.3,1.6-1.3c0.8,0,1.4,0.2,1.8,0.9c0.1,0.2,0.2,0.6,0.2,0.8c0,0.7,0,1.4,0,2.1c0,0.6,0.2,0.8,0.7,0.7
	c0.3,0,0.6,0,0.9,0c0.9,0,1.5,0.6,1.5,1.4c0,0.7-0.6,1.4-1.4,1.5c-0.3,0-0.6,0-0.9,0c-0.9,0-0.9,0-0.9,0.8c0,1.9,0,3.8,0,5.7
	c0,0.4,0.1,0.7,0.2,1.1c0.2,0.6,0.7,0.7,1.3,0.8c1,0,1.7,0.6,1.7,1.5c0.1,0.9-0.6,1.6-1.7,1.7c-0.2,0-0.4,0-0.5,0.1
	c-2.9,0.1-4.7-1.5-4.8-4.4C171.7,26.1,171.8,23.8,171.8,21.3z"/>
<path class="st0" d="M165.6,18.3c0.6,0,1.1,0,1.5,0c1,0,1.6,0.5,1.6,1.4c0,0.9-0.6,1.4-1.6,1.5c-0.5,0-0.9,0-1.5,0
	c0,0.4,0,0.6,0,0.9c0,2,0,3.9,0,5.9c0,1.2,0.3,1.5,1.4,1.6c1.4,0.1,2.1,1.4,1.3,2.5c-0.2,0.3-0.8,0.6-1.2,0.7
	c-3.1,0.5-5.5-1.1-5.4-4.4c0-2,0-4,0-5.9c0-0.3,0-0.7,0-1.1c-1.1-0.1-2.4-0.2-2.3-1.8c0.1-0.9,0.4-1.1,2.3-1.4c0-0.8,0-1.7,0-2.5
	c0.1-1.6,1.5-2.4,2.9-1.7c0.6,0.3,0.9,0.7,0.9,1.4C165.6,16.3,165.6,17.2,165.6,18.3z"/>
<path class="st0" d="M199.9,19.1c0.9-0.7,1.9-1.3,3-1.4c1.1-0.1,2.2,0,3.1,0.7c0.9,0.6,1.2,1.7,0.8,2.5c-0.5,0.9-1.6,1.2-2.6,0.8
	c-0.1-0.1-0.3-0.1-0.4-0.2c-2-1-3.8,0.1-3.8,2.4c0,2.2,0,4.4,0,6.6c0,0.2,0,0.5,0,0.7c-0.1,1-0.7,1.6-1.6,1.7
	c-1.4,0.1-1.9-0.3-2.2-1.4c0-0.1-0.1-0.3-0.1-0.4c0-3.8,0-7.5,0-11.3c0-1.3,0.8-2.1,2.1-1.9c0.4,0.1,0.9,0.4,1.3,0.7
	C199.7,18.6,199.8,18.8,199.9,19.1z"/>
</svg>
