<?xml version="1.0" encoding="UTF-8"?>
<svg width="114px" height="20px" viewBox="0 0 114 20" version="1.1" xmlns="http://www.w3.org/2000/svg" xmlns:xlink="http://www.w3.org/1999/xlink">
    <g id="Open-game" stroke="none" stroke-width="1" fill="none" fill-rule="evenodd">
        <g id="Game_sidebar_payment_step2" transform="translate(-1208.000000, -349.000000)" fill-rule="nonzero" fill="#9698A1">
            <g id="#3_payment" transform="translate(1009.000000, 129.000000)">
                <g id="content">
                    <g id="box_payments" transform="translate(15.000000, 104.000000)">
                        <g id="neteller-logo" transform="translate(184.000000, 116.000000)">
                            <g id="Layer_1">
                                <g id="Group">
                                    <path d="M99.9190476,8.50380952 C99.312381,8.92666667 98.4319048,9.13571429 97.2271429,9.13571429 L96.7042857,9.13571429 L96.032381,9.13571429 L96.9485714,4.18761905 L97.4128571,4.18761905 L97.8271429,4.18761905 C98.8271429,4.18761905 99.557619,4.34857143 100.060952,4.6752381 C100.454286,4.93142857 100.920476,5.43857143 100.920476,6.40095238 C100.920476,7.56047619 100.378095,8.18428571 99.9190476,8.50380952 L99.9190476,8.50380952 Z M28.6466667,14.7138095 L19.4004762,14.7138095 L19.9980952,11.4795238 L25.797619,11.4795238 L26.4566667,7.83666667 L20.7128571,7.83666667 L21.2680952,4.63571429 L30.4980952,4.63571429 L28.6466667,14.7138095 Z M104.9,1.85952381 C103.540476,0.927619048 101.483333,0.458095238 98.7861905,0.458095238 L91.722381,0.458095238 L89.0966667,14.7142857 L79.8433333,14.7142857 L80.4366667,11.48 L86.0114286,11.48 L86.6742857,7.84714286 L81.1028571,7.85714286 L81.6995238,4.63666667 L87.4404762,4.63666667 L88.2042857,0.458571429 L76.542381,0.458571429 L74.05,13.9828571 L69.7738095,13.9828571 L72.2842857,0.458571429 L66.187619,0.458571429 L63.6952381,13.9828571 L59.5257143,13.9828571 L62.0385714,0.458571429 L55.9480952,0.458571429 L53.3157143,14.7147619 L43.9966667,14.7147619 L44.5838095,11.4804762 L50.1838095,11.4804762 L50.8433333,7.86857143 L45.2519048,7.86333333 L45.8457143,4.63666667 L51.6504762,4.63666667 L52.4104762,0.458571429 L16.0785714,0.458571429 L14.0104762,11.7561905 L9.89047619,0.458095238 L3.56714286,0.458095238 L0.163809524,18.8947619 L6.20238095,18.8947619 L8.26190476,7.28666667 L12.2604762,18.8947619 L33.9042857,18.8947619 L36.5352381,4.63619048 L39.9219048,4.63619048 L37.2895238,18.8947619 L94.2409524,18.8947619 L95.8904762,9.89333333 L98.5642857,18.8947619 L104.60619,18.8947619 L101.838095,11.54 L102.47,11.4033333 C103.862381,11.1052381 104.952381,10.4628571 105.708571,9.50047619 C106.46619,8.52904762 106.850952,7.28190476 106.850952,5.78380952 C106.851429,4.03904762 106.214286,2.75619048 104.9,1.85952381 L104.9,1.85952381 Z" id="Shape"></path>
                                    <path d="M109.879048,16.7142857 L110.701905,16.6714286 C110.87619,16.6633333 111.01381,16.6371429 111.11,16.5957143 C111.20619,16.5552381 111.279048,16.4933333 111.325714,16.41 C111.372381,16.3271429 111.394762,16.24 111.388571,16.1466667 C111.381429,16.0085714 111.325714,15.8985714 111.222381,15.8142857 C111.118571,15.7309524 110.958571,15.6966667 110.74381,15.7066667 L109.828095,15.7533333 L109.879048,16.7142857 Z M109.574762,18.3514286 L109.426667,15.4514286 L110.713333,15.3866667 C110.970476,15.3733333 111.167143,15.3895238 111.304762,15.4352381 C111.442857,15.48 111.55381,15.5666667 111.641429,15.6947619 C111.728571,15.822381 111.777143,15.9642857 111.783333,16.1242857 C111.795238,16.33 111.736667,16.5061905 111.610952,16.6547619 C111.485238,16.8019048 111.284762,16.902381 111.009048,16.9547619 C111.112381,16.9995238 111.192857,17.042381 111.247143,17.0866667 C111.364762,17.1838095 111.477143,17.307619 111.584762,17.4571429 L112.125714,18.2209524 L111.647619,18.2452381 L111.233333,17.6614286 C111.112381,17.492381 111.013333,17.3638095 110.93619,17.2752381 C110.859524,17.1866667 110.790476,17.1261905 110.731429,17.0919048 C110.67381,17.057619 110.611905,17.0352381 110.553333,17.0228571 C110.508571,17.0161905 110.437619,17.0152381 110.338571,17.0204762 L109.895714,17.0428571 L109.959524,18.3319048 L109.574762,18.3514286 Z" id="Shape"></path>
                                    <path d="M108.318571,16.9480952 C108.289048,16.3480952 108.492857,15.7728571 108.895238,15.3280952 C109.297619,14.882381 109.850952,14.6190476 110.451905,14.5885714 C111.689048,14.5242857 112.747619,15.48 112.811429,16.7185714 C112.813333,16.7566667 112.815714,16.7971429 112.815714,16.8338095 C112.815714,18.022381 111.879524,19.0180952 110.68,19.0809524 C109.440952,19.1438095 108.383333,18.1871429 108.318571,16.9480952 M110.42619,14.1261905 C109.704762,14.1647619 109.038095,14.48 108.55381,15.017619 C108.069048,15.5547619 107.821429,16.25 107.858571,16.9733333 C107.936667,18.4647619 109.212381,19.6157143 110.704762,19.5409524 C112.195238,19.4638095 113.348571,18.1871429 113.271429,16.6957143 L113.271429,16.6942857 C113.19619,15.202381 111.920476,14.0504762 110.42619,14.1261905" id="Shape"></path>
                                </g>
                            </g>
                        </g>
                    </g>
                </g>
            </g>
        </g>
    </g>
</svg>