<?xml version="1.0" encoding="UTF-8"?>
<svg width="119px" height="19px" viewBox="0 0 119 19" version="1.1" xmlns="http://www.w3.org/2000/svg" xmlns:xlink="http://www.w3.org/1999/xlink">
    <g id="Open-game" stroke="none" stroke-width="1" fill="none" fill-rule="evenodd">
        <g id="Game_sidebar_payment_step2" transform="translate(-1045.000000, -430.000000)" fill="#9698A1">
            <g id="#3_payment" transform="translate(1009.000000, 129.000000)">
                <g id="content">
                    <g id="box_payments" transform="translate(15.000000, 104.000000)">
                        <g id="paysafe" transform="translate(21.000000, 197.000000)">
                            <path d="M23.8507499,7.46482136 C23.8507499,9.19875625 23.8458725,10.9278137 23.8531886,12.6617486 C23.8556274,13.3202049 23.6190708,13.8713572 23.1581514,14.3273991 C22.9752469,14.5127423 22.7752713,14.6834532 22.5484697,14.8078283 C22.2655774,14.9639068 21.9582978,15.0541397 21.6339471,15.0834045 C21.4412876,15.1029143 21.2461895,15.1029143 21.0535301,15.1029143 L18.1977808,15.1029143 L18.0490184,15.1029143 C17.990489,15.1077917 17.9758566,15.1224241 17.9734179,15.1882697 C17.9709791,15.2370443 17.9709791,15.2882575 17.9709791,15.3370321 L17.9709791,18.7756371 C17.9709791,18.8268504 17.9734179,18.8707475 17.9709791,18.9268382 C17.9661017,18.9853676 17.9539081,18.9951225 17.8880624,19 L17.7905134,19 L15.5980978,19 L15.4786002,19 C15.4273869,18.9951225 15.4127545,18.9804902 15.4078771,18.9365931 L15.4078771,18.7731984 L15.4078771,12.9958542 L15.4078771,7.44775027 C15.4078771,7.06730886 15.4468967,6.68442873 15.5468845,6.31374223 C15.605414,6.08937934 15.6932081,5.87477137 15.8053896,5.6699183 C15.9126936,5.4796976 16.051701,5.31630289 16.2346055,5.18948909 C16.5857822,4.95049384 16.9613462,4.7749055 17.3832459,4.70418242 C17.4759176,4.6846726 17.5710279,4.67979515 17.6661383,4.67979515 L21.4705524,4.67979515 C21.72418,4.67979515 21.9753689,4.71393732 22.224119,4.77978295 C22.9191562,4.9553713 23.3922692,5.37970979 23.6458968,6.05035971 C23.7361297,6.29423241 23.7922205,6.55029874 23.8214852,6.8088038 C23.8483112,7.02828923 23.8507499,7.24533593 23.8507499,7.46482136 Z M21.2827704,8.0281673 C21.2827704,7.92817949 21.2754542,7.82819168 21.2486282,7.73308133 C21.1974149,7.52335081 21.0730399,7.37946592 20.8559932,7.33313011 C20.7901475,7.31362029 20.7218632,7.30874284 20.6584563,7.30874284 L18.7489331,7.30874284 C18.6538227,7.30874284 18.5611511,7.3233752 18.4709182,7.34776247 C18.2172906,7.41848555 18.0636508,7.58675771 18.0051213,7.83794659 C17.9782953,7.94768931 17.9709791,8.05743202 17.9709791,8.17205219 C17.9734179,8.85245702 17.9709791,9.54505548 17.9709791,10.2303378 C17.9709791,10.6912572 17.9734179,11.1594927 17.9709791,11.6252896 C17.9709791,11.7301549 17.9807341,11.8350201 18.0075601,11.9350079 C18.061212,12.1496159 18.1855871,12.300817 18.3904402,12.3837337 C18.5148153,12.434947 18.6440678,12.4593342 18.7806365,12.4593342 L20.607243,12.4593342 C20.8950128,12.4593342 21.0803561,12.2983782 21.2193635,12.0740154 C21.2754542,11.9837825 21.2803317,11.8740398 21.2803317,11.7691745 L21.2803317,9.89135471 C21.2803317,9.27191806 21.2803317,8.64760395 21.2827704,8.0281673 Z M73.0008536,9.06706499 C72.9910986,8.41836361 72.9813437,7.77210096 72.9862212,7.12339959 C72.9910986,6.72832581 73.0423119,6.34300695 73.1910743,5.96988172 C73.3959273,5.46506524 73.7495427,5.11144982 74.247043,4.89928058 C74.5445677,4.7749055 74.8567248,4.70905987 75.1810755,4.6846726 C75.2786246,4.67491769 75.3786124,4.67491769 75.4786002,4.67491769 L78.9684185,4.67491769 C79.2561883,4.67491769 79.5415193,4.70418242 79.8219729,4.78466041 C80.5609072,4.98463602 81.0315815,5.44555542 81.2510669,6.17473479 C81.3461773,6.48933057 81.3949518,6.81368126 81.3949518,7.13803195 L81.3949518,9.1670528 C81.3949518,9.19144007 81.3949518,9.21826607 81.3900744,9.24753079 C81.3900744,9.27191806 81.375442,9.29142787 81.3510547,9.29874406 C81.32179,9.31337642 81.294964,9.32313133 81.2608219,9.33776369 C80.2170467,9.74746982 79.1830265,10.157176 78.14169,10.5620046 C77.3369101,10.8814779 76.5272528,11.2009511 75.7224729,11.5204243 C75.6932081,11.5301792 75.6712596,11.5399342 75.6468723,11.5545665 C75.6273625,11.5643214 75.6127302,11.5789538 75.6127302,11.6057798 C75.5980978,11.8106328 75.6127302,12.0154859 75.7468601,12.1910743 C75.7785636,12.2300939 75.7980734,12.2715522 75.8322156,12.3105719 C75.8980612,12.4056822 75.9931716,12.4593342 76.1126692,12.4593342 L76.2638703,12.4593342 L81.1827826,12.4593342 C81.4144617,12.4593342 81.3876357,12.434947 81.3876357,12.6593098 L81.3876357,14.917571 C81.3876357,15.1077917 81.402268,15.1077917 81.1974149,15.1077917 L78.4075113,15.1077917 L75.7858798,15.1077917 C75.4493354,15.1029143 75.122546,15.0882819 74.7957566,15.0175588 C74.3226436,14.9126936 73.9275698,14.6712596 73.6080966,14.3078893 C73.3983661,14.0615779 73.2325326,13.8030728 73.1496159,13.488477 C73.1057188,13.3226436 73.0788928,13.1543714 73.059383,12.9836605 C73.0081697,12.6032191 73.0301183,12.220339 73.0252408,11.8398976 C73.0008536,10.9131813 73.0130472,9.98890379 73.0008536,9.06706499 Z M75.5590782,8.85733447 C75.5590782,8.8963541 75.5639556,8.93293501 75.5688331,8.97195464 C75.5688331,8.99634191 75.5883429,9.01585173 75.6151689,9.01097427 C75.6736983,8.99146446 75.7346665,8.97683209 75.7883185,8.95488355 C76.6345568,8.64028777 77.4710401,8.32081453 78.3172784,8.0013413 C78.4465309,7.95256676 78.570906,7.90135349 78.7001585,7.85257895 C78.7513718,7.83306914 78.7660041,7.80136569 78.7660041,7.75259115 C78.7611267,7.59163517 78.6806487,7.48189245 78.5416413,7.40385319 C78.4221436,7.33313011 78.2880137,7.30874284 78.1465675,7.30874284 C77.5710279,7.30874284 76.9832947,7.31362029 76.4028777,7.30874284 C76.132179,7.30386538 75.9078161,7.39897573 75.7224729,7.58919644 C75.6127302,7.69893915 75.5590782,7.82331423 75.5590782,7.9745153 C75.5639556,8.12327765 75.5590782,8.27447872 75.5590782,8.42324107 C75.5590782,8.56468723 75.5590782,8.71344958 75.5590782,8.85733447 Z M34.2714303,6.34056822 C34.3397147,6.62102183 34.3714181,6.90635288 34.3714181,7.19900012 C34.3714181,8.99390318 34.3738568,10.7961224 34.3689794,12.5959029 C34.3689794,13.0202414 34.2958176,13.4299476 34.1104743,13.8152664 C33.9031825,14.2517986 33.5983417,14.5859042 33.1788806,14.8248994 C32.9203756,14.9761005 32.6423607,15.0565785 32.344836,15.0809657 C32.1521766,15.105353 31.9595171,15.105353 31.764419,15.105353 L28.5770028,15.105353 C28.1794903,15.1004756 27.7819778,15.0614559 27.3966589,14.9468358 C27.0820632,14.8517254 26.7942934,14.7005243 26.5504207,14.4761614 C26.2748445,14.2176564 26.1041336,13.8884282 26.011462,13.5177417 C25.9456164,13.2641141 25.9139129,13.0080478 25.9114742,12.747104 C25.9090355,12.0276796 25.9065968,11.3082551 25.9114742,10.5888306 C25.9163517,10.2498476 25.9602488,9.91818071 26.065114,9.58895257 C26.2724058,8.9500061 26.6943056,8.5256676 27.3308133,8.3086209 C27.6210218,8.20863309 27.9209852,8.16473601 28.2258261,8.14766492 C28.3063041,8.14278746 28.3916596,8.14278746 28.4745763,8.14278746 L31.5961468,8.14278746 C31.8522131,8.14278746 31.818071,8.17692964 31.8205097,7.90866967 C31.8229484,7.82819168 31.818071,7.74283624 31.7936837,7.65991952 C31.7473479,7.51603463 31.6546763,7.42092428 31.5205463,7.36971101 C31.4303134,7.33556883 31.3400805,7.31849774 31.2449701,7.31849774 C31.1913181,7.31362029 31.1352274,7.31362029 31.0791367,7.31362029 L26.1821729,7.31362029 C26.1358371,7.31362029 26.09194,7.31849774 26.0456042,7.31362029 C25.9651262,7.31362029 25.95781,7.30386538 25.9553713,7.21363248 C25.9529326,7.17949031 25.9553713,7.14778686 25.9553713,7.11364468 C25.9553713,6.36983295 25.9529326,5.6333374 25.9553713,4.88952567 C25.9553713,4.65540788 25.9358615,4.67979515 26.1553469,4.67979515 L29.0940129,4.67979515 L31.7692964,4.67979515 C32.0912084,4.67979515 32.4106816,4.70905987 32.7204,4.78953786 C33.0642605,4.87977076 33.381295,5.02365565 33.6471162,5.25533472 C33.9739056,5.54554323 34.1714425,5.91866846 34.2714303,6.34056822 Z M31.8205097,11.371662 C31.818071,11.291184 31.8205097,11.2058286 31.8156322,11.1229118 C31.7961224,10.8668455 31.6473601,10.6888184 31.3986099,10.6278503 C31.3059383,10.6083404 31.2132667,10.5937081 31.120595,10.5937081 C30.7864895,10.5985855 30.4548226,10.5985855 30.1231557,10.5985855 L29.1305938,10.5985855 C29.0525546,10.5985855 28.976954,10.603463 28.9013535,10.6180954 C28.6038288,10.6619924 28.5526155,10.7692964 28.503841,11.0278015 C28.4989635,11.0424338 28.4989635,11.0619437 28.4989635,11.0790148 C28.4965248,11.3789782 28.4916474,11.6789416 28.4916474,11.9740276 C28.4916474,12.0691379 28.530667,12.1496159 28.5965126,12.2130228 C28.7501524,12.3666626 28.9281795,12.4666504 29.1549811,12.461773 C29.4183636,12.4568955 29.6841849,12.461773 29.9500061,12.461773 L31.1620534,12.461773 C31.2888672,12.461773 31.415681,12.4422631 31.5327399,12.3861724 C31.6668699,12.3300817 31.7546641,12.2325326 31.791245,12.086209 C31.8107548,12.0252408 31.818071,11.9569565 31.818071,11.8911108 C31.8205097,11.7130838 31.8205097,11.5423729 31.8205097,11.371662 Z M67.2552128,15.105353 L69.4646994,15.105353 L69.5646872,15.105353 C69.6305329,15.1004756 69.6402878,15.0907206 69.6451652,15.0297525 C69.6500427,14.9809779 69.6451652,14.9395196 69.6451652,14.8956225 L69.6451652,13.0519449 L69.6451652,7.503841 C69.6451652,7.29898793 69.6305329,7.31362029 69.8305085,7.31362029 L71.3034996,7.31362029 C71.4620168,7.31362029 71.4620168,7.31362029 71.4620168,7.15998049 L71.4620168,4.83587367 C71.4620168,4.80660895 71.4620168,4.77978295 71.4571394,4.75051823 C71.4571394,4.69442751 71.4376296,4.67979515 71.3766614,4.67491769 L71.2937447,4.67491769 L70.2621632,4.67491769 L69.7329594,4.67491769 C69.6573589,4.67491769 69.6427265,4.66028533 69.6427265,4.58956225 C69.637849,4.40909645 69.637849,4.22863065 69.6427265,4.04084868 C69.647604,3.97012559 69.664675,3.89696378 69.6841849,3.83111816 C69.7427143,3.62626509 69.879283,3.48725765 70.0792586,3.41165711 C70.2085112,3.36288258 70.3328862,3.34581149 70.4670162,3.34581149 L71.3181319,3.34581149 C71.4644556,3.34581149 71.469333,3.34581149 71.469333,3.19217169 L71.469333,0.933910499 C71.469333,0.790025607 71.4644556,0.790025607 71.3181319,0.790025607 C70.8230704,0.785148153 70.3231313,0.785148153 69.8280697,0.790025607 C69.6695525,0.790025607 69.5037191,0.799780515 69.3476405,0.824167784 C68.7842946,0.899768321 68.2746007,1.10462139 67.8405073,1.48262407 C67.5039629,1.77771004 67.2747226,2.1362029 67.1601024,2.56298012 C67.101573,2.81173028 67.074747,3.06291916 67.074747,3.32142422 L67.074747,9.06462627 L67.074747,14.9126936 C67.0698695,15.1102305 67.0601146,15.105353 67.2552128,15.105353 Z M62.9801244,15.0809657 C62.7899037,15.105353 62.6069991,15.105353 62.4167784,15.105353 L59.2293623,15.105353 C58.8245336,15.105353 58.4245824,15.0663334 58.0343861,14.9468358 C57.7124741,14.8517254 57.4173881,14.6956469 57.1735154,14.4664065 C56.8955005,14.1981466 56.7272284,13.8664797 56.6345568,13.4909157 C56.5760273,13.2519205 56.5467626,13.0104865 56.5467626,12.7714913 C56.5394464,12.0228021 56.5370077,11.2765516 56.5467626,10.5278625 C56.55164,10.1376661 56.6101695,9.75722473 56.7686867,9.39385441 C56.9637849,8.93537373 57.2856969,8.60370687 57.7393001,8.39397634 C58.0075601,8.27447872 58.2928911,8.20863309 58.5855383,8.16961346 C58.7952689,8.14034874 59.0049994,8.14034874 59.2171686,8.14034874 L62.2046092,8.14034874 L62.3216681,8.14034874 C62.4484819,8.14034874 62.4509206,8.14034874 62.4533593,8.01109621 C62.4533593,7.93549567 62.4582368,7.86233386 62.4509206,7.79161078 C62.4216559,7.52091208 62.2875259,7.40141446 62.0777954,7.34288501 C61.9680527,7.31362029 61.85831,7.30874284 61.7485672,7.30874284 L56.8003902,7.30874284 L56.6491891,7.30874284 C56.6101695,7.30874284 56.5857822,7.28435557 56.5857822,7.25265212 L56.5857822,7.13315449 L56.5857822,4.85538349 C56.5857822,4.66516279 56.578466,4.67491769 56.7613706,4.67491769 L59.7366175,4.67491769 L62.4094623,4.67491769 C62.7338129,4.67491769 63.0508475,4.70418242 63.3630045,4.78953786 C63.7019876,4.87489331 64.0117059,5.0187782 64.2750884,5.25045726 C64.6140715,5.54554323 64.8091696,5.92110718 64.9140349,6.35032313 C64.9798805,6.64053164 65.0091452,6.93074015 65.0091452,7.22094866 L65.0091452,12.5690769 C65.0091452,13.0275576 64.9335447,13.4738447 64.7140593,13.8835508 C64.5092062,14.2737471 64.2238751,14.5883429 63.8385563,14.8127058 C63.5629801,14.9663456 63.2800878,15.0492623 62.9801244,15.0809657 Z M62.4484819,11.3960493 C62.4484819,11.3058164 62.4484819,11.2204609 62.4460432,11.130228 C62.4289721,10.8814779 62.2899646,10.7058895 62.0509694,10.6400439 C61.9656139,10.6156566 61.8802585,10.5961468 61.7924643,10.5961468 C61.0998659,10.6010243 60.4097061,10.6010243 59.7171077,10.6010243 C59.6219973,10.5961468 59.5293257,10.6156566 59.4390928,10.6400439 C59.2952079,10.6693086 59.2025363,10.7546641 59.1659554,10.8961102 C59.1464456,10.9619559 59.1269357,11.0351177 59.1269357,11.1058408 C59.124497,11.3911718 59.1220583,11.6813803 59.1220583,11.9691501 C59.1220583,12.0691379 59.1659554,12.1496159 59.2342397,12.2227777 C59.392757,12.3764175 59.5707841,12.4666504 59.7951469,12.461773 C60.1268138,12.452018 60.4560419,12.461773 60.7925863,12.461773 L61.7851482,12.461773 C61.8753811,12.461773 61.9607365,12.452018 62.0460919,12.4276308 C62.3021583,12.3617851 62.438727,12.193513 62.4460432,11.9276917 C62.4484819,11.7472259 62.4484819,11.5716376 62.4484819,11.3960493 Z M101.190099,14.0908426 C100.748689,14.8005121 100.112181,15.2443604 99.2756981,15.4101939 C99.0659676,15.4565297 98.8464821,15.4711621 98.6269967,15.4711621 L95.5712718,15.4711621 C95.0981588,15.4711621 94.6884526,15.4053164 94.3128887,15.2614315 C93.5495671,14.9663456 92.9984148,14.4493354 92.6886965,13.7250335 C92.5838312,13.4787221 92.5179856,13.2104621 92.4692111,12.8739178 C92.4448238,12.6373613 92.4399463,12.4105597 92.4399463,12.1837581 L92.4399463,10.91562 C92.4399463,10.5644434 92.478966,10.227899 92.5448116,9.91330326 C92.6057798,9.6011462 92.710645,9.31825387 92.8691623,9.05243263 C93.1544934,8.54517742 93.5885868,8.17692964 94.1543714,7.95988294 C94.4982319,7.82575296 94.8689184,7.75015242 95.2591147,7.73552006 C95.3786124,7.72820388 95.4932325,7.72332642 95.6078527,7.72332642 L100.236557,7.72332642 C100.236557,7.61602244 100.236557,7.50871845 100.231679,7.40141446 C100.226802,7.06730886 100.175588,6.78929399 100.070723,6.54786002 C99.946348,6.26740641 99.7902695,6.04792099 99.5951713,5.87964882 C99.4561639,5.75771247 99.3244726,5.68698939 99.1610779,5.65772467 C98.9123278,5.6065114 98.6904036,5.58456286 98.4562858,5.58456286 L96.6662602,5.58212413 L93.059383,5.58456286 C92.9984148,5.58456286 92.9350079,5.58212413 92.8740398,5.57724668 C92.6301671,5.55773686 92.478966,5.39678088 92.4643336,5.14315327 L92.4643336,4.6846726 C92.4692111,4.52615535 92.5301792,4.27008901 92.8740398,4.22619193 L93.0301183,4.22131447 C94.729911,4.22131447 96.4321424,4.22131447 98.1319351,4.22619193 C98.6074869,4.22619193 99.0367028,4.25789538 99.4268992,4.32130228 C99.8268504,4.38470918 100.185343,4.56273625 100.485307,4.84562858 C100.76576,5.10657237 101.004756,5.43336179 101.199854,5.84306792 C101.385197,6.22350933 101.499817,6.63077673 101.548592,7.05755396 C101.568101,7.23070357 101.575418,7.4136081 101.575418,7.59407389 L101.568101,9.13291062 L101.575418,12.2105841 C101.575418,12.5422509 101.548592,12.8909889 101.504695,13.2494818 C101.463236,13.5348128 101.358371,13.810389 101.190099,14.0908426 Z M95.5493233,9.06950372 C95.3542251,9.06950372 95.176198,9.08657481 95.0054871,9.12559444 C94.4714059,9.24265333 94.1202292,9.54505548 93.934886,10.0449945 C93.8568467,10.2522863 93.8105109,10.4742105 93.8105109,10.7010121 C93.8056335,11.31801 93.8056335,11.9374467 93.8105109,12.5544446 C93.8105109,12.7373491 93.8446531,12.934886 93.8958664,13.149494 C93.9202536,13.2324107 93.9519571,13.3128887 94.0056091,13.3836118 C94.0568223,13.4665285 94.1397391,13.5445677 94.2543592,13.6396781 C94.6396781,13.9591513 95.0591391,14.1127911 95.5298134,14.1127911 L95.9882941,14.1127911 L96.9076942,14.1127911 C97.480795,14.1127911 98.0563346,14.1127911 98.6318742,14.1079137 C98.9147665,14.1079137 99.1610779,14.0640166 99.3854408,13.9786611 C99.7219851,13.8518473 99.9439093,13.6274845 100.075601,13.2958176 C100.170711,13.0495062 100.217047,12.7910011 100.217047,12.5007926 L100.217047,9.07194245 C98.6635776,9.06950372 97.114986,9.06950372 95.5493233,9.06950372 Z M86.8308743,15.4711621 L90.4645775,15.4711621 C90.7206438,15.4467748 90.8742836,15.2809413 90.888916,15.0321912 L90.888916,14.6224851 C90.888916,14.1981466 90.6352884,14.1127911 90.4206804,14.1127911 L86.9308621,14.1127911 C86.7382027,14.1127911 86.538227,14.0981588 86.3431289,14.0737715 C86.1919278,14.0591391 86.0529204,14.0396293 85.9212291,13.998171 C85.6066333,13.8884282 85.4017803,13.7640532 85.2578954,13.5933423 C85.0945007,13.4031216 84.9701256,13.1690038 84.8945251,12.90806 C84.823802,12.6446775 84.7847823,12.3520302 84.7847823,12.0008536 L84.7799049,9.14754298 L84.7847823,7.71844897 C84.7847823,7.46482136 84.7799049,7.21607121 84.7994147,6.9624436 C84.8140471,6.81368126 84.8335569,6.66979637 84.8701378,6.5283502 C84.9286672,6.29423241 85.0335325,6.11620534 85.1847336,5.97963663 C85.2847214,5.89184246 85.404219,5.81868065 85.5798073,5.74551884 C85.8675771,5.6333374 86.199244,5.58212413 86.5723692,5.58212413 L87.7966102,5.5796854 L90.2572857,5.58212413 C90.3158151,5.58212413 90.3816608,5.5796854 90.4084868,5.57724668 L90.8425802,5.52115596 L90.8425802,4.65540788 L90.781612,4.26033411 L90.4475064,4.22863065 C90.3914157,4.2237532 90.3231313,4.22131447 90.2670406,4.22131447 L86.9893915,4.22131447 C86.6845507,4.22131447 86.3748323,4.2237532 86.065114,4.24814047 C85.8309962,4.26765029 85.5554201,4.29935374 85.2847214,4.38470918 C84.8164858,4.53834898 84.4165346,4.82611877 84.0458481,5.25533472 C83.7751494,5.5796854 83.5873674,5.95768809 83.5068894,6.37958786 C83.4629923,6.60395074 83.4459212,6.83806853 83.4459212,7.09413486 L83.4459212,12.3617851 C83.4459212,12.7007682 83.4971345,13.0470674 83.5971223,13.3909279 C83.7727106,14.0201195 84.136081,14.5346909 84.6652847,14.9151323 C84.9603707,15.1199854 85.2554567,15.2589928 85.5505426,15.319961 C85.9431777,15.4248262 86.3602,15.4711621 86.8308743,15.4711621 Z M105.233508,14.9053774 L105.233508,7.6038288 C105.233508,7.42092428 105.233508,7.23801975 105.257895,7.0526765 C105.289599,6.8088038 105.338373,6.60882819 105.416413,6.43080112 C105.526155,6.17473479 105.691989,5.9771979 105.921229,5.84062919 C106.062675,5.76258993 106.196805,5.70406048 106.345568,5.6699183 C106.535788,5.61870504 106.745519,5.59431777 107.01134,5.58944031 L107.191806,5.58700159 L107.577125,5.58944031 C107.628338,5.58944031 107.686867,5.58700159 107.752713,5.5796854 L108.108767,5.47482014 L108.108767,4.65053042 L108.057554,4.27496647 L107.733203,4.23594684 C107.389343,4.1871723 107.052798,4.2237532 106.72357,4.24814047 C106.423607,4.26521156 106.160224,4.30423119 105.91879,4.37251555 C105.389587,4.50908426 104.953055,4.76027314 104.621388,5.12608219 C104.326302,5.45531033 104.126326,5.83819046 104.00439,6.29667114 C103.911718,6.67223509 103.860505,7.07462505 103.860505,7.52335081 L103.860505,14.9102548 L103.94586,15.4711621 L104.721375,15.4711621 C104.801853,15.4711621 104.967687,15.4711621 105.087184,15.3419095 C105.233508,15.2199732 105.233508,15.0614559 105.233508,14.9053774 Z M118.351421,1.28752591 L118.351421,12.1227899 C118.351421,12.6568711 118.270943,13.1543714 118.100232,13.595781 C117.810023,14.3956835 117.246677,14.9492745 116.441897,15.2370443 C116.151689,15.3492257 115.827338,15.4126326 115.427387,15.4467748 C115.173759,15.4687233 114.932325,15.4736008 114.683575,15.4736008 L113.130106,15.4736008 L112.359468,15.4736008 C112.003414,15.4638459 111.640044,15.427265 111.288867,15.3638581 C111.054749,15.3175223 110.849896,15.2516766 110.659676,15.1419339 C109.920741,14.7444214 109.440312,14.1420558 109.250091,13.3519083 C109.159859,12.9787831 109.111084,12.6202902 109.111084,12.2593586 L109.111084,7.61114498 C109.111084,7.14534813 109.172052,6.70149982 109.296427,6.29667114 C109.435435,5.83331301 109.652481,5.45043287 109.957322,5.13339837 C110.291428,4.78953786 110.715766,4.54566516 111.215705,4.39934154 C111.576637,4.29203756 111.976588,4.24326302 112.464334,4.24326302 L116.988172,4.24326302 L116.99305,1.28752591 C116.988172,1.00219485 117.156444,0.831483965 117.466163,0.831483965 L117.883185,0.831483965 C118.173393,0.831483965 118.341666,0.9973174 118.351421,1.28752591 Z M116.997927,5.58944031 L112.94964,5.58944031 L112.925253,5.58944031 C112.691135,5.58944031 112.466772,5.58944031 112.239971,5.60163395 C112.035118,5.61626631 111.842458,5.64796976 111.661992,5.69430557 C111.476649,5.74308011 111.315693,5.82111938 111.171808,5.94793318 C111.047433,6.05523717 110.937691,6.17473479 110.832825,6.29667114 C110.72796,6.42836239 110.647482,6.56249238 110.596269,6.69662236 C110.518229,6.93317888 110.476771,7.15022558 110.476771,7.35751738 L110.476771,12.3861724 C110.476771,12.5203024 110.476771,12.5885868 110.481649,12.6593098 C110.491403,12.8739178 110.532862,13.0568223 110.586514,13.220217 C110.691379,13.5031094 110.857213,13.6908914 111.11084,13.8152664 C111.20595,13.8616022 111.315693,13.9103768 111.425436,13.9493964 C111.771735,14.0615779 112.125351,14.1152299 112.481405,14.1152299 L114.605536,14.1152299 C114.873796,14.1152299 115.13474,14.09572 115.366419,14.0591391 C115.810267,13.9786611 116.166321,13.8201439 116.466285,13.5787099 C116.519937,13.5299354 116.580905,13.4762834 116.624802,13.4177539 C116.749177,13.2665529 116.844287,13.0787709 116.902817,12.8519693 C116.963785,12.6227289 116.997927,12.381295 116.997927,12.1105963 L116.997927,5.58944031 Z M44.6457749,4.67491769 L42.5362761,4.67491769 C42.2826485,4.67491769 42.3119132,4.64565297 42.3119132,4.89440312 L42.3119132,11.6521156 L42.3119132,11.8008779 C42.3070357,11.9154981 42.2753323,12.0252408 42.2021705,12.1105963 C42.0387758,12.3203268 41.8290452,12.4544568 41.5510304,12.4593342 L39.6732106,12.4593342 C39.3439824,12.4544568 39.1366906,12.2788684 39.0562127,11.9593952 C39.0220705,11.8252652 39.0220705,11.6886965 39.0220705,11.5496891 L39.0220705,4.87245458 C39.0220705,4.66272406 39.0391416,4.67735642 38.8220949,4.67735642 L36.6443117,4.67735642 C36.4199488,4.67735642 36.4418973,4.6578466 36.4418973,4.88220949 L36.4418973,9.48408731 L36.4418973,12.3569077 C36.4418973,12.6324838 36.4565297,12.9007438 36.5150591,13.1665651 C36.6028533,13.5665163 36.7808804,13.9298866 37.0442629,14.2420437 C37.3783685,14.6371174 37.7856359,14.9224485 38.3002073,15.0321912 C38.54408,15.0882819 38.7903914,15.1077917 39.0415803,15.1077917 L42.0826728,15.1077917 L42.2314352,15.1077917 C42.2899646,15.1126692 42.3070357,15.1273015 42.3070357,15.1931472 C42.3094745,15.3662968 42.3119132,15.5467626 42.3070357,15.7223509 C42.304597,15.8637971 42.2533837,15.9759785 42.1582734,16.0784051 C42.0265821,16.2271674 41.8680649,16.3222778 41.6754054,16.3442263 C41.5876113,16.3588587 41.4998171,16.3637361 41.4120229,16.3637361 L36.6296793,16.3637361 C36.4297037,16.3637361 36.4443361,16.3539812 36.4443361,16.5539568 L36.4443361,18.8170955 C36.4443361,18.8463602 36.4418973,18.8780637 36.4443361,18.9122058 C36.4443361,18.9780515 36.4589684,18.9926838 36.5174979,18.9975613 L36.6540666,18.9975613 L42.3338617,18.9975613 C42.5045726,18.9975613 42.6752835,18.9926838 42.8459944,18.9634191 C43.2898427,18.8975735 43.6824777,18.7171077 44.0117059,18.4073893 C44.3555664,18.0805999 44.5701744,17.6830874 44.7043044,17.2392391 C44.8213632,16.8539203 44.8579442,16.4588465 44.8579442,16.0588953 C44.8603829,14.2054627 44.8579442,12.3495915 44.8579442,10.496159 L44.8579442,4.88464821 C44.8603829,4.65053042 44.8823314,4.67491769 44.6457749,4.67491769 Z M52.237532,15.105353 C52.4716498,15.105353 52.7008901,15.0858432 52.9301305,15.051701 C53.1715644,15.0053652 53.3886111,14.9200098 53.5812706,14.7712474 C54.0397512,14.4151933 54.3860505,13.971345 54.595781,13.4226314 C54.6738203,13.2226558 54.7152786,13.0080478 54.7152786,12.7885624 C54.7128399,12.139861 54.7152786,11.4935983 54.7152786,10.844897 C54.7152786,10.6790635 54.6957688,10.5156688 54.6591879,10.3547128 C54.5226192,9.77429582 54.1982685,9.31581514 53.7251555,8.96463846 C53.3495915,8.67442995 52.9106207,8.55005487 52.4399463,8.54517742 L50.2792342,8.54517742 C50.1914401,8.54517742 50.1036459,8.54517742 50.0158517,8.54029996 C49.9036703,8.53054506 49.7963663,8.50128033 49.6963785,8.45982197 C49.5305451,8.38422144 49.4378734,8.25009145 49.4305572,8.06962566 C49.4281185,7.9745153 49.4256798,7.87940495 49.4305572,7.7842946 C49.4403122,7.61358371 49.5232289,7.48433118 49.6841849,7.40873064 C49.7500305,7.37946592 49.8207536,7.35751738 49.8890379,7.34288501 C50.0085355,7.31849774 50.1304719,7.31362029 50.2524082,7.31362029 L54.5372516,7.31362029 C54.7250335,7.31362029 54.7152786,7.32825265 54.7152786,7.13315449 L54.7152786,4.87489331 C54.7152786,4.66516279 54.729911,4.67979515 54.515303,4.67979515 L51.8424582,4.67979515 L49.4671382,4.67979515 C49.3598342,4.67979515 49.2549689,4.67979515 49.1476649,4.6846726 C48.815998,4.70418242 48.4892086,4.76515059 48.181929,4.88952567 C47.6332155,5.10413364 47.2576515,5.48457505 47.0625533,6.04304353 C46.9625655,6.32837459 46.9089135,6.62346055 46.9089135,6.91854652 C46.8991586,7.61358371 46.8991586,8.30374345 46.9064748,8.99634191 C46.9113523,9.39141568 47.0357274,9.75722473 47.262529,10.0864529 C47.3844653,10.2571638 47.5381051,10.4010487 47.6941836,10.5449335 C48.1721741,10.969272 48.7330813,11.1887575 49.3720278,11.2033898 L49.5866358,11.2033898 C50.254847,11.2033898 50.9254969,11.2082673 51.5961468,11.2033898 C51.7619802,11.1985124 51.8790391,11.264358 51.9717108,11.398488 C52.1326667,11.6326058 52.103402,11.8789172 52.0595049,12.1374223 C52.0034142,12.2813072 51.9058651,12.3569077 51.7814901,12.4056822 C51.6522375,12.4544568 51.5181075,12.4666504 51.3766614,12.4666504 L47.0430435,12.4666504 C46.8625777,12.4666504 46.8698939,12.452018 46.8698939,12.6324838 L46.8698939,14.9395196 C46.8698939,15.1151079 46.8577003,15.1102305 47.0381661,15.1102305 C48.7745397,15.105353 50.5035971,15.105353 52.237532,15.105353 Z" id="Shape" fill-rule="nonzero"></path>
                            <path d="M0.35605414,6.75539568 C0.373125229,6.74564078 0.390196318,6.73100841 0.407267406,6.71637605 C0.636507743,6.54078771 0.877941714,6.38714791 1.14620168,6.27252774 C1.31691257,6.1969272 1.49493964,6.1335203 1.67784417,6.08718449 C1.72905743,6.07742958 1.74856725,6.05304231 1.76076088,6.00182905 C1.79978051,5.83599561 1.84855505,5.66772345 1.90952323,5.51164492 C2.50213389,3.92159493 4.07999025,2.87294232 5.80904768,2.98756249 C6.35044507,3.02170467 6.86257773,3.15339593 7.33569077,3.40702353 C8.36971101,3.95085965 9.04036093,4.78734301 9.33788562,5.92135105 C9.37934398,6.07499085 9.37690526,6.07499085 9.52322887,6.10669431 C9.97439337,6.21155957 10.3840995,6.40178027 10.7328375,6.70174369 C10.7523473,6.71637605 10.7669796,6.75051823 10.808438,6.72125351 C10.8108767,6.65540788 10.8157542,6.58224607 10.8157542,6.51152299 C10.8157542,6.25789538 10.7913669,6.0067065 10.7645409,5.74820144 C10.7303987,5.43360566 10.6767467,5.12388733 10.5913913,4.82392391 C10.093891,3.05584685 8.6940617,1.67064992 6.92354591,1.19509816 C6.63821485,1.11949762 6.35288379,1.06584563 6.06023656,1.03414218 C6.03097183,1.03414218 5.99439093,1.04389709 5.97731984,1 L5.34568955,1 L5.01158395,1 C5.01158395,1.01463236 5.01402268,1.02438727 5.01402268,1.03414218 C4.85062797,1.0634069 4.68235581,1.08291672 4.52139983,1.11462017 C3.29472016,1.36824777 2.28264846,1.98036825 1.49250091,2.95342031 C0.907206438,3.66796732 0.538958664,4.49225704 0.387757591,5.40677966 C0.336544324,5.73113035 0.326789416,6.05548104 0.3072796,6.38227045 C0.302402146,6.49689062 0.3072796,6.61151079 0.309718327,6.73100841 C0.3072796,6.75539568 0.334105597,6.77002805 0.35605414,6.75539568 Z" id="Path"></path>
                            <path d="M11.0913303,9.51847336 L11.0913303,14.381295 C11.0913303,14.7910011 11.0449945,15.1909523 10.9254969,15.5811486 C10.8279478,15.8933057 10.6767467,16.1810755 10.4499451,16.4225095 C10.1646141,16.7322278 9.80855993,16.9078161 9.40860871,17.0078039 C9.14034874,17.0736496 8.86233386,17.1029143 8.58431899,17.1029143 C6.51871723,17.1029143 4.4555542,17.1029143 2.39239117,17.0980368 C1.74856725,17.0980368 1.19741495,16.8541641 0.707230826,16.4493354 C0.616997927,16.3737349 0.553591025,16.2786246 0.490184124,16.1835142 C0.314595781,15.9079381 0.204853067,15.6079746 0.134129984,15.2885014 C0.0975490794,15.1299841 0.0731618095,14.9665894 0.0609681746,14.8056335 C0.0560907206,14.7397878 0.0609681746,14.666626 0,14.6202902 L0,9.1429094 C0.0682843556,9.09901232 0.0536519937,9.02828923 0.0609681746,8.9624436 C0.0804779905,8.75271308 0.114620168,8.54786002 0.165833435,8.34300695 C0.243872698,8.04792099 0.358492867,7.76746738 0.53408121,7.50896232 C0.592610657,7.42360688 0.66333374,7.34800634 0.746250457,7.27972199 C1.12425314,6.97975857 1.55103036,6.77978295 2.02902085,6.69442751 C2.12656993,6.67491769 2.22899646,6.67491769 2.32654554,6.67491769 L8.65504207,6.67491769 C8.97695403,6.67491769 9.29642726,6.71393732 9.60126814,6.81392513 C10.1768077,6.99926838 10.5840751,7.37483234 10.8279478,7.92842336 C10.9523229,8.21375442 11.0913303,9.28435557 11.0913303,9.51847336 Z" id="Path"></path>
                        </g>
                    </g>
                </g>
            </g>
        </g>
    </g>
</svg>