<?xml version="1.0" encoding="UTF-8"?>
<svg enable-background="new 0 0 274 83.1" version="1.1" viewBox="0 0 274 83.1" xml:space="preserve" xmlns="http://www.w3.org/2000/svg">
<style type="text/css">
	.st0{fill:#BBBBBE;}
</style>
<path class="st0" d="m237.8 30v50.8h-19.5c6.4-17.1 12.8-34 19.2-50.8 0.1-0.1 0.2 0 0.3 0z"/>

	
		<path class="st0" d="m49.8 80.8c0.2-0.9 0.4-1.9 0.7-2.8l7.2-18.9c2.4-6.4 4.8-12.7 7.2-19.1 3.2-8.5 6.5-17.1 9.7-25.6 0.5-1.2 0.9-2.4 1.4-3.6 1.6-4.1 4.6-6.8 8.7-8.4 0.8-0.3 1.8-0.5 2.8-0.5 5 0 10 0.1 15-0.1 3.6-0.1 6.7 3.6 5.8 7.5-0.4 1.9-1.1 3.7-1.8 5.5-2 5.4-4 10.7-6 16s-4 10.7-6 16-4 10.7-5.9 16c-2 5.3-4 10.6-5.9 15.9-0.2 0.7-0.4 1.4-0.5 2.1h-11.3c0.3-0.8 0.5-1.7 0.8-2.5 1.9-5.3 3.9-10.5 5.9-15.8 1.5-3.9 3-7.9 4.4-11.8 0.4-0.9 0.3-1.1-0.7-1.1h-8c-0.7 0-1.2 0.3-1.4 1-0.6 1.7-1.2 3.3-1.9 5-2.7 7.1-5.3 14.2-8 21.3-0.5 1.3-0.8 2.6-1.2 4-3.7-0.1-7.3-0.1-11-0.1zm25.9-40.2h1.9 5.6c2.6 0 2.6 0 3.5-2.4 1.5-4.2 3.2-8.5 4.7-12.7l5.1-13.5c0.4-1 0.2-1.3-0.9-1.3h-7.5c-0.8 0-1.2 0.2-1.5 1-1.1 3.1-2.3 6.1-3.5 9.2-1.8 4.8-3.7 9.7-5.5 14.5-0.6 1.5-1.2 3.2-1.9 5.2z"/>
		<path class="st0" d="m1.3 80.8c0.4-1.4 0.8-2.8 1.3-4.1 2.8-7.5 5.7-15 8.6-22.5 3.2-8.4 6.5-16.8 9.7-25.3 2-5.1 3.9-10.3 5.8-15.4 1.3-3.4 2.6-6.8 3.9-10.2 0.6-1.5 0.6-1.5 2.2-1.5h7.4c4.4 0 8.8 0.1 13.1 0 3.7-0.2 6.9 3.2 6.1 7.3-0.5 2.4-1.5 4.7-2.3 7.1-2.8 7.5-5.7 14.9-8.4 22.5-1.5 4-3.7 7.3-7.5 9.4-0.7 0.4-1.1 1-1.2 1.8-0.7 4.5-1.5 8.9-2.3 13.4-0.5 3-1 6.1-1.5 9.1l-1.2 7.2c-0.1 0.5-0.1 0.9-0.1 1.4h-11.3c0.1-0.9 0.1-1.9 0.3-2.8 0.3-1.7 0.7-3.4 1-5 0.7-3.8 1.4-7.7 2.1-11.5 0.7-3.7 1.4-7.3 2.1-11 0.1-0.6-0.1-0.9-0.7-0.9h-3.4c-0.7 0-1.1 0.2-1.4 0.9-1.1 3.1-2.4 6.2-3.6 9.3-2 5.3-4 10.5-6 15.8-0.6 1.7-1.2 3.4-1.7 5.1-3.7-0.1-7.4-0.1-11-0.1zm30.8-39.9c1.1 0 2.3-0.1 3.4 0 1 0.1 1.4-0.3 1.7-1.2l2.1-5.7 8.4-21.9c0.4-1 0.3-1.3-0.9-1.3h-6.9c-0.9 0-1.3 0.3-1.6 1.1-0.5 1.4-1 2.7-1.5 4.1-1.8 4.6-3.6 9.3-5.3 13.9-1.3 3.3-2.5 6.6-3.8 9.9-0.3 0.9-0.2 1.1 0.8 1.1h3.6z"/>
		<path class="st0" d="m176.4 80.7c4.8-13.5 9.7-27 14.6-40.5 2.5-6.8 4.9-13.7 7.4-20.5 1.2-3.4 2.5-6.8 3.7-10.2 0.7-2 1.5-7.6 4.2-7.6h18.7c2.6 0 5.5 0.1 7.2 2 2.3 2.5 1.3 6.4 0.1 9.5l-19.8 55.5c-0.9 2.6-1.9 5.2-3.7 7.3-2.1 2.4-5.2 3.8-8.3 4.4s-6.3 0.6-9.5 0.5c-4.9-0.2-9.7-0.3-14.6-0.4zm19-9h3.9c0.8 0 1.3-0.4 1.5-1.1 0.9-2.4 1.7-4.8 2.6-7.2 1.6-4.4 3.1-8.8 4.7-13.2 1.8-4.9 3.5-9.8 5.3-14.6 1.8-5 3.5-10 5.3-14.9 1.1-3 2.2-5.9 3.2-8.9 0.3-0.8 0.1-1.1-0.7-1.1h-7.8c-0.7 0-1 0.3-1.2 1-0.6 1.8-1.3 3.6-1.9 5.4-1.9 5.4-3.9 10.8-5.8 16.1l-6 16.5c-1.8 5-3.6 10-5.4 14.9-0.7 1.8-1.3 3.6-2 5.4-0.5 1.4-0.4 1.6 1.1 1.7h3.2z"/>
		<path class="st0" d="m99.3 80.8c0.6-1.9 1.2-3.7 1.9-5.6 2.2-6 4.5-12.1 6.7-18.1 1.7-4.7 3.5-9.3 5.2-14 2-5.3 4-10.7 6-16.1l6-16.2c0.9-2.5 1.9-5.1 2.8-7.6 0.5-1.5 0.5-1.5 2.1-1.5h20.2c2.6 0 4.8 1.5 5.7 3.9 0.7 1.7 0.5 3.5-0.1 5.2-1.8 5.1-3.7 10.2-5.6 15.4-2.2 6-4.4 12.1-6.7 18.1-0.5 1.3-0.8 2.6-1.5 3.8-2.7 5-6.9 7.9-12.7 8-2.8 0.1-5.6 0-8.5 0-1.6 0-1.7 0-2.2 1.4-1.1 3-2.2 5.9-3.3 8.9-1.6 4.3-3.2 8.6-4.8 12.8-0.2 0.5-0.3 1-0.4 1.5-3.5 0.1-7.1 0.1-10.8 0.1zm41.2-70h-2.8c-1.6 0-1.6 0.1-2.2 1.6-1.7 4.8-3.5 9.6-5.3 14.3-2.3 6.3-4.7 12.6-7 18.8-0.3 0.9-0.2 1.1 0.8 1.1h6.6c0.9 0 1.3-0.4 1.6-1.2 1-2.8 2.1-5.6 3.1-8.5 2-5.5 4-10.9 6-16.4 1.1-2.9 2.2-5.8 3.2-8.8 0.3-0.9 0.2-1.1-0.8-1.2-1 0.2-2.1 0.3-3.2 0.3z"/>
		<path class="st0" d="m147 80.8c1-2.8 1.9-5.6 2.9-8.4 1.8-4.9 3.6-9.7 5.4-14.6 2.2-6 4.4-12.1 6.6-18.1l7.2-19.8c2.1-5.8 4.2-11.5 6.3-17.3 0.2-0.6 0.5-0.9 1.1-0.9 3.2 0 6.5 0 9.7 0.1 0.1 0 0.2 0.1 0.3 0.2-0.6 1.8-1.3 3.6-1.9 5.4-1.8 4.9-3.6 9.8-5.4 14.8-1.6 4.3-3.2 8.7-4.7 13-1.6 4.3-3.1 8.7-4.7 13-1.5 4.2-3 8.4-4.6 12.6-1.8 4.9-3.6 9.8-5.4 14.8-0.6 1.8-1.2 3.5-1.9 5.3-3.6-0.1-7.3-0.1-10.9-0.1z"/>
		<path class="st0" d="m268.4 34.2c0 0.1-0.1 0.2-0.2 0.3-0.4 0.3-0.9 0.6-1.4 0.7-1.2 0.4-2.4 0.8-3.6 1.2-3 0.9-5.9 1.9-8.9 2.8-0.8 0.2-1.6 0.5-2.1 1.2 4.9 0.1 9.8 0 14.8-0.1 0.3 0 0.5 0 0.7 0.1s0.4 0.3 0.5 0.5c0 0.3-0.2 0.6-0.4 0.7-0.3 0.1-0.6 0.1-0.9 0.1h-18.5c-0.3 0-0.6 0-0.9-0.1s-0.5-0.3-0.6-0.6 0.1-0.6 0.4-0.8 0.5-0.3 0.8-0.4c4.8-1.5 9.6-3 14.4-4.6 0.3-0.1 0.7-0.3 0.8-0.6-5 0-10.1 0.1-15.1 0.1-0.3 0-0.6 0-0.9-0.2s-0.4-0.7-0.1-0.9c0.3-0.3 0.9-0.3 1.3-0.3h18.8c0.3 0 0.6 0 0.8 0.1s0.4 0.5 0.3 0.8z"/>
		<path class="st0" d="m246.9 80.8c-0.1-0.5-0.2-1.1 0.3-1.3 0.2-0.1 0.4-0.1 0.6-0.1h5.9c0.8 0 1.6 0 2.2-0.6 0.4-0.4 0.6-1 0.6-1.6 0.1-0.6 0.1-1.2 0-1.9 0-0.2 0-0.4-0.1-0.5-0.2-0.3-0.6-0.3-1-0.3h-7.5c-0.3 0-0.6 0-0.8-0.2-0.4-0.3-0.2-0.7 0.1-0.9 0.3-0.3 0.8-0.3 1.2-0.3h19c0.3 0 0.6 0 0.8 0.2 0.1 0.2 0.2 0.4 0.2 0.6 0.2 1.4 0.2 2.9-0.2 4.3-0.3 0.8-0.7 1.5-1.2 2.1-0.3 0.4-0.7 0.6-1.2 0.6h-6.5c-0.1 0-0.3 0-0.4-0.1l-0.3-0.3c-0.4-0.5-0.9-0.9-1.3-1.4-0.5 0.4-0.6 1.3-1.2 1.6-0.3 0.1-0.6 0.1-0.9 0.1h-8.3zm15.5-6.3h-2.5c-2.2 0-2.2 0-2.1 2.2 0.1 1.7 0.9 2.6 2.6 2.6h3.4c2.6 0 3.1-0.6 3.1-3.1v-0.9c0-0.6-0.3-0.8-0.9-0.8h-3.6z"/>
		<path class="st0" d="m268.5 16.1c-0.1 0.4-0.2 0.9-0.4 1.3-0.3 0.7-0.8 1.4-1.5 1.7s-1.5 0.3-2.2 0.4h-2.5c-0.9 0-1.7 0-2.6-0.2-0.8-0.2-1.6-0.7-2-1.5-0.3 0.7-1.1 1.2-1.9 1.5s-1.6 0.2-2.4 0.2h-4.9c-0.5 0-1.1-0.1-1.2-0.6-0.1-0.3 0.2-0.6 0.4-0.8 0.3-0.1 0.6-0.2 1-0.2 2 0 4 0.1 6.1-0.1 0.6-0.1 1.1-0.1 1.5-0.5 0.3-0.3 0.5-0.7 0.6-1.2s0.2-1.1 0.2-1.6c0-0.3 0-0.6-0.2-0.9-0.3-0.4-0.9-0.5-1.5-0.5-2.1-0.1-4.3-0.1-6.4 0-0.4 0-0.8 0-1.1-0.1-0.4-0.2-0.7-0.7-0.4-1s0.8-0.4 1.2-0.4h18.7c0.5 0 1 0 1.3 0.4 0.2 0.2 0.2 0.5 0.2 0.8 0.1 1.2 0.1 2.3 0 3.3zm-8.7-2.8c-2.1 0-2.1 0-2 2v0.2c0.1 1.7 0.7 2.4 2.5 2.6 1.1 0.1 2.2 0.1 3.3 0.1 3 0 3.5-0.5 3.4-3.6v-0.3c0-0.7-0.3-0.9-1-0.9-1.1-0.1-5.3-0.1-6.2-0.1z"/>
		<path class="st0" d="m268.4 50.2c0 0.2-0.1 0.3-0.2 0.5-0.5 1-1.5 1.5-2.6 1.8-1.1 0.2-2.1 0.1-3.2 0.1-0.4 0-0.8 0-1-0.4-0.2-0.3 0-0.7 0.3-0.8s0.6-0.2 0.9-0.3c1.2-0.1 2.4 0.2 3.4-0.4 0.8-0.4 1.3-1.4 1.3-2.3s-0.7-1.8-1.5-2.1c-0.6-0.3-1.4-0.2-2-0.2-0.9 0-1.9 0-2.8 0.4-0.6 0.3-1.2 0.8-1.6 1.4-0.7 0.8-1.2 1.8-1.9 2.6s-1.5 1.6-2.5 1.9c-1.1 0.4-2.2 0.2-3.3 0.2-0.7 0-1.4 0-2.2-0.1s-1.4-0.4-1.9-0.9-0.7-1.2-0.8-1.8c-0.3-1.6-0.1-4.3 1.7-5 0.5-0.2 1-0.2 1.5-0.3 1.2-0.1 2.4-0.1 3.5 0 0.4 0 0.9 0.1 1 0.5 0.1 0.3-0.1 0.6-0.4 0.8s-0.6 0.1-1 0.1h-2.1c-0.9 0-2 0-2.6 0.8-0.4 0.5-0.5 1.1-0.5 1.7 0 0.8 0.2 1.7 0.9 2.2 0.4 0.3 0.9 0.3 1.4 0.4 0.9 0.1 1.7 0.1 2.6 0.1 0.7 0 1.4-0.1 2.1-0.4 0.6-0.3 1-0.7 1.4-1.2 1.2-1.5 2-3.4 3.7-4.3 1.1-0.6 2.5-0.7 3.8-0.7 0.8 0 1.7 0.1 2.5 0.3s1.5 0.8 1.9 1.6c0.3 0.6 0.3 1.4 0.4 2.1 0 0.5 0 1.1-0.2 1.7z"/>
		<path class="st0" d="m268.5 27.1c-6.8 1.4-13.6 2.6-20.4 3.8-0.4 0.1-1 0.1-1.2-0.3-0.1-0.3 0-0.6 0.3-0.8 0.2-0.2 0.6-0.2 0.9-0.3 0.9-0.2 1.8-0.3 2.7-0.5 0.1 0 0.3-0.1 0.4-0.2 0.2-0.2 0.2-0.5 0.2-0.7v-3.1c0-0.2 0-0.4-0.1-0.6-0.2-0.4-0.6-0.5-1-0.5-0.8-0.1-1.5-0.3-2.3-0.4-0.3 0-0.5-0.1-0.8-0.3-0.5-0.3-0.3-0.8 0.2-1s1-0.1 1.5 0c5.1 0.9 10.2 1.8 15.3 2.7 1.3 0.2 2.6 0.5 3.8 0.9 0.2 0.1 0.4 0.1 0.5 0.3 0.1 0.3 0.1 0.6 0 1zm-4.8-0.4v-0.5c-3.6-0.6-7.1-1.2-10.8-1.8-0.2 1.5-0.3 2.8 0 4.3 3.7-0.7 7.3-1.3 10.8-2z"/>
		<path class="st0" d="m268.5 69.8c-0.1 0.1-0.2 0.1-0.3 0.2-0.3 0.1-0.8 0.2-1 0-0.1-0.1-0.1-0.3-0.1-0.5-0.1-0.9-0.1-1.9 0-2.8 0-0.4 0-0.9-0.3-1.2-0.2-0.2-0.5-0.2-0.8-0.2h-6.5c-0.3 0-0.6 0-0.8 0.2s-0.2 0.5-0.2 0.7v2.5c0 0.3 0 0.6-0.1 0.9s-0.5 0.5-0.8 0.4c-0.4-0.1-0.5-0.6-0.5-1v-2.6c0-0.4 0-0.8-0.3-1-0.2-0.2-0.5-0.2-0.8-0.2h-6.9c-0.2 0-0.4 0-0.5 0.1-0.3 0.2-0.3 0.5-0.4 0.8-0.1 0.9-0.1 1.7 0 2.6v0.8s-0.3 0.5-0.6 0.5-0.6-0.2-0.7-0.5-0.1-0.6-0.1-0.9c0-1.1 0-2.2 0.1-3.3 0-0.4-0.1-1.1 0.1-1.4s0.8-0.3 1.1-0.3h17.1 2.2c0.4 0 0.9 0.1 1.1 0.5 0.1 0.2 0.1 0.5 0.1 0.7v4.4c-0.1 0.4-0.1 0.6-0.1 0.6z"/>
		<path class="st0" d="m268.5 61.1c-0.1 0.1-0.2 0.1-0.3 0.2-0.3 0.1-0.8 0.3-1-0.1-0.1-0.1-0.1-0.3-0.1-0.4 0-0.9-0.1-1.9 0-2.8 0-0.4 0-0.9-0.3-1.1-0.2-0.1-0.5-0.2-0.7-0.2h-6.6c-0.2 0-0.4 0-0.6 0.1-0.3 0.2-0.3 0.6-0.3 1v2.2c0 0.3 0 0.7-0.1 0.9-0.1 0.3-0.5 0.5-0.8 0.4-0.4-0.1-0.5-0.7-0.5-1.1v-2.3c0-0.4 0-1-0.4-1.2-0.2-0.1-0.4-0.1-0.6-0.1h-7.8c-0.4 0-0.8 0-1.1-0.2s-0.3-0.6-0.2-0.9c0.2-0.3 0.5-0.4 0.9-0.4h19.2c0.5 0 1.2 0.1 1.4 0.6 0.1 0.2 0.1 0.4 0.1 0.6v4.4c-0.2 0.2-0.2 0.3-0.2 0.4z"/>
		<path class="st0" d="m268.5 9.3c-0.1 0.2-0.2 0.5-0.4 0.6-0.4 0.2-0.8-0.1-1-0.5-0.2-0.5-0.1-0.9-0.1-1.4 0-0.4 0-0.9-0.3-1.2-0.3-0.4-0.9-0.4-1.4-0.4h-17.1c-0.3 0-0.7 0-1-0.2s-0.4-0.6-0.2-0.9c0.2-0.4 0.8-0.4 1.2-0.4h17.8c0.4 0 0.9 0 1.1-0.4-0.1-0.1-0.1-0.3-0.1-0.5v-2.3l1.5 0.3v6.6 0.7z"/>
	

</svg>
