<?xml version="1.0" encoding="UTF-8"?>
<svg width="70px" height="24px" viewBox="0 0 70 24" version="1.1" xmlns="http://www.w3.org/2000/svg" xmlns:xlink="http://www.w3.org/1999/xlink">
    <g id="Open-game" stroke="none" stroke-width="1" fill="none" fill-rule="evenodd">
        <g id="Game_sidebar_payment_step2" transform="translate(-1069.000000, -347.000000)" fill-rule="nonzero" fill="#9698A1">
            <g id="#3_payment" transform="translate(1009.000000, 129.000000)">
                <g id="content">
                    <g id="box_payments" transform="translate(15.000000, 104.000000)">
                        <g id="skrill" transform="translate(45.000000, 114.000000)">
                            <g id="logo">
                                <polyline id="l" points="63.7294902 2.31580486 63.7294902 23.3272735 69.4876873 23.3272735 69.4876873 1.28849984 63.7294902 2.31580486"></polyline>
                                <polyline id="l" points="55.3240899 2.31580486 61.0785987 1.28849984 61.0785987 23.3272735 55.3240899 23.3272735 55.3240899 2.31580486"></polyline>
                                <polyline id="i" points="47.1270726 23.3272735 47.1270726 7.20768971 52.8843477 7.20768971 52.8843477 23.3272735 47.1270726 23.3272735"></polyline>
                                <path d="M47.1667207,2.83175662 C47.1667207,1.26826645 48.4382266,0 50.003866,0 C51.5722717,0 52.8428554,1.26826645 52.8428554,2.83175662 C52.8428554,4.3961665 51.5722717,5.66167384 50.003866,5.66167384 C48.4382266,5.66167384 47.1667207,4.3961665 47.1667207,2.83175662" id="i"></path>
                                <path d="M43.8796153,6.97132679 C38.5603136,7.14239101 35.8577874,9.52441431 35.8577874,14.2590304 L35.8577874,23.3272735 L41.6630091,23.3272735 L41.6630091,15.9310452 C41.6630091,13.0974492 42.0355169,11.8825253 45.4074509,11.7666431 L45.4074509,7.0550195 C44.8403906,6.93453878 43.8796153,6.97132679 43.8796153,6.97132679 L43.8796153,6.97132679" id="r"></path>
                                <path d="M28.2601022,7.18929571 C28.1328593,7.51119075 27.2126543,10.1093435 24.9812952,12.8013057 L24.9812952,1.28849984 L19.0396104,2.46111747 L19.0396104,23.3272735 L24.9812952,23.3272735 L24.9812952,16.8764969 C26.701839,19.4516572 27.5519684,23.3272735 27.5519684,23.3272735 L34.667422,23.3272735 C33.9638984,20.4081453 30.8851762,15.02698 30.8851762,15.02698 C33.6494796,11.5302802 34.8619744,7.80641448 35.0556046,7.18929571 L28.2601022,7.18929571" id="k"></path>
                                <path d="M9.07594682,9.48762624 C8.34845004,9.4407216 6.66294414,9.33127724 6.66294414,7.81837059 C6.66294414,5.99276588 9.08793347,5.99276588 9.99799601,5.99276588 C11.5986734,5.99276588 13.6695959,6.46365233 15.1504069,6.90602808 C15.1504069,6.90602808 15.9747188,7.19665332 16.6763983,7.49279674 L16.7418638,7.51119075 L16.7418638,2.51078129 L16.6542691,2.48410998 C14.9060638,1.87434881 12.8766336,1.28849984 9.11190676,1.28849984 C2.62160256,1.28849984 0.322011895,5.05835057 0.322011895,8.29109644 C0.322011895,10.1525695 1.12235058,14.5376995 8.55314496,15.0426149 C9.18474868,15.0812423 10.8573459,15.1778109 10.8573459,16.741301 C10.8573459,18.03256 9.48810284,18.7922322 7.18574602,18.7922322 C4.66301945,18.7922322 2.21405682,18.152121 0.727713535,17.5423598 L0.727713535,22.6908409 C2.95354027,23.2748506 5.46335814,23.5636364 8.40469505,23.5636364 C14.7483934,23.5636364 17.5919931,19.9961196 17.5919931,16.458953 C17.5919931,12.4499803 14.4118454,9.84446993 9.07594682,9.48762624 L9.07594682,9.48762624" id="s"></path>
                            </g>
                        </g>
                    </g>
                </g>
            </g>
        </g>
    </g>
</svg>