<svg id="Layer_1" data-name="Layer 1" xmlns="http://www.w3.org/2000/svg" viewBox="0 0 27.27 7.79"><defs><style>.cls-1{fill:#aeb5bf;}</style></defs><path class="cls-1" d="M9.21,5.63V2.05H7.92V1.2h3.49v.85H10.13V5.63Z"/><path class="cls-1" d="M11.27,5.63V2.41h.85v.51a.74.74,0,0,1,.74-.51h.33v.86h-.28c-.4,0-.76.23-.76.94V5.63Z"/><path class="cls-1" d="M13.59,4.45v-2h.88V4.25c0,.38.18.66.55.66a.6.6,0,0,0,.6-.65V2.41h.88V5.63h-.84V5.22a1.05,1.05,0,0,1-.93.48A1.12,1.12,0,0,1,13.59,4.45Z"/><path class="cls-1" d="M16.87,4.72l.77-.17c0,.25.23.43.62.43s.46-.12.46-.27-.07-.21-.37-.28l-.5-.11c-.65-.14-.92-.43-.92-1s.45-1,1.31-1,1.27.55,1.31.9l-.77.17A.5.5,0,0,0,18.22,3c-.24,0-.42.11-.42.27s.09.2.25.24l.73.17a.92.92,0,0,1,.82.94c0,.5-.41,1-1.34,1S16.91,5.07,16.87,4.72Z"/><path class="cls-1" d="M21.29,5.63a.87.87,0,0,1-.95-.94V3.18H19.8V2.41h.54V1.69l.88-.25v1h.65v.77h-.65V4.53c0,.23.12.32.35.32h.34v.78Z"/><path class="cls-1" d="M22.39,5.63V1.2h.88V5.63Z"/><path class="cls-1" d="M25.92,2.41h.94L25.52,6.78h-.94L25,5.63h-.48l-.89-3.22h.94l.66,2.49Z"/><polygon class="cls-1" points="0.37 3.14 2.44 3.14 2.44 1.49 4.08 3.14 2.44 4.78 2.44 5.63 4.44 5.63 4.44 3.14 6.27 3.14 6.27 1.2 0.37 1.2 0.37 3.14"/></svg>