<?xml version="1.0" encoding="UTF-8"?>
<svg width="101px" height="19px" viewBox="0 0 101 19" version="1.1" xmlns="http://www.w3.org/2000/svg" xmlns:xlink="http://www.w3.org/1999/xlink">
    <!-- Generator: Sketch 60.1 (88133) - https://sketch.com -->
    <title>Group 11</title>
    <desc>Created with Sketch.</desc>
    <g id="✓-Deposit" stroke="none" stroke-width="1" fill="none" fill-rule="evenodd">
        <g id="Footer-With-Awards" transform="translate(-680.000000, -133.000000)" fill-rule="nonzero">
            <g id="Group-11" transform="translate(680.000000, 133.000000)">
                <g id="mastercard-compressed" transform="translate(71.000000, 0.000000)">
                    <path d="M11.4388515,9.30911298 C11.4388515,6.37795051 12.8082353,3.76815593 14.9401027,2.07935574 C13.3681232,0.834066293 11.3820822,0.0884360411 9.22076564,0.0884360411 C4.12828665,0.0884360411 5.15143483e-14,4.21672269 5.15143483e-14,9.30911298 C5.15143483e-14,14.4015033 4.12828665,18.5299673 9.22076564,18.5299673 C11.3821709,18.5299673 13.3681232,17.7842484 14.9401027,16.5389589 C12.8081466,14.8498926 11.4388515,12.2403641 11.4388515,9.30911298" id="Path" fill="#454852"></path>
                    <path d="M11.4392063,9.30911298 C11.4392063,12.2402754 12.8085901,14.8498926 14.9404575,16.5389589 C17.0725023,14.8498926 18.4417974,12.2403641 18.4417974,9.30911298 C18.4417974,6.37786181 17.0725023,3.76815593 14.9404575,2.07935574 C12.8085014,3.76824463 11.4392063,6.37795051 11.4392063,9.30911298" id="Path" fill="#B8B8BE"></path>
                    <path d="M29.8339916,14.296746 L29.8339916,14.0579599 L29.7565546,14.2638375 L29.6710458,14.2638375 L29.5936088,14.0584921 L29.5936088,14.2966573 L29.5130672,14.2966573 L29.5130672,13.952493 L29.6286461,13.952493 L29.714155,14.1729178 L29.799043,13.952493 L29.9146218,13.952493 L29.9146218,14.2966573 L29.8339916,14.296746 Z M29.2560084,14.296746 L29.2560084,14.0267367 L29.1468161,14.0267367 L29.1468161,13.9525817 L29.4456536,13.9525817 L29.4456536,14.0267367 L29.3366387,14.0267367 L29.3366387,14.296746 L29.2560084,14.296746 M20.6604155,0.0884360411 C18.4990103,0.0884360411 16.5130579,0.834154995 14.940901,2.07935574 C17.0729458,3.76824463 18.4422409,6.37795051 18.4422409,9.30911298 C18.4422409,12.2402754 17.0729458,14.8498926 14.940901,16.5389589 C16.5130579,17.7843371 18.4990103,18.5299673 20.6604155,18.5299673 C25.7528945,18.5299673 29.8811811,14.4015033 29.8811811,9.30911298 C29.8811811,4.21672269 25.7528945,0.0884360411 20.6604155,0.0884360411" id="Shape" fill="#CCCCD0"></path>
                </g>
                <polygon id="Line-2" fill="#454852" points="64 0 64 19 63 19 63 0"></polygon>
                <g id="visa-electronlight">
                    <g id="payment-method-icon-set">
                        <g>
                            <g id="Styled---light">
                                <g id="visa-electron" transform="translate(0.325151, 0.455428)">
                                    <g id="logo">
                                        <g id="registered" transform="translate(52.362116, 14.659532)" fill="#777B86">
                                            <path d="M0.138429206,1.13704124 C0.138429206,0.563032187 0.603863544,0.0978255577 1.17764489,0.0978255577 C1.75244358,0.0978255577 2.21686058,0.563032187 2.21686058,1.13704124 C2.21686058,1.71054188 1.75244358,2.17625693 1.17764489,2.17625693 C0.603863544,2.17625693 0.138429206,1.71054188 0.138429206,1.13704124 L0.138429206,1.13704124 Z M1.17764489,1.92611303 C1.61510231,1.92611303 1.96812026,1.57275937 1.96812026,1.13704124 C1.96812026,0.699797853 1.61510231,0.347461028 1.17764489,0.347461028 C0.742222164,0.347461028 0.388695538,0.699797853 0.388695538,1.13704124 C0.388695538,1.57275937 0.742222164,1.92611303 1.17764489,1.92611303 L1.17764489,1.92611303 Z M1.03776025,1.59258785 L0.825135605,1.59258785 L0.825135605,0.679969373 L1.21070853,0.679969373 C1.29107862,0.679969373 1.37246604,0.680986218 1.44368004,0.725727399 C1.51743739,0.777586506 1.55914844,0.863509916 1.55914844,0.954009128 C1.55914844,1.05823574 1.49963389,1.15483603 1.40196898,1.19042561 L1.56881321,1.59258785 L1.332281,1.59258785 L1.19392238,1.23109941 L1.03776025,1.23109941 L1.03776025,1.59258785 L1.03776025,1.59258785 Z M1.03776025,1.07501369 L1.15475468,1.07501369 C1.19900909,1.07501369 1.24631553,1.07908107 1.28497456,1.05823574 C1.32007289,1.03535674 1.33838505,0.992649241 1.33838505,0.951975436 C1.33838505,0.918419544 1.31702086,0.87774574 1.28700924,0.859950952 C1.24936756,0.838088782 1.19036168,0.842664591 1.15068531,0.842664591 L1.03776025,0.842664591 L1.03776025,1.07501369 L1.03776025,1.07501369 Z" id="Shape"></path>
                                        </g>
                                        <path d="M48.1649902,16.5662334 L47.6674608,14.1630878 L42.2694741,14.1630878 L41.3845923,16.5662334 L36.9594905,16.5662334 L43.2908646,1.58972031 C43.2908646,1.58972031 43.6754452,0.384365769 45.251879,0.384365769 L48.6645985,0.384365769 L52.0634592,16.5662334 L48.1649902,16.5662334 Z M43.4932025,10.8426902 L46.9793734,10.8426902 L45.7237698,4.78566323 L43.4932025,10.8426902 Z" id="a" fill="#777B86"></path>
                                        <path d="M37.2907149,4.27546753 L37.8970356,0.800360923 C37.8970356,0.800360923 36.026796,0.0948881507 34.0782545,0.0948881507 C31.9710302,0.0948881507 26.9673252,1.00870229 26.9673252,5.45194307 C26.9673252,9.63321007 32.8406673,9.6854673 32.8406673,11.8795839 C32.8406673,14.0750756 27.572953,13.6831463 25.8336787,12.2983294 L25.2031051,15.9308954 C25.2031051,15.9308954 27.0982905,16.8453971 29.996157,16.8453971 C32.8926376,16.8453971 37.2650761,15.3560657 37.2650761,11.3054418 C37.2650761,7.09804623 31.3390708,6.70542929 31.3390708,4.87642582 C31.3390708,3.04673474 35.4745245,3.28189233 37.2907149,4.27546753" id="s" fill="#777B86"></path>
                                        <polyline id="i" fill="#777B86" points="22.5865714 16.5662334 18.3409406 16.5662334 20.9942 0.384365769 25.2412167 0.384365769 22.5865714 16.5662334"></polyline>
                                        <path d="M3.45351505,0.384365769 L0.107664128,0.384365769 L0.0293621387,0.658028697 C0.0300550766,0.658028697 2.07630086,1.08021221 4.47178738,2.50766004 L8.15960317,16.5662334 L12.5833191,16.5662334 L19.3387712,0.384365769 L14.7688454,0.384365769 L10.7213948,11.5144708 L10.2418817,9.11751358 L10.2418817,9.11820117 L8.81304367,1.8413802 C8.81304367,1.8413802 8.64119504,0.384365769 6.79936599,0.384365769 L3.45351505,0.384365769 L0.107664128,0.384365769 L0.0293621387,0.658028697 C0.0300550766,0.658028697 3.24667307,1.31949537 6.33163284,3.79690121 C9.28146976,6.16635458 10.2418817,9.11820117 10.2418817,9.11820117 L8.81304367,1.8413802 C8.81304367,1.8413802 8.64119504,0.384365769 6.79936599,0.384365769 L3.45351505,0.384365769 Z" id="v" fill="#777B86"></path>
                                        <path d="M10.2418817,9.11820117 L8.81304367,1.8413802 C8.81304367,1.8413802 8.64119504,0.384365769 6.79936599,0.384365769 L0.107664128,0.384365769 L0.0293621387,0.658028697 C0.0300550766,0.658028697 3.24667307,1.31949537 6.33163284,3.79690121 C9.28146976,6.16635458 10.2418817,9.11820117 10.2418817,9.11820117" id="shape" fill="#CCCCD0"></path>
                                    </g>
                                </g>
                            </g>
                        </g>
                    </g>
                </g>
            </g>
        </g>
    </g>
</svg>