<?xml version="1.0" encoding="utf-8"?>
<!-- Generator: Adobe Illustrator 24.1.3, SVG Export Plug-In . SVG Version: 6.00 Build 0)  -->
<svg version="1.1" id="Layer_1" xmlns="http://www.w3.org/2000/svg" xmlns:xlink="http://www.w3.org/1999/xlink" x="0px" y="0px"
	 viewBox="0 0 192.5 38.1" style="enable-background:new 0 0 192.5 38.1;" xml:space="preserve">
<style type="text/css">
	.st0{fill:#BBBBBE;}
</style>
<path class="st0" d="M46.5,12.8V26c0,1.8-1.5,3.3-3.3,3.3H26.7c-4.9,0-7.4-5.3-4.1-8.5l-0.3-0.3l-8.8,8.8h-3.3
	c-1.8,0-3.3-1.5-3.3-3.3V12.8c0-1.8,1.5-3.3,3.3-3.3h9.9c4.9,0,7.4,5.3,4.1,8.5l0.3,0.3l8.8-8.8h9.9C45.1,9.5,46.5,11,46.5,12.8z
	 M73.4,13.3V9.5H57.2v4.1l10.2-0.1l-10.9,12v3.8H74v-4.1l-11.6,0L73.4,13.3L73.4,13.3z M109.7,9c-3.2,0-5.4,1.4-6.3,3.8h-0.5
	c-0.6-2.5-2.7-3.8-5.5-3.8c-2.6,0-5.2,1-6.2,3.5v-3h-5.4v19.8h5.4v-12c0-2.9,1.6-4,3.4-4h0.2c1.7,0,3.3,0.8,3.3,3.6v12.5h5.4l0-12
	c0-2.9,1.7-4,3.4-4h0.2c1.7,0,3.3,0.8,3.3,3.5v12.5h5.4V15.7C116.1,10.5,112.7,9,109.7,9L109.7,9z M139.6,19.4
	c0,6.4-3.6,10.4-8.4,10.4c-3.5,0-5.6-1.7-6.4-3.5c0,1.1,0,10.8,0,10.8h-5.4V9.5h5.4v3.2c0.8-1.9,3.1-3.7,6.4-3.7
	C135.9,9,139.6,13,139.6,19.4z M133.9,19.4c0-3.7-1.5-6.3-4.6-6.3h-0.2c-3.2,0-4.6,2.6-4.6,6.3s1.5,6.4,4.6,6.4h0.2
	C132.4,25.7,133.9,23.1,133.9,19.4z M142.2,29.3h5.4V1.8h-5.4V29.3L142.2,29.3z M164.5,22.7h5.4c-1,4.4-4.5,7.2-9.7,7.1
	c-6.2,0-9.9-4.2-9.9-10.3c0-6.5,4-10.4,9.8-10.4s9.7,3.9,9.7,10.3v1.1h-14.2v0.2c0.1,3,1.9,5.2,4.6,5.2h0.2
	C162.7,25.8,164,24.4,164.5,22.7z M155.6,17.2h8.7c-0.2-2.5-1.7-4.5-4.2-4.5h-0.2C157.3,12.7,155.8,14.8,155.6,17.2L155.6,17.2z
	 M184.6,9.4c-3.1,0-5.2,0.8-6.4,4.1v-4h-5.3v19.8h5.4v-9.9c0-3.3,2.4-4.6,5.1-4.6c0.8,0,1.4,0.1,2.1,0.2V9.4
	C185.4,9.4,185,9.4,184.6,9.4L184.6,9.4z M76.9,20.9v8.4h5.4V15.5l0,0C79.4,15.5,76.9,17.9,76.9,20.9L76.9,20.9z M76.9,14.9h5.4V9.5
	h-5.4L76.9,14.9L76.9,14.9z"/>
</svg>
