<svg width="41" height="41" viewBox="0 0 41 41" fill="none" xmlns="http://www.w3.org/2000/svg">
<path d="M21.9771 27.3196C21.9771 27.3196 17.8176 25.1359 18.0652 20.2584C18.0652 20.2584 18.1692 15.6879 22.6951 13.7122C22.6951 13.7122 26.6268 12.0038 30.0039 14.554C30.0039 14.554 31.9797 16.089 34.1931 14.5837L39.1647 10.9936C39.1647 10.9936 33.4998 2.47659 22.8981 4.26418C23.7498 4.51177 24.5669 4.91286 25.1363 5.61106C25.9583 6.62122 25.8543 8.03743 25.3047 9.15158C25.0224 9.72598 24.6609 10.2162 24.0816 10.5084C23.4725 10.8154 22.7694 10.8896 22.091 10.8896C22.0068 10.8896 21.9276 10.8896 21.8434 10.8847C20.749 10.85 19.6943 10.7758 18.595 10.8847C16.5103 11.0976 14.2127 11.7513 13.9354 14.1677C13.871 14.7372 14.0344 15.3363 14.4256 15.7622C14.797 16.1682 15.3368 16.3019 15.8468 16.4604C16.2776 16.5941 16.7777 16.7724 17.0501 17.1586C17.6294 17.9954 16.5252 18.8471 15.8468 19.1046C14.693 19.5453 13.3957 19.4562 12.1924 19.3176C11.2218 19.2037 10.2315 19.0205 9.29065 18.7531C9.21637 18.7333 9.13714 18.7134 9.05792 18.6887C7.25052 18.2133 4.86377 18.0301 3.44261 19.4364C2.07592 20.7882 1.99669 23.2493 3.49213 24.507C5.2302 25.9628 7.58724 25.8935 9.74621 25.6014C10.1077 25.5518 10.4593 25.4974 10.8059 25.4429C11.8309 25.2795 12.8708 25.2102 13.9057 25.1854C14.9753 25.1607 16.0845 25.1854 17.1243 25.4528C18.0949 25.7053 19.0605 26.6313 19.2635 27.6266C19.4022 28.3199 19.0506 28.9042 18.4564 29.2459C17.8126 29.6222 17.1243 29.6321 16.4113 29.7509C16.2726 29.7757 16.134 29.8054 16.0003 29.845C15.4061 30.0282 14.9802 30.5581 14.8861 31.1671C14.7326 32.1278 15.3516 33.0092 15.9409 33.7025C16.5054 34.366 17.1739 34.9354 17.8968 35.4108C20.5114 36.7775 23.9925 37.7134 28.4094 37.1439C28.4094 37.1439 34.9755 36.3814 39.1746 30.3501L31.7519 25.0567C31.7519 25.0567 28.4193 30.261 21.9771 27.3196Z" fill="url(#paint0_linear_606_23313)"/>
<path opacity="0.8" d="M9.04815 18.6935C7.24076 18.2181 4.854 18.0349 3.43284 19.4412C2.06616 20.793 1.98693 23.254 3.48236 24.5118C5.22043 25.9676 7.57748 25.8983 9.73645 25.6061C8.83522 22.7291 8.85503 20.278 9.04815 18.6935Z" fill="url(#paint1_linear_606_23313)"/>
<path d="M12.1824 19.3175C13.3857 19.4611 14.6781 19.5453 15.8368 19.1046C16.5152 18.8471 17.6194 17.9954 17.0401 17.1586C16.7727 16.7723 16.2726 16.5941 15.8368 16.4604C15.3317 16.3069 14.787 16.1682 14.4156 15.7622C14.0245 15.3363 13.861 14.7372 13.9254 14.1677C14.2027 11.7512 16.5053 11.0927 18.585 10.8847C19.6794 10.7757 20.7391 10.85 21.8334 10.8847C21.9176 10.8896 21.9968 10.8896 22.081 10.8896C22.7544 10.8946 23.4576 10.8154 24.0716 10.5083C24.6509 10.2162 25.0124 9.72101 25.2947 9.15156C25.8443 8.03741 25.9434 6.62615 25.1263 5.61104C24.5618 4.91284 23.7448 4.51175 22.8881 4.26416C21.8284 4.44242 20.7192 4.72467 19.5605 5.12577C19.5605 5.12577 11.5139 7.8839 9.43416 16.7575C9.43416 16.7575 9.18657 17.4705 9.04297 18.6887C9.1222 18.7085 9.20143 18.7283 9.2757 18.753C10.2215 19.0204 11.2118 19.2036 12.1824 19.3175Z" fill="url(#paint2_linear_606_23313)"/>
<path d="M15.9261 33.7172C15.3368 33.024 14.7179 32.1426 14.8714 31.1819C14.9655 30.5728 15.3913 30.048 15.9855 29.8598C16.1192 29.8152 16.2579 29.7855 16.3965 29.7657C17.1096 29.6469 17.7979 29.637 18.4416 29.2606C19.0309 28.914 19.3874 28.3346 19.2487 27.6414C19.0507 26.6461 18.0851 25.7201 17.1096 25.4676C16.0648 25.1952 14.9605 25.1705 13.8909 25.2002C12.8511 25.2249 11.8161 25.2943 10.7911 25.4577C10.4445 25.5121 10.0929 25.5666 9.73145 25.6161C10.1622 26.9927 10.801 28.4634 11.7369 29.9836C11.7369 29.9836 13.7028 33.2567 17.8771 35.4355C17.1591 34.9453 16.4956 34.3808 15.9261 33.7172Z" fill="url(#paint3_linear_606_23313)"/>
<path d="M7.69126 15.1828C8.44059 15.1828 9.04804 14.5754 9.04804 13.826C9.04804 13.0767 8.44059 12.4692 7.69126 12.4692C6.94193 12.4692 6.33447 13.0767 6.33447 13.826C6.33447 14.5754 6.94193 15.1828 7.69126 15.1828Z" fill="#0EB6FA"/>
<path d="M23.671 35.4257C23.1213 34.3759 23.047 33.0241 23.9334 32.1228C24.4236 31.6227 25.1169 31.385 25.7903 31.2612C26.7411 31.083 27.7562 31.4742 28.6673 31.0334C29.0783 30.8354 29.3952 30.4937 29.5735 30.0728C29.8854 29.3399 29.5339 28.513 28.7614 28.2704C28.0335 28.0426 27.2659 28.2605 26.5232 28.2555C26.3697 28.2555 26.1468 28.2456 25.9141 28.2159C24.7653 28.2357 23.4531 27.9931 21.9725 27.3196C21.9725 27.3196 17.813 25.1359 18.0606 20.2584C18.0606 20.2584 18.1646 15.6879 22.6905 13.7122C22.6905 13.7122 26.6222 12.0038 29.9993 14.554C29.9993 14.554 31.9751 16.089 34.1885 14.5837L39.1601 10.9936C39.1601 10.9936 33.4953 2.47659 22.8935 4.26418C23.7452 4.51177 24.5623 4.91286 25.1317 5.61106C25.9537 6.62122 25.8497 8.03743 25.3001 9.15158C25.0178 9.72598 24.6564 10.2162 24.077 10.5084C23.4679 10.8154 22.7648 10.8896 22.0864 10.8896C22.0022 10.8896 21.923 10.8896 21.8388 10.8847C20.7445 10.85 19.6897 10.7758 18.5904 10.8847C16.5058 11.0976 14.2081 11.7513 13.9308 14.1677C13.8665 14.7372 14.0299 15.3363 14.4211 15.7622C14.7924 16.1682 15.3322 16.3019 15.8422 16.4604C16.273 16.5941 16.7731 16.7724 17.0455 17.1586C17.6249 17.9954 16.5206 18.8471 15.8422 19.1046C14.6885 19.5453 13.3911 19.4562 12.1878 19.3176C11.2173 19.2037 10.2269 19.0205 9.28607 18.7531C9.21179 18.7333 9.13257 18.7134 9.05334 18.6887C8.86022 20.2733 8.84041 22.7244 9.74659 25.6014C10.1081 25.5518 10.4596 25.4974 10.8063 25.4429C11.8313 25.2795 12.8712 25.2102 13.9061 25.1854C14.9757 25.1607 16.0849 25.1854 17.1247 25.4528C18.0953 25.7053 19.0609 26.6313 19.2639 27.6266C19.4025 28.3199 19.051 28.9042 18.4567 29.2459C17.813 29.6222 17.1247 29.6321 16.4117 29.7509C16.273 29.7757 16.1344 29.8054 16.0007 29.845C15.4065 30.0282 14.9806 30.5581 14.8865 31.1671C14.733 32.1278 15.352 33.0092 15.9412 33.7025C16.5058 34.366 17.1742 34.9354 17.8972 35.4108C20.1701 36.5992 23.0966 37.4608 26.7213 37.2875C26.5479 37.2727 26.3746 37.2529 26.2013 37.2182C25.1119 37.035 24.1859 36.4061 23.671 35.4257Z" fill="url(#paint4_linear_606_23313)"/>
<path d="M25.9187 28.2159C26.1514 28.2456 26.3693 28.2505 26.5277 28.2555C27.2705 28.2604 28.038 28.0426 28.7659 28.2703C29.5384 28.513 29.89 29.3399 29.578 30.0728C29.3997 30.4937 29.0878 30.8354 28.6718 31.0334C27.7607 31.4692 26.7456 31.0829 25.7949 31.2612C25.1214 31.385 24.4331 31.6227 23.9379 32.1228C23.0466 33.024 23.1259 34.3759 23.6755 35.4256C24.1855 36.4061 25.1165 37.035 26.196 37.238C26.3693 37.2677 26.5376 37.2925 26.7159 37.3073C27.2606 37.2826 27.8251 37.233 28.4044 37.1588C28.4044 37.1588 34.9705 36.3962 39.1696 30.3649L31.7518 25.0566C31.7518 25.0566 29.7711 28.1416 25.9187 28.2159Z" fill="url(#paint5_linear_606_23313)"/>
<path d="M28.37 7.71074C28.9471 7.71074 29.4148 7.24296 29.4148 6.66592C29.4148 6.08888 28.9471 5.62109 28.37 5.62109C27.793 5.62109 27.3252 6.08888 27.3252 6.66592C27.3252 7.24296 27.793 7.71074 28.37 7.71074Z" fill="#0EB6FA"/>
<defs>
<linearGradient id="paint0_linear_606_23313" x1="2.38447" y1="20.6743" x2="39.1631" y2="20.6743" gradientUnits="userSpaceOnUse">
<stop stop-color="#02BDFD"/>
<stop offset="1" stop-color="#661AFD"/>
</linearGradient>
<linearGradient id="paint1_linear_606_23313" x1="2.3846" y1="22.0599" x2="9.73863" y2="22.0599" gradientUnits="userSpaceOnUse">
<stop stop-color="#02BDFD"/>
<stop offset="1" stop-color="#661AFD"/>
</linearGradient>
<linearGradient id="paint2_linear_606_23313" x1="22.0161" y1="14.8685" x2="12.7921" y2="9.54304" gradientUnits="userSpaceOnUse">
<stop stop-color="#02BDFD"/>
<stop offset="1" stop-color="#661AFD"/>
</linearGradient>
<linearGradient id="paint3_linear_606_23313" x1="14.5115" y1="35.4268" x2="14.5115" y2="25.1848" gradientUnits="userSpaceOnUse">
<stop stop-color="#02BDFD"/>
<stop offset="1" stop-color="#661AFD"/>
</linearGradient>
<linearGradient id="paint4_linear_606_23313" x1="8.94172" y1="20.6737" x2="39.1635" y2="20.6737" gradientUnits="userSpaceOnUse">
<stop stop-color="#02BDFD"/>
<stop offset="1" stop-color="#661AFD"/>
</linearGradient>
<linearGradient id="paint5_linear_606_23313" x1="37.5333" y1="43.4905" x2="28.0156" y2="27.0053" gradientUnits="userSpaceOnUse">
<stop stop-color="#02BDFD"/>
<stop offset="1" stop-color="#661AFD"/>
</linearGradient>
</defs>
</svg>
