<svg width="20" height="20" viewBox="0 0 20 20" fill="none" xmlns="http://www.w3.org/2000/svg">
<g clip-path="url(#clip0_738_1358)">
<path d="M10.0002 19.1668C14.7502 19.1668 18.6585 15.5502 19.1252 10.9168C19.1752 10.4252 18.7835 10.0002 18.2918 10.0002C17.8668 10.0002 17.5085 10.3168 17.4668 10.7335C17.1002 14.5335 13.8918 17.5002 10.0002 17.5002C7.40016 17.5002 5.1085 16.1752 3.76683 14.1668H5.00016C5.4585 14.1668 5.8335 13.7918 5.8335 13.3335C5.8335 12.8752 5.4585 12.5002 5.00016 12.5002H1.66683C1.2085 12.5002 0.833496 12.8752 0.833496 13.3335V16.6668C0.833496 17.1252 1.2085 17.5002 1.66683 17.5002C2.12516 17.5002 2.50016 17.1252 2.50016 16.6668V15.2752C4.1585 17.6252 6.90016 19.1668 10.0002 19.1668ZM10.0002 0.833497C5.25016 0.833497 1.34183 4.45016 0.875163 9.0835C0.833496 9.57516 1.21683 10.0002 1.7085 10.0002C2.1335 10.0002 2.49183 9.6835 2.5335 9.26683C2.90016 5.46683 6.1085 2.50016 10.0002 2.50016C12.6002 2.50016 14.8918 3.82516 16.2335 5.8335H15.0002C14.5418 5.8335 14.1668 6.2085 14.1668 6.66683C14.1668 7.12516 14.5418 7.50016 15.0002 7.50016H18.3335C18.7918 7.50016 19.1668 7.12516 19.1668 6.66683V3.3335C19.1668 2.87516 18.7918 2.50016 18.3335 2.50016C17.8752 2.50016 17.5002 2.87516 17.5002 3.3335V4.72516C16.6538 3.52249 15.5306 2.54107 14.2253 1.86374C12.9199 1.18641 11.4708 0.833054 10.0002 0.833497ZM9.26683 4.90016C9.26683 4.49183 9.60016 4.16683 10.0002 4.16683C10.4002 4.16683 10.7335 4.49183 10.7335 4.90016V5.2085C11.6252 5.36683 12.1918 5.84183 12.5335 6.29183C12.8168 6.6585 12.6668 7.19183 12.2335 7.37516C11.9335 7.50016 11.5835 7.40016 11.3835 7.14183C11.1502 6.82516 10.7335 6.50016 10.0502 6.50016C9.46683 6.50016 8.54183 6.8085 8.54183 7.6585C8.54183 8.45016 9.2585 8.75016 10.7418 9.24183C12.7418 9.9335 13.2502 10.9502 13.2502 12.1168C13.2502 14.3002 11.1668 14.7252 10.7335 14.8002V15.1085C10.7335 15.5085 10.4085 15.8418 10.0002 15.8418C9.59183 15.8418 9.26683 15.5168 9.26683 15.1085V14.7585C8.74183 14.6335 7.6585 14.2502 7.02516 13.0085C6.8335 12.6418 7.05016 12.1585 7.4335 12.0085C7.77516 11.8752 8.1835 12.0002 8.3585 12.3252C8.62516 12.8335 9.15016 13.4668 10.1252 13.4668C10.9002 13.4668 11.7752 13.0668 11.7752 12.1252C11.7752 11.3252 11.1918 10.9085 9.87516 10.4335C8.9585 10.1085 7.0835 9.57516 7.0835 7.67516C7.0835 7.59183 7.09183 5.67516 9.26683 5.2085V4.90016Z" fill="#F8F8F8"/>
</g>
<defs>
<clipPath id="clip0_738_1358">
<rect width="20" height="20" fill="white"/>
</clipPath>
</defs>
</svg>
