<svg width="24" height="24" viewBox="0 0 24 24" fill="none" xmlns="http://www.w3.org/2000/svg">
<g clip-path="url(#clip0_738_1307)">
<path d="M9.44626 19.5984L16.659 11.4578L13.4135 10.5881L15.0363 4.53179L7.68832 12.6362L11.0691 13.542L9.44626 19.5984ZM14.588 2.34112C17.2443 3.05287 19.2554 4.62702 20.6342 7.01528C22.0131 9.40353 22.3708 11.9323 21.659 14.5886C20.9473 17.2449 19.3731 19.256 16.9849 20.6348C14.5966 22.0137 12.0679 22.3714 9.41159 21.6596C6.75529 20.9479 4.74419 19.3737 3.36533 16.9855C1.98647 14.5972 1.62877 12.0685 2.34052 9.41219C3.05227 6.75589 4.62642 4.74479 7.01468 3.36593C9.40293 1.98707 11.9317 1.62937 14.588 2.34112Z" fill="#F8F8F8"/>
</g>
<defs>
<clipPath id="clip0_738_1307">
<rect width="24" height="24" fill="white"/>
</clipPath>
</defs>
</svg>
