<svg width="83" height="83" viewBox="0 0 83 83" fill="none" xmlns="http://www.w3.org/2000/svg">
<path d="M82.2916 41.5002C82.2916 64.0468 64.0466 82.2918 41.4999 82.2918C18.9533 82.2918 0.708252 64.0468 0.708252 41.5002C0.708252 18.9535 18.9533 0.708496 41.4999 0.708496C64.0466 0.708496 82.2916 18.9535 82.2916 41.5002ZM45.2083 12.056C53.107 13.0572 60.3012 17.2106 65.122 23.5518L71.5745 19.8435C68.5274 15.5471 64.5999 11.9491 60.0536 9.28915C55.5074 6.62917 50.4466 4.9682 45.2083 4.41683V12.056M11.4253 19.8435L17.8778 23.5518C20.2683 20.4102 23.2602 17.7758 26.6791 15.8021C30.098 13.8284 33.8756 12.555 37.7916 12.056V4.41683C32.5533 4.9682 27.4925 6.62917 22.9462 9.28915C18.3999 11.9491 14.4725 15.5471 11.4253 19.8435ZM7.717 56.7043L14.1324 52.996C12.6086 49.3549 11.8239 45.4472 11.8239 41.5002C11.8239 37.5531 12.6086 33.6454 14.1324 30.0043L7.717 26.296C5.53617 31.068 4.40746 36.2534 4.40746 41.5002C4.40746 46.7469 5.53617 51.9323 7.717 56.7043M37.7916 70.9443C33.8756 70.4453 30.098 69.1719 26.6791 67.1982C23.2602 65.2245 20.2683 62.5901 17.8778 59.4485L11.4253 63.1568C14.4725 67.4532 18.3999 71.0512 22.9462 73.7112C27.4925 76.3712 32.5533 78.0321 37.7916 78.5835V70.9443ZM71.5745 63.1568L65.122 59.4485C62.7315 62.5901 59.7396 65.2245 56.3207 67.1982C52.9018 69.1719 49.1243 70.4453 45.2083 70.9443V78.361C55.777 77.2856 65.3816 71.7602 71.5745 63.1568M75.2828 56.7043C79.6958 47.0627 79.6958 35.9377 75.2828 26.296L68.8674 30.0043C70.3912 33.6454 71.1759 37.5531 71.1759 41.5002C71.1759 45.4472 70.3912 49.3549 68.8674 52.996L75.2828 56.7043ZM52.6249 41.5002L41.4999 22.9585L30.3749 41.5002L41.4999 60.0418L52.6249 41.5002Z" fill="#202430"/>
</svg>
