<svg width="61" height="66" viewBox="0 0 61 66" fill="none" xmlns="http://www.w3.org/2000/svg">
<path d="M48.4375 19.3333C48.4375 24.6458 46.6667 31.7292 38.1667 34.5625C40.6458 28.5417 41 22.5208 39.2292 16.8542C36.75 9.41666 28.6042 3.74999 22.9375 0.562489C21.5208 -0.500011 19.0417 0.916656 19.3958 3.04166C19.3958 6.93749 18.3333 12.6042 12.3125 18.625C4.52083 26.4167 0.625 34.5625 0.625 42.3542C0.625 52.625 7.70833 65.375 21.875 65.375C7.70833 51.2083 18.3333 38.8125 18.3333 38.8125C21.1667 59.7083 36.0417 65.375 43.125 65.375C49.1458 65.375 60.8333 61.125 60.8333 42.7083C60.8333 31.7292 56.2292 23.2292 52.3333 18.2708C51.2708 16.5 48.7917 17.5625 48.4375 19.3333Z" fill="#202430"/>
</svg>
