<svg width="25" height="25" viewBox="0 0 25 25" fill="none" xmlns="http://www.w3.org/2000/svg">
<path d="M5.77536 22.8613C9.62989 25.3519 14.4572 25.4801 18.4606 23.2475L13.5021 13.1562L24.7308 13.5242C25.1149 8.95297 23.0105 4.6022 19.1559 2.11158C13.441 -1.58116 5.79024 0.0687189 2.10121 5.78942C-1.58782 11.5101 0.0604065 19.1686 5.77536 22.8613ZM15.9616 5.92668C16.374 6.19333 16.6636 6.61303 16.7669 7.09347C16.8701 7.57391 16.7784 8.07571 16.5121 8.4885C16.2457 8.90129 15.8264 9.19124 15.3464 9.29457C14.8665 9.39791 14.3652 9.30616 13.9528 9.03951C13.5404 8.77286 13.2508 8.35315 13.1475 7.87271C13.0443 7.39228 13.136 6.89047 13.4024 6.47768C13.6687 6.0649 14.088 5.77494 14.568 5.67161C15.0479 5.56827 15.5492 5.66003 15.9616 5.92668Z" fill="url(#paint0_linear_241_6786)"/>
<defs>
<linearGradient id="paint0_linear_241_6786" x1="22.6557" y1="-4.74541" x2="-0.297325" y2="30.7771" gradientUnits="userSpaceOnUse">
<stop stop-color="#1070FC"/>
<stop offset="1" stop-color="#05CEC2"/>
</linearGradient>
</defs>
</svg>
