<svg width="24" height="24" viewBox="0 0 24 24" fill="none" xmlns="http://www.w3.org/2000/svg">
<g clip-path="url(#clip0_738_1309)">
<path fill-rule="evenodd" clip-rule="evenodd" d="M4.46512 5.31919C4.34791 5.31919 4.25581 5.41593 4.25581 5.53906V16.0926C4.25581 16.2157 4.34791 16.3125 4.46512 16.3125H6.69209C7.03535 16.3125 7.32 16.6115 7.32 16.9721C7.32 17.3326 7.03535 17.6317 6.69209 17.6317H4.46512C3.65302 17.6317 3 16.9457 3 16.0926V5.53906C3 4.68598 3.65302 4 4.46512 4H5.72093C6.06419 4 6.34884 4.29902 6.34884 4.6596C6.34884 5.02018 6.06419 5.31919 5.72093 5.31919H4.46512ZM8.44186 4.6596C8.44186 4.29902 8.72651 4 9.06977 4H19.5349C20.347 4 21 4.68598 21 5.53906V16.0926C21 16.9457 20.347 17.6317 19.5349 17.6317H17.3833C17.04 17.6317 16.7553 17.3326 16.7553 16.9721C16.7553 16.6115 17.04 16.3125 17.3833 16.3125H19.5349C19.6521 16.3125 19.7442 16.2157 19.7442 16.0926V5.53906C19.7442 5.41593 19.6521 5.31919 19.5349 5.31919H9.06977C8.72651 5.31919 8.44186 5.02018 8.44186 4.6596Z" fill="white"/>
<path fill-rule="evenodd" clip-rule="evenodd" d="M3 6.04046C3 5.67988 3.28465 5.38086 3.62791 5.38086H20.3721C20.7153 5.38086 21 5.67988 21 6.04046C21 6.40104 20.7153 6.70005 20.3721 6.70005H3.62791C3.28465 6.70005 3 6.40104 3 6.04046Z" fill="white"/>
<path fill-rule="evenodd" clip-rule="evenodd" d="M5.51172 9.03948C5.51172 8.6789 5.79637 8.37988 6.13963 8.37988H11.1629C11.5061 8.37988 11.7908 8.6789 11.7908 9.03948C11.7908 9.40006 11.5061 9.69908 11.1629 9.69908H6.13963C5.79637 9.69908 5.51172 9.40006 5.51172 9.03948Z" fill="white"/>
<path d="M17.0234 14.1136C17.3702 14.1136 17.6513 13.8183 17.6513 13.454C17.6513 13.0897 17.3702 12.7944 17.0234 12.7944C16.6766 12.7944 16.3955 13.0897 16.3955 13.454C16.3955 13.8183 16.6766 14.1136 17.0234 14.1136Z" fill="white"/>
<path d="M17.0234 14.5713C18.0637 14.5713 18.9071 13.6854 18.9071 12.5926C18.9071 11.4997 18.0637 10.6138 17.0234 10.6138C15.983 10.6138 15.1396 11.4997 15.1396 12.5926C15.1396 13.6854 15.983 14.5713 17.0234 14.5713Z" fill="white"/>
<path fill-rule="evenodd" clip-rule="evenodd" d="M12.6364 20.7272C12.2848 21.0966 11.7155 21.0966 11.3639 20.7272L8.96109 18.2031C8.59272 17.8425 8.57598 17.2445 8.91923 16.8663C9.26249 16.4882 9.83179 16.4618 10.1918 16.8224C10.2085 16.84 10.2253 16.8575 10.2337 16.8663L11.096 17.7722V13.7443C11.096 13.2254 11.4978 12.7944 12.0002 12.7944C12.5025 12.7944 12.9044 13.2166 12.9044 13.7443V17.7722L13.7667 16.8663C14.1099 16.4794 14.6792 16.4618 15.0392 16.8224C15.3992 17.1829 15.4244 17.781 15.0811 18.1592C15.0644 18.1767 15.0476 18.1943 15.0392 18.2031L12.6364 20.7272Z" fill="white"/>
<path d="M16.7467 4H5.03418V6.69995H16.7467V4Z" fill="white"/>
<path d="M19.9366 5.0376H3.9375V6.69978H19.9366V5.0376Z" fill="white"/>
</g>
<defs>
<clipPath id="clip0_738_1309">
<rect width="18" height="17" fill="white" transform="translate(3 4)"/>
</clipPath>
</defs>
</svg>
