

<svg xmlns="http://www.w3.org/2000/svg" xmlns:xlink="http://www.w3.org/1999/xlink">
<symbol id="custom-cash" viewBox="0 0 20 20">
    <g clip-path="url(#clip0_143_13575)">
      <path d="M16.9114 16.9063C20.7287 13.0903 20.7287 6.90335 16.9114 3.08735C13.0942 -0.72865 6.90522 -0.72865 3.08799 3.08735C-0.729249 6.90335 -0.729249 13.0903 3.08799 16.9063C6.90522 20.7223 13.0942 20.7223 16.9114 16.9063Z" fill="#FBE35C"/>
      <path d="M10.0001 18.4261C14.6571 18.4261 18.4323 14.6521 18.4323 9.99664C18.4323 5.34115 14.6571 1.56714 10.0001 1.56714C5.34311 1.56714 1.56787 5.34115 1.56787 9.99664C1.56787 14.6521 5.34311 18.4261 10.0001 18.4261Z" fill="#F7A92F"/>
      <path d="M9.99997 17.274C14.0203 17.274 17.2795 14.0159 17.2795 9.99687C17.2795 5.97782 14.0203 2.71973 9.99997 2.71973C5.97961 2.71973 2.72046 5.97782 2.72046 9.99687C2.72046 14.0159 5.97961 17.274 9.99997 17.274Z" fill="#FBE35C"/>
      <path d="M5.55134 7.09846C5.9826 6.31726 6.58571 5.70786 7.35744 5.27026C8.12916 4.83428 9.00627 4.61548 9.98552 4.61548C11.1853 4.61548 12.2115 4.93152 13.0659 5.56524C13.9203 6.19895 14.491 7.06118 14.7796 8.15519H12.0737C11.8727 7.73379 11.5857 7.41126 11.2177 7.19084C10.848 6.97042 10.4281 6.86021 9.95795 6.86021C9.1992 6.86021 8.58474 7.12439 8.11457 7.65113C7.6444 8.1795 7.40932 8.88452 7.40932 9.76621C7.40932 10.6479 7.6444 11.3545 8.11457 11.8813C8.58474 12.4096 9.1992 12.6722 9.95795 12.6722C10.4281 12.6722 10.848 12.562 11.2177 12.3416C11.5873 12.1212 11.8727 11.8002 12.0737 11.3772H14.7796C14.491 12.4712 13.9203 13.3318 13.0659 13.9607C12.2115 14.5895 11.1853 14.904 9.98552 14.904C9.00627 14.904 8.13078 14.6852 7.35744 14.2492C6.58409 13.8132 5.9826 13.2054 5.55134 12.4291C5.12008 11.6511 4.90283 10.7646 4.90283 9.76621C4.90283 8.76783 5.11846 7.87804 5.55134 7.09684V7.09846Z" fill="#F7A92F"/>
      <path d="M9.68237 6.12317V2.01782H7.99787V6.12317H9.68237Z" fill="#F7A92F"/>
      <path d="M11.7786 6.12488V2.01953H10.0941V6.12488H11.7786Z" fill="#F7A92F"/>
      <path d="M9.68237 17.9999V13.8945H7.99787V17.9999H9.68237Z" fill="#F7A92F"/>
      <path d="M11.7786 18.0016V13.8962H10.0941V18.0016H11.7786Z" fill="#F7A92F"/>
      <g style="mix-blend-mode:multiply" opacity="0.3">
       <path d="M19.5558 7.94644C19.5915 8.28842 19.6109 8.63364 19.6109 8.98372C19.6109 14.4537 15.0438 19.0194 9.57201 19.0194C6.38135 19.0194 3.50035 17.4651 1.6521 15.0874C3.36903 17.8978 6.46565 19.7746 10 19.7746C15.3989 19.7746 19.7747 15.4003 19.7747 10.0032C19.7747 9.29653 19.6985 8.60933 19.5558 7.94482V7.94644Z" fill="#FBE35C"/>
      </g>
      <g style="mix-blend-mode:multiply" opacity="0.3">
       <path d="M10.2853 2.47495C13.2555 2.47495 15.9257 3.98711 17.5583 6.26912C16.1803 3.48792 13.3138 1.57544 9.99997 1.57544C5.57228 1.57544 1.94388 4.98873 1.59692 9.32747C2.55996 5.43281 6.12838 2.47495 10.2853 2.47495Z" fill="#F7A92F"/>
      </g>
      <g style="mix-blend-mode:overlay" opacity="0.3">
       <path d="M4.77074 10.3534C4.63709 10.369 4.51663 10.274 4.50106 10.1406C4.13995 7.04723 6.36798 4.23638 9.46787 3.87451C9.60153 3.85891 9.72199 3.95398 9.73756 4.08736C9.75313 4.22073 9.65781 4.34099 9.52415 4.3566C6.69157 4.68726 4.654 7.25598 4.98416 10.0842C4.99973 10.2176 4.9044 10.3378 4.77074 10.3534Z" fill="white"/>
      </g>
      <g style="mix-blend-mode:overlay" opacity="0.3">
        <path d="M0.70364 10.2481C0.569074 10.2481 0.460449 10.1395 0.460449 10.005C0.460449 4.74565 4.7406 0.468506 10 0.468506C10.1346 0.468506 10.2432 0.577096 10.2432 0.711618C10.2432 0.84614 10.1346 0.954729 10 0.954729C5.00811 0.954729 0.946831 5.0147 0.946831 10.005C0.946831 10.1395 0.838205 10.2481 0.70364 10.2481Z" fill="white"/>
      </g>
      <g style="mix-blend-mode:multiply" opacity="0.3">
        <path d="M15.6648 7.54126C15.7232 7.8881 15.7556 8.24466 15.7556 8.60609C15.7556 12.1588 12.7903 15.1247 9.23486 15.1247C7.54387 15.1247 5.98583 14.4521 4.81689 13.3662C5.91936 15.0599 7.82597 16.1798 9.99848 16.1798C13.4096 16.1798 16.1755 13.4148 16.1755 10.0048C16.1755 9.12959 15.9923 8.29653 15.6632 7.54288L15.6648 7.54126Z" fill="#FBE35C"/>
      </g>
    </g>
    <defs>
      <clipPath id="clip0_143_13575">
        <rect width="20" height="20" fill="white"/>
      </clipPath>
    </defs>
  </symbol>

  <symbol id="custom-point" viewBox="0 0 20 20">
    <path d="M10.0041 20C15.5247 20 19.9981 15.5228 19.9959 10C19.9936 4.47715 15.5164 0 9.99586 0C4.4753 0 0.00185603 4.47715 0.00414556 10C0.0064351 15.5228 4.48359 20 10.0041 20Z" fill="#1070FC"/>
    <path d="M9.99936 18.6245C14.7627 18.6245 18.6242 14.763 18.6242 9.99961C18.6242 5.23623 14.7627 1.37476 9.99936 1.37476C5.23599 1.37476 1.37451 5.23623 1.37451 9.99961C1.37451 14.763 5.23599 18.6245 9.99936 18.6245Z" fill="white"/>
    <path d="M9.99951 17.4453C14.1117 17.4453 17.4453 14.1117 17.4453 9.99951C17.4453 5.88731 14.1117 2.55371 9.99951 2.55371C5.88731 2.55371 2.55371 5.88731 2.55371 9.99951C2.55371 14.1117 5.88731 17.4453 9.99951 17.4453Z" fill="#1070FC"/>
    <path opacity="0.3" d="M10.2914 2.30342C13.3294 2.30342 16.0607 3.85062 17.7306 6.18551C16.321 3.33986 13.3891 1.38306 9.99954 1.38306C5.47071 1.38306 1.75942 4.87545 1.40454 9.31473C2.38792 5.32982 6.03785 2.30342 10.2914 2.30342Z" fill="#1070FC"/>
    <path d="M13.9546 10.3325C13.7025 10.7852 13.3161 11.1517 12.7954 11.4303C12.2747 11.7089 11.628 11.8482 10.8552 11.8482H9.42741V15.2428H7.12402V5.78711H10.8552C11.6097 5.78711 12.2465 5.91812 12.7672 6.17847C13.2879 6.43882 13.6793 6.79868 13.9397 7.25637C14.2 7.71406 14.331 8.23974 14.331 8.83176C14.331 9.379 14.205 9.87981 13.9546 10.3342V10.3325ZM11.6645 9.70569C11.88 9.50006 11.9878 9.20654 11.9878 8.8301C11.9878 8.45367 11.88 8.1618 11.6645 7.95452C11.4489 7.74723 11.1205 7.64441 10.6811 7.64441H9.42907V10.0158H10.6811C11.1205 10.0158 11.4489 9.91297 11.6645 9.70569V9.70569Z" fill="white"/>
  </symbol>

  <symbol id="custom-rolling" viewBox="0 0 20 20">
    <path d="M10.0079 20C15.5264 20 19.9965 15.5228 19.9921 10C19.9878 4.47715 15.5106 0 9.99213 0C4.47363 0 0.00352646 4.47715 0.00787657 10C0.0122267 15.5228 4.48938 20 10.0079 20Z" fill="#DF2F83"/>
    <path d="M9.9959 18.6247C14.7575 18.6247 18.6175 14.7632 18.6175 9.99985C18.6175 5.23648 14.7575 1.375 9.9959 1.375C5.2343 1.375 1.37427 5.23648 1.37427 9.99985C1.37427 14.7632 5.2343 18.6247 9.9959 18.6247Z" fill="white"/>
    <path d="M9.99575 17.4453C14.1064 17.4453 17.4388 14.1117 17.4388 9.99951C17.4388 5.88731 14.1064 2.55371 9.99575 2.55371C5.88509 2.55371 2.55273 5.88731 2.55273 9.99951C2.55273 14.1117 5.88509 17.4453 9.99575 17.4453Z" fill="#DF2F83"/>
    <path fill-rule="evenodd" clip-rule="evenodd" d="M7.10254 5.52637V14.4737H9.10179V11.3813H10.2236L11.8605 14.4737H14.1204L12.2434 11.002C13.1657 10.5203 13.6381 9.6153 13.6381 8.4776C13.6381 7.62357 13.3642 6.88045 12.8101 6.35018C12.2572 5.8211 11.4555 5.53262 10.4538 5.52637H7.10254ZM12.0188 14.2106L10.382 11.1181H8.83886V11.1181H10.3821L12.019 14.2105H13.679L13.679 14.2106H12.0188ZM7.36572 5.78953H7.3656V14.2106H8.83873V14.2105H7.36572V5.78953ZM8.83886 7.07409H10.2417C11.3524 7.0622 11.8552 7.59743 11.8552 8.4776C11.8552 9.10081 11.6162 9.52615 11.1038 9.73414C11.6163 9.52617 11.8553 9.10081 11.8553 8.47755C11.8553 7.59738 11.3525 7.06215 10.2418 7.07404H8.83886V7.07409ZM11.2897 9.31763C11.092 9.49434 10.7626 9.61216 10.2403 9.61795H9.10179V7.33725L10.2417 7.33727L10.2445 7.33724C10.7611 7.3317 11.0893 7.45404 11.2873 7.63539C11.4818 7.81361 11.5921 8.08713 11.5921 8.4776C11.5921 8.88097 11.4813 9.14636 11.2897 9.31763Z" fill="white"/>
    <path opacity="0.3" d="M10.2876 2.30317C13.3245 2.30317 16.0547 3.85037 17.724 6.18527C16.315 3.33961 13.3842 1.38281 9.99585 1.38281C5.4687 1.38281 1.7588 4.87521 1.40405 9.31449C2.38706 5.32958 6.03563 2.30317 10.2876 2.30317Z" fill="#DF2F83"/>
  </symbol>

  <symbol id="custom-losing" viewBox="0 0 39 39" >
    <path d="M19.6539 38.9053C30.1429 38.9053 38.6425 30.3987 38.6381 19.9053C38.6338 9.41186 30.1272 0.905273 19.6381 0.905273C9.14906 0.905273 0.649521 9.41186 0.65387 19.9053C0.658219 30.3987 9.16481 38.9053 19.6539 38.9053Z" fill="#B651EC"/>
    <path d="M19.645 36.292C28.6954 36.292 36.0322 28.9552 36.0322 19.9048C36.0322 10.8544 28.6954 3.51758 19.645 3.51758C10.5946 3.51758 3.25781 10.8544 3.25781 19.9048C3.25781 28.9552 10.5946 36.292 19.645 36.292Z" fill="white"/>
    <path d="M19.6451 34.0509C27.4582 34.0509 33.7921 27.717 33.7921 19.9038C33.7921 12.0907 27.4582 5.75684 19.6451 5.75684C11.8319 5.75684 5.49805 12.0907 5.49805 19.9038C5.49805 27.717 11.8319 34.0509 19.6451 34.0509Z" fill="#B651EC"/>
    <path fill-rule="evenodd" clip-rule="evenodd" d="M14.4282 10.4463V28.3468H26.366V24.4392H18.4662V10.4463H14.4282ZM25.8686 27.8496V24.9364L25.8685 24.9364V27.8496L25.8686 27.8496ZM17.9687 10.9435V24.9364L17.9688 24.9364V10.9435L17.9687 10.9435Z" fill="white"/>
    <path opacity="0.3" d="M20.1995 5.28091C25.9717 5.28091 31.1611 8.22059 34.3339 12.6569C31.6557 7.25015 26.0852 3.53223 19.645 3.53223C11.0402 3.53223 3.98872 10.1678 3.31445 18.6024C5.18287 11.0311 12.1177 5.28091 20.1995 5.28091Z" fill="#B651EC"/>
  </symbol>
  <!-- <symbol id="custom-menu" viewBox="0 0 28 28">
   <path d="M24.5 18.2117L22.855 19.8333L17.01 14L22.855 8.16667L24.5 9.78833L20.3467 14L24.5 18.2117ZM3.5 7H18.6667V9.33333H3.5V7ZM3.5 15.1667V12.8333H15.1667V15.1667H3.5ZM3.5 21V18.6667H18.6667V21H3.5Z" fill="#202430"/>
  </symbol>
  <symbol id="custom-menu-dm" viewBox="0 0 28 28">
   <path d="M24.5 18.2117L22.855 19.8333L17.01 14L22.855 8.16667L24.5 9.78833L20.3467 14L24.5 18.2117ZM3.5 7H18.6667V9.33333H3.5V7ZM3.5 15.1667V12.8333H15.1667V15.1667H3.5ZM3.5 21V18.6667H18.6667V21H3.5Z" fill="white"/>
  </symbol>

  <symbol id="custom-house" viewBox="0 0 24 24">
   <path d="M5.57157 21.4287C4.98228 21.4287 4.478 21.2178 4.05871 20.7962C3.63871 20.3738 3.42871 19.8662 3.42871 19.2736V9.57561C3.42871 9.23439 3.50478 8.91113 3.65693 8.60582C3.80835 8.30051 4.018 8.04908 4.28585 7.85153L10.7144 3.00255C10.9109 2.85888 11.1162 2.75112 11.3305 2.67929C11.5448 2.60745 11.768 2.57153 12.0001 2.57153C12.2323 2.57153 12.4555 2.60745 12.6698 2.67929C12.8841 2.75112 13.0894 2.85888 13.2859 3.00255L19.7144 7.85153C19.9823 8.04908 20.1923 8.30051 20.3444 8.60582C20.4959 8.91113 20.5716 9.23439 20.5716 9.57561V19.2736C20.5716 19.8662 20.3619 20.3738 19.9426 20.7962C19.5226 21.2178 19.018 21.4287 18.4287 21.4287H14.143V13.8858H9.85728V21.4287H5.57157Z" fill="#202430"/>
  </symbol>

  <symbol id="custom-house-dm" viewBox="0 0 24 24">
   <path d="M5.57157 21.4287C4.98228 21.4287 4.478 21.2178 4.05871 20.7962C3.63871 20.3738 3.42871 19.8662 3.42871 19.2736V9.57561C3.42871 9.23439 3.50478 8.91113 3.65693 8.60582C3.80835 8.30051 4.018 8.04908 4.28585 7.85153L10.7144 3.00255C10.9109 2.85888 11.1162 2.75112 11.3305 2.67929C11.5448 2.60745 11.768 2.57153 12.0001 2.57153C12.2323 2.57153 12.4555 2.60745 12.6698 2.67929C12.8841 2.75112 13.0894 2.85888 13.2859 3.00255L19.7144 7.85153C19.9823 8.04908 20.1923 8.30051 20.3444 8.60582C20.4959 8.91113 20.5716 9.23439 20.5716 9.57561V19.2736C20.5716 19.8662 20.3619 20.3738 19.9426 20.7962C19.5226 21.2178 19.018 21.4287 18.4287 21.4287H14.143V13.8858H9.85728V21.4287H5.57157Z" fill="white"/>
  </symbol>

  <symbol id="custom-puzzle" viewBox="0 0 24 24">
   <path opacity="0.8" d="M20.5 11H19V7C19 6.46957 18.7893 5.96086 18.4142 5.58579C18.0391 5.21071 17.5304 5 17 5H13V3.5C13 2.83696 12.7366 2.20107 12.2678 1.73223C11.7989 1.26339 11.163 1 10.5 1C9.83696 1 9.20107 1.26339 8.73223 1.73223C8.26339 2.20107 8 2.83696 8 3.5V5H4C3.46957 5 2.96086 5.21071 2.58579 5.58579C2.21071 5.96086 2 6.46957 2 7V10.8H3.5C5 10.8 6.2 12 6.2 13.5C6.2 15 5 16.2 3.5 16.2H2V20C2 20.5304 2.21071 21.0391 2.58579 21.4142C2.96086 21.7893 3.46957 22 4 22H7.8V20.5C7.8 19 9 17.8 10.5 17.8C12 17.8 13.2 19 13.2 20.5V22H17C17.5304 22 18.0391 21.7893 18.4142 21.4142C18.7893 21.0391 19 20.5304 19 20V16H20.5C21.163 16 21.7989 15.7366 22.2678 15.2678C22.7366 14.7989 23 14.163 23 13.5C23 12.837 22.7366 12.2011 22.2678 11.7322C21.7989 11.2634 21.163 11 20.5 11V11Z" fill="#202430"/>
  </symbol>

  <symbol id="custom-puzzle-dm" viewBox="0 0 24 24">
   <path opacity="0.8" d="M20.5 11H19V7C19 6.46957 18.7893 5.96086 18.4142 5.58579C18.0391 5.21071 17.5304 5 17 5H13V3.5C13 2.83696 12.7366 2.20107 12.2678 1.73223C11.7989 1.26339 11.163 1 10.5 1C9.83696 1 9.20107 1.26339 8.73223 1.73223C8.26339 2.20107 8 2.83696 8 3.5V5H4C3.46957 5 2.96086 5.21071 2.58579 5.58579C2.21071 5.96086 2 6.46957 2 7V10.8H3.5C5 10.8 6.2 12 6.2 13.5C6.2 15 5 16.2 3.5 16.2H2V20C2 20.5304 2.21071 21.0391 2.58579 21.4142C2.96086 21.7893 3.46957 22 4 22H7.8V20.5C7.8 19 9 17.8 10.5 17.8C12 17.8 13.2 19 13.2 20.5V22H17C17.5304 22 18.0391 21.7893 18.4142 21.4142C18.7893 21.0391 19 20.5304 19 20V16H20.5C21.163 16 21.7989 15.7366 22.2678 15.2678C22.7366 14.7989 23 14.163 23 13.5C23 12.837 22.7366 12.2011 22.2678 11.7322C21.7989 11.2634 21.163 11 20.5 11V11Z" fill="white"/>
  </symbol>

  <symbol id="custom-chip" viewBox="0 0 24 24">
     <path opacity="0.8" d="M23 12C23 18.08 18.08 23 12 23C5.92 23 1 18.08 1 12C1 5.92 5.92 1 12 1C18.08 1 23 5.92 23 12ZM13 4.06C15.13 4.33 17.07 5.45 18.37 7.16L20.11 6.16C19.2883 5.00142 18.2292 4.03118 17.0032 3.31388C15.7773 2.59659 14.4126 2.14868 13 2V4.06M3.89 6.16L5.63 7.16C6.27463 6.31282 7.08143 5.60242 8.00338 5.07019C8.92533 4.53796 9.94399 4.19456 11 4.06V2C9.58742 2.14868 8.22271 2.59659 6.99675 3.31388C5.77079 4.03118 4.7117 5.00142 3.89 6.16ZM2.89 16.1L4.62 15.1C4.20909 14.1181 3.99749 13.0644 3.99749 12C3.99749 10.9356 4.20909 9.88186 4.62 8.9L2.89 7.9C2.30191 9.18684 1.99754 10.5851 1.99754 12C1.99754 13.4149 2.30191 14.8132 2.89 16.1M11 19.94C9.94399 19.8054 8.92533 19.462 8.00338 18.9298C7.08143 18.3976 6.27463 17.6872 5.63 16.84L3.89 17.84C4.7117 18.9986 5.77079 19.9688 6.99675 20.6861C8.22271 21.4034 9.58742 21.8513 11 22V19.94ZM20.11 17.84L18.37 16.84C17.7254 17.6872 16.9186 18.3976 15.9966 18.9298C15.0747 19.462 14.056 19.8054 13 19.94V21.94C15.85 21.65 18.44 20.16 20.11 17.84M21.11 16.1C22.3 13.5 22.3 10.5 21.11 7.9L19.38 8.9C19.7909 9.88186 20.0025 10.9356 20.0025 12C20.0025 13.0644 19.7909 14.1181 19.38 15.1L21.11 16.1ZM15 12L12 7L9 12L12 17L15 12Z" fill="#202430"/>
  </symbol>
  <symbol id="custom-chip-dm" viewBox="0 0 24 24">
     <path opacity="0.8" d="M23 12C23 18.08 18.08 23 12 23C5.92 23 1 18.08 1 12C1 5.92 5.92 1 12 1C18.08 1 23 5.92 23 12ZM13 4.06C15.13 4.33 17.07 5.45 18.37 7.16L20.11 6.16C19.2883 5.00142 18.2292 4.03118 17.0032 3.31388C15.7773 2.59659 14.4126 2.14868 13 2V4.06M3.89 6.16L5.63 7.16C6.27463 6.31282 7.08143 5.60242 8.00338 5.07019C8.92533 4.53796 9.94399 4.19456 11 4.06V2C9.58742 2.14868 8.22271 2.59659 6.99675 3.31388C5.77079 4.03118 4.7117 5.00142 3.89 6.16ZM2.89 16.1L4.62 15.1C4.20909 14.1181 3.99749 13.0644 3.99749 12C3.99749 10.9356 4.20909 9.88186 4.62 8.9L2.89 7.9C2.30191 9.18684 1.99754 10.5851 1.99754 12C1.99754 13.4149 2.30191 14.8132 2.89 16.1M11 19.94C9.94399 19.8054 8.92533 19.462 8.00338 18.9298C7.08143 18.3976 6.27463 17.6872 5.63 16.84L3.89 17.84C4.7117 18.9986 5.77079 19.9688 6.99675 20.6861C8.22271 21.4034 9.58742 21.8513 11 22V19.94ZM20.11 17.84L18.37 16.84C17.7254 17.6872 16.9186 18.3976 15.9966 18.9298C15.0747 19.462 14.056 19.8054 13 19.94V21.94C15.85 21.65 18.44 20.16 20.11 17.84M21.11 16.1C22.3 13.5 22.3 10.5 21.11 7.9L19.38 8.9C19.7909 9.88186 20.0025 10.9356 20.0025 12C20.0025 13.0644 19.7909 14.1181 19.38 15.1L21.11 16.1ZM15 12L12 7L9 12L12 17L15 12Z" fill="white"/>
  </symbol>

  <symbol id="custom-spade" viewBox="0 0 24 24">
     <path opacity="0.8" d="M12 2C9 7 4 9 4 14C4 16 6 18 8 18C9 18 10 18 11 17C11 17 11.32 19 9 22H15C13 19 13 17 13 17C14 18 15 18 16 18C18 18 20 16 20 14C20 9 15 7 12 2Z" fill="#202430"/>
  </symbol>
  <symbol id="custom-spade-dm" viewBox="0 0 24 24">
     <path opacity="0.8" d="M12 2C9 7 4 9 4 14C4 16 6 18 8 18C9 18 10 18 11 17C11 17 11.32 19 9 22H15C13 19 13 17 13 17C14 18 15 18 16 18C18 18 20 16 20 14C20 9 15 7 12 2Z" fill="white"/>
  </symbol>

  <symbol id="custom-poker" viewBox="0 0 24 24">
   <g opacity="0.8">
    <mask id="mask0_169_4106" style="mask-type:alpha" maskUnits="userSpaceOnUse" x="1" y="2" width="20" height="21">
      <path d="M21 2H6V22H21V2Z" fill="#202430"/>
      <path d="M2 5.895L6 5V22L2 5.895Z" stroke="white" stroke-linecap="round" stroke-linejoin="round"/>
    </mask>
    <g mask="url(#mask0_169_4106)">
      <path d="M0 0H24V24H0V0Z" fill="#202430"/>
    </g>
    </g>
    <path d="M8.7998 5V7M17.7998 17V19" stroke="#202430" stroke-linecap="round" stroke-linejoin="round"/>
    <path d="M13.2998 9L10.7998 12L13.2998 15L15.7998 12L13.2998 9Z" fill="#202430" stroke="#202430" stroke-width="2" stroke-linejoin="round"/>
  </symbol>
  <symbol id="custom-poker-dm" viewBox="0 0 24 24">
   <g opacity="0.8">
    <mask id="mask0_169_4106" style="mask-type:alpha" maskUnits="userSpaceOnUse" x="1" y="2" width="20" height="21">
      <path d="M21 2H6V22H21V2Z" fill="white"/>
      <path d="M2 5.895L6 5V22L2 5.895Z" stroke="white" stroke-linecap="round" stroke-linejoin="round"/>
    </mask>
    <g mask="url(#mask0_169_4106)">
      <path d="M0 0H24V24H0V0Z" fill="white"/>
    </g>
    </g>
    <path d="M8.7998 5V7M17.7998 17V19" stroke="#202430" stroke-linecap="round" stroke-linejoin="round"/>
    <path d="M13.2998 9L10.7998 12L13.2998 15L15.7998 12L13.2998 9Z" fill="#202430" stroke="#202430" stroke-width="2" stroke-linejoin="round"/>
  </symbol>

  <symbol id="custom-present" viewBox="0 0 24 24">
    <g opacity="0.8">
      <path d="M20 12.9998V19.9998C20 20.265 19.8946 20.5193 19.7071 20.7069C19.5196 20.8944 19.2652 20.9998 19 20.9998H5C4.73478 20.9998 4.48043 20.8944 4.29289 20.7069C4.10536 20.5193 4 20.265 4 19.9998V12.9998H20ZM14.5 1.99976C15.0906 1.99956 15.6717 2.14883 16.1892 2.43369C16.7066 2.71854 17.1435 3.12971 17.4592 3.62889C17.7749 4.12808 17.9592 4.69904 17.9948 5.28861C18.0305 5.87818 17.9163 6.46719 17.663 7.00076L21 6.99976C21.2652 6.99976 21.5196 7.10512 21.7071 7.29265C21.8946 7.48019 22 7.73454 22 7.99976V10.9998C22 11.265 21.8946 11.5193 21.7071 11.7069C21.5196 11.8944 21.2652 11.9998 21 11.9998H3C2.73478 11.9998 2.48043 11.8944 2.29289 11.7069C2.10536 11.5193 2 11.265 2 10.9998V7.99976C2 7.73454 2.10536 7.48019 2.29289 7.29265C2.48043 7.10512 2.73478 6.99976 3 6.99976L6.337 7.00076C5.98076 6.25243 5.90163 5.40196 6.1137 4.60076C6.32577 3.79955 6.81529 3.0996 7.4951 2.62551C8.17491 2.15142 9.0009 1.93396 9.82603 2.01183C10.6512 2.0897 11.4219 2.45786 12.001 3.05076C12.326 2.71729 12.7147 2.45244 13.1439 2.27191C13.5732 2.09137 14.0343 1.99883 14.5 1.99976ZM9.5 3.99976C9.11478 3.99995 8.74441 4.14834 8.46561 4.41417C8.18682 4.68 8.02099 5.0429 8.00248 5.42767C7.98396 5.81245 8.11419 6.18959 8.36618 6.48096C8.61816 6.77233 8.97258 6.95559 9.356 6.99276L9.5 6.99976H11V5.49976C11 5.12688 10.8611 4.76737 10.6104 4.49134C10.3597 4.21531 10.0152 4.04256 9.644 4.00676L9.5 3.99976ZM14.5 3.99976L14.356 4.00676C14.0094 4.03997 13.6851 4.19274 13.4388 4.43887C13.1925 4.685 13.0395 5.00916 13.006 5.35576L13 5.49976V6.99976H14.5L14.644 6.99276C15.015 6.95679 15.3594 6.78396 15.6099 6.50795C15.8605 6.23194 15.9993 5.87253 15.9993 5.49976C15.9993 5.12699 15.8605 4.76758 15.6099 4.49157C15.3594 4.21556 15.015 4.04273 14.644 4.00676L14.5 3.99976Z" fill="#202430"/>
    </g>
  </symbol>
  <symbol id="custom-present-dm" viewBox="0 0 24 24">
    <g opacity="0.8">
      <path d="M20 12.9998V19.9998C20 20.265 19.8946 20.5193 19.7071 20.7069C19.5196 20.8944 19.2652 20.9998 19 20.9998H5C4.73478 20.9998 4.48043 20.8944 4.29289 20.7069C4.10536 20.5193 4 20.265 4 19.9998V12.9998H20ZM14.5 1.99976C15.0906 1.99956 15.6717 2.14883 16.1892 2.43369C16.7066 2.71854 17.1435 3.12971 17.4592 3.62889C17.7749 4.12808 17.9592 4.69904 17.9948 5.28861C18.0305 5.87818 17.9163 6.46719 17.663 7.00076L21 6.99976C21.2652 6.99976 21.5196 7.10512 21.7071 7.29265C21.8946 7.48019 22 7.73454 22 7.99976V10.9998C22 11.265 21.8946 11.5193 21.7071 11.7069C21.5196 11.8944 21.2652 11.9998 21 11.9998H3C2.73478 11.9998 2.48043 11.8944 2.29289 11.7069C2.10536 11.5193 2 11.265 2 10.9998V7.99976C2 7.73454 2.10536 7.48019 2.29289 7.29265C2.48043 7.10512 2.73478 6.99976 3 6.99976L6.337 7.00076C5.98076 6.25243 5.90163 5.40196 6.1137 4.60076C6.32577 3.79955 6.81529 3.0996 7.4951 2.62551C8.17491 2.15142 9.0009 1.93396 9.82603 2.01183C10.6512 2.0897 11.4219 2.45786 12.001 3.05076C12.326 2.71729 12.7147 2.45244 13.1439 2.27191C13.5732 2.09137 14.0343 1.99883 14.5 1.99976ZM9.5 3.99976C9.11478 3.99995 8.74441 4.14834 8.46561 4.41417C8.18682 4.68 8.02099 5.0429 8.00248 5.42767C7.98396 5.81245 8.11419 6.18959 8.36618 6.48096C8.61816 6.77233 8.97258 6.95559 9.356 6.99276L9.5 6.99976H11V5.49976C11 5.12688 10.8611 4.76737 10.6104 4.49134C10.3597 4.21531 10.0152 4.04256 9.644 4.00676L9.5 3.99976ZM14.5 3.99976L14.356 4.00676C14.0094 4.03997 13.6851 4.19274 13.4388 4.43887C13.1925 4.685 13.0395 5.00916 13.006 5.35576L13 5.49976V6.99976H14.5L14.644 6.99276C15.015 6.95679 15.3594 6.78396 15.6099 6.50795C15.8605 6.23194 15.9993 5.87253 15.9993 5.49976C15.9993 5.12699 15.8605 4.76758 15.6099 4.49157C15.3594 4.21556 15.015 4.04273 14.644 4.00676L14.5 3.99976Z" fill="white"/>
    </g>
  </symbol>

  <symbol id="custom-shield" viewBox="0 0 24 24">
    <path d="M20.5899 2.066L11.9929 0L3.40991 2.066V8.678H7.96691C7.92688 8.99474 7.92688 9.31526 7.96691 9.632H3.40991V12.738C3.40991 19.867 11.9939 24 11.9939 24C11.9939 24 20.5759 19.867 20.5759 12.742V9.635H16.0309C16.073 9.3184 16.073 8.9976 16.0309 8.681H20.5889L20.5899 2.066ZM11.9999 12.262H11.9939C11.1696 12.2612 10.3794 11.9331 9.79693 11.3498C9.21448 10.7665 8.88752 9.9758 8.88791 9.1515C8.88831 8.3272 9.21604 7.5368 9.79905 6.95408C10.3821 6.37135 11.1726 6.044 11.9969 6.044C12.8212 6.044 13.6118 6.37135 14.1948 6.95408C14.7778 7.5368 15.1055 8.3272 15.1059 9.1515C15.1063 9.9758 14.7793 10.7665 14.1969 11.3498C13.6145 11.9331 12.8242 12.2612 11.9999 12.262ZM11.9939 7.683C11.813 7.68203 11.6371 7.7421 11.4946 7.85349C11.352 7.96487 11.2512 8.12107 11.2084 8.29683C11.1656 8.47259 11.1834 8.65765 11.2588 8.82208C11.3342 8.98651 11.4628 9.12072 11.6239 9.203V9.411L11.8619 9.648V9.807L12.0209 9.966V10.125L11.8809 10.265L12.0309 10.511V10.67L11.8709 10.859L12.0939 11.081L12.3399 10.835V9.218C12.5077 9.14124 12.6439 9.00912 12.7258 8.84382C12.8077 8.67852 12.8302 8.49009 12.7897 8.31013C12.7491 8.13017 12.6479 7.96963 12.503 7.85545C12.3581 7.74126 12.1784 7.68038 11.9939 7.683ZM11.9939 8.519C11.9347 8.5192 11.8768 8.50183 11.8275 8.4691C11.7782 8.43636 11.7397 8.38973 11.717 8.33512C11.6942 8.2805 11.6881 8.22035 11.6995 8.16228C11.711 8.10422 11.7394 8.05085 11.7811 8.00893C11.8229 7.96702 11.8762 7.93844 11.9342 7.92682C11.9922 7.9152 12.0524 7.92106 12.1071 7.94367C12.1618 7.96627 12.2086 8.00459 12.2415 8.05378C12.2744 8.10297 12.2919 8.16082 12.2919 8.22C12.292 8.25927 12.2844 8.29817 12.2695 8.3345C12.2546 8.37082 12.2327 8.40386 12.205 8.43172C12.1774 8.45958 12.1445 8.48171 12.1083 8.49686C12.072 8.512 12.0332 8.51987 11.9939 8.52V8.519Z" fill="#202430"/>
  </symbol>
  <symbol id="custom-shield-dm" viewBox="0 0 24 24">
    <path d="M20.5899 2.066L11.9929 0L3.40991 2.066V8.678H7.96691C7.92688 8.99474 7.92688 9.31526 7.96691 9.632H3.40991V12.738C3.40991 19.867 11.9939 24 11.9939 24C11.9939 24 20.5759 19.867 20.5759 12.742V9.635H16.0309C16.073 9.3184 16.073 8.9976 16.0309 8.681H20.5889L20.5899 2.066ZM11.9999 12.262H11.9939C11.1696 12.2612 10.3794 11.9331 9.79693 11.3498C9.21448 10.7665 8.88752 9.9758 8.88791 9.1515C8.88831 8.3272 9.21604 7.5368 9.79905 6.95408C10.3821 6.37135 11.1726 6.044 11.9969 6.044C12.8212 6.044 13.6118 6.37135 14.1948 6.95408C14.7778 7.5368 15.1055 8.3272 15.1059 9.1515C15.1063 9.9758 14.7793 10.7665 14.1969 11.3498C13.6145 11.9331 12.8242 12.2612 11.9999 12.262ZM11.9939 7.683C11.813 7.68203 11.6371 7.7421 11.4946 7.85349C11.352 7.96487 11.2512 8.12107 11.2084 8.29683C11.1656 8.47259 11.1834 8.65765 11.2588 8.82208C11.3342 8.98651 11.4628 9.12072 11.6239 9.203V9.411L11.8619 9.648V9.807L12.0209 9.966V10.125L11.8809 10.265L12.0309 10.511V10.67L11.8709 10.859L12.0939 11.081L12.3399 10.835V9.218C12.5077 9.14124 12.6439 9.00912 12.7258 8.84382C12.8077 8.67852 12.8302 8.49009 12.7897 8.31013C12.7491 8.13017 12.6479 7.96963 12.503 7.85545C12.3581 7.74126 12.1784 7.68038 11.9939 7.683ZM11.9939 8.519C11.9347 8.5192 11.8768 8.50183 11.8275 8.4691C11.7782 8.43636 11.7397 8.38973 11.717 8.33512C11.6942 8.2805 11.6881 8.22035 11.6995 8.16228C11.711 8.10422 11.7394 8.05085 11.7811 8.00893C11.8229 7.96702 11.8762 7.93844 11.9342 7.92682C11.9922 7.9152 12.0524 7.92106 12.1071 7.94367C12.1618 7.96627 12.2086 8.00459 12.2415 8.05378C12.2744 8.10297 12.2919 8.16082 12.2919 8.22C12.292 8.25927 12.2844 8.29817 12.2695 8.3345C12.2546 8.37082 12.2327 8.40386 12.205 8.43172C12.1774 8.45958 12.1445 8.48171 12.1083 8.49686C12.072 8.512 12.0332 8.51987 11.9939 8.52V8.519Z" fill="white"/>
  </symbol>

  <symbol id="custom-question" viewBox="0 0 28 28">
     <path opacity="0.8" d="M14.0002 2.33325C9.49683 2.33325 5.8335 5.99659 5.8335 10.4999C5.8335 16.6249 14.0002 25.6666 14.0002 25.6666C14.0002 25.6666 22.1668 16.6249 22.1668 10.4999C22.1668 5.99659 18.5035 2.33325 14.0002 2.33325ZM15.0268 18.3749H12.9852V16.3333H15.0268M15.0268 15.0266H12.9852C12.9852 11.7133 16.0418 11.9699 16.0418 9.91659C16.0418 9.3751 15.8267 8.8558 15.4438 8.47291C15.061 8.09002 14.5416 7.87492 14.0002 7.87492C13.4587 7.87492 12.9394 8.09002 12.5565 8.47291C12.1736 8.8558 11.9585 9.3751 11.9585 9.91659H9.91683C9.91683 8.83362 10.347 7.79501 11.1128 7.02923C11.8786 6.26346 12.9172 5.83325 14.0002 5.83325C15.0831 5.83325 16.1217 6.26346 16.8875 7.02923C17.6533 7.79501 18.0835 8.83362 18.0835 9.91659C18.0835 12.4716 15.0268 12.7283 15.0268 15.0266Z" fill="#202430"/>
  </symbol>
  <symbol id="custom-question-dm" viewBox="0 0 28 28">
     <path opacity="0.8" d="M14.0002 2.33325C9.49683 2.33325 5.8335 5.99659 5.8335 10.4999C5.8335 16.6249 14.0002 25.6666 14.0002 25.6666C14.0002 25.6666 22.1668 16.6249 22.1668 10.4999C22.1668 5.99659 18.5035 2.33325 14.0002 2.33325ZM15.0268 18.3749H12.9852V16.3333H15.0268M15.0268 15.0266H12.9852C12.9852 11.7133 16.0418 11.9699 16.0418 9.91659C16.0418 9.3751 15.8267 8.8558 15.4438 8.47291C15.061 8.09002 14.5416 7.87492 14.0002 7.87492C13.4587 7.87492 12.9394 8.09002 12.5565 8.47291C12.1736 8.8558 11.9585 9.3751 11.9585 9.91659H9.91683C9.91683 8.83362 10.347 7.79501 11.1128 7.02923C11.8786 6.26346 12.9172 5.83325 14.0002 5.83325C15.0831 5.83325 16.1217 6.26346 16.8875 7.02923C17.6533 7.79501 18.0835 8.83362 18.0835 9.91659C18.0835 12.4716 15.0268 12.7283 15.0268 15.0266Z" fill="white"/>
  </symbol>

  <symbol id="custom-card" viewBox="0 0 24 24">
     <path d="M4.875 3.75C3.97989 3.75 3.12145 4.10558 2.48851 4.73851C1.85558 5.37145 1.5 6.22989 1.5 7.125V8.25H22.5V7.125C22.5 6.22989 22.1444 5.37145 21.5115 4.73851C20.8785 4.10558 20.0201 3.75 19.125 3.75H4.875ZM1.5 16.875V9.75H22.5V16.875C22.5 17.7701 22.1444 18.6285 21.5115 19.2615C20.8785 19.8944 20.0201 20.25 19.125 20.25H4.875C3.97989 20.25 3.12145 19.8944 2.48851 19.2615C1.85558 18.6285 1.5 17.7701 1.5 16.875ZM15.75 14.25C15.5511 14.25 15.3603 14.329 15.2197 14.4697C15.079 14.6103 15 14.8011 15 15C15 15.1989 15.079 15.3897 15.2197 15.5303C15.3603 15.671 15.5511 15.75 15.75 15.75H18C18.1989 15.75 18.3897 15.671 18.5303 15.5303C18.671 15.3897 18.75 15.1989 18.75 15C18.75 14.8011 18.671 14.6103 18.5303 14.4697C18.3897 14.329 18.1989 14.25 18 14.25H15.75Z" fill="#202430"/>
  </symbol>
  <symbol id="custom-card-dm" viewBox="0 0 24 24">
     <path d="M4.875 3.75C3.97989 3.75 3.12145 4.10558 2.48851 4.73851C1.85558 5.37145 1.5 6.22989 1.5 7.125V8.25H22.5V7.125C22.5 6.22989 22.1444 5.37145 21.5115 4.73851C20.8785 4.10558 20.0201 3.75 19.125 3.75H4.875ZM1.5 16.875V9.75H22.5V16.875C22.5 17.7701 22.1444 18.6285 21.5115 19.2615C20.8785 19.8944 20.0201 20.25 19.125 20.25H4.875C3.97989 20.25 3.12145 19.8944 2.48851 19.2615C1.85558 18.6285 1.5 17.7701 1.5 16.875ZM15.75 14.25C15.5511 14.25 15.3603 14.329 15.2197 14.4697C15.079 14.6103 15 14.8011 15 15C15 15.1989 15.079 15.3897 15.2197 15.5303C15.3603 15.671 15.5511 15.75 15.75 15.75H18C18.1989 15.75 18.3897 15.671 18.5303 15.5303C18.671 15.3897 18.75 15.1989 18.75 15C18.75 14.8011 18.671 14.6103 18.5303 14.4697C18.3897 14.329 18.1989 14.25 18 14.25H15.75Z" fill="white"/>
  </symbol>

  <symbol id="custom-help" viewBox="0 0 24 24">
     <path d="M12 2C17.523 2 22 6.477 22 12C22 17.523 17.523 22 12 22C10.3822 22.0021 8.78829 21.6102 7.35601 20.858L3.06601 21.975C2.92267 22.0123 2.77205 22.0116 2.6291 21.9728C2.48615 21.934 2.35582 21.8585 2.25102 21.7538C2.14623 21.6491 2.07062 21.5188 2.03168 21.3759C1.99273 21.233 1.99181 21.0824 2.02901 20.939L3.14501 16.65C2.39081 15.2162 1.99778 13.6201 2.00001 12C2.00001 6.477 6.47701 2 12 2ZM12 15.5C11.7348 15.5 11.4804 15.6054 11.2929 15.7929C11.1054 15.9804 11 16.2348 11 16.5C11 16.7652 11.1054 17.0196 11.2929 17.2071C11.4804 17.3946 11.7348 17.5 12 17.5C12.2652 17.5 12.5196 17.3946 12.7071 17.2071C12.8947 17.0196 13 16.7652 13 16.5C13 16.2348 12.8947 15.9804 12.7071 15.7929C12.5196 15.6054 12.2652 15.5 12 15.5ZM12 6.75C11.2707 6.75 10.5712 7.03973 10.0555 7.55546C9.53974 8.07118 9.25001 8.77065 9.25001 9.5C9.25007 9.69002 9.32225 9.87294 9.45198 10.0118C9.58171 10.1506 9.75931 10.2351 9.94889 10.248C10.1385 10.261 10.3259 10.2015 10.4733 10.0816C10.6207 9.96165 10.7171 9.79025 10.743 9.602L10.757 9.372C10.7908 9.05406 10.9451 8.76115 11.1882 8.55351C11.4314 8.34587 11.7448 8.23929 12.0641 8.25568C12.3834 8.27208 12.6843 8.4102 12.9049 8.64165C13.1255 8.8731 13.249 9.18028 13.25 9.5C13.25 10.039 13.115 10.305 12.605 10.832L12.301 11.142C11.547 11.926 11.25 12.489 11.25 13.5C11.25 13.6989 11.329 13.8897 11.4697 14.0303C11.6103 14.171 11.8011 14.25 12 14.25C12.1989 14.25 12.3897 14.171 12.5303 14.0303C12.671 13.8897 12.75 13.6989 12.75 13.5C12.75 12.961 12.885 12.695 13.395 12.168L13.699 11.858C14.453 11.074 14.75 10.511 14.75 9.5C14.75 8.77065 14.4603 8.07118 13.9446 7.55546C13.4288 7.03973 12.7294 6.75 12 6.75Z" fill="#202430"/>
  </symbol>
  <symbol id="custom-help-dm" viewBox="0 0 24 24">
     <path d="M12 2C17.523 2 22 6.477 22 12C22 17.523 17.523 22 12 22C10.3822 22.0021 8.78829 21.6102 7.35601 20.858L3.06601 21.975C2.92267 22.0123 2.77205 22.0116 2.6291 21.9728C2.48615 21.934 2.35582 21.8585 2.25102 21.7538C2.14623 21.6491 2.07062 21.5188 2.03168 21.3759C1.99273 21.233 1.99181 21.0824 2.02901 20.939L3.14501 16.65C2.39081 15.2162 1.99778 13.6201 2.00001 12C2.00001 6.477 6.47701 2 12 2ZM12 15.5C11.7348 15.5 11.4804 15.6054 11.2929 15.7929C11.1054 15.9804 11 16.2348 11 16.5C11 16.7652 11.1054 17.0196 11.2929 17.2071C11.4804 17.3946 11.7348 17.5 12 17.5C12.2652 17.5 12.5196 17.3946 12.7071 17.2071C12.8947 17.0196 13 16.7652 13 16.5C13 16.2348 12.8947 15.9804 12.7071 15.7929C12.5196 15.6054 12.2652 15.5 12 15.5ZM12 6.75C11.2707 6.75 10.5712 7.03973 10.0555 7.55546C9.53974 8.07118 9.25001 8.77065 9.25001 9.5C9.25007 9.69002 9.32225 9.87294 9.45198 10.0118C9.58171 10.1506 9.75931 10.2351 9.94889 10.248C10.1385 10.261 10.3259 10.2015 10.4733 10.0816C10.6207 9.96165 10.7171 9.79025 10.743 9.602L10.757 9.372C10.7908 9.05406 10.9451 8.76115 11.1882 8.55351C11.4314 8.34587 11.7448 8.23929 12.0641 8.25568C12.3834 8.27208 12.6843 8.4102 12.9049 8.64165C13.1255 8.8731 13.249 9.18028 13.25 9.5C13.25 10.039 13.115 10.305 12.605 10.832L12.301 11.142C11.547 11.926 11.25 12.489 11.25 13.5C11.25 13.6989 11.329 13.8897 11.4697 14.0303C11.6103 14.171 11.8011 14.25 12 14.25C12.1989 14.25 12.3897 14.171 12.5303 14.0303C12.671 13.8897 12.75 13.6989 12.75 13.5C12.75 12.961 12.885 12.695 13.395 12.168L13.699 11.858C14.453 11.074 14.75 10.511 14.75 9.5C14.75 8.77065 14.4603 8.07118 13.9446 7.55546C13.4288 7.03973 12.7294 6.75 12 6.75Z" fill="white"/>
  </symbol>

  <symbol id="custom-search" viewBox="0 0 24 24">
     <path d="M15.5 14H14.71L14.43 13.73C15.4439 12.554 16.0011 11.0527 16 9.5C16 8.21442 15.6188 6.95772 14.9046 5.8888C14.1903 4.81988 13.1752 3.98676 11.9874 3.49479C10.7997 3.00282 9.49279 2.87409 8.23192 3.1249C6.97104 3.3757 5.81285 3.99477 4.90381 4.90381C3.99477 5.81285 3.3757 6.97104 3.1249 8.23192C2.87409 9.49279 3.00282 10.7997 3.49479 11.9874C3.98676 13.1752 4.81988 14.1903 5.8888 14.9046C6.95772 15.6188 8.21442 16 9.5 16C11.11 16 12.59 15.41 13.73 14.43L14 14.71V15.5L19 20.49L20.49 19L15.5 14ZM9.5 14C7.01 14 5 11.99 5 9.5C5 7.01 7.01 5 9.5 5C11.99 5 14 7.01 14 9.5C14 11.99 11.99 14 9.5 14Z" fill="#202430"/>
  </symbol>
  <symbol id="custom-search-dm" viewBox="0 0 24 24">
     <path d="M15.5 14H14.71L14.43 13.73C15.4439 12.554 16.0011 11.0527 16 9.5C16 8.21442 15.6188 6.95772 14.9046 5.8888C14.1903 4.81988 13.1752 3.98676 11.9874 3.49479C10.7997 3.00282 9.49279 2.87409 8.23192 3.1249C6.97104 3.3757 5.81285 3.99477 4.90381 4.90381C3.99477 5.81285 3.3757 6.97104 3.1249 8.23192C2.87409 9.49279 3.00282 10.7997 3.49479 11.9874C3.98676 13.1752 4.81988 14.1903 5.8888 14.9046C6.95772 15.6188 8.21442 16 9.5 16C11.11 16 12.59 15.41 13.73 14.43L14 14.71V15.5L19 20.49L20.49 19L15.5 14ZM9.5 14C7.01 14 5 11.99 5 9.5C5 7.01 7.01 5 9.5 5C11.99 5 14 7.01 14 9.5C14 11.99 11.99 14 9.5 14Z" fill="white"/>
  </symbol>

    <symbol id="custom-bell" viewBox="0 0 24 24">
     <g clip-path="url(#clip0_221_476)">
      <path d="M15 19C15.0001 19.5046 14.8096 19.9906 14.4665 20.3605C14.1234 20.7305 13.6531 20.9572 13.15 20.995L13 21H11C10.4954 21.0002 10.0094 20.8096 9.63942 20.4665C9.26944 20.1234 9.04281 19.6532 9.00497 19.15L8.99997 19H15ZM12 2C13.8149 1.99997 15.559 2.70489 16.8642 3.96607C18.1694 5.22726 18.9337 6.94609 18.996 8.76L19 9V12.764L20.822 16.408C20.9015 16.567 20.9413 16.7429 20.9379 16.9206C20.9346 17.0984 20.8882 17.2727 20.8028 17.4286C20.7174 17.5845 20.5955 17.7174 20.4475 17.8158C20.2994 17.9143 20.1298 17.9754 19.953 17.994L19.838 18H4.16197C3.98413 18.0001 3.80894 17.957 3.65139 17.8745C3.49385 17.792 3.35865 17.6725 3.25739 17.5264C3.15613 17.3802 3.09182 17.2116 3.06997 17.0351C3.04813 16.8586 3.0694 16.6795 3.13197 16.513L3.17797 16.408L4.99997 12.764V9C4.99997 7.14348 5.73747 5.36301 7.05022 4.05025C8.36298 2.7375 10.1435 2 12 2Z" fill="#202430"/>
    </g>
    <defs>
      <clipPath id="clip0_221_476">
        <rect width="24" height="24" fill="#202430"/>
      </clipPath>
    </defs>
  </symbol>

  <symbol id="custom-bell-dm" viewBox="0 0 24 24">
     <g clip-path="url(#clip0_221_476)">
      <path d="M15 19C15.0001 19.5046 14.8096 19.9906 14.4665 20.3605C14.1234 20.7305 13.6531 20.9572 13.15 20.995L13 21H11C10.4954 21.0002 10.0094 20.8096 9.63942 20.4665C9.26944 20.1234 9.04281 19.6532 9.00497 19.15L8.99997 19H15ZM12 2C13.8149 1.99997 15.559 2.70489 16.8642 3.96607C18.1694 5.22726 18.9337 6.94609 18.996 8.76L19 9V12.764L20.822 16.408C20.9015 16.567 20.9413 16.7429 20.9379 16.9206C20.9346 17.0984 20.8882 17.2727 20.8028 17.4286C20.7174 17.5845 20.5955 17.7174 20.4475 17.8158C20.2994 17.9143 20.1298 17.9754 19.953 17.994L19.838 18H4.16197C3.98413 18.0001 3.80894 17.957 3.65139 17.8745C3.49385 17.792 3.35865 17.6725 3.25739 17.5264C3.15613 17.3802 3.09182 17.2116 3.06997 17.0351C3.04813 16.8586 3.0694 16.6795 3.13197 16.513L3.17797 16.408L4.99997 12.764V9C4.99997 7.14348 5.73747 5.36301 7.05022 4.05025C8.36298 2.7375 10.1435 2 12 2Z" fill="white"/>
    </g>
    <defs>
      <clipPath id="clip0_221_476">
        <rect width="24" height="24" fill="white"/>
      </clipPath>
    </defs>
  </symbol> -->




  <!-- <symbol id="custom-pencil" viewBox="0 0 15 15">
    <path d="M12.475 5.6938L9.2875 2.5438L11.4062 0.425049L14.575 3.5938L12.475 5.6938ZM0.25 14.75V11.5625L8.2 3.61255L11.3875 6.80005L3.4375 14.75H0.25Z" fill="#202430"/>
  </symbol>

  <symbol id="custom-account-dm" viewBox="0 0 24 24">
    <path d="M12 12C10.9 12 9.95833 11.6083 9.175 10.825C8.39167 10.0417 8 9.1 8 8C8 6.9 8.39167 5.95833 9.175 5.175C9.95833 4.39167 10.9 4 12 4C13.1 4 14.0417 4.39167 14.825 5.175C15.6083 5.95833 16 6.9 16 8C16 9.1 15.6083 10.0417 14.825 10.825C14.0417 11.6083 13.1 12 12 12ZM6 20C5.45 20 4.97933 19.8043 4.588 19.413C4.196 19.021 4 18.55 4 18V17.2C4 16.6333 4.146 16.1123 4.438 15.637C4.72933 15.1623 5.11667 14.8 5.6 14.55C6.63333 14.0333 7.68333 13.6457 8.75 13.387C9.81667 13.129 10.9 13 12 13C13.1 13 14.1833 13.129 15.25 13.387C16.3167 13.6457 17.3667 14.0333 18.4 14.55C18.8833 14.8 19.2707 15.1623 19.562 15.637C19.854 16.1123 20 16.6333 20 17.2V18C20 18.55 19.8043 19.021 19.413 19.413C19.021 19.8043 18.55 20 18 20H6Z" fill="#F8F8F8"/>
  </symbol>

  <symbol id="custom-account" viewBox="0 0 24 24">
    <path d="M12 12C10.9 12 9.95833 11.6083 9.175 10.825C8.39167 10.0417 8 9.1 8 8C8 6.9 8.39167 5.95833 9.175 5.175C9.95833 4.39167 10.9 4 12 4C13.1 4 14.0417 4.39167 14.825 5.175C15.6083 5.95833 16 6.9 16 8C16 9.1 15.6083 10.0417 14.825 10.825C14.0417 11.6083 13.1 12 12 12ZM6 20C5.45 20 4.97933 19.8043 4.588 19.413C4.196 19.021 4 18.55 4 18V17.2C4 16.6333 4.146 16.1123 4.438 15.637C4.72933 15.1623 5.11667 14.8 5.6 14.55C6.63333 14.0333 7.68333 13.6457 8.75 13.387C9.81667 13.129 10.9 13 12 13C13.1 13 14.1833 13.129 15.25 13.387C16.3167 13.6457 17.3667 14.0333 18.4 14.55C18.8833 14.8 19.2707 15.1623 19.562 15.637C19.854 16.1123 20 16.6333 20 17.2V18C20 18.55 19.8043 19.021 19.413 19.413C19.021 19.8043 18.55 20 18 20H6Z" fill="#202430"/>
  </symbol>

  <symbol id="custom-search-arrow-dm" viewBox="0 0 18 18">
    <path d="M5.3623 15.825C5.1748 15.6375 5.08105 15.4155 5.08105 15.159C5.08105 14.903 5.1748 14.6812 5.3623 14.4937L10.8561 9L5.34355 3.4875C5.16855 3.3125 5.08105 3.09375 5.08105 2.83125C5.08105 2.56875 5.1748 2.34375 5.3623 2.15625C5.5498 1.96875 5.7718 1.875 6.0283 1.875C6.2843 1.875 6.50605 1.96875 6.69355 2.15625L12.9936 8.475C13.0686 8.55 13.1218 8.63125 13.1533 8.71875C13.1843 8.80625 13.1998 8.9 13.1998 9C13.1998 9.1 13.1843 9.19375 13.1533 9.28125C13.1218 9.36875 13.0686 9.45 12.9936 9.525L6.6748 15.8437C6.4998 16.0187 6.2843 16.1062 6.0283 16.1062C5.7718 16.1062 5.5498 16.0125 5.3623 15.825Z" fill="#F8F8F8"/>
  </symbol>

  <symbol id="custom-search-arrow" viewBox="0 0 18 18">
    <path d="M5.3623 15.825C5.1748 15.6375 5.08105 15.4155 5.08105 15.159C5.08105 14.903 5.1748 14.6812 5.3623 14.4937L10.8561 9L5.34355 3.4875C5.16855 3.3125 5.08105 3.09375 5.08105 2.83125C5.08105 2.56875 5.1748 2.34375 5.3623 2.15625C5.5498 1.96875 5.7718 1.875 6.0283 1.875C6.2843 1.875 6.50605 1.96875 6.69355 2.15625L12.9936 8.475C13.0686 8.55 13.1218 8.63125 13.1533 8.71875C13.1843 8.80625 13.1998 8.9 13.1998 9C13.1998 9.1 13.1843 9.19375 13.1533 9.28125C13.1218 9.36875 13.0686 9.45 12.9936 9.525L6.6748 15.8437C6.4998 16.0187 6.2843 16.1062 6.0283 16.1062C5.7718 16.1062 5.5498 16.0125 5.3623 15.825Z" fill="#202430"/>
  </symbol>

  <symbol id="custom-exchange-dm" viewBox="0 0 24 24">
    <path d="M13.9998 18C14.265 18 14.5194 17.8947 14.7069 17.7071C14.8945 17.5196 14.9998 17.2652 14.9998 17L14.9998 5.41002L17.2898 7.71002C17.4781 7.89832 17.7335 8.00411 17.9998 8.00411C18.2661 8.00411 18.5215 7.89832 18.7098 7.71002C18.8981 7.52171 19.0039 7.26632 19.0039 7.00002C19.0039 6.73372 18.8981 6.47832 18.7098 6.29002L14.7098 2.29002C14.5692 2.15126 14.3906 2.05726 14.1966 2.01989C14.0026 1.98252 13.8019 2.00344 13.6198 2.08002C13.4372 2.15504 13.2809 2.28244 13.1705 2.44616C13.0602 2.60988 13.0008 2.80259 12.9998 3.00002L12.9998 17C12.9998 17.2652 13.1052 17.5196 13.2927 17.7071C13.4802 17.8947 13.7346 18 13.9998 18ZM10.3798 21.92C10.5624 21.845 10.7188 21.7176 10.8291 21.5539C10.9394 21.3902 10.9988 21.1974 10.9998 21L10.9998 7.00002C10.9998 6.7348 10.8945 6.48045 10.7069 6.29291C10.5194 6.10537 10.265 6.00002 9.99981 6.00002C9.7346 6.00002 9.48024 6.10537 9.29271 6.29291C9.10517 6.48045 8.99981 6.7348 8.99981 7.00002L8.99981 18.59L6.70981 16.29C6.61685 16.1963 6.50625 16.1219 6.38439 16.0711C6.26253 16.0204 6.13183 15.9942 5.99981 15.9942C5.8678 15.9942 5.7371 16.0204 5.61524 16.0711C5.49338 16.1219 5.38278 16.1963 5.28982 16.29C5.19609 16.383 5.12169 16.4936 5.07092 16.6154C5.02015 16.7373 4.99402 16.868 4.99402 17C4.99402 17.132 5.02015 17.2627 5.07092 17.3846C5.12169 17.5065 5.19609 17.6171 5.28982 17.71L9.28981 21.71C9.43044 21.8488 9.60901 21.9428 9.803 21.9801C9.99699 22.0175 10.1977 21.9966 10.3798 21.92Z" fill="white"/>
  </symbol>
  <symbol id="custom-exchange" viewBox="0 0 24 24">
    <path d="M13.9998 18C14.265 18 14.5194 17.8947 14.7069 17.7071C14.8945 17.5196 14.9998 17.2652 14.9998 17L14.9998 5.41002L17.2898 7.71002C17.4781 7.89832 17.7335 8.00411 17.9998 8.00411C18.2661 8.00411 18.5215 7.89832 18.7098 7.71002C18.8981 7.52171 19.0039 7.26632 19.0039 7.00002C19.0039 6.73372 18.8981 6.47832 18.7098 6.29002L14.7098 2.29002C14.5692 2.15126 14.3906 2.05726 14.1966 2.01989C14.0026 1.98252 13.8019 2.00344 13.6198 2.08002C13.4372 2.15504 13.2809 2.28244 13.1705 2.44616C13.0602 2.60988 13.0008 2.80259 12.9998 3.00002L12.9998 17C12.9998 17.2652 13.1052 17.5196 13.2927 17.7071C13.4802 17.8947 13.7346 18 13.9998 18ZM10.3798 21.92C10.5624 21.845 10.7188 21.7176 10.8291 21.5539C10.9394 21.3902 10.9988 21.1974 10.9998 21L10.9998 7.00002C10.9998 6.7348 10.8945 6.48045 10.7069 6.29291C10.5194 6.10537 10.265 6.00002 9.99981 6.00002C9.7346 6.00002 9.48024 6.10537 9.29271 6.29291C9.10517 6.48045 8.99981 6.7348 8.99981 7.00002L8.99981 18.59L6.70981 16.29C6.61685 16.1963 6.50625 16.1219 6.38439 16.0711C6.26253 16.0204 6.13183 15.9942 5.99981 15.9942C5.8678 15.9942 5.7371 16.0204 5.61524 16.0711C5.49338 16.1219 5.38278 16.1963 5.28982 16.29C5.19609 16.383 5.12169 16.4936 5.07092 16.6154C5.02015 16.7373 4.99402 16.868 4.99402 17C4.99402 17.132 5.02015 17.2627 5.07092 17.3846C5.12169 17.5065 5.19609 17.6171 5.28982 17.71L9.28981 21.71C9.43044 21.8488 9.60901 21.9428 9.803 21.9801C9.99699 22.0175 10.1977 21.9966 10.3798 21.92Z" fill="#202430"/>
  </symbol>


  <symbol id="custom-check-dialog" viewBox="0 0 24 24">
    <path d="M10.6 13.8L8.425 11.625C8.24167 11.4417 8.01267 11.3543 7.738 11.363C7.46267 11.371 7.23333 11.4667 7.05 11.65C6.86667 11.8333 6.775 12.0667 6.775 12.35C6.775 12.6333 6.86667 12.8667 7.05 13.05L9.9 15.9C10.0833 16.0833 10.3167 16.175 10.6 16.175C10.8833 16.175 11.1167 16.0833 11.3 15.9L16.975 10.225C17.1583 10.0417 17.246 9.81233 17.238 9.537C17.2293 9.26233 17.1333 9.03333 16.95 8.85C16.7667 8.66667 16.5333 8.575 16.25 8.575C15.9667 8.575 15.7333 8.66667 15.55 8.85L10.6 13.8ZM12 22C10.6167 22 9.31667 21.7373 8.1 21.212C6.88333 20.6873 5.825 19.975 4.925 19.075C4.025 18.175 3.31267 17.1167 2.788 15.9C2.26267 14.6833 2 13.3833 2 12C2 10.6167 2.26267 9.31667 2.788 8.1C3.31267 6.88333 4.025 5.825 4.925 4.925C5.825 4.025 6.88333 3.31233 8.1 2.787C9.31667 2.26233 10.6167 2 12 2C13.3833 2 14.6833 2.26233 15.9 2.787C17.1167 3.31233 18.175 4.025 19.075 4.925C19.975 5.825 20.6873 6.88333 21.212 8.1C21.7373 9.31667 22 10.6167 22 12C22 13.3833 21.7373 14.6833 21.212 15.9C20.6873 17.1167 19.975 18.175 19.075 19.075C18.175 19.975 17.1167 20.6873 15.9 21.212C14.6833 21.7373 13.3833 22 12 22ZM12 20C14.2167 20 16.1043 19.221 17.663 17.663C19.221 16.1043 20 14.2167 20 12C20 9.78333 19.221 7.89567 17.663 6.337C16.1043 4.779 14.2167 4 12 4C9.78333 4 7.896 4.779 6.338 6.337C4.77933 7.89567 4 9.78333 4 12C4 14.2167 4.77933 16.1043 6.338 17.663C7.896 19.221 9.78333 20 12 20Z" fill="#8F9197"/>
  </symbol> -->
</svg>

