<svg width="452" height="452" viewBox="0 0 452 452" fill="none" xmlns="http://www.w3.org/2000/svg">
<path d="M371.787 156.223H431.418C434.186 156.223 436.576 157.23 438.589 159.245C440.602 161.26 441.608 163.653 441.608 166.423V410.477C441.608 413.247 440.602 415.64 438.589 417.655C436.576 419.67 434.186 420.677 431.418 420.677H363.106C360.339 420.677 357.949 419.67 355.936 417.655C353.923 415.64 352.916 413.247 352.916 410.477V306.962L328.007 347.763C323.981 354.06 319.327 357.208 314.043 357.208H287.624C282.34 357.208 277.685 354.06 273.66 347.763L248.751 306.962V410.477C248.751 413.247 247.744 415.64 245.731 417.655C243.718 419.67 241.328 420.677 238.56 420.677H170.249C167.481 420.677 165.091 419.67 163.078 417.655C161.065 415.64 160.059 413.247 160.059 410.477V166.423C160.059 163.653 161.065 161.26 163.078 159.245C165.091 157.23 167.481 156.223 170.249 156.223H229.88C236.925 156.223 242.334 159.623 246.109 166.423L300.833 257.093L355.558 166.423C359.332 159.623 364.742 156.223 371.787 156.223Z" fill="url(#paint0_linear_169_4055)"/>
<g clip-path="url(#clip0_169_4055)">
<path d="M144.329 198.452L108.013 125.076L189.891 127.693L190.464 128.084C190.692 125.46 190.823 122.797 190.823 120.115C190.816 70.3469 150.469 30 100.701 30C50.9332 30 10.5928 70.3469 10.5928 120.108C10.5928 169.87 50.9397 210.217 100.701 210.217C116.6 210.217 131.536 206.095 144.499 198.869L144.323 198.452H144.329Z" fill="url(#paint1_linear_169_4055)"/>
<path d="M118.599 97.1976C126.129 97.1976 132.233 91.0937 132.233 83.5641C132.233 76.0346 126.129 69.9307 118.599 69.9307C111.07 69.9307 104.966 76.0346 104.966 83.5641C104.966 91.0937 111.07 97.1976 118.599 97.1976Z" fill="white"/>
</g>
<defs>
<linearGradient id="paint0_linear_169_4055" x1="300.348" y1="74.1904" x2="300.348" y2="527.191" gradientUnits="userSpaceOnUse">
<stop stop-color="#1070FC"/>
<stop offset="1" stop-color="#05CEC2"/>
</linearGradient>
<linearGradient id="paint1_linear_169_4055" x1="100.397" y1="-25.9022" x2="100.397" y2="282.802" gradientUnits="userSpaceOnUse">
<stop stop-color="#1070FC"/>
<stop offset="1" stop-color="#05CEC2"/>
</linearGradient>
<clipPath id="clip0_169_4055">
<rect width="180.223" height="180.223" fill="white" transform="translate(10.5928 30)"/>
</clipPath>
</defs>
</svg>
