<svg width="352" height="57" viewBox="0 0 352 57" fill="none" xmlns="http://www.w3.org/2000/svg">
<path d="M56.1763 27.6035H62.7059C63.009 27.6035 63.2707 27.7139 63.4911 27.9347C63.7115 28.1555 63.8217 28.4178 63.8217 28.7214V55.4684C63.8217 55.7721 63.7115 56.0343 63.4911 56.2551C63.2707 56.4759 63.009 56.5863 62.7059 56.5863H55.2258C54.9228 56.5863 54.661 56.4759 54.4406 56.2551C54.2202 56.0343 54.11 55.7721 54.11 55.4684V44.1237L51.3825 48.5953C50.9417 49.2854 50.432 49.6304 49.8534 49.6304H46.9605C46.382 49.6304 45.8723 49.2854 45.4315 48.5953L42.7039 44.1237V55.4684C42.7039 55.7721 42.5937 56.0343 42.3733 56.2551C42.1529 56.4759 41.8912 56.5863 41.5881 56.5863H34.108C33.8049 56.5863 33.5432 56.4759 33.3228 56.2551C33.1024 56.0343 32.9922 55.7721 32.9922 55.4684V28.7214C32.9922 28.4178 33.1024 28.1555 33.3228 27.9347C33.5432 27.7139 33.8049 27.6035 34.108 27.6035H40.6376C41.409 27.6035 42.0014 27.9761 42.4146 28.7214L48.407 38.6584L54.3993 28.7214C54.8126 27.9761 55.4049 27.6035 56.1763 27.6035Z" fill="url(#paint0_linear_249_7182)"/>
<path d="M78.2437 27.6035H87.2116C88.2034 27.6035 88.8233 28.0589 89.0713 28.9698L98.2871 55.3856C98.3146 55.4684 98.3284 55.6064 98.3284 55.7997C98.3284 55.9653 98.232 56.1447 98.0391 56.3379C97.8738 56.5035 97.6672 56.5863 97.4192 56.5863H89.7738C88.9473 56.5863 88.41 56.2413 88.1621 55.5512L87.1702 52.8186H78.285L77.2932 55.5512C77.0453 56.2413 76.508 56.5863 75.6815 56.5863H68.0361C67.7881 56.5863 67.5677 56.5035 67.3749 56.3379C67.2095 56.1447 67.1269 55.9653 67.1269 55.7997C67.1269 55.6064 67.1407 55.4684 67.1682 55.3856L76.384 28.9698C76.632 28.0589 77.2519 27.6035 78.2437 27.6035ZM80.3927 44.7448H85.0626L82.707 37.0436L80.3927 44.7448Z" fill="url(#paint1_linear_249_7182)"/>
<path d="M119.742 27.6035H127.429C127.677 27.6035 127.883 27.7001 128.049 27.8933C128.241 28.0589 128.338 28.2246 128.338 28.3902C128.338 28.5558 128.324 28.6938 128.297 28.8042L120.527 55.22C120.279 56.1309 119.659 56.5863 118.667 56.5863H109.245C108.253 56.5863 107.633 56.1309 107.385 55.22L99.616 28.8042C99.5884 28.6938 99.5746 28.5558 99.5746 28.3902C99.5746 28.2246 99.6573 28.0589 99.8226 27.8933C100.015 27.7001 100.236 27.6035 100.484 27.6035H108.171C109.162 27.6035 109.782 28.0589 110.03 28.9698L113.956 44.3721L117.882 28.9698C118.13 28.0589 118.75 27.6035 119.742 27.6035Z" fill="url(#paint2_linear_249_7182)"/>
<path d="M141.545 48.5125H154.274C154.577 48.5125 154.839 48.6229 155.059 48.8438C155.279 49.0646 155.39 49.3268 155.39 49.6304V55.4684C155.39 55.7721 155.279 56.0343 155.059 56.2551C154.839 56.4759 154.577 56.5863 154.274 56.5863H132.743C132.44 56.5863 132.178 56.4759 131.958 56.2551C131.737 56.0343 131.627 55.7721 131.627 55.4684V28.7214C131.627 28.4178 131.737 28.1555 131.958 27.9347C132.178 27.7139 132.44 27.6035 132.743 27.6035H153.943C154.246 27.6035 154.508 27.7139 154.728 27.9347C154.949 28.1555 155.059 28.4178 155.059 28.7214V34.5594C155.059 34.863 154.949 35.1252 154.728 35.3461C154.508 35.5669 154.246 35.6773 153.943 35.6773H141.545V38.2857H153.034C153.337 38.2857 153.599 38.3961 153.819 38.617C154.04 38.8378 154.15 39.1 154.15 39.4036V44.7862C154.15 45.0898 154.04 45.352 153.819 45.5729C153.599 45.7937 153.337 45.9041 153.034 45.9041H141.545V48.5125Z" fill="url(#paint3_linear_249_7182)"/>
<path d="M170.859 48.0985H182.306C182.609 48.0985 182.871 48.2089 183.091 48.4297C183.312 48.6506 183.422 48.9128 183.422 49.2164V55.4684C183.422 55.7721 183.312 56.0343 183.091 56.2551C182.871 56.4759 182.609 56.5863 182.306 56.5863H161.478C161.174 56.5863 160.913 56.4759 160.692 56.2551C160.472 56.0343 160.362 55.7721 160.362 55.4684V28.7214C160.362 28.4178 160.472 28.1555 160.692 27.9347C160.913 27.7139 161.174 27.6035 161.478 27.6035H169.743C170.046 27.6035 170.308 27.7139 170.528 27.9347C170.748 28.1555 170.859 28.4178 170.859 28.7214V48.0985Z" fill="url(#paint4_linear_249_7182)"/>
<path d="M210.893 39.1138H222.258C222.561 39.1138 222.822 39.2242 223.043 39.4451C223.263 39.6659 223.373 39.9281 223.373 40.2317V45.6143C223.373 49.2578 222.079 52.0733 219.489 54.0607C216.899 56.0205 213.441 57.0004 209.116 57.0004C204.818 57.0004 201.429 56.0481 198.949 54.1435C196.47 52.2113 195.23 49.3268 195.23 45.49V38.5342C195.23 34.863 196.497 32.0613 199.032 30.1291C201.567 28.1693 204.942 27.1895 209.157 27.1895C213.4 27.1895 216.83 28.0865 219.447 29.8807C222.065 31.6473 223.373 33.8279 223.373 36.4226C223.373 36.671 223.277 36.8918 223.084 37.085C222.919 37.2506 222.712 37.3334 222.464 37.3334H213.331C212.78 37.3334 212.381 37.1816 212.133 36.878C211.582 36.1603 211.168 35.7463 210.893 35.6359C210.259 35.3875 209.681 35.2632 209.157 35.2632C207.036 35.2632 205.975 36.2983 205.975 38.3685V45.4072C205.975 47.7535 207.105 48.9266 209.364 48.9266C211.678 48.9266 212.835 47.9329 212.835 45.9455H210.893C210.59 45.9455 210.328 45.8351 210.108 45.6143C209.887 45.3934 209.777 45.1312 209.777 44.8276V40.2317C209.777 39.9281 209.887 39.6659 210.108 39.4451C210.328 39.2242 210.59 39.1138 210.893 39.1138Z" fill="url(#paint5_linear_249_7182)"/>
<path d="M236.99 27.6035H245.958C246.95 27.6035 247.569 28.0589 247.817 28.9698L257.033 55.3856C257.061 55.4684 257.075 55.6064 257.075 55.7997C257.075 55.9653 256.978 56.1447 256.785 56.3379C256.62 56.5035 256.413 56.5863 256.165 56.5863H248.52C247.693 56.5863 247.156 56.2413 246.908 55.5512L245.916 52.8186H237.031L236.039 55.5512C235.791 56.2413 235.254 56.5863 234.428 56.5863H226.782C226.534 56.5863 226.314 56.5035 226.121 56.3379C225.956 56.1447 225.873 55.9653 225.873 55.7997C225.873 55.6064 225.887 55.4684 225.914 55.3856L235.13 28.9698C235.378 28.0589 235.998 27.6035 236.99 27.6035ZM239.139 44.7448H243.809L241.453 37.0436L239.139 44.7448Z" fill="url(#paint6_linear_249_7182)"/>
<path d="M283.571 27.6035H290.101C290.404 27.6035 290.666 27.7139 290.886 27.9347C291.106 28.1555 291.217 28.4178 291.217 28.7214V55.4684C291.217 55.7721 291.106 56.0343 290.886 56.2551C290.666 56.4759 290.404 56.5863 290.101 56.5863H282.621C282.318 56.5863 282.056 56.4759 281.836 56.2551C281.615 56.0343 281.505 55.7721 281.505 55.4684V44.1237L278.777 48.5953C278.337 49.2854 277.827 49.6304 277.248 49.6304H274.355C273.777 49.6304 273.267 49.2854 272.826 48.5953L270.099 44.1237V55.4684C270.099 55.7721 269.989 56.0343 269.768 56.2551C269.548 56.4759 269.286 56.5863 268.983 56.5863H261.503C261.2 56.5863 260.938 56.4759 260.718 56.2551C260.497 56.0343 260.387 55.7721 260.387 55.4684V28.7214C260.387 28.4178 260.497 28.1555 260.718 27.9347C260.938 27.7139 261.2 27.6035 261.503 27.6035H268.033C268.804 27.6035 269.396 27.9761 269.81 28.7214L275.802 38.6584L281.794 28.7214C282.208 27.9761 282.8 27.6035 283.571 27.6035Z" fill="url(#paint7_linear_249_7182)"/>
<path d="M306.507 48.5125H319.235C319.538 48.5125 319.8 48.6229 320.02 48.8438C320.241 49.0646 320.351 49.3268 320.351 49.6304V55.4684C320.351 55.7721 320.241 56.0343 320.02 56.2551C319.8 56.4759 319.538 56.5863 319.235 56.5863H297.704C297.401 56.5863 297.139 56.4759 296.919 56.2551C296.698 56.0343 296.588 55.7721 296.588 55.4684V28.7214C296.588 28.4178 296.698 28.1555 296.919 27.9347C297.139 27.7139 297.401 27.6035 297.704 27.6035H318.904C319.207 27.6035 319.469 27.7139 319.69 27.9347C319.91 28.1555 320.02 28.4178 320.02 28.7214V34.5594C320.02 34.863 319.91 35.1252 319.69 35.3461C319.469 35.5669 319.207 35.6773 318.904 35.6773H306.507V38.2857H317.995C318.298 38.2857 318.56 38.3961 318.78 38.617C319.001 38.8378 319.111 39.1 319.111 39.4036V44.7862C319.111 45.0898 319.001 45.352 318.78 45.5729C318.56 45.7937 318.298 45.9041 317.995 45.9041H306.507V48.5125Z" fill="url(#paint8_linear_249_7182)"/>
<path d="M324.579 36.7124C324.579 33.8969 325.736 31.6059 328.051 29.8393C330.392 28.0727 333.451 27.1895 337.225 27.1895C341.027 27.1895 344.127 28.1141 346.523 29.9635C348.948 31.8129 350.16 33.7451 350.16 35.7601C350.16 36.0085 350.064 36.2293 349.871 36.4226C349.706 36.5882 349.513 36.671 349.292 36.671H341.027C340.393 36.671 339.815 36.4364 339.291 35.9671C338.768 35.4979 338.065 35.2632 337.184 35.2632C335.861 35.2632 335.2 35.6497 335.2 36.4226C335.2 36.8366 335.517 37.1816 336.151 37.4577C336.812 37.7337 338.024 37.9821 339.787 38.2029C343.892 38.7274 346.813 39.6935 348.548 41.1012C350.312 42.4813 351.193 44.593 351.193 47.436C351.193 50.2515 349.898 52.5563 347.309 54.3505C344.746 56.1171 341.385 57.0004 337.225 57.0004C333.065 57.0004 329.8 56.1447 327.431 54.4333C325.061 52.722 323.877 50.6379 323.877 48.1813C323.877 47.9329 323.959 47.7259 324.124 47.5602C324.317 47.367 324.538 47.2704 324.786 47.2704H332.638C333.216 47.2704 333.85 47.5464 334.539 48.0985C335.255 48.6506 336.233 48.9266 337.473 48.9266C339.539 48.9266 340.572 48.5401 340.572 47.7673C340.572 47.2704 340.201 46.8978 339.457 46.6494C338.713 46.3733 337.308 46.0973 335.241 45.8213C328.133 44.8828 324.579 41.8465 324.579 36.7124Z" fill="url(#paint9_linear_249_7182)"/>
<g clip-path="url(#clip0_249_7182)">
<path d="M15.3829 34.4921C19.6872 37.2758 25.0777 37.419 29.5482 34.9238L24.0112 23.6452L36.5499 24.0565C36.9788 18.9475 34.6289 14.0849 30.3247 11.3013C23.9429 7.17413 15.3995 9.01811 11.2801 15.4118C7.16067 21.8055 9.00119 30.365 15.3829 34.4921ZM26.7576 15.5652C27.2181 15.8632 27.5416 16.3323 27.6569 16.8693C27.7721 17.4062 27.6698 17.9671 27.3723 18.4284C27.0748 18.8898 26.6066 19.2138 26.0707 19.3293C25.5347 19.4448 24.975 19.3423 24.5145 19.0443C24.054 18.7462 23.7305 18.2771 23.6153 17.7402C23.5 17.2032 23.6023 16.6424 23.8998 16.181C24.1973 15.7197 24.6655 15.3956 25.2014 15.2801C25.7374 15.1647 26.2972 15.2672 26.7576 15.5652Z" fill="url(#paint10_linear_249_7182)"/>
</g>
<defs>
<linearGradient id="paint0_linear_249_7182" x1="191.544" y1="17.9423" x2="191.544" y2="69.0073" gradientUnits="userSpaceOnUse">
<stop stop-color="#1070FC"/>
<stop offset="1" stop-color="#05CEC2"/>
</linearGradient>
<linearGradient id="paint1_linear_249_7182" x1="191.544" y1="17.9423" x2="191.544" y2="69.0073" gradientUnits="userSpaceOnUse">
<stop stop-color="#1070FC"/>
<stop offset="1" stop-color="#05CEC2"/>
</linearGradient>
<linearGradient id="paint2_linear_249_7182" x1="191.544" y1="17.9423" x2="191.544" y2="69.0073" gradientUnits="userSpaceOnUse">
<stop stop-color="#1070FC"/>
<stop offset="1" stop-color="#05CEC2"/>
</linearGradient>
<linearGradient id="paint3_linear_249_7182" x1="191.544" y1="17.9423" x2="191.544" y2="69.0073" gradientUnits="userSpaceOnUse">
<stop stop-color="#1070FC"/>
<stop offset="1" stop-color="#05CEC2"/>
</linearGradient>
<linearGradient id="paint4_linear_249_7182" x1="191.544" y1="17.9423" x2="191.544" y2="69.0073" gradientUnits="userSpaceOnUse">
<stop stop-color="#1070FC"/>
<stop offset="1" stop-color="#05CEC2"/>
</linearGradient>
<linearGradient id="paint5_linear_249_7182" x1="191.544" y1="17.9423" x2="191.544" y2="69.0073" gradientUnits="userSpaceOnUse">
<stop stop-color="#1070FC"/>
<stop offset="1" stop-color="#05CEC2"/>
</linearGradient>
<linearGradient id="paint6_linear_249_7182" x1="191.544" y1="17.9423" x2="191.544" y2="69.0073" gradientUnits="userSpaceOnUse">
<stop stop-color="#1070FC"/>
<stop offset="1" stop-color="#05CEC2"/>
</linearGradient>
<linearGradient id="paint7_linear_249_7182" x1="191.544" y1="17.9423" x2="191.544" y2="69.0073" gradientUnits="userSpaceOnUse">
<stop stop-color="#1070FC"/>
<stop offset="1" stop-color="#05CEC2"/>
</linearGradient>
<linearGradient id="paint8_linear_249_7182" x1="191.544" y1="17.9423" x2="191.544" y2="69.0073" gradientUnits="userSpaceOnUse">
<stop stop-color="#1070FC"/>
<stop offset="1" stop-color="#05CEC2"/>
</linearGradient>
<linearGradient id="paint9_linear_249_7182" x1="191.544" y1="17.9423" x2="191.544" y2="69.0073" gradientUnits="userSpaceOnUse">
<stop stop-color="#1070FC"/>
<stop offset="1" stop-color="#05CEC2"/>
</linearGradient>
<linearGradient id="paint10_linear_249_7182" x1="34.2327" y1="3.63762" x2="8.57029" y2="43.3188" gradientUnits="userSpaceOnUse">
<stop stop-color="#1070FC"/>
<stop offset="1" stop-color="#05CEC2"/>
</linearGradient>
<clipPath id="clip0_249_7182">
<rect width="33.0794" height="33.105" fill="white" transform="matrix(0.839701 0.543048 -0.541613 0.840628 17.9302 0)"/>
</clipPath>
</defs>
</svg>
